<svg width="144" height="40" viewBox="0 0 144 40" fill="none" xmlns="http://www.w3.org/2000/svg">
<path fill-rule="evenodd" clip-rule="evenodd" d="M8.67033 5.10381C8.03567 5.28745 7.54855 5.6606 7.14121 6.27521C6.75876 6.85232 6.77441 6.81017 4.16533 14.2954C3.19089 17.091 2.25218 19.777 2.07928 20.2643C1.09485 23.0392 0.462783 24.8886 0.462783 24.9941C0.462783 25.088 0.88262 25.114 2.39888 25.114H4.33489L4.63301 24.2047C4.79703 23.7045 5.09654 22.8227 5.29859 22.2451L5.66595 21.1948L9.37488 21.2192L13.0839 21.2436L13.6858 23.1788L14.2877 25.114H16.3532C17.68 25.114 18.4188 25.0804 18.4188 25.02C18.4188 24.7729 12.3717 6.75132 12.1779 6.4207C11.656 5.53068 10.8393 5.05093 9.76472 5.00337C9.39931 4.98714 8.92218 5.03098 8.67033 5.10381ZM53.4052 8.27571V10.8362L53.0581 10.8903C49.8653 11.3874 47.6743 13.2499 46.9129 16.1141C46.76 16.6892 46.7135 17.138 46.7102 18.0726C46.7048 19.5825 46.8736 20.3965 47.4258 21.5234C48.431 23.5748 50.3015 24.9304 52.6802 25.3316L53.3589 25.4461L53.3835 28.0248C53.4054 30.3214 53.4246 30.6067 53.5589 30.6334C53.6418 30.6498 54.4527 30.6509 55.3609 30.6358L57.012 30.6085L57.0365 28.0284L57.0612 25.4483L57.7553 25.3375C60.6014 24.8833 62.7744 22.9382 63.5124 20.1845C63.744 19.3199 63.7918 17.2566 63.5989 16.4405C62.8682 13.3475 60.7242 11.4258 57.4083 10.8917L57.0149 10.8283V8.2717V5.71516H55.21H53.4052V8.27571ZM84.4117 15.4201V25.125L89.0626 25.092C93.517 25.0604 93.7449 25.0503 94.454 24.8535C97.2629 24.0736 98.6831 22.1606 98.684 19.1556C98.6843 17.842 98.5123 17.0333 98.039 16.1249C97.444 14.9829 96.3896 14.0933 95.0868 13.6342C93.9836 13.2455 93.3129 13.1763 90.6492 13.1763H88.1101L88.1352 11.241L88.1602 9.30582L92.7186 9.28166L97.277 9.25741V7.48633V5.71516H90.8443H84.4117V15.4201ZM9.9068 11.241C10.1191 11.9207 10.637 13.568 11.0575 14.9016C11.478 16.2353 11.8514 17.4209 11.8872 17.5363L11.9523 17.7462H9.4007C7.99736 17.7462 6.84919 17.7162 6.84919 17.6793C6.84919 17.5146 9.40135 10.0068 9.45762 10.006C9.49233 10.0057 9.69447 10.5613 9.9068 11.241ZM69.834 10.7023C69.0437 10.8337 68.5805 10.982 67.9276 11.3123C66.5293 12.0198 65.4775 13.4302 65.2909 14.8479L65.2285 15.3213H67.0341H68.8396L68.9497 15.0538C69.2419 14.3428 70.0438 13.9224 71.1076 13.9224C72.5201 13.9224 73.1631 14.4365 73.3528 15.7177L73.4184 16.1607H71.1551C68.6715 16.1607 68.0077 16.258 67.0078 16.7686C65.5837 17.4958 64.7532 19.2072 64.9207 21.0697C65.0769 22.8063 65.9603 24.161 67.4031 24.8763C69.3997 25.8664 71.8445 25.5954 73.301 24.2227L73.7364 23.8123L74.2087 24.2709C74.8489 24.8927 75.5495 25.114 76.878 25.114H77.8401V23.4819C77.8401 21.9439 77.83 21.8498 77.6653 21.8498C77.5691 21.8498 77.3921 21.7697 77.2719 21.6717L77.0534 21.4936L76.996 18.2909C76.9327 14.7631 76.8804 14.3695 76.3363 13.3248C75.9261 12.5374 74.9891 11.6214 74.194 11.2304C73.014 10.6502 71.3547 10.4491 69.834 10.7023ZM105.154 10.6667C103.801 10.8765 102.729 11.404 101.835 12.3005C101.144 12.9923 100.627 13.9943 100.544 14.7987L100.491 15.3213H102.248H104.006L104.285 14.8696C104.673 14.2406 105.214 13.9822 106.239 13.9367C107.722 13.8711 108.449 14.4584 108.587 15.8343L108.615 16.1141L106.162 16.1693C104.368 16.2097 103.586 16.2625 103.247 16.366C101.204 16.9907 100.146 18.4319 100.146 20.5907C100.146 22.0041 100.588 23.14 101.488 24.0415C102.683 25.2375 104.497 25.7295 106.301 25.3462C107.173 25.1609 108.023 24.7247 108.54 24.1971L108.966 23.7617L109.438 24.2411C110.074 24.8861 110.78 25.114 112.142 25.114H113.104V23.4819C113.104 22.1168 113.082 21.8498 112.97 21.8498C112.684 21.8498 112.369 21.6256 112.276 21.3567C112.216 21.1841 112.179 19.969 112.179 18.2047C112.179 14.5106 112.07 13.9346 111.128 12.6451C110.483 11.7622 109.495 11.1301 108.245 10.8002C107.547 10.6159 105.932 10.5461 105.154 10.6667ZM21.2492 11.2702C21.1318 11.3885 21.103 11.6421 21.1034 12.5534C21.1041 14.5376 20.9203 19.3523 20.8165 20.0623C20.6364 21.2965 20.3628 21.6582 19.5374 21.7539L19.1129 21.8032L19.0877 23.4586L19.0624 25.114L19.7819 25.1124C22.2874 25.1068 23.567 24.0397 24.0301 21.57C24.1022 21.1853 24.2029 19.9052 24.2537 18.7255C24.3046 17.5457 24.3704 16.1073 24.3999 15.529L24.4535 14.4778L26.0871 14.5031L27.7207 14.5286L27.7446 19.8213L27.7686 25.114H29.527H31.2853L31.2616 18.1426L31.2379 11.1711L26.3166 11.1469C21.934 11.1255 21.3794 11.1389 21.2492 11.2702ZM34.2691 11.1902C34.1779 11.2242 34.1534 12.7065 34.1534 18.1736V25.114L37.6474 25.1124C41.4892 25.1107 41.9407 25.0641 43.0084 24.5607C44.5027 23.8561 45.5336 22.1226 45.5358 20.3109C45.5382 18.2933 44.7042 16.77 43.1846 16.0166C42.2078 15.5323 41.5065 15.418 39.4985 15.4162L37.7631 15.4146V13.416C37.7631 11.7058 37.7417 11.396 37.6146 11.2679C37.4888 11.1412 37.2292 11.1204 35.9254 11.1327C35.078 11.1407 34.3328 11.1665 34.2691 11.1902ZM115.112 11.2597C114.998 11.375 114.975 12.3821 114.962 18.0935C114.952 21.7778 114.973 24.8646 115.006 24.9532C115.062 25.0976 115.246 25.114 116.816 25.114H118.565V22.4094V19.7047H120.972H123.378V22.4094V25.114H125.183H126.988V18.1721C126.988 11.2464 126.987 11.2301 126.797 11.1693C126.588 11.1026 124.281 11.1225 123.725 11.1958L123.378 11.2416V13.7944V16.3472H120.972H118.565V13.7925C118.565 11.5489 118.547 11.2308 118.419 11.1811C118.338 11.1499 117.591 11.1245 116.759 11.1245C115.561 11.1245 115.218 11.1526 115.112 11.2597ZM129.788 11.1871C129.696 11.2234 129.672 12.7082 129.672 18.1736V25.114H131.475H133.279L133.303 22.2523L133.328 19.3906L134.245 20.4104C135.907 22.2582 136.571 23.003 137.5 24.0605L138.418 25.1055L140.709 25.1097C141.969 25.1121 143 25.0904 143 25.0616C143 25.0327 141.594 23.4155 139.876 21.4677C138.158 19.52 136.74 17.8914 136.726 17.8486C136.711 17.8058 138.014 16.3106 139.622 14.5257C141.712 12.2059 142.511 11.2588 142.426 11.204C142.22 11.0725 138.244 11.1065 138.081 11.241C138.003 11.3052 137.106 12.3019 136.089 13.4561C135.071 14.6102 134.025 15.7853 133.764 16.0674L133.289 16.5804L133.285 13.8991L133.282 11.2177L132.564 11.2078C132.17 11.2023 131.41 11.1851 130.875 11.1694C130.341 11.1537 129.851 11.1617 129.788 11.1871ZM53.4052 18.156V22.0165L53.0277 21.931C51.641 21.6171 50.5642 20.3911 50.3757 18.9113C50.2748 18.1189 50.3805 17.0438 50.6209 16.4175C50.9753 15.4942 51.8501 14.696 52.8498 14.3837C53.4493 14.1965 53.4052 13.8964 53.4052 18.156ZM58.1904 14.6372C58.7409 14.9061 59.4025 15.575 59.7009 16.1643C59.8132 16.3861 59.9636 16.9058 60.0352 17.3192C60.4201 19.5407 59.2959 21.5001 57.3889 21.9318L57.0149 22.0165V18.1455V14.2746L57.362 14.3384C57.5529 14.3735 57.9256 14.508 58.1904 14.6372ZM93.0057 16.7261C93.6629 16.868 94.252 17.2781 94.5616 17.8089C94.7977 18.2135 94.8243 18.3442 94.8239 19.0985C94.8235 20.0284 94.7264 20.2992 94.2119 20.8061C94.0459 20.9697 93.6784 21.1959 93.3954 21.3089C92.9221 21.4977 92.6882 21.5172 90.4972 21.5503L88.1139 21.5862V19.1066V16.627H90.3307C91.55 16.627 92.7537 16.6716 93.0057 16.7261ZM41.0701 18.7687C41.628 19.0239 41.8349 19.4103 41.8352 20.1981C41.8357 20.991 41.6237 21.4477 41.1278 21.7223C40.8235 21.8908 40.5678 21.9267 39.3828 21.9666C38.6193 21.9922 37.9425 21.994 37.8788 21.9704C37.7922 21.9383 37.7631 21.5083 37.7631 20.2566V18.5856L39.2209 18.5876C40.4579 18.5894 40.738 18.6168 41.0701 18.7687ZM73.3974 19.6411C73.3974 20.8429 72.9288 21.6996 72.0263 22.1474C71.6639 22.3273 71.4555 22.3611 70.7595 22.3527C69.8335 22.3416 69.4264 22.2085 69.03 21.7875C68.4221 21.1418 68.423 20.0409 69.0316 19.4858C69.42 19.1317 69.8572 19.0603 71.662 19.056L73.3974 19.0519V19.6411ZM108.599 19.8164C108.559 21.5085 107.67 22.3664 105.964 22.3563C104.967 22.3504 104.382 22.093 104.058 21.5179C103.813 21.0813 103.774 20.2131 103.983 19.8072C104.303 19.1839 104.79 19.063 106.903 19.0826L108.615 19.0985L108.599 19.8164ZM0 32.9948V35H9.44078H18.8816V32.9948V30.9897H9.44078H0V32.9948Z" fill="#918678"/>
</svg>
