<svg width="125" height="40" viewBox="0 0 125 40" fill="none" xmlns="http://www.w3.org/2000/svg">
<g clip-path="url(#clip0_10307_71304)">
<path d="M125 0H0V40H125V0Z" fill="#211C17"/>
<path d="M29.8082 19.2773C29.8188 18.4751 30.0369 17.6884 30.4423 16.9906C30.8476 16.2929 31.4271 15.7066 32.1267 15.2864C31.6823 14.6663 31.0959 14.156 30.4143 13.796C29.7327 13.436 28.9745 13.2362 28.2 13.2126C26.5479 13.0431 24.9463 14.1783 24.1044 14.1783C23.2462 14.1783 21.95 13.2294 20.5542 13.2574C19.6513 13.2859 18.7714 13.5424 18.0002 14.0019C17.229 14.4614 16.5928 15.1083 16.1535 15.8794C14.2508 19.0978 15.6701 23.8278 17.4927 26.4294C18.4047 27.7032 19.4705 29.1262 20.865 29.0757C22.2296 29.0205 22.7393 28.2256 24.3865 28.2256C26.0185 28.2256 26.4967 29.0757 27.9195 29.0437C29.3839 29.0205 30.3065 27.7641 31.1864 26.4782C31.8416 25.5705 32.3458 24.5672 32.6803 23.5057C31.8295 23.1542 31.1036 22.5657 30.5928 21.8138C30.0821 21.0619 29.8092 20.1797 29.8082 19.2773Z" fill="#FAF8F5"/>
<path d="M27.1238 11.5035C27.9222 10.5672 28.3156 9.36362 28.2203 8.14844C27.0005 8.27362 25.8738 8.84318 25.0645 9.74362C24.6689 10.1835 24.3659 10.6953 24.1728 11.2497C23.9797 11.8041 23.9004 12.3901 23.9393 12.9745C24.5494 12.9807 25.153 12.8515 25.7046 12.5967C26.2562 12.3418 26.7415 11.9681 27.1238 11.5035Z" fill="#FAF8F5"/>
<path d="M46.1849 25.985H41.7066L40.6312 29.0874H38.7344L42.9761 17.6094H44.9469L49.1885 29.0874H47.2595L46.1849 25.985ZM42.1705 24.5534H45.7202L43.9703 19.5185H43.9213L42.1705 24.5534Z" fill="#FAF8F5"/>
<path d="M58.3499 24.8987C58.3499 27.4992 56.9252 29.17 54.7752 29.17C54.2306 29.1978 53.689 29.0753 53.2124 28.8163C52.7357 28.5574 52.3433 28.1726 52.0801 27.7059H52.0395V31.8508H50.2812V20.7141H51.9831V22.106H52.0155C52.2907 21.6415 52.6897 21.2587 53.17 20.9982C53.6502 20.7377 54.1938 20.6092 54.7429 20.6265C56.9169 20.6265 58.3499 22.3054 58.3499 24.8987ZM56.5427 24.8987C56.5427 23.2045 55.6465 22.0906 54.2791 22.0906C52.9357 22.0906 52.0321 23.228 52.0321 24.8987C52.0321 26.5848 52.9357 27.714 54.2791 27.714C55.6465 27.714 56.5427 26.6083 56.5427 24.8987Z" fill="#FAF8F5"/>
<path d="M67.7722 24.8987C67.7722 27.4992 66.3471 29.17 64.1971 29.17C63.6525 29.1978 63.1109 29.0753 62.6342 28.8163C62.1576 28.5574 61.7652 28.1726 61.502 27.7059H61.4613V31.8508H59.7031V20.7141H61.405V22.106H61.4373C61.7126 21.6415 62.1116 21.2587 62.5919 20.9982C63.0721 20.7377 63.6157 20.6092 64.1647 20.6265C66.3388 20.6265 67.7722 22.3054 67.7722 24.8987ZM65.9646 24.8987C65.9646 23.2045 65.0684 22.0906 63.701 22.0906C62.3576 22.0906 61.454 23.228 61.454 24.8987C61.454 26.5848 62.3576 27.714 63.701 27.714C65.0684 27.714 65.9646 26.6083 65.9646 24.8987Z" fill="#FAF8F5"/>
<path d="M74.003 25.8853C74.1332 27.0235 75.2647 27.7709 76.8116 27.7709C78.2938 27.7709 79.36 27.0235 79.36 25.9972C79.36 25.1063 78.7171 24.5729 77.194 24.2073L75.6717 23.849C73.5142 23.3398 72.5126 22.3541 72.5126 20.7547C72.5126 18.7743 74.2792 17.4141 76.7871 17.4141C79.2699 17.4141 80.9723 18.7743 81.0296 20.7547H79.2543C79.1479 19.6092 78.1792 18.9178 76.7625 18.9178C75.3466 18.9178 74.3772 19.6174 74.3772 20.6355C74.3772 21.447 74.9961 21.9245 76.5103 22.2901L77.8049 22.6006C80.2156 23.1575 81.2156 24.1035 81.2156 25.7824C81.2156 27.9298 79.4664 29.2747 76.6814 29.2747C74.0759 29.2747 72.3167 27.9613 72.2031 25.8852L74.003 25.8853Z" fill="#FAF8F5"/>
<path d="M85.0119 18.7344V20.7148H86.6406V22.075H85.0119V26.6884C85.0119 27.4051 85.3378 27.7391 86.0536 27.7391C86.247 27.7359 86.4405 27.7226 86.6324 27.6994V29.0516C86.3103 29.1103 85.9829 29.1369 85.6555 29.131C83.9211 29.131 83.2455 28.4946 83.2455 26.8716V22.075H82V20.7148H83.2448V18.7344H85.0119Z" fill="#FAF8F5"/>
<path d="M87.5859 24.8969C87.5859 22.2639 89.173 20.6094 91.6484 20.6094C94.1313 20.6094 95.7117 22.2638 95.7117 24.8969C95.7117 27.5371 94.1403 29.1844 91.6484 29.1844C89.1574 29.1844 87.5859 27.5371 87.5859 24.8969ZM93.92 24.8969C93.92 23.0907 93.0725 22.0247 91.6484 22.0247C90.2236 22.0247 89.3761 23.0989 89.3761 24.8969C89.3761 26.7103 90.2236 27.7682 91.6484 27.7682C93.0725 27.7682 93.92 26.7103 93.92 24.8969Z" fill="#FAF8F5"/>
<path d="M97.1641 20.7141H98.8411V22.1384H98.8821C98.9952 21.6936 99.2623 21.3004 99.6373 21.025C100.012 20.7497 100.474 20.609 100.942 20.6265C101.145 20.6258 101.347 20.6473 101.544 20.6906V22.2973C101.289 22.2209 101.022 22.1859 100.755 22.1935C100.499 22.1833 100.244 22.2273 100.008 22.3225C99.772 22.4176 99.5592 22.5615 99.385 22.7444C99.2109 22.9273 99.08 23.1448 98.9996 23.3821C98.92 23.6193 98.8932 23.8707 98.9223 24.1187V29.0824H97.1641V20.7141Z" fill="#FAF8F5"/>
<path d="M109.648 26.6227C109.412 28.1419 107.897 29.1844 105.96 29.1844C103.468 29.1844 101.922 27.5533 101.922 24.9366C101.922 22.3117 103.477 20.6094 105.886 20.6094C108.256 20.6094 109.746 22.1998 109.746 24.7371V25.3256H103.696V25.4294C103.669 25.7374 103.708 26.0477 103.813 26.3396C103.917 26.6315 104.083 26.8985 104.301 27.1226C104.519 27.3469 104.783 27.5232 105.077 27.6399C105.369 27.7566 105.685 27.8112 106.001 27.7997C106.416 27.8378 106.833 27.7437 107.19 27.5317C107.546 27.3197 107.823 27.0009 107.979 26.6227H109.648ZM103.705 24.1252H107.987C108.003 23.8482 107.96 23.5711 107.861 23.3112C107.762 23.0512 107.609 22.8141 107.411 22.6147C107.214 22.4152 106.977 22.2578 106.714 22.1523C106.452 22.0467 106.17 21.9952 105.886 22.0012C105.6 21.9995 105.316 22.0533 105.051 22.1594C104.786 22.2654 104.545 22.4217 104.342 22.6192C104.14 22.8166 103.979 23.0514 103.87 23.3098C103.76 23.5683 103.704 23.8454 103.705 24.1252Z" fill="#FAF8F5"/>
<path d="M40.9164 12.6675H41.6712C41.8011 12.6833 41.933 12.6726 42.0586 12.6361C42.184 12.5997 42.3004 12.5382 42.4004 12.4556C42.5004 12.373 42.5818 12.2711 42.6395 12.1562C42.6972 12.0414 42.7299 11.9161 42.7356 11.7883C42.7356 11.2797 42.3438 10.9511 41.6795 10.9511C41.5464 10.933 41.4109 10.941 41.281 10.9748C41.1511 11.0087 41.0295 11.0676 40.9233 11.1481C40.8171 11.2287 40.7285 11.3291 40.6627 11.4436C40.597 11.5582 40.5553 11.6844 40.5403 11.815H39.7115C39.7257 11.5781 39.7898 11.3465 39.8996 11.1349C40.0094 10.9232 40.1626 10.7358 40.3498 10.5846C40.5369 10.4333 40.7539 10.3212 40.9873 10.2553C41.2207 10.1895 41.4654 10.1713 41.7063 10.2019C42.8177 10.2019 43.6004 10.8098 43.6004 11.685C43.603 11.9781 43.5025 12.2633 43.3159 12.4929C43.1292 12.7224 42.8676 12.8825 42.5748 12.9464V13.0114C42.922 13.0264 43.249 13.1752 43.4843 13.425C43.7196 13.675 43.844 14.0057 43.8304 14.345C43.8047 14.589 43.7294 14.8254 43.609 15.0405C43.4885 15.2556 43.3254 15.4451 43.1289 15.5978C42.9326 15.7505 42.707 15.8634 42.4654 15.9298C42.2238 15.9963 41.9711 16.0149 41.722 15.9847C41.4724 16.0179 41.2185 16.0017 40.9754 15.937C40.7324 15.8724 40.5052 15.7606 40.3073 15.6083C40.1095 15.456 39.945 15.2664 39.8237 15.0506C39.7025 14.8349 39.6269 14.5975 39.6016 14.3527H40.4433C40.4941 14.8803 40.9903 15.2206 41.722 15.2206C42.4537 15.2206 42.9314 14.8384 42.9314 14.2995C42.9314 13.753 42.4815 13.4162 41.6952 13.4162H40.9164V12.6675Z" fill="#FAF8F5"/>
<path d="M44.7891 14.6747C44.7891 13.9255 45.3609 13.4936 46.3736 13.4322L47.5276 13.3672V13.008C47.5276 12.5684 47.231 12.3202 46.6554 12.3202C46.186 12.3202 45.8618 12.4885 45.7675 12.7828H44.9535C45.0394 12.0679 45.7287 11.6094 46.6951 11.6094C47.7632 11.6094 48.3655 12.1288 48.3655 13.008V15.8517H47.5553V15.2669H47.4888C47.3537 15.4766 47.1641 15.6477 46.9394 15.7625C46.7145 15.8773 46.4626 15.9317 46.2092 15.9203C46.0303 15.9385 45.8496 15.9198 45.6785 15.8656C45.5075 15.8114 45.35 15.7227 45.2162 15.6053C45.0824 15.488 44.9753 15.3445 44.9017 15.1843C44.8281 15.024 44.7897 14.8503 44.7891 14.6747ZM47.5276 14.3191V13.9711L46.4872 14.0361C45.9005 14.0744 45.6344 14.2694 45.6344 14.6363C45.6344 15.0109 45.967 15.2289 46.4244 15.2289C46.5584 15.2422 46.6938 15.2289 46.8225 15.19C46.9511 15.1512 47.0705 15.0874 47.1734 15.0025C47.2763 14.9176 47.3607 14.8133 47.4216 14.6959C47.4824 14.5785 47.5185 14.4503 47.5276 14.3191Z" fill="#FAF8F5"/>
<path d="M50.5986 12.3789V15.8495H49.7578V11.6875H52.5629V12.3788L50.5986 12.3789Z" fill="#FAF8F5"/>
<path d="M57.6581 13.7659C57.6581 15.0882 56.9734 15.9173 55.898 15.9173C55.634 15.9349 55.3704 15.8784 55.1381 15.7546C54.9058 15.6307 54.7146 15.4447 54.587 15.2182H54.5205V17.2324H53.6797V11.6866H54.4891V12.3744H54.5519C54.6818 12.1401 54.8755 11.9454 55.1116 11.8119C55.3477 11.6782 55.617 11.611 55.8897 11.6176C56.9734 11.6176 57.6581 12.443 57.6581 13.7659ZM56.7933 13.7659C56.7933 12.8867 56.3673 12.3555 55.6551 12.3555C54.9473 12.3555 54.5048 12.8979 54.5048 13.7695C54.5048 14.6369 54.9473 15.1799 55.6513 15.1799C56.3673 15.1799 56.7933 14.6486 56.7933 13.7659Z" fill="#FAF8F5"/>
<path d="M58.7781 17.3402V16.6331C58.869 16.6443 58.9606 16.6494 59.0524 16.6484C59.2315 16.6614 59.4092 16.6092 59.5514 16.502C59.6937 16.3948 59.7903 16.2401 59.8229 16.0675L59.8858 15.8649L58.3438 11.6875H59.2594L60.3275 14.9934H60.394L61.4583 11.6875H62.3499L60.7617 16.0215C60.3977 17.0342 59.9949 17.3592 59.1263 17.3592C59.0561 17.3592 58.8565 17.3515 58.7781 17.3402Z" fill="#FAF8F5"/>
<path d="M63.0078 14.6687H63.8449C63.9272 15.0356 64.2792 15.227 64.7716 15.227C65.3316 15.227 65.6752 14.986 65.6752 14.6114C65.6752 14.2101 65.3666 14.0188 64.7716 14.0188H64.1341V13.3807H64.7605C65.2687 13.3807 65.5274 13.1897 65.5274 12.8418C65.5274 12.5362 65.277 12.3029 64.7605 12.3029C64.2903 12.3029 63.9466 12.4978 63.892 12.8264H63.0818C63.1423 12.4489 63.3522 12.1096 63.6661 11.8817C63.9801 11.6537 64.373 11.5553 64.7605 11.6074C65.7731 11.6074 66.3525 12.0547 66.3525 12.7578C66.3571 12.9536 66.2929 13.1451 66.1705 13.3002C66.0481 13.4553 65.8749 13.5647 65.6798 13.6099V13.6749C65.9121 13.7041 66.1252 13.8157 66.2788 13.9884C66.4324 14.161 66.5159 14.3827 66.5132 14.6114C66.5132 15.4026 65.824 15.9261 64.7716 15.9261C63.8412 15.9261 63.0855 15.5095 63.0078 14.6687Z" fill="#FAF8F5"/>
<path d="M67.7188 15.8495V11.6875H68.5521V14.5502H68.6186L70.5819 11.6875H71.4153V15.8496H70.5819V12.9715H70.5191L68.5521 15.8496L67.7188 15.8495Z" fill="#FAF8F5"/>
<path d="M76.0093 12.3867H74.6678V15.8574H73.8259V12.3867H72.4844V11.6953H76.0093V12.3867Z" fill="#FAF8F5"/>
<path d="M80.5361 14.728C80.4215 15.1084 80.1738 15.4374 79.836 15.6574C79.4989 15.8775 79.0927 15.9748 78.6894 15.9322C78.4082 15.9394 78.1299 15.8869 77.8717 15.7783C77.6143 15.6696 77.3836 15.5074 77.1961 15.3031C77.0086 15.0986 76.8695 14.8569 76.7876 14.5946C76.7058 14.3323 76.6827 14.0556 76.7214 13.7839C76.6842 13.5113 76.7065 13.2341 76.7884 12.9709C76.8702 12.7078 77.0093 12.4649 77.1954 12.2588C77.3814 12.0526 77.6113 11.8879 77.868 11.7759C78.1254 11.6638 78.4037 11.6071 78.6857 11.6094C79.8709 11.6094 80.5867 12.4006 80.5867 13.7076V13.9942H77.5785V14.0403C77.5651 14.193 77.5845 14.3468 77.6358 14.4917C77.6872 14.6367 77.769 14.7696 77.8754 14.8819C77.9826 14.9942 78.112 15.0834 78.2564 15.1438C78.4007 15.2042 78.5562 15.2344 78.7132 15.2326C78.9141 15.256 79.118 15.2206 79.298 15.1308C79.4781 15.0409 79.6269 14.9007 79.7259 14.728H80.5361ZM77.5785 13.3867H79.7296C79.74 13.2471 79.7207 13.1069 79.6723 12.975C79.6247 12.8432 79.5488 12.7226 79.4498 12.621C79.3516 12.5195 79.2318 12.4392 79.0994 12.3854C78.9677 12.3316 78.8248 12.3054 78.682 12.3085C78.5361 12.3066 78.3918 12.3332 78.2571 12.3866C78.1224 12.4402 77.9997 12.5195 77.897 12.62C77.7943 12.7206 77.7132 12.8402 77.6582 12.9719C77.6038 13.1035 77.5763 13.2446 77.5785 13.3867Z" fill="#FAF8F5"/>
<path d="M84.1016 11.6875H86.022C86.8553 11.6875 87.3441 12.0999 87.3441 12.7458C87.3456 12.9507 87.2749 13.1499 87.144 13.3099C87.013 13.4699 86.8292 13.5811 86.6246 13.625V13.6899C86.8731 13.7053 87.1068 13.8134 87.2764 13.992C87.4461 14.1705 87.5383 14.4059 87.5353 14.6494C87.5353 15.3756 86.9766 15.8495 86.0413 15.8495H84.1016V11.6875ZM84.9349 12.3179V13.3957H85.7682C86.2764 13.3957 86.519 13.2048 86.519 12.8528C86.519 12.5282 86.3077 12.3179 85.8612 12.3179H84.9349ZM84.9349 13.9996V15.2191H85.9319C86.4289 15.2191 86.6946 15.0047 86.6946 14.6111C86.6946 14.1945 86.394 13.9996 85.8263 13.9996H84.9349Z" fill="#FAF8F5"/>
</g>
<defs>
<clipPath id="clip0_10307_71304">
<rect width="125" height="40" rx="12" fill="white"/>
</clipPath>
</defs>
</svg>
