<svg width="2048" height="8" fill="none" xmlns="http://www.w3.org/2000/svg"><path fill-rule="evenodd" clip-rule="evenodd" d="M0 4.85645V1.7129L2.04777 1.5358C5.03353 1.27753 11.0437 1.33867 13.3397 1.65049C14.4338 1.79892 16.2644 2.1974 17.4076 2.53558C19.9972 3.30196 21.4437 3.32199 29.2955 2.69982C32.8911 2.41498 37.0131 2.2402 40.4873 2.22544C45.258 2.2052 46.4213 2.26782 49.2634 2.69834L52.5398 3.19465L55.0086 2.44513C59.4823 1.08714 63.25 0.983622 66.8751 2.1196C70.0919 3.1276 79.2546 4.34918 85.1871 4.56086C88.4464 4.67703 88.636 4.6608 89.9847 4.14826C92.6302 3.14257 93.2253 3.06836 98.8778 3.03968L104.261 3.01228L106.891 2.24716C111.803 0.818538 116.098 0.274373 120.76 0.490057C124.275 0.652822 126.155 0.972237 129.442 1.96569C131.38 2.55139 132.686 2.78542 135.41 3.03526C142.148 3.65343 169.77 5.04557 186.054 5.58805C190.817 5.7466 192.324 5.6007 202.319 4.01438C212.125 2.45799 216.096 2.03822 221.042 2.03442C224.701 2.03168 225.638 2.104 228.18 2.58555C234.26 3.73755 244.198 3.89652 249.242 2.92225C252.911 2.21384 258.33 2.2246 261.412 2.94628C264.454 3.6587 267.883 3.61063 275.805 2.74473C290.35 1.15461 300.417 0.605594 307.811 0.999223C313.754 1.31569 317.38 1.81937 323.315 3.1529C325.89 3.73143 328.177 4.20497 328.396 4.20497C328.614 4.20497 330.351 3.73544 332.255 3.16176C340.296 0.73821 347.302 0.314431 360.276 1.46643C362.972 1.70573 365.499 1.84552 365.893 1.77699C366.287 1.70847 367.451 1.30156 368.481 0.872933L370.353 0.0936871L374.05 0.0264306C377.647 -0.0391388 377.8 -0.024169 379.783 0.593999C380.904 0.943352 382.558 1.34668 383.459 1.49047C385.609 1.83371 408.131 1.79576 412.471 1.44156C417.602 1.02284 423.215 1.48309 426.808 2.61675C428.956 3.29458 430.715 3.30723 438.381 2.69982C441.976 2.41498 446.098 2.2402 449.572 2.22544C454.343 2.2052 455.506 2.26782 458.349 2.69834L461.625 3.19465L464.094 2.44513C468.567 1.08714 472.335 0.983622 475.96 2.1196C479.177 3.1276 488.34 4.34918 494.272 4.56086C497.532 4.67703 497.721 4.6608 499.07 4.14826C501.715 3.14257 502.31 3.06836 507.963 3.03968L513.346 3.01228L515.976 2.24716C520.888 0.818538 525.183 0.274373 529.845 0.490057C533.36 0.652822 535.24 0.972237 538.527 1.96569C540.465 2.55139 541.771 2.78542 544.495 3.03526C551.233 3.65343 578.855 5.04557 595.139 5.58805C599.902 5.7466 601.409 5.6007 611.404 4.01438C621.21 2.45799 625.181 2.03822 630.127 2.03442C633.786 2.03168 634.723 2.104 637.265 2.58555C643.345 3.73755 653.283 3.89652 658.328 2.92225C661.996 2.21384 667.415 2.2246 670.497 2.94628C673.539 3.6587 676.968 3.61063 684.89 2.74473C699.435 1.15461 709.502 0.605594 716.896 0.999223C722.839 1.31569 726.465 1.81937 732.4 3.1529C734.976 3.73143 737.262 4.20497 737.481 4.20497C737.7 4.20497 739.436 3.73544 741.34 3.16176C749.381 0.73821 756.387 0.314431 769.361 1.46643C772.057 1.70573 774.584 1.84552 774.978 1.77699C775.372 1.70847 776.536 1.30156 777.566 0.872933L779.438 0.0936871L783.135 0.0264306C786.732 -0.0391388 786.886 -0.024169 788.868 0.593999C792.792 1.81705 796.363 1.9931 810.096 1.64037C826.77 1.21196 828.573 1.28195 833.084 2.53305C835.845 3.29859 837.133 3.3163 844.891 2.69497C852.66 2.07258 861.435 2.03084 864.274 2.60241C867.137 3.17863 868.752 3.14721 870.593 2.47886C871.43 2.17505 872.746 1.80398 873.518 1.65408C875.564 1.25665 879.532 1.31716 881.241 1.7713C886.207 3.09134 889.528 3.63825 896.622 4.30343C901.758 4.78519 904.009 4.73965 905.646 4.12064C908.198 3.15585 908.859 3.07511 914.474 3.04179L919.856 3.00996L922.497 2.24336C930.177 0.0133591 938.058 -0.155942 944.43 1.77236C947.263 2.62982 948.534 2.85879 952.036 3.14236C959.223 3.72448 986.057 5.05021 1001.53 5.58784C1006.61 5.76431 1008.29 5.58594 1021.32 3.48391C1031.2 1.88831 1038.49 1.59778 1043.81 2.5866C1050.06 3.74577 1059.74 3.89504 1064.96 2.91234C1068.81 2.18538 1074.02 2.22396 1077.63 3.00595C1080.86 3.70508 1081.91 3.70845 1088.36 3.03926C1116.73 0.0987473 1125.61 0.121306 1139.03 3.16787C1141.54 3.73776 1143.78 4.20434 1144.01 4.20455C1144.24 4.20476 1145.87 3.7677 1147.63 3.23344C1155.78 0.756341 1162.87 0.312323 1175.87 1.46643C1178.57 1.70573 1181.1 1.84552 1181.49 1.77699C1181.88 1.70847 1183.05 1.30156 1184.08 0.872933L1185.95 0.0936871L1189.66 0.0262198C1193.27 -0.0395603 1193.41 -0.0252237 1195.43 0.599902C1196.57 0.952418 1198.22 1.35596 1199.1 1.49658C1201.21 1.83455 1224.36 1.78901 1228.19 1.43945C1232.88 1.01124 1238.19 1.42869 1242.2 2.54254C1244.93 3.29754 1246.24 3.3144 1253.98 2.69497C1261.75 2.07258 1270.52 2.03084 1273.36 2.60241C1276.22 3.17863 1277.84 3.14721 1279.68 2.47886C1280.51 2.17505 1281.83 1.80398 1282.6 1.65408C1284.65 1.25665 1288.62 1.31716 1290.33 1.7713C1295.29 3.09134 1298.61 3.63825 1305.71 4.30343C1310.84 4.78519 1313.09 4.73965 1314.73 4.12064C1317.28 3.15585 1317.94 3.07511 1323.56 3.04179L1328.94 3.00996L1331.58 2.24336C1339.26 0.0133591 1347.14 -0.155942 1353.51 1.77236C1356.35 2.62982 1357.62 2.85879 1361.12 3.14236C1368.31 3.72448 1395.14 5.05021 1410.62 5.58784C1415.7 5.76431 1417.38 5.58594 1430.4 3.48391C1440.29 1.88831 1447.57 1.59778 1452.9 2.5866C1459.14 3.74577 1468.83 3.89504 1474.04 2.91234C1477.9 2.18538 1483.11 2.22396 1486.72 3.00595C1489.95 3.70508 1490.99 3.70845 1497.45 3.03926C1525.82 0.0987473 1534.69 0.121306 1548.11 3.16787C1550.62 3.73776 1552.86 4.20434 1553.1 4.20455C1553.33 4.20476 1554.96 3.7677 1556.72 3.23344C1564.86 0.756341 1571.96 0.312323 1584.96 1.46643C1587.65 1.70573 1590.18 1.84552 1590.57 1.77699C1590.97 1.70847 1592.13 1.30156 1593.16 0.872933L1595.03 0.0936871L1598.74 0.0262198C1602.35 -0.0395603 1602.5 -0.0252237 1604.52 0.599902C1608.48 1.82717 1611.71 1.98171 1626.16 1.63742C1643.89 1.21512 1645.71 1.28997 1650.26 2.62792C1652.51 3.29121 1654.29 3.30217 1661.89 2.69982C1665.49 2.41498 1669.61 2.2402 1673.08 2.22544C1677.85 2.2052 1679.02 2.26782 1681.86 2.69834L1685.14 3.19465L1687.66 2.42974C1692.33 1.01166 1695.6 0.97561 1700.11 2.29185C1703.87 3.38651 1715.46 4.74302 1719.59 4.5714C1721.21 4.50436 1722.09 4.33231 1723.75 3.7658L1725.86 3.04538L1730.68 3.09513C1734.89 3.13857 1735.73 3.09092 1737.24 2.72343C1745.78 0.637431 1748.48 0.260668 1753.33 0.48331C1756.7 0.637641 1758.39 0.926907 1761.95 1.95894C1765.6 3.01502 1767.52 3.19317 1784.95 4.09091C1798.23 4.77528 1807.36 5.18894 1815.75 5.48811C1823.59 5.76747 1823.96 5.73901 1835.08 3.98317C1849.48 1.70847 1855.07 1.44324 1861.48 2.72934C1866.47 3.73186 1877.08 3.82968 1881.84 2.9174C1885.62 2.19318 1890.87 2.22776 1894.4 3.00047C1895.84 3.31588 1897.69 3.57246 1898.51 3.57246C1899.33 3.57246 1903.26 3.2385 1907.24 2.83054C1934.23 0.0667005 1942.97 0.165793 1956.96 3.39389C1959.43 3.96272 1960.84 4.18958 1961.36 4.10145C1961.78 4.03019 1963.52 3.55497 1965.22 3.04517C1971.13 1.27479 1976.09 0.695199 1983.52 0.90751C1986.1 0.980881 1989.73 1.19066 1991.6 1.37324C1993.47 1.55583 1995.89 1.72218 1996.99 1.74284C1998.88 1.77826 1999.1 1.73335 2000.97 0.937027L2002.95 0.0936871L2006.61 0.0268521C2010.17 -0.0382957 2010.33 -0.0216398 2012.34 0.596528C2015.96 1.70889 2016.47 1.74178 2030.33 1.77214C2044.5 1.80314 2044.11 1.77067 2046.77 3.15311L2048 3.79173V5.89587V8H1024H0V4.85645Z" fill="#211C17"/></svg>