<svg width="1440" height="821" viewBox="0 0 1440 821" fill="none" xmlns="http://www.w3.org/2000/svg">
<mask id="mask0_11877_106265" style="mask-type:alpha" maskUnits="userSpaceOnUse" x="0" y="0" width="1440" height="821">
<rect x="1440" y="821" width="1440" height="821" transform="rotate(-180 1440 821)" fill="#D9D9D9"/>
</mask>
<g mask="url(#mask0_11877_106265)">
<path opacity="0.4" fill-rule="evenodd" clip-rule="evenodd" d="M757.419 2.35742C749.881 3.74153 746.167 4.07205 716.756 5.97591C689.016 7.77134 689.122 7.76612 671.108 8.32445C654.136 8.85099 651.568 9.15596 638.578 12.1864C634.105 13.2301 629.387 14.3254 628.093 14.6204C626.8 14.915 625.029 15.6871 624.158 16.3351C623.287 16.9831 621.221 18.2749 619.566 19.2055C616.838 20.7397 615.74 20.9915 607.761 21.9085C588.88 24.0798 575.828 27.3694 560.394 33.8478C555.272 35.9977 552.375 36.908 549.961 37.1254C547.799 37.3198 545.486 37.9793 543.41 38.9933C541.393 39.9775 538.952 40.6849 536.848 40.895C532.883 41.2912 529.158 42.5961 525.153 44.9921C523.163 46.1828 521.257 46.8506 519.151 47.0961C514.16 47.6774 512.077 48.5324 509.347 51.1192C506.934 53.4062 506.568 53.5694 503.094 53.9098C497.672 54.4405 491.751 56.0827 488.876 57.8526C487.486 58.7081 485.633 59.4082 484.758 59.4082C483.662 59.4082 482.703 59.9008 481.68 60.9899C480.52 62.2238 478.6 63.0866 472.943 64.918C464.187 67.753 453.38 72.9109 448.379 76.6431C444.483 79.55 442.63 80.2219 438.41 80.2595C433.402 80.3043 426.347 83.6319 422.421 87.7999C421.707 88.5573 420.055 89.6453 418.748 90.2167C417.442 90.7886 415.192 92.4104 413.75 93.8216C410.69 96.813 406.321 99.5458 403.041 100.519C400.013 101.417 397.325 103.138 393.516 106.618C391.808 108.178 390.078 109.455 389.672 109.455C388.179 109.455 379.293 114.28 375.111 117.361C372.743 119.105 368.639 122.615 365.992 125.16C363.344 127.704 360.943 129.787 360.656 129.787C359.414 129.787 352.483 135.236 349.664 138.428C346.02 142.555 336.233 151.008 333.997 151.96C331.415 153.059 329.651 154.715 329.012 156.636C328.502 158.174 327.725 158.814 323.859 160.888C317.49 164.304 315.048 166.125 313.278 168.78C312.341 170.184 310.133 172.174 307.597 173.898C301.503 178.04 295.765 183.077 292.382 187.253C277.504 205.615 245.047 243.934 243.028 245.519C238.565 249.025 234.19 255.148 231.236 262.028C229.618 265.795 229.427 266.016 226.988 266.935C223.698 268.176 221.842 269.979 220.117 273.612C218.078 277.904 210.773 288.553 204.295 296.678C188.169 316.901 184.635 321.154 180.688 325.086C178.191 327.574 175.799 330.533 174.982 332.147C174.207 333.676 172.576 335.994 171.356 337.299C170.008 338.74 168.699 340.889 168.021 342.773C166.102 348.107 162.435 354.434 152.56 369.448C142.226 385.164 138.337 392.964 137.417 399.826C136.831 404.201 136.663 404.638 135.099 405.823C132.127 408.075 131.086 411.087 130.793 418.271C130.562 423.948 130.41 424.744 129.297 426.068C127.894 427.736 127.697 429.635 128.812 430.743C129.711 431.636 129.201 432.547 125.647 436.388C122.485 439.806 120.435 444.186 118.345 451.987C117.346 455.716 116.183 459.429 115.761 460.24C110.582 470.19 102.396 497.569 98.7502 517.128C98.4563 518.705 96.6934 528.089 94.8318 537.981C92.5877 549.909 91.3426 557.957 91.1359 561.875C90.8578 567.153 90.628 568.215 88.9815 571.838C86.834 576.564 86.1136 581.68 86.079 592.459C86.0669 596.187 85.8413 600.175 85.5774 601.322C85.3134 602.469 84.2688 608.803 83.2562 615.397C80.2402 635.027 79.3908 648.228 80.2959 661.395C80.8494 669.451 80.8142 671.011 79.9564 676.513C79.4301 679.887 78.9994 685.228 78.9999 688.382C78.9999 693.388 79.2444 695.096 80.6747 700.101C80.7959 700.525 80.8751 707.684 80.8515 716.011C80.809 730.766 81.3573 742.505 82.4339 749.898C83.4854 757.114 84.1145 764.084 84.2703 770.23C84.4865 778.757 84.8422 781.44 86.1466 784.391C87.1152 786.582 87.3177 788.415 87.6923 798.381C88.3676 816.337 90.8273 832.553 95.7295 851.37C97.4499 857.975 97.5953 859.146 97.7653 867.792C97.9389 876.594 98.0255 877.268 99.3614 880.161C100.167 881.907 100.775 884.147 100.776 885.375C100.78 888.998 102.276 896.962 104.504 905.215C108.799 921.125 109.674 924.637 110.447 929.082C110.881 931.581 111.614 934.513 112.075 935.599C112.536 936.685 113.843 941.21 114.978 945.655C117.148 954.149 119.861 960.405 124.955 968.661C126.788 971.634 127.618 973.676 128.238 976.742C128.74 979.226 129.993 982.694 131.415 985.536C132.707 988.116 134.039 991.282 134.376 992.57C135.184 995.666 136.704 998.599 138.877 1001.26C139.852 1002.46 140.65 1003.9 140.65 1004.47C140.65 1006.46 143.741 1014.9 146.381 1020.12C147.841 1023.01 150.813 1028.31 152.985 1031.89C155.201 1035.54 157.417 1039.96 158.035 1041.95C159.335 1046.13 161.946 1051.44 165.076 1056.26C167.58 1060.12 172.275 1069.02 175.654 1076.32C176.869 1078.94 179.051 1082.65 180.506 1084.56C183.015 1087.85 183.15 1088.2 183.161 1091.26C183.173 1094.61 184.264 1097.78 186.288 1100.33C186.871 1101.07 187.349 1102.28 187.352 1103.03C187.36 1105.04 189.389 1109.03 193.232 1114.59C197.69 1121.03 199.323 1123.89 201.304 1128.69C203.224 1133.35 206.666 1138.77 210.088 1142.53C211.432 1144.01 212.532 1145.37 212.532 1145.57C212.532 1145.77 213.33 1146.91 214.305 1148.1C215.298 1149.32 216.473 1151.65 216.976 1153.4C218.942 1160.25 224.435 1169.91 230.681 1177.5C232.445 1179.64 235.238 1184.1 237.16 1187.84C239.731 1192.85 241.453 1195.43 244.364 1198.63C246.608 1201.09 248.821 1204.17 249.716 1206.07C252.627 1212.25 256.621 1215.42 262.825 1216.47L266.159 1217.04L267.327 1220.7C268.92 1225.69 271.109 1229.52 273.666 1231.78C274.844 1232.83 277.601 1235.94 279.793 1238.69C281.985 1241.44 285.061 1245.12 286.628 1246.86C288.196 1248.61 290.877 1252.15 292.587 1254.73C294.297 1257.31 296.403 1259.83 297.269 1260.32C300.429 1262.14 306.879 1267.95 311.531 1273.17C314.153 1276.11 317.864 1280.28 319.777 1282.43C321.69 1284.58 325.534 1289.04 328.319 1292.33C338.01 1303.81 352.198 1317.04 361.281 1323.07C362.724 1324.03 364.936 1325.97 366.197 1327.37C367.458 1328.77 369.331 1330.32 370.358 1330.81C371.738 1331.46 372.83 1332.72 374.533 1335.6C378.355 1342.08 380.053 1343.49 386.778 1345.75C390.932 1347.15 395.384 1349.65 403.76 1355.29C410.006 1359.49 414.311 1361.81 418.582 1363.27C420.088 1363.79 422.718 1365.36 424.427 1366.78C429.086 1370.63 436.891 1375.58 451.537 1383.97C453.563 1385.13 456.939 1387.51 459.042 1389.26C463.081 1392.62 466.469 1394.55 471.134 1396.14C472.697 1396.68 475.785 1398.27 477.997 1399.68C482.666 1402.65 494.482 1409.18 499.798 1411.71C501.818 1412.68 506.554 1414.9 510.322 1416.66C514.09 1418.41 517.986 1420.47 518.979 1421.22C521.434 1423.07 525.637 1425.12 528.153 1425.68C529.336 1425.95 533.651 1428.4 538.176 1431.38C551.814 1440.37 561.065 1445.08 570.716 1447.97C573.266 1448.73 582.436 1451.66 591.093 1454.47C599.751 1457.28 611.792 1460.88 617.852 1462.46C626.734 1464.78 630.166 1465.95 635.552 1468.5C642.599 1471.84 650.79 1474.41 656.322 1475.01C658.583 1475.26 660.671 1475.94 662.881 1477.13C667.696 1479.73 670.958 1480.49 680.815 1481.31C688.207 1481.93 692.295 1482.64 704.688 1485.47C712.912 1487.35 720.468 1488.99 721.478 1489.12C722.488 1489.24 726.067 1490.05 729.431 1490.91C738.633 1493.27 748.181 1495.05 753.612 1495.42C756.291 1495.61 760.287 1496.31 762.525 1496.99C766.804 1498.3 776.793 1499.49 779.456 1499.01C780.4 1498.84 782.803 1499.26 785.461 1500.06C791.882 1501.99 802.858 1503.43 817.233 1504.24C825.68 1504.72 830.689 1505.23 832.449 1505.8C837.267 1507.35 842.182 1508.16 846.85 1508.16C850.476 1508.16 852.211 1508.44 854.882 1509.43C856.755 1510.14 860.738 1511.05 863.733 1511.47C866.727 1511.89 870.24 1512.72 871.538 1513.32C875.223 1515 878.239 1514.78 881.436 1512.59C882.904 1511.59 884.266 1510.77 884.461 1510.77C884.657 1510.77 886.064 1511.35 887.59 1512.07C891.46 1513.89 896.769 1515.01 901.425 1515C903.601 1514.99 914.247 1514.99 925.083 1514.99C945.414 1514.99 953.565 1514.45 962.309 1512.53C966.711 1511.56 980.792 1511.04 1016.61 1510.53C1039.38 1510.21 1044.89 1509.8 1047.52 1508.21C1048.48 1507.64 1053.35 1506.45 1059.38 1505.32C1065 1504.26 1074.57 1502.47 1080.63 1501.34C1086.69 1500.2 1091.97 1499.16 1092.38 1499.01C1092.78 1498.87 1096.02 1498.52 1099.58 1498.23C1106.67 1497.66 1113.75 1495.89 1117.35 1493.8C1120.68 1491.86 1123.9 1491.09 1132.57 1490.17C1141 1489.28 1145.18 1488.37 1149.36 1486.5C1150.8 1485.86 1154.25 1484.96 1157.03 1484.51C1162.65 1483.6 1165.69 1482.69 1170.35 1480.53C1172.08 1479.73 1178.22 1477.63 1183.99 1475.85C1189.76 1474.08 1198.97 1471.14 1204.45 1469.32C1214.29 1466.05 1217.19 1465.21 1224.39 1463.54C1226.41 1463.07 1229.6 1461.88 1231.47 1460.9C1233.92 1459.61 1236.52 1458.81 1240.66 1458.06C1252.81 1455.86 1265.17 1451.49 1276.5 1445.4C1278.9 1444.11 1282.17 1442.79 1283.76 1442.46C1291.57 1440.85 1299.52 1437.12 1303.79 1433.08C1305.3 1431.65 1306.58 1430.47 1306.65 1430.45C1306.71 1430.43 1308.84 1430.23 1311.37 1430.01C1315.26 1429.67 1316.2 1429.4 1317.41 1428.28C1318.32 1427.43 1319.74 1426.83 1321.35 1426.6C1322.73 1426.4 1325.27 1425.78 1326.99 1425.22C1330.38 1424.12 1348.13 1415.54 1353.06 1412.62C1363.61 1406.38 1370.93 1402.69 1377.07 1400.5C1395.01 1394.1 1411.38 1386.78 1421.9 1380.46C1424.92 1378.65 1428.93 1376.53 1430.82 1375.75C1435.38 1373.87 1439.29 1371.54 1443.45 1368.22C1447.18 1365.24 1447.92 1364.75 1467.84 1352.03C1477.86 1345.63 1482.86 1342.77 1486.68 1341.26C1493.36 1338.61 1494.51 1338 1496.9 1335.86C1497.98 1334.89 1505.23 1329.86 1513 1324.68C1520.77 1319.5 1528.91 1313.79 1531.07 1312C1533.23 1310.2 1536.8 1307.86 1539 1306.79C1541.93 1305.37 1543.9 1303.92 1546.35 1301.39C1553.16 1294.33 1554.06 1293.56 1559.66 1290C1569.76 1283.57 1577.79 1277.24 1585.6 1269.54C1591.96 1263.27 1593.78 1261.79 1596.97 1260.27C1600.55 1258.55 1605.01 1254.57 1605.08 1253.03C1605.11 1252.24 1633.76 1229.95 1637.04 1228.17C1641.73 1225.63 1646.66 1221.83 1651.26 1217.23C1655.33 1213.14 1674.55 1196.94 1695 1180.35C1704.16 1172.91 1708.59 1168.73 1711.91 1164.35C1716.11 1158.83 1753.01 1120.84 1755.31 1119.67C1758.34 1118.14 1763.31 1113.24 1765.35 1109.79C1767.72 1105.77 1786.19 1082.89 1788.64 1080.94C1791.63 1078.55 1793.53 1076.19 1796.83 1070.77C1798.49 1068.05 1800.64 1064.74 1801.61 1063.42C1804.47 1059.5 1805.99 1055.74 1806 1052.58C1806 1050.21 1805.43 1048.52 1802.34 1041.75C1800.33 1037.34 1798.3 1032.42 1797.83 1030.82C1796.5 1026.29 1794.65 1022.51 1792.71 1020.35C1791.65 1019.17 1790.78 1017.54 1790.56 1016.29C1790.04 1013.47 1787.81 1009.51 1785.68 1007.66C1783.75 1005.97 1779.19 1003.52 1777.99 1003.52C1776.53 1003.52 1773.93 1006.3 1772.19 1009.72C1771.23 1011.61 1768.19 1016 1765.44 1019.46C1761.5 1024.42 1759.41 1026.51 1755.64 1029.29C1753.01 1031.24 1749.92 1034.03 1748.78 1035.51C1746.39 1038.61 1746.44 1038.55 1744.28 1040.27C1743.38 1040.98 1742.12 1042.66 1741.5 1043.98C1740.87 1045.31 1738.82 1048.21 1736.94 1050.44C1734.09 1053.83 1733.05 1054.67 1730.6 1055.61C1726.81 1057.05 1722.99 1059.86 1720.39 1063.12C1717.95 1066.19 1717.21 1067.55 1714.92 1073.07L1713.21 1077.2L1709.08 1078.86C1699.16 1082.83 1690.97 1090.42 1684.75 1101.4C1683.74 1103.17 1683.2 1103.61 1682.02 1103.61C1679.69 1103.62 1677.52 1105.02 1672.73 1109.59C1670.28 1111.93 1666.27 1115.39 1663.82 1117.27C1658.7 1121.2 1653.23 1126.45 1651.88 1128.73C1651.37 1129.59 1646.97 1133.47 1642.09 1137.36C1630.66 1146.47 1625.99 1150.54 1619.22 1157.32C1614.11 1162.42 1603.94 1170.55 1599.02 1173.46C1593.97 1176.45 1586.86 1182.27 1581.61 1187.73C1573.34 1196.31 1558.96 1208.34 1554.53 1210.37C1551.66 1211.69 1549.64 1213.3 1544.04 1218.71C1538.36 1224.2 1536.25 1225.86 1532.38 1227.92C1524.37 1232.19 1520.01 1235.99 1516.51 1241.73C1514.5 1245.04 1514.42 1245.1 1510.02 1246.72C1500.94 1250.06 1491.99 1255.38 1481.82 1263.49C1478.46 1266.16 1475.12 1268.51 1474.4 1268.69C1471.88 1269.34 1467.16 1271.98 1463.06 1275.04C1458.43 1278.5 1435.48 1290.19 1430.04 1291.86C1427.83 1292.54 1425.93 1293.6 1424.22 1295.11C1422.48 1296.64 1419.77 1298.14 1415.64 1299.85C1412.32 1301.23 1406.77 1303.53 1403.31 1304.97C1399.85 1306.41 1395.36 1308.04 1393.34 1308.6C1389.62 1309.62 1384.82 1312.02 1383.63 1313.45C1383.27 1313.88 1382.46 1314.23 1381.84 1314.23C1381.21 1314.23 1380.47 1314.45 1380.2 1314.72C1379.92 1314.99 1376.65 1316.06 1372.92 1317.1C1364.3 1319.51 1361.86 1320.76 1358.38 1324.55C1355.91 1327.24 1355.04 1327.8 1351.36 1329.07C1346.14 1330.87 1336.83 1335.64 1331.02 1339.48C1327.15 1342.04 1325.83 1342.59 1320.36 1343.92C1313.43 1345.61 1305.84 1348.14 1298.5 1351.2C1295.83 1352.31 1292.59 1353.37 1291.29 1353.55C1287.53 1354.07 1281.31 1356.3 1277.6 1358.46C1275.16 1359.87 1272.81 1360.71 1269.49 1361.37C1262.97 1362.65 1254.09 1366.22 1249.31 1369.47C1246.84 1371.15 1240.95 1373.14 1238.42 1373.14C1234.42 1373.15 1229.89 1374.06 1227.04 1375.45C1225.58 1376.15 1222.9 1376.89 1221.09 1377.07C1218.66 1377.33 1217.37 1377.77 1216.22 1378.73C1214.99 1379.75 1213.74 1380.14 1210.48 1380.5C1201.56 1381.49 1195.25 1383.32 1179.27 1389.56C1169.4 1393.41 1166.21 1394.36 1148.84 1398.6C1138.16 1401.21 1121.63 1405.26 1112.11 1407.61L1094.79 1411.89L1087.45 1411.95C1080.18 1412.01 1080.02 1412.04 1072.76 1414.44L1065.41 1416.86L1047.83 1418.24C1032.68 1419.42 1025.22 1419.68 993.79 1420.12C973.734 1420.4 955.973 1420.48 954.319 1420.32C952.124 1420.09 950.428 1420.28 948.023 1421.01C946.213 1421.57 941.392 1422.3 937.31 1422.65C930.95 1423.19 929.335 1423.17 926.029 1422.48C923.907 1422.04 921.462 1421.55 920.597 1421.4C919.731 1421.24 912.53 1420.87 904.594 1420.58C894.133 1420.2 889.775 1420.21 888.746 1420.63C887.542 1421.12 887.071 1421.02 885.621 1420C883.192 1418.28 878.739 1418.09 873.407 1419.49C871.117 1420.09 868.486 1420.58 867.562 1420.58C864.83 1420.58 855.722 1418.55 853.366 1417.42C852.167 1416.84 850.393 1416.41 849.425 1416.47C848.457 1416.52 846.089 1416.08 844.164 1415.47C838.741 1413.78 833.102 1412.76 829.182 1412.76C826.36 1412.76 824.786 1412.42 821.696 1411.13C818.341 1409.72 816.85 1409.44 811.213 1409.09C806.066 1408.78 802.535 1408.16 794.934 1406.26C789.596 1404.92 784.855 1403.49 784.399 1403.08C783.943 1402.67 783.279 1402.33 782.923 1402.33C782.566 1402.33 779.161 1401.41 775.356 1400.28C768.24 1398.17 757.403 1395.41 753.819 1394.79C752.705 1394.6 749.399 1394.24 746.474 1394C742.126 1393.64 740.372 1393.21 736.878 1391.69C734.437 1390.62 731.734 1389.82 730.581 1389.81C729.308 1389.8 727.494 1389.2 725.675 1388.19C719.28 1384.61 716.785 1383.56 714.658 1383.56C713.02 1383.56 711.782 1383.08 709.513 1381.55C705.223 1378.66 701.442 1376.86 698.829 1376.47C697.579 1376.29 695.965 1375.6 695.244 1374.95C694.522 1374.3 693.115 1373.6 692.117 1373.39C691.118 1373.18 689.68 1372.55 688.922 1371.99C687.129 1370.68 684.255 1370.04 680.061 1370.02C676.878 1370.01 676.539 1369.89 674.117 1367.86C670.081 1364.48 667.227 1363.62 659.829 1363.55L653.536 1363.49L652.867 1361.41C651.953 1358.55 649.9 1356.81 647.807 1357.12C646.382 1357.33 645.702 1356.91 642.199 1353.65C637.991 1349.73 632.01 1345.96 626.772 1343.92C625.041 1343.25 622.337 1341.88 620.765 1340.89C617.234 1338.66 614.08 1337.69 610.407 1337.69C607.246 1337.69 604.447 1336.72 603.361 1335.26C602.962 1334.72 600.275 1332.9 597.39 1331.21C594.504 1329.52 586.476 1324.46 579.55 1319.96C559.12 1306.7 550.101 1301.87 544.551 1301.22C541.135 1300.82 541.411 1300.98 540.24 1298.7C539.329 1296.92 536.647 1294.95 535.133 1294.94C534.655 1294.94 532.058 1293 529.361 1290.62C526.664 1288.25 518.556 1281.18 511.341 1274.92C504.127 1268.65 495.745 1261.12 492.715 1258.18C486.148 1251.82 482.433 1248.81 478.245 1246.46C474.098 1244.13 472.313 1242.61 470.34 1239.74C467.86 1236.12 465.646 1234.3 460.501 1231.62C457.324 1229.97 455.08 1228.36 453.476 1226.59C451.211 1224.09 447.934 1221.96 446.355 1221.96C445.94 1221.96 444.831 1221.08 443.889 1220C442.947 1218.93 438.141 1213.83 433.209 1208.67C419.005 1193.82 418.376 1193.11 417.979 1191.46C417.279 1188.55 415.487 1186.47 410.36 1182.61C407.116 1180.17 404.943 1178.12 404.408 1177C403.369 1174.83 402.102 1173.66 400.302 1173.21C398.124 1172.67 395.84 1169.87 394.352 1165.93C393.599 1163.93 392.261 1161.17 391.379 1159.81C389.322 1156.62 384.67 1152.4 381.408 1150.76C380.005 1150.05 378.858 1149.24 378.858 1148.96C378.858 1147.58 374.778 1144.19 370.705 1142.18C366.41 1140.07 366.265 1139.94 366.265 1138.19C366.265 1136.85 365.831 1135.95 364.599 1134.72C363.486 1133.62 362.792 1132.29 362.505 1130.72C361.825 1127 358.221 1120.34 353.575 1114.22C350.108 1109.65 349.147 1107.98 348.564 1105.49C347.491 1100.91 346.712 1099.75 340.327 1093.19C334.052 1086.75 333.058 1085.16 331.563 1079.21C330.389 1074.54 328.172 1070.28 325.104 1066.8C323.743 1065.25 322.559 1063.25 322.191 1061.88C321.482 1059.23 320.034 1056.71 317.706 1054.09C316.817 1053.09 315.673 1051.15 315.165 1049.8C314.639 1048.39 312.901 1045.86 311.133 1043.92C309.424 1042.05 308.025 1040.37 308.025 1040.2C308.025 1038.26 306.096 1029.41 305.359 1027.96C304.336 1025.95 301.565 1023.33 300.455 1023.33C300.088 1023.33 298.276 1022.19 296.429 1020.8C293.121 1018.3 293.019 1018.15 289.57 1010.5C287.644 1006.23 283.347 996.719 280.022 989.36C276.696 982.001 273.579 974.611 273.094 972.939C272.089 969.47 270.353 965.853 267.882 962.076C266.944 960.643 266.011 958.546 265.809 957.417C265.375 954.999 262.971 950.091 261.172 947.948C259.292 945.712 258.329 943.611 257.096 939.056C253.464 925.638 251.398 921.561 246.698 918.535C245.222 917.584 244.016 916.787 244.019 916.764C244.022 916.741 244.376 915.57 244.806 914.162C246.311 909.233 245.628 903.932 242.586 896.917C238.269 886.966 237.601 885.182 236.427 880.489C234.843 874.162 233.412 870.4 231.373 867.205C229.472 864.226 224.754 849.203 224.002 843.736C223.627 841.002 222.684 838.386 220.246 833.31L216.992 826.533L217.168 817.139C217.362 806.803 216.853 802.621 214.853 798.121C214.07 796.36 211.822 786.802 209.028 773.358L204.478 751.462L204.105 730.87C203.73 710.189 203.481 706.137 201.456 687.861C200.487 679.107 200.43 677.199 200.965 671.44C201.416 666.6 201.422 663.716 200.988 660.231C200.052 652.71 199.814 640.7 200.378 629.473C200.814 620.807 201.172 617.947 202.502 612.53C205.148 601.76 206.282 594.116 206.564 585.161C206.867 575.583 206.48 577.006 214.138 557.234C220.345 541.209 223.922 530.832 225.897 523.124C226.764 519.74 228.424 515.232 229.946 512.128C233.165 505.566 234.204 500.375 233.772 493.013C233.476 487.954 233.481 487.923 234.781 487.432C236.523 486.774 240.227 483.408 241.141 481.653C241.544 480.879 242.118 478.75 242.416 476.922C242.715 475.094 245.29 467.119 248.14 459.199C252.243 447.795 253.759 444.217 255.427 441.996C258.25 438.236 259.182 436.297 259.588 433.335C259.81 431.712 262.151 426.303 266.329 417.757C273.639 402.807 278.84 394.419 291.501 377.171C313.21 347.595 321.614 335.074 332.335 316.335C333.1 314.997 334.54 313.404 335.535 312.792C338.679 310.862 342.272 306.4 346.04 299.748C351.095 290.823 352.835 288.773 357.162 286.639C359.857 285.31 361.001 284.399 361.835 282.916C362.443 281.836 363.984 280.284 365.258 279.467C367.999 277.712 369.804 275.826 371.786 272.653C373.561 269.808 374.06 269.375 380.957 264.701C384.342 262.407 388.525 258.894 391.808 255.59C394.746 252.632 397.458 250.212 397.834 250.212C398.21 250.212 400.056 248.589 401.936 246.607C403.816 244.625 411.29 237.997 418.546 231.88C430.227 222.03 433.14 219.874 443.997 213.034C454.443 206.452 456.68 204.814 459.124 201.956C461.725 198.912 462.177 198.601 463.997 198.601C465.406 198.601 466.372 198.235 467.242 197.371C468.987 195.637 469.278 195.475 496.388 181.105C521.195 167.956 522.417 167.399 544.921 158.982C548.673 157.579 555.52 154.985 560.137 153.216C570.264 149.339 571.327 148.998 580.338 146.735C590.493 144.185 597.596 141.379 601.768 138.266C602.798 137.497 606.37 136.143 610.425 134.984C614.222 133.899 622.758 131.435 629.396 129.509C646.601 124.517 650.16 123.678 656.899 123.024C660.339 122.689 664.136 121.975 665.818 121.346C667.699 120.643 670.342 120.188 673.207 120.073C685.556 119.578 695.984 118.712 700.228 117.83C703.281 117.195 708.475 116.722 714.92 116.492L724.889 116.137L728.562 117.593C731.915 118.922 732.804 119.046 738.793 119.02C744.498 118.996 746.001 118.795 750.336 117.474L755.32 115.954L762.666 116.611C769.195 117.194 780.799 118.462 793.054 119.931C795.891 120.271 798.554 120.244 801.449 119.847C807.182 119.059 815.852 119.631 819.595 121.044C822.205 122.029 823.681 122.14 835.073 122.208L847.665 122.283L856.585 124.511C861.491 125.737 868.456 127.419 872.063 128.249C875.671 129.08 881.809 130.497 885.705 131.398C890.064 132.407 894.174 133.729 896.39 134.837C900.69 136.986 906.888 138.649 910.596 138.649C914.824 138.649 927.741 142.498 932.402 145.147C943.429 151.413 958.769 158.422 970.748 162.668C979.066 165.617 979.887 166.007 983.951 168.944C989.342 172.839 993.114 174.587 997.932 175.423C1005.27 176.696 1011.93 180.482 1025.01 190.818C1032.99 197.12 1039.13 201.326 1043.61 203.557C1046.79 205.14 1074.19 229.86 1076.95 233.645C1077.82 234.829 1079.53 236.519 1080.75 237.401C1081.98 238.283 1084.21 240.646 1085.7 242.653C1088.64 246.595 1096.88 254.922 1099.81 256.917C1100.8 257.594 1102.84 259.94 1104.35 262.13C1107.53 266.762 1116.1 276.447 1118.89 278.558C1122.03 280.941 1144.02 310.579 1145.82 314.856C1147.78 319.515 1153.98 326.291 1158.98 329.222C1160.51 330.124 1160.52 330.143 1160.77 336.176C1161.05 342.815 1162.1 346.46 1166.43 355.824C1167.62 358.38 1169.29 362.231 1170.16 364.381C1171.02 366.532 1172.4 369.933 1173.22 371.94C1174.17 374.239 1174.94 377.453 1175.32 380.625C1176.66 391.913 1181.01 406.823 1187.86 423.613C1189.83 428.453 1193.45 437.34 1195.91 443.362C1203.4 461.757 1207.02 473.17 1207.83 481.029C1208.18 484.422 1208.71 486.587 1209.63 488.328C1210.72 490.409 1210.97 491.754 1211.2 496.797C1211.49 503.379 1212.47 508.788 1216.01 523.481L1218.36 533.222L1218.36 547.983C1218.36 562.587 1218.92 572.265 1220 576.29C1221.03 580.115 1221.15 581.959 1221.34 597.426C1221.55 614.42 1222.04 609.079 1216.47 651.369C1215.76 656.817 1215.03 662.447 1214.85 663.881C1214.67 665.314 1213.92 667.651 1213.18 669.074C1212.15 671.057 1211.77 672.723 1211.55 676.201C1211.3 680.282 1211.1 680.99 1209.52 683.217C1208.32 684.905 1207.21 687.626 1206.05 691.766C1203.9 699.386 1201.78 704.874 1197.88 712.863C1192.71 723.46 1181.29 744.571 1179.58 746.697C1178.38 748.176 1177.94 749.279 1177.91 750.867C1177.87 752.873 1177.6 753.259 1174.11 756.297C1172.04 758.096 1169.29 760.335 1167.99 761.272C1166.69 762.209 1164.03 765.184 1162.09 767.883C1158.31 773.112 1155.18 776.579 1153.84 777C1152.34 777.475 1140.97 790.346 1140.94 791.607C1140.92 792.453 1139.72 793.738 1136.74 796.078C1131.13 800.499 1126.89 804.541 1124.07 808.165C1122.79 809.818 1121.58 811.072 1121.38 810.952C1120.49 810.402 1117.92 812.229 1115.14 815.399C1113.47 817.303 1110.57 820.102 1108.7 821.618C1106.82 823.133 1102.57 827.088 1099.24 830.406C1093.92 835.716 1092.35 836.928 1086.12 840.536C1077.22 845.697 1074.27 847.653 1071.38 850.33C1067.17 854.239 1053.81 861.294 1043.37 865.122C1038.18 867.027 1030.8 869.74 1026.97 871.15C1023.15 872.559 1019.49 873.714 1018.84 873.715C1015.26 873.724 1010.82 876.752 1009.83 879.858C1009.51 880.847 1009.08 880.902 1002.27 880.828C995.104 880.751 995.019 880.764 993.102 882.211C992.037 883.014 990.782 884.422 990.313 885.339C989.843 886.256 989.385 887.091 989.294 887.193C989.203 887.296 988.429 886.886 987.574 886.281C985.753 884.992 984.993 884.916 983.863 885.91C982.262 887.317 970.839 890.892 963.074 892.416C958.757 893.263 951.33 894.724 946.569 895.664C939.782 897.002 936.437 897.389 931.09 897.454C923.386 897.548 922.002 897.996 916.639 902.129C913.861 904.269 913.626 904.35 911.392 903.939C907.631 903.245 900.579 903.906 896.624 905.323C892.082 906.951 887.199 907.41 883.546 906.55C881.992 906.185 877.533 904.71 873.637 903.271C866.85 900.765 866.323 900.654 861.045 900.617C858.015 900.596 853.505 900.692 851.023 900.83C846.545 901.08 846.476 901.065 842.103 898.868C835.529 895.564 832.964 895.069 819.857 894.571C807.873 894.117 805.977 893.88 803.965 892.585C802.104 891.388 797.163 890.412 792.916 890.403L789.061 890.395L786.725 887.814C783.705 884.477 780.129 882.794 773.947 881.802C761.155 879.75 759.548 879.233 757.838 876.615C756.148 874.028 753.325 872.097 750.749 871.764C748.983 871.536 747.621 870.755 744.408 868.126C739.697 864.272 738.036 863.554 734.829 863.991C732.649 864.288 732.357 864.167 729.493 861.782C727.826 860.395 724.574 857.557 722.265 855.475C714.163 848.172 707.112 843.506 701.777 841.92C700.294 841.479 699.273 840.714 698.394 839.384C695.679 835.283 693.671 833.209 691.487 832.252C690.235 831.703 689.073 831.063 688.906 830.83C688.738 830.597 686.377 828.127 683.658 825.342C680.94 822.556 676.655 817.462 674.137 814.021C671.619 810.58 665.991 802.984 661.629 797.139C655.835 789.374 653.226 785.398 651.942 782.372C649.884 777.522 648.152 775.106 645.473 773.345C643.985 772.367 643.372 771.491 642.842 769.586C641.235 763.809 640.549 762.19 638.895 760.268C637.724 758.908 636.422 756.178 634.942 751.984C633.727 748.543 631.771 743.03 630.596 739.733C629.42 736.435 627.53 730.94 626.395 727.521C624.003 720.313 621.456 715.037 619.06 712.326L617.371 710.413L617.031 702.265C616.755 695.656 616.467 693.526 615.509 690.989C612.676 683.491 612.009 654.533 614.175 633.054C616.724 607.78 617.384 602.987 618.579 601.04C619.225 599.986 619.686 598.352 619.687 597.11C619.688 595.94 620.513 591.995 621.521 588.343C622.914 583.293 624.223 580.057 626.99 574.83C631.789 565.767 632.933 562.327 632.95 556.908C632.964 552.69 632.987 552.615 634.852 550.849C635.891 549.865 637.45 548.899 638.315 548.704C642.151 547.836 647.338 543.177 651.702 536.678C655.248 531.397 659.839 526.461 663.238 524.275C667.737 521.381 670.968 518.403 672.189 516.024C672.87 514.699 674.216 513.471 676.474 512.12C678.284 511.036 681.3 508.95 683.176 507.483C685.052 506.018 688.293 503.659 690.378 502.242C692.51 500.794 694.571 498.924 695.088 497.971C695.728 496.791 696.386 496.276 697.252 496.276C698.02 496.276 699.187 495.527 700.299 494.321C705.01 489.211 706.368 488.025 709.224 486.523C712.383 484.861 717.202 483.121 724.102 481.152C726.266 480.534 729.926 479.241 732.234 478.281C734.543 477.319 743.869 474.582 752.959 472.198L769.487 467.864L783.654 467.864C797.612 467.864 797.877 467.843 801.71 466.494L805.598 465.124L808.007 466.534C809.332 467.31 811.67 468.889 813.204 470.042C814.797 471.24 817.832 472.773 820.286 473.62C823.966 474.889 837.445 481.521 843.176 484.881C844.169 485.464 847.817 488.415 851.282 491.439C856.829 496.281 857.689 497.256 858.483 499.604C859.234 501.823 860.306 503.147 864.87 507.484C869.258 511.654 870.476 513.133 870.957 514.874C871.512 516.888 872.993 518.568 875.496 520.029C876.992 520.901 877.632 533.069 876.797 544.778C876.301 551.745 876.288 554.834 876.744 557.758C877.074 559.868 877.468 561.795 877.621 562.04C877.773 562.285 877.066 563.834 876.049 565.482C875.032 567.13 874.114 569.355 874.008 570.425C873.903 571.495 873.452 572.785 873.007 573.292C871.716 574.763 871.014 576.383 871.014 577.894C871.014 578.666 869.787 581.555 868.288 584.314C862.767 594.475 855.233 604.365 847.659 611.393C844.095 614.7 843.599 614.982 840.243 615.62C831.714 617.24 821.803 616.734 814.517 614.307C805.047 611.153 795.14 603.906 786.497 593.811C781.756 588.274 781.072 586.754 781.882 583.555C782.802 579.927 782.151 574.3 780.101 568.16C779.006 564.883 778.161 561.129 777.959 558.654C777.441 552.318 775.759 549.325 771.788 547.676C770.149 546.996 757.1 545.801 751.306 545.801C749.787 545.801 748.805 545.32 746.728 543.558C743.78 541.059 740.033 539.024 738.376 539.024C736.617 539.024 734.876 539.868 733.199 541.534C731.354 543.368 727.576 550.792 727.97 551.812C728.12 552.2 727.763 554.115 727.177 556.067C726.488 558.36 726.011 561.831 725.83 565.872C725.573 571.606 725.66 572.454 726.877 576.038C727.771 578.67 728.323 581.737 728.565 585.422C729.321 596.902 733.543 607.671 739.924 614.396C741.204 615.744 741.519 616.639 741.899 620.007C742.248 623.097 742.67 624.428 743.747 625.831C744.514 626.831 745.334 627.649 745.566 627.649C745.8 627.649 747.1 628.619 748.455 629.804C750.128 631.267 751.603 633.32 753.045 636.19C754.547 639.182 756.19 641.433 758.655 643.876C760.573 645.777 763.841 649.205 765.919 651.495C767.997 653.784 771.165 656.804 772.96 658.205C774.755 659.606 777.748 662.333 779.611 664.265C784.048 668.866 786.938 670.258 793.37 670.89C796.106 671.159 802.854 672.201 808.365 673.204C823.676 675.992 827.006 676.364 836.647 676.359C846.617 676.354 852.197 675.518 858.586 673.074C860.673 672.275 864.737 670.976 867.616 670.186C886.686 664.955 895.901 659.946 902.348 651.305C903.826 649.324 907.062 645.87 909.539 643.63C912.023 641.383 917.264 635.545 921.231 630.605C935.071 613.373 936.476 610.491 937.164 597.933C937.708 588.008 937.951 587.013 940.963 582.386C944.543 576.887 944.957 575.924 946.336 569.864C948.012 562.501 948.43 555.299 947.663 547.047C947.319 543.352 946.97 536.105 946.887 530.944C946.726 520.927 945.742 515.077 942.59 505.399C941.783 502.92 941.064 499.15 940.818 496.104C940.452 491.587 940.149 490.476 938.256 486.72C936.979 484.188 934.4 480.459 931.894 477.523C928.273 473.281 927.68 472.313 927.68 470.649C927.68 468.919 927.314 468.392 924.245 465.698C921.701 463.465 920.238 461.613 918.604 458.557C917.184 455.899 915.443 453.575 913.71 452.024C912.231 450.701 910.849 449.031 910.637 448.314C909.969 446.049 907.302 442.3 905.114 440.554C902.912 438.795 898.011 436.845 895.793 436.845C894.14 436.845 888.409 431.646 887.222 429.071C885.947 426.301 880.779 420.931 878.191 419.686C876.947 419.088 874.906 418.559 873.655 418.51C870.414 418.384 868.431 417.558 866.029 415.332C863.081 412.599 857.712 409.926 852.853 408.771C850.531 408.219 846.487 406.646 843.639 405.187C835.823 401.181 827.497 398.923 817.082 397.982C811.207 397.451 794.009 398.682 787.669 400.088L782.241 401.291L779.274 399.923C777.127 398.933 775.221 398.503 772.373 398.367C767.53 398.136 764.614 399.231 760.914 402.671C758.523 404.893 758.285 404.994 756.59 404.506C752.426 403.308 748.099 402.914 745.345 403.482C742.203 404.13 738.794 406.694 737.752 409.194C736.97 411.071 736.968 411.071 734.333 409.736C731.088 408.093 729.177 408.388 722.528 411.561C719.223 413.138 715.88 414.428 715.101 414.428C713.692 414.428 712.33 415.369 711.906 416.634C711.749 417.102 709.612 417.389 704.58 417.618C698.393 417.899 697.078 418.121 694.392 419.342C692.696 420.112 690.718 421.278 689.997 421.932C689.161 422.69 687.461 423.335 685.309 423.713C682.531 424.201 681.554 424.663 679.8 426.319C676.932 429.026 669.824 433.367 666.911 434.191C663.468 435.165 659.878 437.055 656.502 439.671C654.868 440.937 651.439 442.805 648.881 443.822C642.819 446.235 640.941 447.695 639.802 450.88L638.895 453.419L635.719 453.628C631.635 453.897 629.051 455.566 625.703 460.097C624.044 462.342 621.897 464.376 619.309 466.154C615.68 468.647 611.615 473.251 610.39 476.255C610.166 476.806 609.191 478.552 608.224 480.135C606.85 482.382 605.958 483.222 604.151 483.964C602.88 484.486 601.05 485.829 600.087 486.948C598.395 488.912 596.603 493.225 596.603 495.334C596.603 495.941 594.859 497.983 592.313 500.356C585.022 507.156 584.347 508.196 565.379 541.891C561.989 547.912 557.911 555.031 556.316 557.71C552.747 563.709 549.544 571.317 547.028 579.774C545.976 583.31 543.966 589.957 542.561 594.545C538.464 607.92 536.582 615.978 534.952 627.127C534.47 630.425 533.371 635.234 532.509 637.814C531.078 642.098 530.919 643.291 530.684 651.511C530.527 656.994 530.129 661.58 529.666 663.24C527.497 671.003 527.406 672.215 527.514 692.032C527.614 710.602 527.663 711.443 528.802 714.59L529.986 717.861L528.928 718.99C527.501 720.512 527.594 722.861 529.17 725.121C530.354 726.817 530.492 727.599 530.7 733.751C530.961 741.485 532.144 746.784 534.902 752.567C535.875 754.608 536.832 757.54 537.029 759.083C537.673 764.133 539.429 769.632 541.785 773.973C543.058 776.317 545.432 781.479 547.061 785.442C548.69 789.405 550.608 794.054 551.323 795.775C552.037 797.495 553.165 801.028 553.83 803.626C555.759 811.164 560.11 818.672 566.805 826.011C569.886 829.389 586.329 853.279 590.846 860.94C592.922 864.462 595.007 866.998 599.202 871.106C606.49 878.243 612.536 885.447 613.38 888.001C613.807 889.293 615.574 891.612 618.208 894.338C621.383 897.624 622.435 899.084 622.671 900.53C623.061 902.914 624.964 904.469 627.499 904.473C629.086 904.477 631.323 905.796 641.201 912.555C654.291 921.512 665.466 930.155 666.344 932.001C666.708 932.767 668.394 933.874 670.975 935.043C673.208 936.054 676.258 937.919 677.754 939.189C690.561 950.061 701.551 957.374 711.38 961.565C714.248 962.789 716.952 964.405 718.592 965.877C722.454 969.342 726.282 971.621 729.717 972.499C731.39 972.927 735.356 974.589 738.53 976.192C743.627 978.766 744.796 979.149 748.532 979.464C752.265 979.78 753.072 980.044 755.411 981.714C757.484 983.194 762.162 984.99 776.891 989.961C787.248 993.456 796.193 996.372 796.771 996.44C797.348 996.509 799.119 997.178 800.706 997.928C802.835 998.933 804.83 999.38 808.314 999.634C811.408 999.859 813.848 1000.36 815.392 1001.07C817.428 1002.02 819.196 1002.23 828.375 1002.57C838.372 1002.94 839.177 1003.05 841.965 1004.36C844.471 1005.54 846.197 1005.86 853.118 1006.42C857.622 1006.79 866.029 1007.61 871.801 1008.24C890.832 1010.31 910.468 1009.72 924.446 1006.66L928.819 1005.7L932.192 1007.48C936.058 1009.52 937.992 1009.7 939.904 1008.2C940.977 1007.36 942.512 1007.05 947.452 1006.67C953.646 1006.2 957.556 1005.23 959.187 1003.76C959.682 1003.31 962.046 1002.74 964.722 1002.42C970.393 1001.74 980.014 999.338 984.363 997.52C986.388 996.672 989.229 996.027 992.117 995.757C995.644 995.428 997.804 994.853 1001.66 993.219C1005.02 991.795 1008.91 990.676 1013.56 989.792C1021.76 988.238 1024.94 986.977 1026.2 984.782C1026.7 983.91 1027.51 983.195 1027.99 983.193C1028.48 983.191 1032.14 982.594 1036.12 981.866C1045.75 980.108 1056.47 977.019 1065.15 973.505C1069.04 971.928 1074.4 970.175 1077.06 969.61C1088.56 967.16 1098.22 962.741 1119.72 950.094C1123.03 948.141 1128.58 945.135 1132.05 943.415C1139.58 939.671 1146.27 935.608 1149.97 932.53C1151.46 931.29 1155.48 928.81 1158.9 927.02C1166.58 922.997 1177.38 916.185 1186.21 909.789C1189.9 907.123 1195.5 903.408 1198.68 901.535C1205.48 897.516 1210.61 893.519 1213.1 890.298C1214.24 888.826 1215.74 887.625 1217.22 887.02C1220.06 885.853 1225.14 881.018 1226.68 878.026C1227.35 876.723 1228.96 874.981 1230.63 873.756C1233.95 871.317 1236.51 868.375 1236.97 866.472C1237.16 865.706 1239.35 863.157 1241.98 860.639C1244.77 857.976 1247.01 855.346 1247.52 854.138C1247.99 853.022 1249.44 850.929 1250.75 849.487C1254.12 845.775 1257.75 840.517 1261.75 833.571C1263.65 830.273 1266.12 826.237 1267.24 824.601C1269.71 821.013 1270.82 818.473 1270.82 816.47C1270.82 815.274 1271.91 813.877 1276.27 809.476C1280.76 804.944 1281.92 803.438 1282.87 800.918C1283.49 799.236 1285.77 794.773 1287.92 791.001C1295.07 778.484 1299.04 769.011 1300.96 759.883C1301.37 757.92 1302.05 755.927 1302.47 755.452C1305.13 752.447 1307.01 747.327 1307.65 741.36C1307.69 740.965 1308.26 740.068 1308.92 739.367C1309.97 738.233 1311.23 734.294 1311.23 732.098C1311.23 731.655 1311.67 730.669 1312.22 729.908C1313.31 728.38 1314.36 725.069 1314.39 723.051C1314.41 721.849 1319.2 708.925 1322.46 701.296C1323.52 698.824 1324.04 696.226 1324.66 690.406C1325.32 684.053 1325.85 681.637 1327.75 676.093C1330.24 668.828 1332.4 659.625 1333.25 652.686C1334.11 645.634 1333.94 635.773 1332.9 632.493C1331.96 629.542 1332.26 626.412 1333.83 622.696C1334.2 621.836 1334.54 620.194 1334.6 619.047C1334.65 617.9 1335.08 614.029 1335.54 610.445C1337.98 591.589 1337.99 571.783 1335.56 557.943C1335.12 555.423 1334.45 550.193 1334.06 546.323C1333.51 540.712 1331.65 531.042 1330.39 527.217C1330.28 526.888 1330.93 525.619 1331.83 524.399L1333.47 522.18L1333.49 507.534L1333.5 492.887L1331.81 488.133C1330.46 484.337 1330.11 482.552 1330.1 479.271C1330.09 476.157 1329.82 474.594 1328.96 472.816C1328 470.815 1327.83 469.499 1327.79 463.853L1327.75 457.235L1326.02 455.462L1324.3 453.689L1324.07 441.624C1323.82 428.492 1323.62 427.496 1320.71 424.195C1318.73 421.953 1318.05 419.879 1318.04 415.996C1318.02 412.742 1316.59 409.069 1314.99 408.223C1314.41 407.915 1313.48 406.335 1312.89 404.662C1312.3 403.009 1310.95 399.427 1309.88 396.703C1308.58 393.378 1307.73 390.062 1307.28 386.611C1306.8 382.861 1306.32 381.098 1305.51 380.094C1303.56 377.678 1298.63 367.57 1297.77 364.242C1297.25 362.241 1297.06 360.063 1297.24 358.475C1297.63 355.265 1296.81 353.3 1293.97 350.591C1292.65 349.333 1291.81 348.057 1291.81 347.316C1291.81 345.535 1290.46 342.609 1288.72 340.644C1287.81 339.614 1287.05 338.012 1286.82 336.663C1286.27 333.333 1284.9 330.053 1282.82 327.049C1281.81 325.584 1280.19 322.182 1279.24 319.49C1272.54 300.647 1269.09 295.277 1261.09 291.25L1258.43 289.914L1257.5 285.572C1255.26 275.039 1249.76 264.877 1237.14 247.951C1235.47 245.704 1234.1 243.545 1234.1 243.153C1234.1 241.474 1232.65 239.566 1230.18 237.985C1227.79 236.453 1227.19 235.627 1223.91 229.409C1221.36 224.57 1219.25 221.379 1216.8 218.658C1214.89 216.531 1212.32 212.914 1211.09 210.621C1208.69 206.144 1207.22 204.766 1203.91 203.881C1201.97 203.362 1201.65 203 1199.8 199.265C1195.24 190.075 1191.36 185.683 1185.18 182.697C1182.03 181.172 1181.73 180.834 1174.18 170.446C1169.9 164.57 1165.69 158.238 1164.81 156.374C1163.93 154.51 1162.34 152.086 1161.27 150.986C1159.34 148.994 1155.06 146.469 1153.62 146.469C1152.31 146.469 1148.53 142.916 1145.94 139.258C1142.78 134.787 1137.15 129.597 1132.6 126.954C1130.66 125.826 1128.46 124.12 1127.73 123.163C1126 120.909 1120.88 116.878 1116.57 114.368C1114.57 113.209 1111.57 110.715 1109.34 108.363C1104.86 103.627 1101.65 101.449 1097.62 100.408C1093.48 99.3342 1089.72 97.3256 1084.44 93.3515C1081.56 91.1813 1079.73 89.4229 1079.52 88.6023C1079.03 86.748 1077.5 85.2372 1074.96 84.1069C1073.75 83.5689 1072.18 82.4502 1071.47 81.6213C1070.76 80.7919 1068.28 79.1982 1065.96 78.0794C1063.64 76.9601 1059.73 74.6596 1057.28 72.9663C1051.88 69.2394 1042.93 64.7534 1032.36 60.4713C1028.03 58.7186 1023.28 56.4936 1021.81 55.527C1018.68 53.4689 1016.14 52.554 1008.68 50.8044C1002.36 49.3197 1001.89 49.1012 994.421 44.2112C985.332 38.2593 974.349 33.4412 963.07 30.4582C952.043 27.542 948.778 26.319 940.828 22.1275C939.681 21.5233 936.712 20.9384 932.695 20.5255C928.282 20.072 923.908 19.1659 918.236 17.53C895.499 10.9733 887.32 9.28998 872.303 8.07738C867.096 7.65668 862.02 6.97739 861.022 6.56763C855.171 4.16382 836.755 3.03255 822.218 4.18467C810.659 5.10011 809.906 5.08394 802.018 3.74102C783.669 0.618821 769.314 0.173089 757.419 2.35742ZM755.038 175.793C752.477 177.076 751.458 178.648 751.387 181.419C751.249 186.85 752.561 215.068 753.773 232.748C754.92 249.475 755.115 255.269 754.876 265.435C754.544 279.457 755.06 287.657 756.711 294.647C757.511 298.031 757.959 302.13 758.208 308.339C758.528 316.284 758.709 317.548 759.96 320.55C760.97 322.975 761.354 324.811 761.354 327.213C761.354 330.55 762.81 335.924 764.278 338.007C765.374 339.561 765.344 355.16 764.24 357.784C763.283 360.062 763.219 362.273 764.109 362.362C764.47 362.398 766.89 362.493 769.487 362.572C772.084 362.652 775.744 362.916 777.62 363.161C779.687 363.43 782.269 363.401 784.178 363.086C785.91 362.801 793.583 362.583 801.231 362.603C814.971 362.639 815.187 362.657 819.595 364.09C823.679 365.418 824.915 365.562 834.286 365.802C844.48 366.064 844.526 366.07 846.837 367.569C848.672 368.758 849.752 369.073 852.001 369.073C854.052 369.073 855.218 369.365 856.181 370.117C858.258 371.74 862.399 372.722 867.163 372.722C869.724 372.722 872.332 373.036 873.496 373.483C874.583 373.901 878.721 375.426 882.691 376.872C889.096 379.205 890.353 379.871 893.855 382.787C899.518 387.502 904.519 390.075 908.023 390.075C909.953 390.075 911.348 389.73 912.651 388.929C915.334 387.282 918.896 383.157 921.139 379.1C922.207 377.169 924.622 373.966 926.506 371.981C929.066 369.283 930.528 367.111 932.295 363.379C933.595 360.633 935.589 357.372 936.726 356.131C939.872 352.7 941.497 348.761 941.206 345.275L940.968 342.427L944.792 339.027C949.431 334.902 950.573 333.017 953.12 325.282C955.553 317.892 956.84 314.78 958.76 311.64C960.329 309.073 962.741 302.468 963.868 297.652C964.316 295.737 965.039 294.319 966.047 293.38C966.877 292.608 967.556 291.506 967.556 290.931C967.556 289.735 975.86 275.811 978.058 273.323C979.367 271.841 981.723 266.661 981.723 265.266C981.723 264.965 983.481 261.514 985.631 257.596C989.917 249.784 990.947 246.69 990.452 243.108C989.95 239.469 988.662 237.26 986.36 236.093C985.238 235.525 981.67 233.379 978.431 231.325C970.331 226.192 966.376 224.609 960.775 224.262C955.947 223.962 956.39 224.162 946.849 217.996C941.785 214.723 919.821 202.269 913.93 199.329C908.399 196.569 899.081 193.4 892.526 192.049C889.967 191.522 887.581 190.7 886.927 190.122C885.08 188.486 873.632 187.137 869.78 188.101C867.608 188.644 867.12 188.51 857.683 184.784C835.349 175.967 825.664 174.62 784.566 174.62C757.416 174.62 757.376 174.622 755.038 175.793ZM651.043 186.127C648.314 186.561 642.796 188.288 639.102 189.864C637.804 190.418 634.56 191.079 631.895 191.334C629.03 191.606 626.241 192.2 625.074 192.784C623.988 193.327 621.919 193.933 620.476 194.129C616.685 194.646 614.48 195.413 611.924 197.106C610.421 198.102 608.995 198.601 607.657 198.601C606.129 198.601 605.286 198.966 604.142 200.124C603.034 201.245 601.505 201.933 598.356 202.73C589.656 204.929 581.614 208.483 575.888 212.655C574.44 213.711 570.606 215.556 567.368 216.756C554.462 221.54 544.535 226.649 536.264 232.765C533.013 235.169 517.974 242.85 513.965 244.155C512.522 244.624 509.925 246.082 508.193 247.394C506.462 248.705 503.832 250.685 502.35 251.793C500.867 252.9 499.097 254.469 498.415 255.279C497.587 256.261 495.909 257.164 493.369 257.995C488.936 259.443 485.979 261.73 484.596 264.779C483.587 267.002 482.448 267.826 474.095 272.382C469.899 274.671 465.829 278.235 464.919 280.419C464.244 282.037 463.131 282.516 460.013 282.526C457.361 282.536 455.105 284.699 454.623 287.692C454.322 289.563 454.105 289.834 452.903 289.844C450.736 289.862 447.475 291.579 445.619 293.679C444.684 294.737 443.919 295.83 443.919 296.106C443.919 296.383 443.138 296.609 442.183 296.609C440.268 296.609 438.959 297.362 437.994 299.02C437.646 299.619 436.593 301.116 435.655 302.348C432.621 306.33 433.647 309.693 438.919 313.044C440.449 314.016 444.018 317.447 447.068 320.877C452.838 327.366 457.101 330.879 461.002 332.359C463.157 333.177 463.549 333.598 464.891 336.541C467.894 343.12 472.035 347.894 482.298 356.607C485.98 359.733 490.336 363.993 491.978 366.073C496.003 371.174 502.546 377.783 511.079 385.368C520.299 393.563 526.819 399.911 526.819 400.692C526.819 401.85 529.465 404.449 531.235 405.03C532.524 405.453 533.07 405.989 533.282 407.043C533.799 409.613 537.043 413.551 542.611 418.369C545.625 420.977 551.17 426.696 554.994 431.142C565.998 443.934 571.41 448.331 576.112 448.303C580.321 448.277 585.222 444.864 590.365 438.376C592.169 436.101 593.88 434.238 594.167 434.238C594.455 434.238 596.66 433.291 599.069 432.132C603.918 429.8 609.682 424.861 612.192 420.886C613.387 418.993 615.094 417.684 621.525 413.724C625.854 411.058 632.856 407.183 637.084 405.111C641.313 403.039 647.7 399.415 651.277 397.057C656.889 393.356 658.119 392.754 660.251 392.662C663.498 392.521 665.267 391.551 668.06 388.379L670.363 385.763L679.676 383.41C684.851 382.103 690.398 380.351 692.161 379.467C700.881 375.093 705.112 367.28 704.562 356.562C704.266 350.795 702.862 346.185 698.818 337.699L696.163 332.13L696.616 327.012C697.336 318.879 697.05 317.255 694.374 314.311L692.481 312.23L692.567 305.782C692.685 296.98 691.06 289.713 687.361 282.509C686.791 281.398 686.324 279.482 686.324 278.25C686.324 275.332 685.599 272.903 684.037 270.589C683.343 269.56 682.022 266.256 681.101 263.245C680.181 260.234 678.631 256.237 677.659 254.363C676.107 251.372 675.947 250.706 676.352 248.92C676.917 246.434 676.342 243.235 674.55 238.891C673.815 237.11 672.86 233.311 672.427 230.45C671.483 224.204 670.593 221.458 668.196 217.394C666.799 215.026 666.386 213.743 666.386 211.771C666.386 208.734 665.19 204.448 663.859 202.713C663.318 202.008 662.631 199.671 662.275 197.324C661.544 192.515 659.669 188.07 657.909 186.979C656.225 185.934 653.996 185.658 651.043 186.127ZM1059.9 302.8C1054.75 304.445 1051.01 307.503 1046.36 313.881C1045.18 315.495 1041.77 318.936 1038.77 321.527C1031.06 328.201 1026.29 333.451 1023.97 337.835C1022.66 340.323 1020.63 342.947 1017.99 345.577C1015.14 348.409 1012.93 351.33 1010.32 355.711C1007.21 360.921 1004.59 364.171 993.266 376.848C971.063 401.708 971.153 401.596 970.126 405.58C969.722 407.145 969.106 408.275 968.564 408.446C968.072 408.601 967.399 409.376 967.07 410.166C966.699 411.055 965.625 411.994 964.259 412.625C962.561 413.409 962.009 413.976 961.883 415.064C961.625 417.285 968.086 440.234 971.097 447.793C977.545 463.981 979.625 469.932 979.628 472.212C979.637 476.816 980.708 483.952 981.739 486.267C982.491 487.958 982.772 489.744 982.772 492.843C982.772 496.122 983.02 497.572 983.852 499.163C984.446 500.299 985.271 503.105 985.685 505.399C986.594 510.446 988.993 515.507 991.304 517.259C993.351 518.81 998.339 520 1006.04 520.773C1014.94 521.667 1026.88 520.342 1039.42 517.069C1042.75 516.201 1047.24 515.027 1049.41 514.46C1051.57 513.894 1056.88 513.098 1061.21 512.693C1065.54 512.287 1070.29 511.595 1071.76 511.155C1074.52 510.332 1077.7 508.164 1079.61 505.811L1080.69 504.475L1082.76 505.829C1087.27 508.786 1091.88 508.741 1101.03 505.651C1105.07 504.285 1106.55 504.058 1112.31 503.93C1118.05 503.802 1119.31 503.609 1121.81 502.485C1123.74 501.619 1125.84 501.142 1128.11 501.052C1129.99 500.977 1133.41 500.475 1135.72 499.935C1140.61 498.793 1151.39 495.035 1153.3 493.811C1156.76 491.586 1161.81 487.18 1162.26 485.988C1162.91 484.291 1162.17 481.972 1160.11 479.272C1159.17 478.04 1158.57 476.599 1158.56 475.593C1158.55 474.586 1158.01 473.305 1157.17 472.319C1156 470.942 1155.78 470.139 1155.68 466.936C1155.59 464.025 1155.19 462.315 1153.91 459.392C1152.99 457.314 1151.52 453.943 1150.63 451.903C1149.45 449.206 1148.88 446.875 1148.55 443.356C1148 437.666 1146.86 434.381 1143.91 430.088C1142.72 428.363 1141.75 426.828 1141.75 426.678C1141.75 426.527 1140.33 423.257 1138.6 419.412C1136.86 415.566 1134.95 410.819 1134.34 408.863C1133.06 404.741 1131.18 400.846 1129.99 399.863C1129.53 399.486 1128.31 396.491 1127.28 393.208C1124.71 385.028 1122.27 381.124 1118.5 379.165C1117.69 378.743 1116.1 377.563 1114.96 376.542C1113.24 375.001 1112.89 374.351 1112.89 372.702C1112.89 371.214 1112.52 370.345 1111.4 369.228C1110.23 368.07 1109.81 367.047 1109.51 364.635C1108.82 359.196 1107.33 356.147 1103.44 352.282C1100.24 349.095 1099.9 348.547 1099.61 346.116C1099.21 342.749 1097.39 338.808 1094.67 335.412C1093.51 333.958 1092.38 331.963 1092.17 330.98C1091.45 327.695 1089.74 325.155 1084.84 320.117C1081.89 317.093 1079.4 313.983 1078.53 312.249C1073.81 302.814 1068.42 300.079 1059.9 302.8ZM362.33 375.839C360.866 376.423 359.366 378.21 357.367 381.75C356.285 383.666 355.145 384.975 354.27 385.304C352.247 386.065 350.57 387.787 349.26 390.447C347.238 394.553 341.767 401.452 339.126 403.226C334.439 406.375 329.791 412.008 326.225 418.859C325.422 420.403 324 422.066 322.737 422.938C320.096 424.761 318.91 426.942 319.135 429.565C319.29 431.378 319.005 431.902 316.114 435.118C311.854 439.857 310.259 442.481 309.273 446.37C308.821 448.156 306.296 453.84 303.664 459.001C295.343 475.313 294.373 477.468 293.268 482.102C292.485 485.385 291.724 487.205 290.502 488.716C287.521 492.404 286.198 495.238 281.064 508.924C278.293 516.31 275.389 523.311 274.61 524.48C273.565 526.048 273.137 527.449 272.977 529.817C272.837 531.867 272.228 534.16 271.292 536.157C269.265 540.477 267.887 545.807 266.535 554.55C265.471 561.431 265.244 562.178 263.542 564.393C260.995 567.707 259.658 571.392 259.223 576.298C259.019 578.592 258.561 581.768 258.203 583.356C257.397 586.945 258.009 589.569 260.294 592.317C262.265 594.688 273.502 600.434 279.906 602.345C284.524 603.724 290.79 604.705 295.077 604.72C298.914 604.735 302.042 605.714 305.547 607.998C309.444 610.538 315.04 611.981 322.454 612.359C327.456 612.613 328.664 612.863 331.517 614.233C334.723 615.772 334.956 615.806 340.331 615.503C345.686 615.202 345.926 615.236 348.319 616.635C351.525 618.509 353.905 619.309 356.243 619.3C359.672 619.287 371.675 622.043 373.611 623.288C376.326 625.034 379.364 625.536 387.302 625.551C393.277 625.561 394.937 625.746 397.533 626.687C400.244 627.67 401.957 627.833 411.203 627.984C421.542 628.153 421.871 628.192 426.157 629.779L430.539 631.401L444.444 631.51C455.795 631.599 459.022 631.789 462.021 632.548C467.525 633.94 474.422 633.854 477.912 632.349C481.365 630.86 484.352 627.581 485.613 623.895C487.088 619.585 487.234 612.642 485.968 607.069L484.906 602.39L487.161 598.988C491.629 592.25 493.764 586.813 493.764 582.175C493.764 577.847 497.205 567.226 501.472 558.384C503.625 553.922 505.747 549.442 506.188 548.428C508.088 544.057 510.643 535.826 511.36 531.765C511.787 529.349 512.193 527.326 512.264 527.27C512.333 527.213 513.154 526.781 514.087 526.309C515.874 525.406 517.375 523.127 517.375 521.315C517.375 520.722 518.289 518.117 519.407 515.527C521.241 511.274 522.03 510.193 527.533 504.378C530.885 500.837 533.886 497.272 534.203 496.456C535.02 494.346 534.354 490.304 532.768 487.755C530.951 484.836 528.466 482.28 523.147 477.858C520.694 475.819 516.208 471.768 513.178 468.855C507.69 463.579 503.609 460.597 499.392 458.78C498.173 458.255 494.314 455.606 490.817 452.895C479.208 443.893 471.453 439.537 463.164 437.361C458.857 436.23 458.737 436.156 457.639 433.909C456.102 430.767 452.718 427.243 449.493 425.428C446.78 423.9 438.898 421.205 437.146 421.205C436.554 421.205 435.476 420.043 434.277 418.113C430.806 412.526 426.989 409.805 415.915 405.025C412.127 403.39 408.319 401.671 407.453 401.205C406.587 400.74 405.605 400.358 405.271 400.356C404.438 400.351 400.422 397.089 395.385 392.327C391.066 388.243 386.063 385.234 383.591 385.234C382.523 385.234 382.019 384.839 381.445 383.549C380.428 381.267 378.004 379.776 374.055 379.004C372.243 378.65 369.69 377.829 368.381 377.18C365.376 375.688 363.661 375.309 362.33 375.839ZM685.155 546.947C682.789 547.572 680.307 550.229 679.457 553.046C678.907 554.871 678.586 555.159 676.538 555.672C673.124 556.526 670.454 559.249 667.687 564.701C666.367 567.301 663.848 571.327 662.089 573.646C658.801 577.981 657.354 580.729 656.698 583.878C656.056 586.968 652.723 595.941 650.836 599.665C648.937 603.413 647.294 609.517 646.69 615.075C646.417 617.591 645.928 618.969 644.683 620.727C643.071 623.003 643.037 623.174 643.015 629.129C643.002 632.472 642.798 639.43 642.561 644.592C641.875 659.55 643.857 674.271 647.226 679.246C648.192 680.672 649.141 682.607 649.335 683.547C649.994 686.738 651.661 689.546 653.298 690.219C656.827 691.672 659.708 690.283 670.341 682.006C674.307 678.918 678.075 675.987 678.715 675.49C679.444 674.925 681.325 674.461 683.757 674.245C689.624 673.725 692.628 672.4 696.686 668.543L700.188 665.213L705.271 664.756C711.541 664.192 713.393 663.253 715.146 659.751C716.36 657.324 716.392 657.012 715.82 653.243C715.489 651.065 714.513 647.507 713.652 645.335C712.79 643.164 709.915 632.842 707.262 622.397L702.438 603.407L702.309 595.327C702.18 587.229 701.255 580.942 699.624 577.08C698.983 575.562 698.916 573.225 699.224 563.164C699.649 549.25 699.497 548.439 696.234 547.142C693.935 546.228 688.257 546.127 685.155 546.947ZM1005.21 559.546C999.033 561.83 996.414 566.442 996.414 575.034C996.414 579.86 993.566 591.373 991.869 593.412C991.092 594.345 990.642 595.564 990.642 596.736C990.642 597.753 989.785 600.715 988.737 603.318C987.512 606.36 986.735 609.268 986.561 611.463C986.371 613.857 985.921 615.418 985.055 616.692C984.377 617.69 983.821 619.158 983.821 619.955C983.821 620.752 981.578 625.856 978.837 631.298C974.276 640.352 973.852 641.448 973.849 644.195C973.847 645.847 973.691 648.814 973.504 650.789C973.187 654.127 973.049 654.438 971.543 655.22C970.652 655.682 968.918 657.027 967.69 658.207C965.656 660.163 965.457 660.584 965.457 662.928C965.457 664.862 965.827 666.077 966.946 667.819C969.605 671.959 982.96 685.138 990.228 690.794C994.051 693.769 998.954 698.009 1001.13 700.218C1003.6 702.737 1006 704.641 1007.56 705.325C1009.61 706.221 1010.78 707.363 1014.08 711.704C1018.73 717.802 1021.97 721.051 1024.68 722.322C1025.73 722.814 1029.88 726.358 1033.91 730.198C1039.53 735.549 1041.44 737.718 1042.12 739.49C1043.36 742.727 1045.24 744.81 1049.59 747.731C1052.86 749.931 1054.19 751.379 1059.9 759.007C1063.51 763.821 1067.05 768.762 1067.77 769.986C1068.49 771.211 1070.8 773.575 1072.89 775.239C1079.66 780.615 1082.46 780.391 1086.11 774.184C1087.94 771.079 1088.72 770.265 1090.97 769.132C1093.68 767.767 1098.38 763.444 1098.98 761.761C1099.16 761.258 1100.3 760.137 1101.5 759.269C1102.7 758.402 1104.21 756.877 1104.84 755.881C1105.48 754.884 1106.6 753.343 1107.33 752.455C1108.06 751.567 1109.27 749.194 1110.02 747.181C1111.15 744.156 1111.89 743.096 1114.25 741.068C1115.82 739.719 1117.61 737.635 1118.22 736.437C1118.84 735.239 1120.47 733.026 1121.85 731.52C1123.84 729.356 1124.5 728.154 1125.02 725.786C1126.03 721.21 1132.3 708.559 1134.64 706.368C1136.7 704.45 1138.2 701.926 1138.83 699.365C1139.03 698.524 1139.77 697.158 1140.47 696.328C1142.02 694.506 1142.06 693.275 1140.68 690.25L1139.63 687.947L1140.92 686.601C1142.91 684.534 1145.13 679.334 1145.18 676.596C1145.22 674.978 1145.6 673.724 1146.37 672.759C1148.59 669.95 1150.14 665.856 1151.93 658.101C1154.04 648.909 1154.48 647.757 1157.57 643.271C1160.62 638.834 1161.77 635.061 1161.96 628.792C1162.09 624.607 1162.44 622.807 1163.99 618.32C1165.02 615.34 1166.41 611.817 1167.08 610.49C1168.28 608.095 1168.29 607.959 1168.17 589.743C1168.03 569.715 1167.99 569.405 1164.92 567.236C1161.7 564.957 1156.96 564.718 1149.92 566.477C1147.85 566.992 1145.63 567.151 1143.36 566.948C1141.46 566.779 1128.15 566.419 1113.78 566.148C1087.81 565.659 1087.61 565.646 1082.3 564.248C1077.09 562.876 1076.46 562.833 1057.02 562.504C1039.52 562.208 1036.79 562.05 1034.72 561.224C1032.46 560.324 1029.12 560.008 1012.15 559.09C1008.6 558.898 1006.61 559.029 1005.21 559.546ZM459.966 670.788C459.749 671.003 453.748 671.313 446.63 671.477C435.257 671.739 433.338 671.907 430.802 672.859C425.795 674.74 416.82 675.113 394.861 674.354C382.244 673.918 378.904 674.183 368.889 676.411C365.52 677.162 362.802 677.247 350 677.008C332.081 676.674 322.142 677.216 314.173 678.963C310.203 679.833 305.21 680.427 298.832 680.786C290.868 681.236 288.89 681.517 286.293 682.566L283.21 683.813L280.795 682.323C277.877 680.523 273.112 679.563 269.198 679.986C257.612 681.238 256.999 681.389 254.679 683.583C253.474 684.723 251.855 687.058 251.079 688.777C249.788 691.633 249.687 692.327 249.895 696.918C250.095 701.37 250.483 703.317 252.468 709.844C252.744 710.753 253.068 716.176 253.189 721.895C253.376 730.77 253.565 732.704 254.483 735.101C255.214 737.008 255.738 740.248 256.118 745.207C256.583 751.262 257.249 754.769 260.028 765.799C261.871 773.11 263.624 779.91 263.926 780.909C264.227 781.909 264.836 785.487 265.279 788.861C266.078 794.941 267.746 801.461 268.643 802.012C268.9 802.169 269.26 804.115 269.443 806.335C270.729 821.872 272.686 831.308 277.631 845.822C279.682 851.843 281.547 857.825 281.774 859.115C285.297 879.122 288.848 891.966 293.736 902.385C295.014 905.109 296.508 908.858 297.055 910.716C299.252 918.17 301.657 921.153 305.471 921.153C306.43 921.153 309.227 920.348 311.686 919.364C314.145 918.381 320.172 916.008 325.077 914.092C335.627 909.97 339.355 908.149 345.075 904.327C348.076 902.321 350.07 901.372 351.834 901.109C353.267 900.896 356.83 899.448 360.169 897.723C363.378 896.066 366.641 894.558 367.422 894.373C368.202 894.188 372.36 891.931 376.661 889.359C380.965 886.786 388.232 883.065 392.82 881.086C409.328 873.965 419.992 868.477 430.692 861.595C434.678 859.031 438.17 857.483 449.843 853.106C457.695 850.161 465.536 847.112 467.267 846.33C469.418 845.359 471.192 844.932 472.866 844.982C476.306 845.086 480.317 843.438 484.437 840.228C486.377 838.717 488.936 836.894 490.123 836.177C493.796 833.959 496.348 830.999 497.252 827.908C498.33 824.224 497.65 820.647 494.462 813.239C493.167 810.228 491.448 805.302 490.642 802.291C489.837 799.281 488.099 792.947 486.781 788.216C483.708 777.185 483.265 775.222 480.667 761.107C477.936 746.266 476.308 739.428 473.736 731.995C471.726 726.185 471.683 725.906 471.306 715.996C470.95 706.65 470.838 705.823 469.783 704.706C468.722 703.582 468.609 702.695 468.099 691.511C467.521 678.828 466.977 674.617 465.66 672.62C464.49 670.844 461.029 669.731 459.966 670.788ZM726.424 684.248C709.6 695.625 694.131 705.701 690.784 707.465C686.555 709.693 685.196 711.214 685.123 713.8C685.072 715.581 684.933 715.702 680.581 717.752C678.113 718.915 675.43 720.004 674.619 720.173C673.808 720.341 672.155 721.359 670.946 722.433C669.737 723.508 667.765 725.042 666.565 725.842C662.414 728.61 662.282 731.757 666.065 737.787C667.366 739.861 669.158 743.786 670.048 746.51C672.355 753.569 675.755 759.947 681.545 768.08C684.318 771.974 687.406 776.593 688.406 778.343C691.801 784.282 697.893 790.932 705.475 796.975C707.495 798.585 711.745 802.387 714.92 805.425C718.094 808.463 721.99 811.967 723.577 813.212C726.625 815.603 733.139 818.974 734.712 818.974C735.225 818.974 735.645 819.189 735.645 819.452C735.645 820.368 739.188 822.098 743.756 823.413C746.284 824.141 749.33 825.402 750.525 826.215C755.947 829.905 760.852 831.419 764.351 830.483C768.392 829.402 772.482 824.444 774.49 818.192C774.859 817.045 775.745 815.227 776.459 814.151C777.371 812.779 777.88 811.069 778.166 808.417C778.647 803.949 781.775 794.559 783.701 791.797C785.531 789.173 785.949 786.977 785.398 782.888C784.944 779.523 784.972 779.394 786.794 776.407C787.816 774.73 788.797 772.479 788.974 771.403C789.177 770.174 789.584 769.448 790.069 769.448C790.494 769.448 791.613 768.682 792.556 767.745C794.297 766.015 795.459 762.478 795.459 758.907C795.459 758.011 795.836 756.865 796.296 756.36C797.556 754.977 798.558 751.76 798.584 749.017C798.597 747.672 798.846 746.424 799.139 746.245C800.468 745.429 801.83 741.513 802.187 737.486C802.537 733.543 802.735 732.995 804.766 730.326C807.131 727.217 808.576 724.259 808.576 722.525C808.576 720.885 806.714 717.607 804.943 716.125C803.056 714.549 799.756 713.443 794.41 712.594C791.136 712.075 788.651 711.064 779.622 706.578C770.405 701.997 768.392 700.783 766.256 698.514C763.985 696.102 760.638 693.856 759.314 693.856C758.798 693.856 746.356 685.512 742.99 682.908C740.066 680.646 737.97 679.781 735.413 679.781C733.286 679.781 732.324 680.259 726.424 684.248ZM924.337 692.014C922.676 693.007 919.602 695.253 917.506 697.005C914.606 699.428 912.39 700.72 908.227 702.412C905.219 703.635 901.542 705.252 900.056 706.005C896.266 707.926 861.072 716.638 855.273 717.09C851.54 717.382 850.227 717.258 847.216 716.334C840.95 714.412 838.65 715.047 835.609 719.539C834.593 721.04 832.948 723.441 831.953 724.875C829.715 728.101 827.96 733.08 827.728 736.865C827.615 738.696 827.117 740.429 826.348 741.666C825.459 743.094 825.117 744.493 825.042 747.01C824.983 748.957 824.009 754.076 822.772 758.945C820.225 768.966 818.558 779.085 818.551 784.58C818.544 789.669 817.782 795.813 816.194 803.595C814.905 809.913 812.82 827.148 811.713 840.643C810.484 855.612 813.48 860.336 825.092 861.743C826.83 861.953 829.985 862.511 832.103 862.983C838.834 864.482 845.415 864.726 874.424 864.555C901.423 864.395 902.992 864.334 907.742 863.241C911.145 862.458 915.472 861.979 921.384 861.729C929.047 861.406 930.613 861.179 935.026 859.752C937.767 858.867 943.649 857.281 948.096 856.229C966.498 851.875 979.884 846.485 996.939 836.561C1006.93 830.749 1006.9 830.783 1003.52 826.69C1000.23 822.721 997.752 818.12 994.746 810.393C991.462 801.948 989.817 798.696 986.826 794.729C983.987 790.963 977.088 777.385 975.438 772.315C973.681 766.917 968.576 756.605 965.873 752.995C964.208 750.772 963.398 749.111 963.138 747.386C962.118 740.629 958.662 733.501 950.665 721.667C945.935 714.667 944.686 712.419 944.087 709.828C943.322 706.521 939.678 698.867 937.071 695.089C933.313 689.645 929.738 688.782 924.337 692.014ZM526.295 872.637C525.573 872.856 523.592 873.774 521.892 874.677C520.192 875.58 518.468 876.319 518.062 876.319C516.69 876.319 513.98 878.017 511.014 880.736C508.211 883.305 496.188 891.013 488.255 895.326C482.824 898.279 475.143 903.646 470.678 907.608C465.803 911.933 457.144 917.024 441.82 924.573C425.47 932.627 413.41 939.636 401.924 947.76C399.423 949.529 397.841 950.259 396.084 950.456C392.805 950.823 388.282 953.189 384.685 956.419C380.715 959.984 363.275 970.856 356.034 974.28C348.091 978.036 345.476 980.13 341.668 985.787C333.772 997.515 334.718 1002.13 350.265 1027.76C354.092 1034.07 358.427 1041.51 359.899 1044.29C361.37 1047.07 363.419 1050.66 364.45 1052.26C366.952 1056.15 372.542 1061.98 375.7 1063.99C377.739 1065.29 378.993 1066.79 381.923 1071.45C386.607 1078.9 391.316 1085.18 395.685 1089.8C400.08 1094.45 407.2 1103.11 413.479 1111.43C422.046 1122.8 425.896 1126.85 439.197 1138.48C458.732 1155.56 466.483 1162.48 469.366 1165.4C474.727 1170.82 479.081 1172.95 484.815 1172.95C491.503 1172.95 497.609 1170.03 500.019 1165.68C501.009 1163.89 501.296 1162.62 501.273 1160.12C501.244 1157.08 501.378 1156.71 503.323 1154.37C505.808 1151.38 507.192 1148.81 507.669 1146.28C507.869 1145.22 509.027 1143.21 510.361 1141.61C513.213 1138.19 515.916 1133.87 517.172 1130.72C517.687 1129.43 520.014 1126.03 522.341 1123.16C527.571 1116.72 531.886 1110.24 535.714 1103.09C537.326 1100.07 540.787 1094.56 543.405 1090.84C546.023 1087.11 553.083 1076.79 559.094 1067.9C565.105 1059.02 571.892 1049.51 574.174 1046.79C579.243 1040.74 581.761 1036.39 582.523 1032.37C583.341 1028.05 584.353 1026.29 588.031 1022.77C590.49 1020.42 591.636 1019.68 592.814 1019.68C595.579 1019.68 596.961 1018.03 597.947 1013.54C598.753 1009.88 599.046 1009.33 601.214 1007.43C607.453 1001.97 609.047 1000.15 609.428 998.08C609.707 996.56 610.67 995.097 613.139 992.448C618.801 986.371 620.233 981.436 617.725 976.638C616.647 974.575 613.431 971.293 611.462 970.246C610.921 969.959 610.186 968.608 609.811 967.215C609.029 964.311 607.207 961.726 605.048 960.459C603.849 959.755 603.313 958.801 602.438 955.807C600.919 950.611 600.167 949.822 596.308 949.37C592.758 948.954 590.877 947.811 589.461 945.21C588.471 943.393 585.245 940.441 584.247 940.441C583.239 940.441 578.256 933.775 576.103 929.545C573.81 925.041 568.611 918.761 563.619 914.468C561.45 912.601 559.955 910.77 559.053 908.877C557.79 906.222 554.969 903.283 551.996 901.523C550.13 900.417 548.609 897.897 547.812 894.591C547.008 891.255 543.907 887.6 540.242 885.669C538.256 884.622 537.747 883.985 536.542 881.038C534.575 876.231 532.807 873.749 530.737 872.889C528.777 872.076 528.24 872.045 526.295 872.637ZM1322.68 897.894C1318.43 899.418 1312.11 905.268 1304.03 915.158C1295.71 925.351 1258.26 961.204 1252.46 964.532C1249.72 966.106 1248.26 967.567 1245.97 971.008C1244.89 972.641 1241.64 975.595 1236.46 979.655C1226.12 987.757 1223.48 989.473 1212.68 995.127C1207.68 997.744 1202.13 1000.86 1200.35 1002.05C1196.49 1004.63 1190.71 1010.38 1189.24 1013.1C1188.63 1014.22 1187.69 1015.14 1187.01 1015.27C1186.36 1015.4 1185.25 1015.63 1184.54 1015.78C1183.83 1015.92 1182.63 1016.61 1181.87 1017.31C1180.21 1018.84 1173.67 1021.39 1167.5 1022.92C1163.99 1023.79 1162.63 1024.4 1161.3 1025.72C1159.09 1027.89 1159.07 1029.94 1161.17 1035.14C1162.03 1037.29 1162.74 1039.36 1162.74 1039.74C1162.74 1041.51 1165.03 1047.49 1166.59 1049.79C1167.54 1051.2 1169.09 1054.67 1170.03 1057.52C1173.93 1069.26 1179.36 1081.29 1185.17 1091.01C1186.77 1093.69 1189.6 1099.32 1191.45 1103.52C1196.72 1115.44 1199.97 1122.86 1201.56 1126.55C1206.14 1137.25 1209.81 1144 1214.46 1150.31C1219.04 1156.53 1224.09 1165.92 1226.06 1171.87C1229.89 1183.5 1237.17 1196.47 1245.66 1206.84C1247.13 1208.63 1247.66 1209.82 1247.89 1211.88C1248.27 1215.15 1249.76 1218.19 1252.41 1221.09C1253.49 1222.28 1255.98 1226.31 1257.94 1230.04C1259.9 1233.76 1265.34 1243.5 1270.03 1251.67C1280.23 1269.45 1280.03 1269.07 1280.47 1271.92C1280.98 1275.18 1282.39 1277.59 1285.77 1280.97C1289.13 1284.32 1292.32 1286.08 1295.04 1286.08C1297.85 1286.08 1302.68 1283.39 1307.04 1279.4C1310.73 1276.03 1311.15 1275.8 1314.07 1275.46C1317.96 1275.01 1321.3 1273.57 1323.18 1271.52C1324.4 1270.19 1325.23 1269.86 1328.46 1269.41C1333.55 1268.69 1337.02 1267.14 1339.41 1264.51C1340.73 1263.06 1342.98 1261.58 1346.36 1259.97C1351.54 1257.49 1357.23 1254.04 1360.73 1251.23C1362.69 1249.67 1362.8 1249.64 1364.33 1250.42C1366.5 1251.54 1367.89 1251.05 1370.48 1248.26C1372.41 1246.18 1373.25 1245.72 1377.24 1244.57C1383.25 1242.84 1386.52 1241.23 1396.01 1235.33C1400.36 1232.62 1404.97 1229.89 1406.24 1229.25C1407.51 1228.62 1413.36 1225.37 1419.23 1222.03C1428.47 1216.78 1430.28 1215.54 1432.72 1212.77C1435.1 1210.08 1435.89 1209.53 1437.77 1209.23C1441.06 1208.71 1443.77 1207.34 1448.17 1204C1450.33 1202.36 1453.7 1200.2 1455.66 1199.22C1459.87 1197.1 1463.09 1194.34 1464.44 1191.71C1465.85 1188.96 1468.64 1186.72 1471.14 1186.32C1473.77 1185.91 1477.04 1183.49 1480.05 1179.72C1481.31 1178.15 1485.38 1173.2 1489.08 1168.73L1495.82 1160.6L1498.43 1160.29C1504.88 1159.53 1512.35 1154.13 1515.33 1148.09C1516.49 1145.74 1517.05 1145.23 1520.17 1143.71C1522.12 1142.77 1523.62 1141.91 1523.51 1141.8C1523.4 1141.69 1521.88 1142.32 1520.15 1143.19L1516.99 1144.77L1518.05 1141C1518.64 1138.93 1519.41 1136.89 1519.78 1136.46C1522.16 1133.68 1522.42 1132.33 1522.3 1123.43L1522.19 1114.82L1524.34 1117.17C1526.92 1119.97 1529.81 1124.34 1530.86 1126.98C1531.5 1128.62 1531.57 1128.67 1531.3 1127.34C1530.72 1124.44 1527.84 1120.36 1518.64 1109.42C1517.59 1108.17 1515.57 1106.44 1514.16 1105.58C1512.34 1104.46 1510.31 1102.31 1507.12 1098.08C1503.05 1092.7 1498.03 1087.45 1496.95 1087.45C1496.72 1087.45 1496.37 1086.76 1496.18 1085.92C1495.68 1083.62 1493.03 1080.31 1490.79 1079.18C1487.27 1077.39 1479.29 1069.97 1478.57 1067.81C1478.22 1066.75 1476.88 1064.76 1475.6 1063.4C1474.31 1062.04 1472.33 1059.09 1471.18 1056.86C1468.8 1052.21 1465.25 1048.3 1461.81 1046.53C1460.26 1045.74 1454.42 1040.26 1444.76 1030.55C1430.28 1015.98 1430.01 1015.67 1425.87 1008.77C1421.63 1001.71 1420.83 1000.77 1410.19 990.488C1407.96 988.338 1405.59 985.522 1404.91 984.232C1403.74 981.997 1398.38 976.413 1397.4 976.413C1397.14 976.413 1395.3 974.043 1393.3 971.146C1384.25 958.036 1377.16 950.116 1370.57 945.767C1367.48 943.721 1367.04 943.19 1364.87 938.763C1362.8 934.561 1361.78 933.252 1356.59 928.088C1352.51 924.037 1350.55 921.7 1350.31 920.591C1349.91 918.786 1346.45 915.081 1343.96 913.79C1343.06 913.325 1339.72 909.923 1336.52 906.231C1329.16 897.724 1326.92 896.377 1322.68 897.894ZM684.468 1013.77C682.594 1014.32 681.524 1015 680.795 1016.11C680.229 1016.98 678.545 1018.47 677.052 1019.43C673.863 1021.49 672.246 1024 670.341 1029.85C667.687 1038 666.152 1041.32 663.628 1044.36C662.239 1046.04 660.289 1049.02 659.294 1050.98C657.359 1054.8 652.747 1068.15 652.74 1069.95C652.738 1070.6 652 1071.53 650.873 1072.29C646.354 1075.35 643.308 1079.89 641.135 1086.81C640.529 1088.74 639.228 1091.96 638.244 1093.97C637.261 1095.98 636.284 1098.94 636.074 1100.55C635.726 1103.22 635.482 1103.65 633.399 1105.25C630.845 1107.2 626.402 1114.59 623.764 1121.27C622.499 1124.47 622.266 1125.76 622.355 1129.11L622.462 1133.12L619.285 1136.13C615.439 1139.77 613.167 1143.88 609.631 1153.6C608.209 1157.5 606.188 1162.22 605.139 1164.09C604.09 1165.95 601.882 1170.17 600.23 1173.47C598.58 1176.77 594.196 1184.76 590.488 1191.23C585.044 1200.73 583.353 1204.19 581.693 1209.22C579.194 1216.79 578.077 1219.5 573.386 1229.39C569.476 1237.64 569.359 1238.37 571.47 1241.32C572.539 1242.81 582.507 1248.09 593.806 1253.14C597.191 1254.65 600.95 1256.8 602.704 1258.22C606.205 1261.05 608.425 1262.1 610.949 1262.1C614.902 1262.1 615.874 1262.57 616.212 1264.67C616.696 1267.67 617.883 1268.37 623.722 1269.09C629.694 1269.82 632.71 1271.14 634.331 1273.75C636.514 1277.26 641.069 1280.77 644.496 1281.59C645.299 1281.78 647.896 1283.37 650.268 1285.13C656.039 1289.4 659.037 1290.7 664.543 1291.32C669.361 1291.86 671.38 1292.68 678.312 1296.85C685.085 1300.94 692.628 1304.32 694.956 1304.32C695.925 1304.32 709.698 1310.49 715.229 1313.4C719.822 1315.81 723.761 1317.02 729.05 1317.65C731.152 1317.9 733.15 1318.6 735.204 1319.79C739.7 1322.41 744.614 1324.36 751.385 1326.22C754.704 1327.13 759.662 1328.83 762.404 1330C773.705 1334.81 777.379 1336.16 781.461 1336.99C794.658 1339.67 799.79 1332.57 801.258 1309.63C801.679 1303.05 802.023 1300.87 803.049 1298.32C804.476 1294.78 805.35 1287.63 805.469 1278.52C805.533 1273.64 805.931 1271.15 808.13 1261.84C809.552 1255.81 811.536 1248.43 812.538 1245.41C814.62 1239.16 814.787 1236.59 813.298 1233.68C812.721 1232.56 812.249 1231.38 812.249 1231.06C812.249 1230.74 813.302 1229.72 814.59 1228.8C815.879 1227.88 817.118 1226.85 817.345 1226.5C817.572 1226.15 817.904 1224.11 818.083 1221.96C818.274 1219.65 818.991 1216.55 819.828 1214.4C820.632 1212.33 821.378 1209.16 821.545 1207.1C821.746 1204.62 822.281 1202.61 823.21 1200.84C824.504 1198.38 824.584 1197.78 824.669 1189.89C824.733 1183.99 824.987 1180.93 825.538 1179.46C829.01 1170.18 829.151 1169.63 828.901 1166.46C828.714 1164.08 828.95 1162.39 829.859 1159.57C831.748 1153.72 833.646 1144.61 834.445 1137.57C835.004 1132.64 835.382 1131 836.043 1130.63C837.161 1130.01 838.483 1127.46 838.484 1125.93C838.484 1125.27 838.986 1123.44 839.599 1121.86C840.483 1119.59 840.8 1117.21 841.13 1110.39C841.419 1104.39 841.942 1100.03 842.861 1095.95C843.584 1092.74 844.469 1086.97 844.827 1083.13C845.465 1076.28 845.455 1076.1 844.285 1073.7C842.776 1070.6 839.689 1068.93 834.216 1068.25C828.779 1067.57 812.36 1060.88 801.755 1055.03C794.734 1051.15 792.085 1050.18 785.115 1048.94C782.002 1048.38 777.851 1047.32 775.891 1046.58C773.333 1045.61 771.324 1045.23 768.783 1045.23C766.046 1045.23 763.814 1044.75 758.968 1043.14C755.519 1042 751.634 1040.49 750.336 1039.8C747.243 1038.16 743.321 1037.03 737.324 1036.07C733.371 1035.43 731.628 1034.84 728.142 1032.91C720.669 1028.78 714.3 1026.6 706.262 1025.39C702.55 1024.84 702.168 1024.65 699.527 1022.11C697.987 1020.63 696.011 1018.4 695.137 1017.15C693.537 1014.87 690.253 1012.9 688.16 1012.96C687.583 1012.98 685.922 1013.34 684.468 1013.77ZM1080.63 1060.91C1076.85 1061.88 1075.9 1061.93 1071.18 1061.43C1065 1060.76 1060.92 1061.27 1057.29 1063.15C1055.95 1063.86 1053.49 1064.68 1051.83 1064.98C1050.17 1065.29 1048.11 1066.03 1047.25 1066.64C1045.82 1067.65 1045.05 1067.75 1038.76 1067.68C1031.42 1067.59 1027.3 1068.19 1024.1 1069.8C1022.5 1070.6 1021.74 1070.69 1019.93 1070.29C1018.25 1069.91 1016.25 1070.04 1011.81 1070.81C1007 1071.64 1005.11 1071.74 1001.6 1071.35C999.232 1071.08 997.038 1070.94 996.723 1071.04C996.409 1071.13 995.52 1071.34 994.749 1071.51C993.978 1071.68 992.679 1072.37 991.863 1073.05C990.462 1074.21 989.873 1074.3 981.198 1074.56C971.984 1074.84 962.599 1075.99 950.241 1078.33C946.634 1079.02 942.266 1079.84 940.535 1080.17C938.803 1080.49 934.988 1080.94 932.057 1081.17C926.153 1081.63 923.429 1082.64 921.68 1085.01C920.717 1086.32 920.58 1087.36 920.449 1094.4C920.307 1101.95 920.23 1102.46 918.759 1105.44C917.835 1107.32 916.884 1110.53 916.382 1113.48C915.923 1116.19 915.309 1118.84 915.019 1119.38C914.46 1120.42 914.358 1121.92 913.472 1142.19C912.848 1156.47 912.486 1158.66 908.749 1170.79C905.257 1182.12 904.259 1187.36 903.874 1196.41C903.697 1200.57 903.191 1205.26 902.748 1206.84C900.935 1213.3 899.887 1219.45 898.549 1231.46C897.554 1240.39 896.737 1245.42 895.772 1248.54L894.404 1252.97L894.083 1282.69C893.774 1311.18 893.714 1312.55 892.63 1316C892.008 1317.98 891.268 1321.85 890.985 1324.6C890.413 1330.17 890.784 1347.3 891.542 1350.31C892.186 1352.86 894.144 1355.09 896.867 1356.37C900.518 1358.09 925.002 1362.16 938.436 1363.28C947.533 1364.04 962.974 1363.61 969.392 1362.43C977.171 1361 979.678 1360.83 983.297 1361.51C988.264 1362.45 995.088 1362.33 1004.58 1361.15C1009.18 1360.58 1014.64 1360.11 1016.72 1360.11C1020.46 1360.11 1036 1358.01 1040.16 1356.95C1041.35 1356.65 1043.27 1356.03 1044.42 1355.59C1045.71 1355.09 1047.88 1354.8 1050.02 1354.86C1053.68 1354.95 1056.64 1354.07 1058.58 1352.33C1060.21 1350.87 1061.84 1350.67 1073.75 1350.53C1082.53 1350.42 1085.42 1350.2 1087.71 1349.48C1089.3 1348.98 1093.51 1348.35 1097.07 1348.07C1101.09 1347.76 1104.68 1347.17 1106.52 1346.51C1111.58 1344.71 1112.96 1344.49 1119.45 1344.46C1129.68 1344.41 1136.26 1342.78 1141.2 1339.05C1142.85 1337.8 1143.43 1337.69 1148.02 1337.69C1154.73 1337.68 1162.17 1336.51 1167.3 1334.65C1171.27 1333.21 1173.55 1331.91 1179.78 1327.53C1181.22 1326.52 1182.87 1325.69 1183.45 1325.69C1185.03 1325.67 1188.55 1323.92 1189.87 1322.5C1192.79 1319.35 1193.26 1315.02 1191.83 1304.8C1190.87 1297.94 1189.01 1291.72 1186.61 1287.38C1185.24 1284.9 1180.13 1270.06 1176.29 1257.41C1175.98 1256.4 1173.42 1249.01 1170.61 1240.98C1167.79 1232.96 1165.33 1225.21 1165.15 1223.78C1164.96 1222.23 1164.17 1220.12 1163.2 1218.57C1162.24 1217.03 1160.5 1212.42 1158.98 1207.37C1155.99 1197.47 1154.56 1193.72 1151.45 1187.52C1150.22 1185.07 1148.6 1180.79 1147.85 1178.01C1146.31 1172.25 1143.58 1165.39 1140.86 1160.44C1139.84 1158.58 1136.65 1150.6 1133.78 1142.71C1130.9 1134.83 1125.53 1121.34 1121.83 1112.74C1117.68 1103.1 1114.86 1095.81 1114.48 1093.73C1113.72 1089.67 1112.1 1085.23 1110.48 1082.76C1109.82 1081.76 1108.89 1079.76 1108.42 1078.33C1105.64 1069.93 1100.93 1063.51 1095.98 1061.37C1092.08 1059.68 1086.15 1059.5 1080.63 1060.91ZM1531.52 1131.25C1531.33 1132.54 1531.04 1134.06 1530.86 1134.63C1530.68 1135.21 1530.9 1134.88 1531.35 1133.92C1531.81 1132.95 1532.1 1131.42 1532.01 1130.53C1531.87 1129.1 1531.81 1129.19 1531.52 1131.25ZM1527.13 1138.92C1524.55 1141.34 1524.38 1141.58 1526.21 1140.29C1528.02 1139 1531.09 1135.87 1530.45 1135.96C1530.36 1135.97 1528.87 1137.31 1527.13 1138.92Z" fill="#FAF8F5"/>
</g>
</svg>
