<svg width="2048" height="1200" viewBox="0 0 2048 1200" fill="none" xmlns="http://www.w3.org/2000/svg">
<mask id="mask0_10443_44956" style="mask-type:alpha" maskUnits="userSpaceOnUse" x="0" y="0" width="2048" height="1200">
<rect width="2048" height="1200" fill="#D9D9D9"/>
</mask>
<g mask="url(#mask0_10443_44956)">
<path opacity="0.4" fill-rule="evenodd" clip-rule="evenodd" d="M1089.82 1196.24C1101.4 1194.12 1107.11 1193.61 1152.29 1190.69C1194.9 1187.93 1194.74 1187.94 1222.41 1187.08C1248.48 1186.28 1252.43 1185.81 1272.38 1181.15C1279.25 1179.55 1286.5 1177.87 1288.49 1177.42C1290.48 1176.97 1293.2 1175.78 1294.53 1174.79C1295.87 1173.79 1299.05 1171.81 1301.59 1170.38C1305.78 1168.02 1307.47 1167.64 1319.72 1166.23C1348.73 1162.9 1368.78 1157.85 1392.49 1147.9C1400.36 1144.6 1404.81 1143.2 1408.51 1142.87C1411.84 1142.57 1415.39 1141.56 1418.58 1140C1421.68 1138.49 1425.43 1137.4 1428.66 1137.08C1434.75 1136.47 1440.47 1134.47 1446.62 1130.79C1449.68 1128.96 1452.61 1127.94 1455.85 1127.56C1463.51 1126.67 1466.71 1125.36 1470.9 1121.38C1474.61 1117.87 1475.17 1117.62 1480.51 1117.1C1488.84 1116.29 1497.94 1113.76 1502.35 1111.05C1504.49 1109.73 1507.33 1108.66 1508.68 1108.66C1510.36 1108.66 1511.84 1107.9 1513.41 1106.23C1515.19 1104.34 1518.14 1103.01 1526.83 1100.2C1540.28 1095.85 1556.88 1087.93 1564.56 1082.2C1570.55 1077.74 1573.39 1076.7 1579.88 1076.65C1587.57 1076.58 1598.41 1071.47 1604.44 1065.07C1605.54 1063.91 1608.08 1062.24 1610.08 1061.36C1612.09 1060.48 1615.54 1057.99 1617.76 1055.83C1622.46 1051.23 1629.17 1047.04 1634.21 1045.54C1638.86 1044.17 1642.99 1041.52 1648.84 1036.18C1651.47 1033.79 1654.13 1031.83 1654.75 1031.83C1657.04 1031.83 1670.69 1024.42 1677.12 1019.69C1680.76 1017.01 1687.06 1011.62 1691.13 1007.72C1695.19 1003.81 1698.88 1000.61 1699.32 1000.61C1701.23 1000.61 1711.88 992.246 1716.21 987.345C1721.81 981.009 1736.84 968.032 1740.28 966.571C1744.24 964.884 1746.95 962.342 1747.93 959.392C1748.72 957.032 1749.91 956.048 1755.85 952.864C1765.63 947.62 1769.39 944.824 1772.1 940.749C1773.54 938.593 1776.94 935.538 1780.83 932.891C1790.19 926.532 1799.01 918.8 1804.21 912.388C1827.06 884.198 1876.92 825.371 1880.02 822.937C1886.88 817.555 1893.6 808.155 1898.14 797.593C1900.62 791.809 1900.92 791.47 1904.66 790.058C1909.72 788.153 1912.57 785.385 1915.22 779.807C1918.35 773.218 1929.57 756.869 1939.52 744.396C1964.3 713.349 1969.72 706.821 1975.79 700.784C1979.62 696.964 1983.3 692.421 1984.55 689.943C1985.74 687.596 1988.25 684.037 1990.12 682.034C1992.19 679.822 1994.21 676.523 1995.25 673.63C1998.19 665.441 2003.83 655.728 2019 632.678C2034.87 608.55 2040.85 596.576 2042.26 586.041C2043.16 579.324 2043.42 578.654 2045.82 576.834C2050.39 573.378 2051.99 568.753 2052.44 557.724C2052.79 549.008 2053.02 547.786 2054.73 545.755C2056.89 543.193 2057.19 540.278 2055.48 538.577C2054.1 537.205 2054.88 535.808 2060.34 529.91C2065.2 524.663 2068.35 517.939 2071.56 505.962C2073.09 500.238 2074.88 494.537 2075.53 493.293C2083.48 478.017 2096.06 435.984 2101.66 405.956C2102.11 403.535 2104.82 389.129 2107.68 373.942C2111.13 355.63 2113.04 343.275 2113.36 337.26C2113.78 329.156 2114.14 327.526 2116.67 321.964C2119.97 314.709 2121.07 306.854 2121.13 290.306C2121.14 284.584 2121.49 278.461 2121.9 276.7C2122.3 274.939 2123.91 265.215 2125.46 255.091C2130.09 224.955 2131.4 204.689 2130.01 184.475C2129.16 172.107 2129.21 169.712 2130.53 161.265C2131.34 156.085 2132 147.885 2132 143.043C2132 135.359 2131.62 132.736 2129.43 125.052C2129.24 124.401 2129.12 113.41 2129.16 100.626C2129.22 77.9738 2128.38 59.9524 2126.72 48.6019C2125.11 37.5244 2124.14 26.8245 2123.9 17.3884C2123.57 4.29724 2123.03 0.177856 2121.02 -4.35205C2119.53 -7.71509 2119.22 -10.5292 2118.65 -25.8302C2117.61 -53.3965 2113.83 -78.2911 2106.3 -107.18C2103.66 -117.32 2103.43 -119.117 2103.17 -132.39C2102.91 -145.904 2102.77 -146.938 2100.72 -151.381C2099.48 -154.061 2098.55 -157.5 2098.55 -159.385C2098.54 -164.948 2096.24 -177.174 2092.82 -189.843C2086.22 -214.269 2084.88 -219.661 2083.69 -226.485C2083.02 -230.321 2081.9 -234.823 2081.19 -236.49C2080.48 -238.158 2078.47 -245.105 2076.73 -251.928C2073.4 -264.968 2069.23 -274.573 2061.41 -287.248C2058.59 -291.811 2057.31 -294.946 2056.36 -299.653C2055.59 -303.467 2053.66 -308.791 2051.48 -313.154C2049.5 -317.116 2047.45 -321.975 2046.93 -323.954C2045.69 -328.705 2043.36 -333.21 2040.02 -337.299C2038.52 -339.134 2037.29 -341.353 2037.29 -342.229C2037.29 -345.271 2032.54 -358.23 2028.49 -366.255C2026.25 -370.692 2021.68 -378.821 2018.35 -384.319C2014.94 -389.929 2011.54 -396.704 2010.59 -399.755C2008.59 -406.18 2004.58 -414.332 1999.77 -421.735C1995.92 -427.658 1988.71 -441.326 1983.52 -452.53C1981.66 -456.556 1978.3 -462.248 1976.07 -465.178C1972.21 -470.235 1972.01 -470.76 1971.99 -475.466C1971.97 -480.609 1970.29 -485.467 1967.18 -489.394C1966.29 -490.522 1965.55 -492.389 1965.55 -493.54C1965.54 -496.627 1962.42 -502.749 1956.52 -511.28C1949.67 -521.174 1947.16 -525.555 1944.12 -532.931C1941.17 -540.083 1935.88 -548.407 1930.62 -554.175C1928.56 -556.441 1926.87 -558.541 1926.87 -558.843C1926.87 -559.144 1925.64 -560.892 1924.14 -562.727C1922.62 -564.594 1920.81 -568.177 1920.04 -570.865C1917.02 -581.386 1908.58 -596.213 1898.99 -607.859C1896.28 -611.148 1891.99 -617.994 1889.04 -623.74C1885.09 -631.428 1882.44 -635.385 1877.97 -640.297C1874.52 -644.084 1871.12 -648.809 1869.75 -651.726C1865.28 -661.216 1859.14 -666.08 1849.61 -667.691L1844.49 -668.558L1842.69 -674.177C1840.25 -681.84 1836.88 -687.719 1832.96 -691.201C1831.15 -692.806 1826.91 -697.573 1823.54 -701.797C1820.18 -706.019 1815.45 -711.667 1813.04 -714.347C1810.64 -717.026 1806.52 -722.461 1803.89 -726.423C1801.26 -730.387 1798.03 -734.25 1796.7 -735.013C1791.84 -737.799 1781.93 -746.717 1774.79 -754.733C1770.76 -759.251 1765.06 -765.649 1762.12 -768.95C1759.18 -772.252 1753.28 -779.095 1749 -784.157C1734.11 -801.77 1712.32 -822.085 1698.36 -831.35C1696.15 -832.822 1692.75 -835.789 1690.81 -837.943C1688.87 -840.097 1686 -842.472 1684.42 -843.222C1682.3 -844.227 1680.62 -846.153 1678.01 -850.585C1672.13 -860.534 1669.53 -862.694 1659.19 -866.164C1652.81 -868.308 1645.97 -872.146 1633.11 -880.804C1623.51 -887.26 1616.9 -890.821 1610.34 -893.062C1608.02 -893.852 1603.98 -896.273 1601.36 -898.442C1594.2 -904.357 1582.21 -911.955 1559.71 -924.835C1556.6 -926.617 1551.41 -930.271 1548.18 -932.957C1541.98 -938.118 1536.77 -941.079 1529.61 -943.527C1527.21 -944.347 1522.46 -946.789 1519.07 -948.953C1511.89 -953.522 1493.74 -963.537 1485.57 -967.433C1482.47 -968.912 1475.2 -972.328 1469.41 -975.024C1463.62 -977.72 1457.63 -980.868 1456.11 -982.021C1452.34 -984.87 1445.88 -988.011 1442.02 -988.877C1440.2 -989.285 1433.57 -993.053 1426.62 -997.631C1405.67 -1011.43 1391.46 -1018.66 1376.63 -1023.09C1372.71 -1024.26 1358.63 -1028.75 1345.33 -1033.07C1332.03 -1037.39 1313.53 -1042.91 1304.22 -1045.34C1290.58 -1048.89 1285.3 -1050.69 1277.03 -1054.61C1266.21 -1059.74 1253.62 -1063.68 1245.12 -1064.61C1241.65 -1064.99 1238.44 -1066.03 1235.05 -1067.86C1227.65 -1071.85 1222.64 -1073.02 1207.5 -1074.28C1196.14 -1075.23 1189.86 -1076.33 1170.82 -1080.67C1158.19 -1083.56 1146.58 -1086.07 1145.03 -1086.26C1143.48 -1086.45 1137.98 -1087.69 1132.81 -1089.02C1118.68 -1092.64 1104.01 -1095.37 1095.67 -1095.94C1091.55 -1096.22 1085.41 -1097.31 1081.98 -1098.36C1075.4 -1100.36 1060.06 -1102.19 1055.97 -1101.46C1054.52 -1101.2 1050.82 -1101.84 1046.74 -1103.06C1036.88 -1106.02 1020.02 -1108.24 997.933 -1109.48C984.958 -1110.21 977.262 -1111 974.559 -1111.87C967.157 -1114.26 959.607 -1115.5 952.437 -1115.5C946.866 -1115.5 944.201 -1115.92 940.098 -1117.46C937.22 -1118.53 931.102 -1119.94 926.502 -1120.59C921.902 -1121.23 916.505 -1122.51 914.51 -1123.42C908.851 -1126 904.217 -1125.66 899.306 -1122.3C897.05 -1120.76 894.959 -1119.5 894.659 -1119.5C894.358 -1119.5 892.196 -1120.4 889.853 -1121.5C883.907 -1124.3 875.751 -1126.02 868.599 -1126C865.256 -1125.99 848.902 -1125.98 832.256 -1125.98C801.024 -1125.98 788.502 -1125.16 775.069 -1122.21C768.307 -1120.72 746.676 -1119.93 691.646 -1119.14C656.681 -1118.64 648.212 -1118.01 644.173 -1115.58C642.701 -1114.7 635.209 -1112.87 625.956 -1111.14C617.311 -1109.52 602.622 -1106.77 593.312 -1105.03C584.003 -1103.28 575.88 -1101.68 575.263 -1101.46C574.646 -1101.24 569.669 -1100.7 564.202 -1100.25C553.301 -1099.38 542.42 -1096.67 536.903 -1093.46C531.785 -1090.48 526.837 -1089.3 513.516 -1087.89C500.568 -1086.52 494.141 -1085.11 487.724 -1082.25C485.507 -1081.26 480.206 -1079.89 475.943 -1079.2C467.31 -1077.79 462.63 -1076.4 455.483 -1073.09C452.823 -1071.85 443.393 -1068.62 434.527 -1065.9C425.66 -1063.18 411.515 -1058.67 403.092 -1055.87C387.973 -1050.86 383.527 -1049.57 372.463 -1047C369.36 -1046.28 364.463 -1044.45 361.582 -1042.94C357.827 -1040.97 353.831 -1039.73 347.477 -1038.58C328.809 -1035.2 309.819 -1028.5 292.411 -1019.15C288.723 -1017.17 283.705 -1015.13 281.259 -1014.63C269.269 -1012.16 257.042 -1006.44 250.492 -1000.23C248.177 -998.042 246.201 -996.223 246.101 -996.192C246.001 -996.16 242.734 -995.858 238.843 -995.519C232.862 -994.999 231.428 -994.589 229.574 -992.869C228.17 -991.566 225.989 -990.636 223.519 -990.286C221.396 -989.984 217.493 -989.032 214.846 -988.169C209.649 -986.475 182.377 -973.3 174.796 -968.821C158.595 -959.249 147.351 -953.576 137.912 -950.213C110.361 -940.397 85.2047 -929.16 69.0456 -919.452C64.4174 -916.672 58.2517 -913.416 55.3434 -912.218C48.3456 -909.333 42.3376 -905.753 35.9506 -900.66C30.2214 -896.092 29.0793 -895.334 -1.52448 -875.797C-16.9114 -865.975 -24.596 -861.584 -30.4598 -859.265C-40.7276 -855.202 -42.4984 -854.268 -46.1617 -850.982C-47.826 -849.488 -58.9581 -841.763 -70.8992 -833.814C-82.8397 -825.865 -95.3299 -817.103 -98.6546 -814.344C-101.979 -811.586 -107.464 -807.99 -110.843 -806.354C-115.337 -804.178 -118.368 -801.949 -122.128 -798.057C-132.587 -787.227 -133.972 -786.044 -142.579 -780.572C-158.095 -770.711 -170.428 -760.989 -182.427 -749.169C-192.2 -739.541 -194.992 -737.263 -199.885 -734.925C-205.388 -732.298 -212.24 -726.186 -212.341 -723.818C-212.392 -722.599 -256.412 -688.389 -261.448 -685.654C-268.646 -681.745 -276.22 -675.917 -283.284 -668.849C-289.549 -662.58 -319.064 -637.714 -350.48 -612.237C-364.557 -600.82 -371.356 -594.393 -376.467 -587.672C-382.916 -579.193 -439.603 -520.875 -443.138 -519.084C-447.784 -516.731 -455.426 -509.206 -458.556 -503.904C-462.193 -497.742 -490.565 -462.615 -494.326 -459.617C-498.919 -455.956 -501.845 -452.33 -506.919 -444.011C-509.469 -439.829 -512.768 -434.749 -514.25 -432.722C-518.65 -426.701 -520.991 -420.933 -521 -416.087C-521.006 -412.45 -520.128 -409.848 -515.383 -399.461C-512.289 -392.689 -509.169 -385.137 -508.45 -382.681C-506.413 -375.723 -503.571 -369.911 -500.59 -366.604C-498.953 -364.788 -497.626 -362.294 -497.276 -360.374C-496.484 -356.032 -493.057 -349.962 -489.789 -347.112C-486.825 -344.528 -479.822 -340.766 -477.975 -340.766C-475.722 -340.766 -471.731 -345.025 -469.059 -350.279C-467.58 -353.191 -462.911 -359.923 -458.686 -365.241C-452.641 -372.847 -449.433 -376.065 -443.641 -380.331C-439.593 -383.313 -434.85 -387.606 -433.102 -389.871C-429.42 -394.641 -429.506 -394.55 -426.191 -397.178C-424.8 -398.28 -422.874 -400.846 -421.911 -402.88C-420.948 -404.914 -417.802 -409.377 -414.918 -412.798C-410.535 -417.997 -408.937 -419.297 -405.176 -420.726C-399.343 -422.943 -393.486 -427.253 -389.494 -432.268C-385.746 -436.976 -384.601 -439.057 -381.087 -447.544L-378.463 -453.879L-372.116 -456.421C-356.872 -462.527 -344.296 -474.168 -334.73 -491.024C-333.183 -493.75 -332.357 -494.421 -330.546 -494.426C-326.968 -494.436 -323.625 -496.587 -316.279 -503.603C-312.511 -507.203 -306.345 -512.511 -302.577 -515.398C-294.713 -521.423 -286.309 -529.487 -284.245 -532.985C-283.467 -534.305 -276.698 -540.267 -269.205 -546.235C-251.645 -560.219 -244.466 -566.479 -234.066 -576.874C-226.223 -584.714 -210.603 -597.191 -203.034 -601.663C-195.283 -606.243 -184.367 -615.182 -176.291 -623.561C-163.587 -636.744 -141.504 -655.205 -134.702 -658.331C-130.291 -660.356 -127.187 -662.821 -118.582 -671.123C-109.847 -679.55 -106.615 -682.103 -100.67 -685.271C-88.368 -691.825 -81.6595 -697.658 -76.2923 -706.464C-73.1964 -711.544 -73.0731 -711.639 -66.3155 -714.125C-52.3721 -719.252 -38.6263 -727.423 -23.0032 -739.868C-17.8424 -743.98 -12.7127 -747.575 -11.6046 -747.857C-7.72126 -748.849 -0.470043 -752.905 5.82244 -757.607C12.9291 -762.917 48.1843 -780.864 56.5458 -783.428C59.9408 -784.469 62.8635 -786.097 65.4936 -788.412C68.1664 -790.764 72.3285 -793.065 78.6696 -795.694C83.7678 -797.808 92.2912 -801.346 97.6109 -803.557C102.931 -805.767 109.822 -808.275 112.925 -809.129C118.632 -810.7 126.008 -814.383 127.841 -816.576C128.39 -817.234 129.63 -817.772 130.595 -817.772C131.56 -817.772 132.695 -818.108 133.116 -818.521C133.538 -818.933 138.567 -820.577 144.293 -822.177C157.533 -825.873 161.283 -827.794 166.632 -833.619C170.426 -837.751 171.753 -838.606 177.407 -840.557C185.431 -843.325 199.732 -850.638 208.666 -856.541C214.603 -860.464 216.625 -861.305 225.037 -863.353C235.684 -865.944 247.343 -869.825 258.622 -874.532C262.717 -876.241 267.701 -877.865 269.696 -878.141C275.471 -878.939 285.02 -882.356 290.73 -885.67C294.464 -887.836 298.084 -889.136 303.188 -890.143C313.193 -892.116 326.834 -897.589 334.177 -902.577C337.983 -905.162 347.031 -908.211 350.911 -908.215C357.055 -908.223 364.007 -909.63 368.389 -911.752C370.63 -912.838 374.747 -913.963 377.538 -914.253C381.263 -914.639 383.253 -915.313 385.018 -916.788C386.897 -918.358 388.825 -918.954 393.828 -919.51C407.542 -921.033 417.229 -923.844 441.781 -933.426C456.932 -939.339 461.834 -940.794 488.53 -947.302C504.932 -951.301 530.322 -957.527 544.951 -961.138L571.55 -967.704L582.834 -967.797C593.997 -967.889 594.239 -967.93 605.402 -971.613L616.687 -975.336L643.688 -977.447C666.964 -979.266 678.42 -979.664 726.708 -980.334C757.518 -980.76 784.804 -980.897 787.343 -980.638C790.716 -980.294 793.322 -980.582 797.016 -981.712C799.795 -982.561 807.202 -983.692 813.473 -984.223C823.243 -985.052 825.724 -985.014 830.802 -983.965C834.063 -983.291 837.818 -982.54 839.148 -982.296C840.478 -982.052 851.54 -981.488 863.731 -981.043C879.8 -980.455 886.496 -980.476 888.076 -981.119C889.925 -981.871 890.649 -981.725 892.877 -980.15C896.608 -977.512 903.449 -977.227 911.639 -979.369C915.158 -980.289 919.199 -981.042 920.618 -981.042C924.815 -981.042 938.807 -977.928 942.426 -976.188C944.269 -975.303 946.993 -974.647 948.48 -974.732C949.967 -974.816 953.605 -974.13 956.563 -973.206C964.894 -970.606 973.556 -969.037 979.578 -969.037C983.913 -969.037 986.331 -968.509 991.077 -966.529C996.232 -964.379 998.522 -963.934 1007.18 -963.405C1015.09 -962.921 1020.51 -961.977 1032.19 -959.052C1040.39 -956.998 1047.67 -954.803 1048.37 -954.173C1049.07 -953.544 1050.09 -953.03 1050.64 -953.03C1051.19 -953.03 1056.42 -951.613 1062.26 -949.882C1073.2 -946.645 1089.84 -942.404 1095.35 -941.455C1097.06 -941.16 1102.14 -940.611 1106.63 -940.236C1113.31 -939.678 1116.01 -939.029 1121.38 -936.688C1125.12 -935.052 1129.28 -933.815 1131.05 -933.807C1133 -933.797 1135.79 -932.876 1138.58 -931.315C1148.41 -925.825 1152.24 -924.217 1155.51 -924.217C1158.02 -924.217 1159.93 -923.474 1163.41 -921.126C1170 -916.689 1175.81 -913.931 1179.83 -913.33C1181.75 -913.043 1184.22 -911.992 1185.33 -910.994C1186.44 -909.996 1188.6 -908.916 1190.14 -908.595C1191.67 -908.273 1193.88 -907.309 1195.04 -906.454C1197.8 -904.433 1202.21 -903.451 1208.66 -903.428C1213.55 -903.409 1214.07 -903.22 1217.79 -900.106C1223.99 -894.914 1228.37 -893.593 1239.74 -893.491L1249.4 -893.404L1250.43 -890.203C1251.84 -885.82 1254.99 -883.149 1258.2 -883.62C1260.39 -883.94 1261.44 -883.294 1266.82 -878.289C1273.28 -872.277 1282.47 -866.489 1290.52 -863.357C1293.18 -862.322 1297.33 -860.229 1299.75 -858.705C1305.17 -855.284 1310.01 -853.787 1315.66 -853.787C1320.51 -853.787 1324.81 -852.304 1326.48 -850.053C1327.09 -849.228 1331.22 -846.432 1335.65 -843.84C1340.09 -841.247 1352.42 -833.479 1363.06 -826.577C1394.44 -806.217 1408.3 -798.801 1416.83 -797.803C1422.07 -797.189 1421.65 -797.437 1423.45 -793.926C1424.85 -791.194 1428.97 -788.167 1431.29 -788.162C1432.03 -788.16 1436.02 -785.177 1440.16 -781.534C1444.3 -777.891 1456.76 -767.038 1467.84 -757.418C1478.92 -747.797 1491.8 -736.237 1496.46 -731.728C1506.54 -721.957 1512.25 -717.335 1518.68 -713.724C1525.05 -710.149 1527.8 -707.821 1530.83 -703.408C1534.64 -697.864 1538.04 -695.062 1545.94 -690.955C1550.82 -688.418 1554.27 -685.951 1556.73 -683.23C1560.21 -679.386 1565.25 -676.11 1567.67 -676.11C1568.31 -676.11 1570.01 -674.76 1571.46 -673.109C1572.91 -671.459 1580.29 -663.632 1587.87 -655.715C1609.69 -632.914 1610.65 -631.824 1611.26 -629.29C1612.34 -624.826 1615.09 -621.632 1622.97 -615.708C1627.95 -611.962 1631.29 -608.818 1632.11 -607.101C1633.71 -603.76 1635.65 -601.963 1638.42 -601.278C1641.76 -600.449 1645.27 -596.154 1647.56 -590.094C1648.72 -587.024 1650.77 -582.797 1652.13 -580.7C1655.29 -575.81 1662.43 -569.328 1667.44 -566.806C1669.6 -565.723 1671.36 -564.482 1671.36 -564.051C1671.36 -561.928 1677.63 -556.72 1683.89 -553.642C1690.48 -550.397 1690.71 -550.197 1690.71 -547.509C1690.71 -545.455 1691.37 -544.069 1693.27 -542.191C1694.98 -540.494 1696.04 -538.457 1696.48 -536.05C1697.53 -530.33 1703.06 -520.102 1710.2 -510.708C1715.53 -503.698 1717 -501.129 1717.9 -497.305C1719.55 -490.278 1720.74 -488.493 1730.55 -478.426C1740.19 -468.533 1741.72 -466.101 1744.02 -456.971C1745.82 -449.802 1749.22 -443.261 1753.94 -437.912C1756.03 -435.538 1757.85 -432.468 1758.41 -430.358C1759.5 -426.29 1761.73 -422.43 1765.3 -418.399C1766.67 -416.859 1768.43 -413.893 1769.21 -411.81C1770.01 -409.654 1772.68 -405.767 1775.4 -402.79C1778.03 -399.913 1780.17 -397.34 1780.17 -397.073C1780.17 -394.104 1783.14 -380.509 1784.27 -378.283C1785.84 -375.194 1790.1 -371.179 1791.8 -371.179C1792.37 -371.179 1795.15 -369.429 1797.99 -367.289C1803.07 -363.456 1803.23 -363.221 1808.52 -351.482C1811.48 -344.928 1818.08 -330.322 1823.19 -319.025C1828.3 -307.728 1833.09 -296.383 1833.83 -293.814C1835.38 -288.49 1838.05 -282.937 1841.84 -277.138C1843.28 -274.938 1844.72 -271.719 1845.03 -269.985C1845.69 -266.273 1849.39 -258.738 1852.15 -255.448C1855.04 -252.015 1856.52 -248.789 1858.41 -241.798C1863.99 -221.198 1867.16 -214.939 1874.38 -210.293C1876.65 -208.833 1878.5 -207.609 1878.5 -207.574C1878.49 -207.538 1877.95 -205.74 1877.29 -203.579C1874.98 -196.013 1876.03 -187.874 1880.7 -177.104C1887.33 -161.827 1888.36 -159.089 1890.16 -151.885C1892.59 -142.17 1894.79 -136.395 1897.93 -131.489C1900.85 -126.917 1908.09 -103.853 1909.25 -95.4602C1909.83 -91.2632 1911.27 -87.247 1915.02 -79.4533L1920.02 -69.0488L1919.75 -54.6273C1919.45 -38.7589 1920.23 -32.3385 1923.3 -25.4299C1924.51 -22.7272 1927.96 -8.05373 1932.25 12.5864L1939.24 46.2009L1939.82 77.8144C1940.39 109.564 1940.77 115.786 1943.88 143.843C1945.37 157.282 1945.46 160.212 1944.64 169.054C1943.95 176.483 1943.94 180.912 1944.6 186.261C1946.04 197.808 1946.41 216.246 1945.54 233.482C1944.87 246.786 1944.32 251.177 1942.28 259.493C1938.21 276.028 1936.47 287.763 1936.04 301.511C1935.57 316.215 1936.17 314.031 1924.4 344.385C1914.87 368.987 1909.37 384.917 1906.34 396.752C1905.01 401.946 1902.46 408.867 1900.12 413.632C1895.17 423.707 1893.58 431.676 1894.24 442.978C1894.7 450.746 1894.69 450.793 1892.69 451.547C1890.01 452.557 1884.32 457.724 1882.92 460.419C1882.3 461.607 1881.42 464.876 1880.96 467.682C1880.5 470.489 1876.55 482.732 1872.17 494.89C1865.87 512.399 1863.54 517.891 1860.97 521.302C1856.64 527.073 1855.21 530.05 1854.58 534.598C1854.24 537.088 1850.65 545.393 1844.23 558.513C1833 581.465 1825.01 594.342 1805.56 620.822C1772.21 666.228 1759.3 685.451 1742.83 714.219C1741.65 716.272 1739.44 718.719 1737.91 719.657C1733.08 722.621 1727.56 729.47 1721.78 739.683C1714.01 753.385 1711.34 756.532 1704.69 759.808C1700.55 761.848 1698.79 763.247 1697.51 765.524C1696.58 767.183 1694.21 769.565 1692.25 770.819C1688.04 773.513 1685.27 776.408 1682.23 781.281C1679.5 785.647 1678.73 786.312 1668.14 793.488C1662.94 797.011 1656.51 802.403 1651.47 807.476C1646.95 812.017 1642.79 815.732 1642.21 815.732C1641.63 815.732 1638.8 818.223 1635.91 821.266C1633.02 824.31 1621.54 834.484 1610.39 843.876C1592.45 858.997 1587.97 862.308 1571.3 872.809C1555.25 882.913 1551.81 885.429 1548.06 889.816C1544.06 894.489 1543.37 894.967 1540.57 894.967C1538.41 894.967 1536.92 895.529 1535.59 896.855C1532.91 899.517 1532.46 899.766 1490.81 921.827C1452.7 942.013 1450.83 942.869 1416.26 955.79C1410.49 957.944 1399.98 961.927 1392.88 964.642C1377.33 970.595 1375.69 971.119 1361.85 974.592C1346.25 978.507 1335.34 982.816 1328.93 987.594C1327.35 988.774 1321.86 990.853 1315.63 992.633C1309.8 994.299 1296.68 998.081 1286.49 1001.04C1260.06 1008.7 1254.59 1009.99 1244.24 1010.99C1238.95 1011.51 1233.12 1012.6 1230.54 1013.57C1227.65 1014.65 1223.59 1015.35 1219.19 1015.52C1200.21 1016.28 1184.2 1017.61 1177.68 1018.97C1172.99 1019.94 1165.01 1020.67 1155.11 1021.02L1139.79 1021.57L1134.15 1019.33C1129 1017.29 1127.63 1017.1 1118.43 1017.14C1109.67 1017.18 1107.36 1017.49 1100.7 1019.52L1093.04 1021.85L1081.76 1020.84C1071.73 1019.94 1053.9 1018 1035.08 1015.74C1030.72 1015.22 1026.63 1015.26 1022.18 1015.87C1013.37 1017.08 1000.06 1016.2 994.306 1014.03C990.296 1012.52 988.028 1012.35 970.529 1012.25L951.184 1012.13L937.482 1008.71C929.946 1006.83 919.246 1004.25 913.704 1002.97C908.163 1001.7 898.733 999.522 892.748 998.138C886.051 996.589 879.739 994.56 876.334 992.859C869.729 989.56 860.207 987.006 854.511 987.006C848.016 987.006 828.173 981.097 821.012 977.031C804.073 967.41 780.507 956.65 762.105 950.131C749.327 945.605 748.066 945.006 741.823 940.497C733.542 934.517 727.747 931.833 720.346 930.55C709.071 928.595 698.843 922.784 678.75 906.916C666.498 897.24 657.066 890.783 650.177 887.358C645.291 884.928 603.207 846.977 598.954 841.166C597.624 839.348 594.997 836.753 593.115 835.4C591.233 834.047 587.813 830.419 585.512 827.337C580.994 821.285 568.348 808.501 563.848 805.438C562.321 804.399 559.18 800.798 556.869 797.435C551.981 790.325 538.812 775.455 534.534 772.214C529.705 768.557 495.925 723.056 493.163 716.49C490.156 709.337 480.623 698.934 472.952 694.434C470.591 693.05 470.584 693.021 470.196 683.759C469.77 673.566 468.156 667.969 461.493 653.594C459.675 649.67 457.102 643.758 455.776 640.457C454.45 637.155 452.329 631.933 451.064 628.852C449.614 625.323 448.422 620.388 447.842 615.52C445.778 598.189 439.099 575.299 428.584 549.523C425.552 542.092 419.987 528.448 416.218 519.205C404.701 490.963 399.154 473.442 397.908 461.376C397.371 456.167 396.551 452.843 395.145 450.172C393.464 446.976 393.081 444.912 392.731 437.169C392.275 427.065 390.776 418.76 385.337 396.204L381.732 381.249L381.732 358.587C381.731 336.167 380.867 321.309 379.203 315.129C377.623 309.258 377.443 306.426 377.146 282.681C376.82 256.592 376.08 264.791 384.623 199.867C385.723 191.503 386.846 182.86 387.118 180.659C387.39 178.458 388.544 174.87 389.683 172.685C391.269 169.642 391.853 167.083 392.183 161.744C392.57 155.478 392.886 154.392 395.314 150.973C397.154 148.382 398.849 144.205 400.639 137.849C403.934 126.15 407.198 117.724 413.185 105.459C421.126 89.1905 438.673 56.7812 441.305 53.5174C443.136 51.2468 443.814 49.5526 443.866 47.1147C443.932 44.0357 444.347 43.4427 449.709 38.7783C452.885 36.0171 457.115 32.5797 459.11 31.1415C461.105 29.7025 465.184 25.1349 468.175 20.9914C473.971 12.964 478.786 7.64182 480.837 6.9951C483.153 6.26524 500.618 -13.4937 500.659 -15.4306C500.686 -16.7295 502.538 -18.7017 507.107 -22.2945C515.734 -29.0806 522.242 -35.2863 526.567 -40.8495C528.539 -43.3873 530.4 -45.3132 530.701 -45.1283C532.08 -44.2848 536.019 -47.089 540.287 -51.9559C542.852 -54.8797 547.309 -59.1759 550.19 -61.5033C553.072 -63.83 559.608 -69.9013 564.716 -74.9946C572.892 -83.147 575.304 -85.0086 584.867 -90.5462C598.55 -98.4696 603.073 -101.473 607.509 -105.583C613.987 -111.585 634.511 -122.416 650.539 -128.292C658.519 -131.217 669.857 -135.381 675.735 -137.546C681.614 -139.71 687.236 -141.482 688.229 -141.485C693.724 -141.498 700.546 -146.146 702.071 -150.915C702.556 -152.433 703.218 -152.518 713.689 -152.405C724.69 -152.286 724.82 -152.306 727.766 -154.527C729.402 -155.761 731.33 -157.922 732.05 -159.329C732.772 -160.737 733.475 -162.019 733.616 -162.176C733.755 -162.335 734.944 -161.704 736.257 -160.776C739.056 -158.797 740.223 -158.68 741.959 -160.206C744.418 -162.366 761.967 -167.855 773.895 -170.194C780.526 -171.495 791.935 -173.738 799.25 -175.18C809.675 -177.236 814.813 -177.829 823.027 -177.929C834.863 -178.073 836.988 -178.76 845.227 -185.105C849.495 -188.392 849.856 -188.516 853.288 -187.884C859.066 -186.819 869.898 -187.834 875.974 -190.01C882.951 -192.509 890.452 -193.213 896.065 -191.894C898.452 -191.333 905.302 -189.068 911.286 -186.859C921.712 -183.012 922.522 -182.841 930.631 -182.785C935.286 -182.753 942.213 -182.9 946.026 -183.112C952.905 -183.495 953.011 -183.472 959.729 -180.099C969.827 -175.027 973.768 -174.267 993.903 -173.503C1012.31 -172.806 1015.22 -172.442 1018.32 -170.454C1021.17 -168.616 1028.77 -167.117 1035.29 -167.104L1041.21 -167.091L1044.8 -163.129C1049.44 -158.006 1054.93 -155.422 1064.43 -153.9C1084.08 -150.749 1086.55 -149.955 1089.18 -145.936C1091.77 -141.965 1096.11 -139 1100.07 -138.489C1102.78 -138.139 1104.87 -136.94 1109.81 -132.904C1117.04 -126.987 1119.6 -125.885 1124.52 -126.555C1127.87 -127.011 1128.32 -126.826 1132.72 -123.165C1135.28 -121.035 1140.28 -116.678 1143.82 -113.482C1156.27 -102.269 1167.1 -95.1073 1175.3 -92.6718C1177.57 -91.9947 1179.14 -90.8198 1180.49 -88.7789C1184.66 -82.4826 1187.75 -79.2989 1191.1 -77.8294C1193.03 -76.9859 1194.81 -76.0039 1195.07 -75.6461C1195.33 -75.2891 1198.95 -71.497 1203.13 -67.2208C1207.31 -62.9437 1213.89 -55.1228 1217.76 -49.8405C1221.62 -44.5583 1230.27 -32.8956 1236.97 -23.9229C1245.87 -12.0018 1249.88 -5.89766 1251.85 -1.25166C1255.01 6.19316 1257.67 9.90202 1261.79 12.6064C1264.08 14.1078 1265.02 15.4523 1265.83 18.3776C1268.3 27.2454 1269.35 29.7321 1271.89 32.6822C1273.69 34.7703 1275.69 38.9609 1277.97 45.4004C1279.83 50.6827 1282.84 59.1464 1284.64 64.2085C1286.45 69.2707 1289.35 77.7072 1291.1 82.9567C1294.77 94.0223 1298.68 102.123 1302.36 106.284L1304.96 109.221L1305.48 121.729C1305.91 131.877 1306.35 135.146 1307.82 139.041C1312.17 150.552 1313.2 195.009 1309.87 227.984C1305.95 266.785 1304.94 274.143 1303.1 277.133C1302.11 278.751 1301.4 281.259 1301.4 283.167C1301.4 284.962 1300.13 291.019 1298.59 296.625C1296.45 304.379 1294.43 309.346 1290.18 317.371C1282.81 331.284 1281.05 336.566 1281.03 344.885C1281.01 351.36 1280.97 351.476 1278.11 354.188C1276.51 355.698 1274.12 357.18 1272.79 357.481C1266.89 358.812 1258.92 365.966 1252.22 375.943C1246.77 384.05 1239.72 391.628 1234.5 394.985C1227.59 399.427 1222.63 403.999 1220.75 407.651C1219.7 409.685 1217.63 411.57 1214.17 413.645C1211.39 415.309 1206.75 418.512 1203.87 420.763C1200.99 423.014 1196.01 426.635 1192.81 428.81C1189.53 431.033 1186.37 433.903 1185.57 435.367C1184.59 437.178 1183.58 437.97 1182.25 437.97C1181.07 437.97 1179.28 439.119 1177.57 440.971C1170.33 448.816 1168.24 450.637 1163.86 452.942C1159 455.493 1151.6 458.165 1141 461.188C1137.68 462.137 1132.05 464.121 1128.51 465.596C1124.96 467.072 1110.63 471.274 1096.67 474.934L1071.28 481.588L1049.52 481.588C1028.08 481.588 1027.67 481.62 1021.78 483.692L1015.81 485.795L1012.11 483.629C1010.07 482.438 1006.48 480.014 1004.12 478.244C1001.68 476.405 997.013 474.051 993.245 472.751C987.591 470.802 966.884 460.621 958.081 455.463C956.555 454.568 950.951 450.037 945.628 445.395C937.106 437.961 935.786 436.465 934.566 432.859C933.413 429.453 931.766 427.421 924.754 420.762C918.013 414.36 916.143 412.09 915.404 409.416C914.551 406.326 912.276 403.745 908.43 401.503C906.133 400.164 905.15 381.484 906.432 363.507C907.195 352.812 907.214 348.069 906.513 343.581C906.007 340.342 905.401 337.383 905.167 337.007C904.932 336.631 906.02 334.253 907.582 331.722C909.144 329.192 910.554 325.777 910.716 324.134C910.878 322.491 911.571 320.51 912.254 319.732C914.238 317.474 915.316 314.987 915.316 312.668C915.316 311.482 917.201 307.047 919.504 302.811C927.985 287.211 939.558 272.028 951.195 261.238C956.669 256.162 957.43 255.729 962.586 254.75C975.689 252.262 990.914 253.039 1002.11 256.765C1016.65 261.607 1031.87 272.733 1045.15 288.231C1052.43 296.731 1053.48 299.066 1052.24 303.976C1050.83 309.546 1051.83 318.185 1054.98 327.612C1056.66 332.642 1057.96 338.405 1058.27 342.204C1059.06 351.932 1061.65 356.527 1067.75 359.058C1070.26 360.102 1090.31 361.937 1099.21 361.937C1101.54 361.937 1103.05 362.676 1106.24 365.38C1110.77 369.218 1116.53 372.341 1119.07 372.341C1121.78 372.341 1124.45 371.046 1127.03 368.488C1129.86 365.673 1135.66 354.274 1135.06 352.709C1134.83 352.113 1135.38 349.174 1136.28 346.177C1137.33 342.657 1138.07 337.328 1138.35 331.124C1138.74 322.321 1138.61 321.018 1136.74 315.517C1135.36 311.476 1134.52 306.767 1134.14 301.111C1132.98 283.486 1126.5 266.953 1116.7 256.629C1114.73 254.559 1114.24 253.185 1113.66 248.015C1113.13 243.27 1112.48 241.226 1110.82 239.074C1109.64 237.538 1108.39 236.283 1108.03 236.283C1107.67 236.283 1105.67 234.793 1103.59 232.973C1101.02 230.728 1098.75 227.576 1096.54 223.169C1094.23 218.577 1091.71 215.12 1087.92 211.369C1084.98 208.452 1079.95 203.189 1076.76 199.673C1073.57 196.158 1068.7 191.523 1065.95 189.371C1063.19 187.221 1058.59 183.034 1055.73 180.068C1048.91 173.005 1044.47 170.868 1034.59 169.897C1030.39 169.484 1020.02 167.885 1011.56 166.345C988.036 162.064 982.921 161.494 968.111 161.502C952.794 161.51 944.222 162.792 934.409 166.545C931.201 167.771 924.959 169.766 920.536 170.979C891.241 179.008 877.085 186.699 867.181 199.965C864.91 203.006 859.94 208.309 856.134 211.748C852.318 215.198 844.268 224.16 838.173 231.744C816.912 258.199 814.754 262.623 813.697 281.902C812.862 297.139 812.488 298.668 807.86 305.771C802.361 314.213 801.726 315.692 799.608 324.995C797.033 336.299 796.39 347.356 797.569 360.024C798.098 365.698 798.634 376.823 798.761 384.747C799.008 400.124 800.519 409.105 805.362 423.964C806.602 427.768 807.706 433.557 808.085 438.233C808.646 445.168 809.111 446.873 812.02 452.639C813.982 456.527 817.944 462.252 821.792 466.759C827.355 473.272 828.266 474.758 828.266 477.312C828.266 479.968 828.829 480.778 833.543 484.913C837.451 488.342 839.698 491.184 842.208 495.876C844.391 499.957 847.065 503.524 849.727 505.905C851.999 507.937 854.123 510.501 854.447 511.601C855.473 515.079 859.571 520.834 862.932 523.515C866.315 526.216 873.843 529.209 877.25 529.209C879.79 529.209 888.594 537.191 890.417 541.144C892.375 545.396 900.315 553.64 904.291 555.551C906.202 556.469 909.337 557.282 911.26 557.357C916.238 557.551 919.284 558.819 922.973 562.237C927.503 566.432 935.751 570.535 943.215 572.308C946.782 573.156 952.994 575.57 957.369 577.811C969.377 583.96 982.166 587.428 998.165 588.873C1007.19 589.688 1033.61 587.797 1043.35 585.64L1051.69 583.792L1056.25 585.892C1059.54 587.412 1062.47 588.072 1066.85 588.281C1074.29 588.635 1078.77 586.955 1084.45 581.674C1088.12 578.262 1088.49 578.108 1091.09 578.857C1097.49 580.696 1104.14 581.301 1108.37 580.429C1113.19 579.434 1118.43 575.497 1120.03 571.659C1121.23 568.778 1121.24 568.777 1125.28 570.827C1130.27 573.35 1133.2 572.897 1143.42 568.026C1148.5 565.605 1153.63 563.624 1154.83 563.624C1156.99 563.624 1159.08 562.18 1159.74 560.237C1159.98 559.518 1163.26 559.078 1170.99 558.727C1180.49 558.296 1182.51 557.954 1186.64 556.08C1189.25 554.898 1192.28 553.108 1193.39 552.104C1194.68 550.941 1197.29 549.949 1200.59 549.369C1204.86 548.62 1206.36 547.911 1209.06 545.369C1213.46 541.213 1224.38 534.549 1228.86 533.283C1234.15 531.788 1239.66 528.886 1244.85 524.87C1247.36 522.927 1252.63 520.059 1256.55 518.497C1265.87 514.793 1268.75 512.552 1270.5 507.661L1271.9 503.764L1276.77 503.443C1283.05 503.03 1287.02 500.469 1292.16 493.512C1294.71 490.066 1298.01 486.943 1301.98 484.213C1307.56 480.386 1313.8 473.318 1315.68 468.705C1316.03 467.86 1317.53 465.18 1319.01 462.749C1321.12 459.299 1322.49 458.01 1325.27 456.871C1327.22 456.069 1330.03 454.007 1331.51 452.289C1334.11 449.275 1336.86 442.653 1336.86 439.416C1336.86 438.483 1339.54 435.349 1343.45 431.705C1354.65 421.266 1355.69 419.669 1384.83 367.939C1390.04 358.695 1396.3 347.767 1398.75 343.654C1404.23 334.445 1409.15 322.765 1413.02 309.781C1414.64 304.352 1417.72 294.148 1419.88 287.105C1426.18 266.571 1429.07 254.199 1431.57 237.083C1432.31 232.021 1434 224.638 1435.32 220.676C1437.52 214.1 1437.77 212.268 1438.13 199.649C1438.37 191.231 1438.98 184.19 1439.69 181.642C1443.02 169.724 1443.16 167.863 1443 137.44C1442.84 108.931 1442.77 107.64 1441.02 102.808L1439.2 97.787L1440.83 96.0534C1443.02 93.7172 1442.87 90.111 1440.45 86.6415C1438.64 84.0364 1438.42 82.8366 1438.1 73.3925C1437.7 61.5186 1435.88 53.3839 1431.65 44.5057C1430.15 41.3724 1428.68 36.8703 1428.38 34.5013C1427.39 26.7491 1424.69 18.3065 1421.07 11.6428C1419.12 8.04278 1415.47 0.119445 1412.97 -5.96478C1410.47 -12.049 1407.52 -19.1874 1406.42 -21.8286C1405.32 -24.4697 1403.59 -29.8936 1402.57 -33.8818C1399.61 -45.4548 1392.92 -56.9804 1382.64 -68.2485C1377.91 -73.4332 1352.65 -110.111 1345.71 -121.872C1342.52 -127.278 1339.32 -131.172 1332.87 -137.478C1321.67 -148.435 1312.39 -159.495 1311.09 -163.417C1310.43 -165.4 1307.72 -168.961 1303.67 -173.146C1298.8 -178.19 1297.18 -180.431 1296.82 -182.651C1296.22 -186.311 1293.3 -188.699 1289.4 -188.705C1286.96 -188.71 1283.53 -190.735 1268.35 -201.112C1248.24 -214.864 1231.08 -228.132 1229.73 -230.966C1229.17 -232.141 1226.58 -233.841 1222.61 -235.636C1219.18 -237.188 1214.5 -240.052 1212.2 -242.002C1192.53 -258.692 1175.64 -269.919 1160.54 -276.354C1156.14 -278.233 1151.98 -280.714 1149.46 -282.973C1143.53 -288.292 1137.65 -291.791 1132.38 -293.14C1129.81 -293.797 1123.71 -296.348 1118.84 -298.81C1111.01 -302.761 1109.21 -303.348 1103.47 -303.833C1097.74 -304.318 1096.5 -304.723 1092.9 -307.287C1089.72 -309.559 1082.53 -312.316 1059.91 -319.947C1044 -325.313 1030.25 -329.79 1029.37 -329.895C1028.48 -330 1025.76 -331.028 1023.32 -332.178C1020.05 -333.721 1016.99 -334.408 1011.64 -334.798C1006.88 -335.143 1003.13 -335.906 1000.76 -337.01C997.634 -338.465 994.919 -338.778 980.818 -339.304C965.46 -339.878 964.223 -340.041 959.94 -342.053C956.091 -343.861 953.44 -344.352 942.807 -345.222C935.888 -345.787 922.974 -347.041 914.107 -348.007C884.871 -351.193 854.708 -350.288 833.235 -345.583L826.516 -344.111L821.335 -346.841C815.396 -349.968 812.425 -350.248 809.488 -347.953C807.839 -346.666 805.482 -346.188 797.893 -345.604C788.377 -344.872 782.371 -343.382 779.866 -341.131C779.105 -340.447 775.474 -339.569 771.363 -339.076C762.651 -338.029 747.872 -334.343 741.191 -331.552C738.08 -330.251 733.716 -329.26 729.278 -328.846C723.86 -328.341 720.542 -327.459 714.618 -324.949C709.463 -322.764 703.487 -321.046 696.331 -319.689C683.735 -317.302 678.853 -315.367 676.921 -311.997C676.154 -310.658 674.915 -309.56 674.169 -309.557C673.423 -309.555 667.801 -308.638 661.676 -307.52C646.895 -304.821 630.421 -300.079 617.09 -294.684C611.105 -292.263 602.871 -289.572 598.794 -288.704C581.118 -284.943 566.278 -278.158 533.264 -258.743C528.166 -255.745 519.642 -251.131 514.322 -248.489C502.745 -242.74 492.467 -236.503 486.785 -231.779C484.496 -229.875 478.325 -226.068 473.072 -223.319C461.273 -217.142 444.683 -206.684 431.111 -196.866C425.453 -192.773 416.838 -187.07 411.964 -184.194C401.513 -178.024 393.632 -171.888 389.809 -166.942C388.062 -164.683 385.744 -162.84 383.48 -161.91C379.122 -160.119 371.309 -152.696 368.949 -148.102C367.921 -146.102 365.446 -143.427 362.882 -141.547C357.777 -137.803 353.841 -133.285 353.136 -130.365C352.853 -129.188 349.488 -125.275 345.437 -121.409C341.153 -117.322 337.711 -113.283 336.93 -111.429C336.209 -109.715 333.975 -106.502 331.965 -104.288C326.792 -98.5905 321.209 -90.5174 315.067 -79.8536C312.151 -74.7914 308.355 -68.5951 306.631 -66.0837C302.849 -60.5741 301.13 -56.6747 301.13 -53.6006C301.13 -51.7638 299.46 -49.6198 292.76 -42.8625C285.863 -35.9051 284.081 -33.5928 282.633 -29.7248C281.668 -27.1429 278.17 -20.2912 274.862 -14.4991C263.887 4.71639 257.792 19.2595 254.838 33.2735C254.204 36.2868 253.158 39.3475 252.515 40.0758C248.438 44.6889 245.547 52.549 244.559 61.7098C244.494 62.3165 243.619 63.6939 242.614 64.7703C240.989 66.5111 239.067 72.5584 239.067 75.9295C239.067 76.6098 238.383 78.1232 237.546 79.2917C235.867 81.6383 234.256 86.7207 234.21 89.8195C234.183 91.6644 226.812 111.506 221.804 123.217C220.181 127.013 219.378 131.001 218.436 139.936C217.409 149.69 216.607 153.398 213.687 161.91C209.861 173.063 206.539 187.192 205.237 197.845C203.914 208.672 204.178 223.81 205.776 228.845C207.215 233.377 206.756 238.181 204.341 243.886C203.781 245.206 203.253 247.728 203.167 249.488C203.081 251.249 202.427 257.192 201.715 262.694C197.965 291.642 197.951 322.049 201.68 343.297C202.359 347.166 203.395 355.194 203.983 361.136C204.835 369.75 207.695 384.596 209.634 390.468C209.8 390.973 208.802 392.92 207.414 394.794L204.891 398.2L204.868 420.686L204.845 443.172L207.448 450.47C209.526 456.298 210.054 459.039 210.068 464.076C210.082 468.856 210.506 471.256 211.82 473.985C213.299 477.058 213.563 479.078 213.616 487.746L213.677 497.906L216.334 500.628L218.99 503.349L219.342 521.873C219.725 542.032 220.02 543.562 224.501 548.63C227.544 552.071 228.582 555.255 228.607 561.217C228.627 566.212 230.834 571.851 233.277 573.149C234.169 573.623 235.604 576.048 236.514 578.616C237.412 581.155 239.488 586.654 241.128 590.835C243.129 595.941 244.441 601.031 245.123 606.33C245.864 612.087 246.6 614.794 247.844 616.334C250.836 620.044 258.42 635.561 259.739 640.671C260.531 643.743 260.836 647.087 260.545 649.525C259.957 654.452 261.211 657.47 265.572 661.628C267.597 663.559 268.89 665.519 268.89 666.656C268.89 669.391 270.972 673.882 273.641 676.899C275.039 678.48 276.212 680.939 276.558 683.01C277.411 688.124 279.507 693.159 282.702 697.77C284.262 700.02 286.74 705.242 288.209 709.375C298.491 738.304 303.794 746.547 316.093 752.73L320.173 754.781L321.595 761.446C325.046 777.617 333.495 793.218 352.874 819.203C355.446 822.653 357.552 825.967 357.552 826.569C357.552 829.147 359.771 832.077 363.562 834.504C367.235 836.855 368.164 838.124 373.202 847.67C377.122 855.099 380.363 859.998 384.118 864.174C387.055 867.44 391.005 872.993 392.893 876.514C396.581 883.387 398.835 885.502 403.92 886.861C406.899 887.658 407.395 888.214 410.243 893.947C417.251 908.055 423.204 914.799 432.692 919.383C437.538 921.724 438.004 922.242 449.603 938.191C456.164 947.212 462.636 956.933 463.986 959.794C465.336 962.656 467.783 966.378 469.425 968.067C472.397 971.124 478.965 975.001 481.172 975.001C483.19 975.001 489.005 980.455 492.978 986.072C497.833 992.936 506.476 1000.9 513.472 1004.96C516.457 1006.69 519.823 1009.31 520.951 1010.78C523.609 1014.24 531.469 1020.43 538.1 1024.28C541.163 1026.06 545.771 1029.89 549.195 1033.5C556.089 1040.77 561.02 1044.12 567.202 1045.72C573.572 1047.36 579.337 1050.45 587.452 1056.55C591.884 1059.88 594.683 1062.58 595.013 1063.84C595.761 1066.69 598.116 1069.01 602.021 1070.74C603.881 1071.57 606.294 1073.28 607.383 1074.56C608.473 1075.83 612.282 1078.28 615.847 1079.99C619.412 1081.71 625.412 1085.24 629.18 1087.84C637.474 1093.57 651.218 1100.45 667.466 1107.03C674.115 1109.72 681.404 1113.13 683.663 1114.62C688.474 1117.78 692.381 1119.18 703.828 1121.87C713.543 1124.15 714.269 1124.48 725.74 1131.99C739.702 1141.13 756.574 1148.52 773.901 1153.1C790.84 1157.58 795.855 1159.46 808.069 1165.89C809.83 1166.82 814.391 1167.72 820.562 1168.35C827.341 1169.05 834.061 1170.44 842.775 1172.95C877.702 1183.02 890.267 1185.6 913.337 1187.46C921.335 1188.11 929.133 1189.15 930.666 1189.78C939.655 1193.47 967.944 1195.21 990.276 1193.44C1008.03 1192.03 1009.19 1192.06 1021.31 1194.12C1049.49 1198.91 1071.55 1199.6 1089.82 1196.24ZM1093.48 929.982C1097.41 928.012 1098.98 925.599 1099.09 921.345C1099.3 913.006 1097.28 869.686 1095.42 842.544C1093.66 816.863 1093.36 807.968 1093.73 792.361C1094.24 770.835 1093.44 758.245 1090.91 747.514C1089.68 742.319 1088.99 736.027 1088.61 726.494C1088.12 714.297 1087.84 712.356 1085.92 707.748C1084.36 704.024 1083.77 701.205 1083.77 697.518C1083.77 692.396 1081.54 684.145 1079.28 680.948C1077.6 678.562 1077.65 654.614 1079.34 650.584C1080.81 647.088 1080.91 643.694 1079.54 643.557C1078.99 643.501 1075.27 643.356 1071.28 643.234C1067.29 643.112 1061.67 642.706 1058.79 642.33C1055.61 641.917 1051.64 641.961 1048.71 642.445C1046.05 642.883 1034.26 643.217 1022.52 643.187C1001.41 643.132 1001.08 643.104 994.306 640.904C988.031 638.866 986.132 638.644 971.738 638.275C956.077 637.873 956.007 637.864 952.457 635.563C949.638 633.737 947.979 633.254 944.523 633.254C941.373 633.254 939.581 632.806 938.102 631.651C934.912 629.159 928.551 627.651 921.232 627.651C917.298 627.651 913.291 627.17 911.504 626.484C909.833 625.842 903.476 623.501 897.378 621.281C887.539 617.7 885.608 616.677 880.229 612.201C871.528 604.961 863.846 601.011 858.464 601.011C855.498 601.011 853.355 601.542 851.353 602.77C847.233 605.298 841.761 611.632 838.314 617.86C836.674 620.824 832.964 625.742 830.07 628.79C826.137 632.932 823.891 636.265 821.177 641.996C819.179 646.211 816.117 651.218 814.371 653.122C809.538 658.391 807.041 664.437 807.488 669.789L807.853 674.161L801.979 679.382C794.853 685.715 793.098 688.609 789.186 700.483C785.447 711.828 783.471 716.606 780.521 721.427C778.111 725.367 774.406 735.507 772.675 742.901C771.987 745.841 770.875 748.018 769.327 749.459C768.052 750.644 767.009 752.336 767.009 753.219C767.009 755.055 754.252 776.431 750.877 780.251C748.866 782.527 745.246 790.479 745.246 792.622C745.246 793.083 742.545 798.382 739.242 804.396C732.659 816.389 731.077 821.139 731.836 826.639C732.607 832.226 734.587 835.617 738.123 837.408C739.846 838.28 745.327 841.575 750.303 844.727C762.746 852.609 768.823 855.039 777.427 855.572C784.843 856.031 784.162 855.725 798.819 865.19C806.599 870.215 840.34 889.336 849.389 893.849C857.885 898.086 872.2 902.951 882.27 905.025C886.201 905.835 889.866 907.096 890.871 907.984C893.708 910.495 911.295 912.566 917.212 911.087C920.549 910.252 921.298 910.458 935.796 916.178C970.105 929.715 984.983 931.782 1048.12 931.782C1089.82 931.782 1089.89 931.78 1093.48 929.982ZM1253.23 914.116C1257.43 913.45 1265.9 910.799 1271.58 908.379C1273.57 907.529 1278.55 906.514 1282.65 906.123C1287.05 905.705 1291.33 904.794 1293.13 903.897C1294.8 903.063 1297.97 902.133 1300.19 901.832C1306.01 901.039 1309.4 899.861 1313.33 897.261C1315.64 895.733 1317.83 894.966 1319.88 894.966C1322.23 894.966 1323.52 894.406 1325.28 892.629C1326.98 890.908 1329.33 889.851 1334.17 888.628C1347.53 885.251 1359.89 879.796 1368.69 873.39C1370.91 871.769 1376.8 868.936 1381.77 867.094C1401.6 859.75 1416.85 851.906 1429.56 842.517C1434.55 838.827 1457.65 827.034 1463.81 825.031C1466.03 824.31 1470.02 822.073 1472.68 820.059C1475.34 818.045 1479.38 815.006 1481.65 813.306C1483.93 811.605 1486.65 809.197 1487.7 807.954C1488.97 806.446 1491.55 805.059 1495.45 803.784C1502.26 801.56 1506.8 798.05 1508.93 793.368C1510.48 789.956 1512.23 788.69 1525.06 781.696C1531.51 778.182 1537.76 772.71 1539.16 769.358C1540.19 766.873 1541.9 766.139 1546.69 766.122C1550.76 766.108 1554.23 762.787 1554.97 758.192C1555.43 755.32 1555.77 754.904 1557.61 754.889C1560.94 754.861 1565.95 752.225 1568.8 749.001C1570.24 747.377 1571.42 745.699 1571.42 745.274C1571.42 744.849 1572.62 744.502 1574.08 744.502C1577.02 744.502 1579.03 743.346 1580.52 740.801C1581.05 739.881 1582.67 737.583 1584.11 735.692C1588.77 729.578 1587.19 724.415 1579.1 719.272C1576.75 717.779 1571.26 712.511 1566.58 707.245C1557.71 697.283 1551.16 691.89 1545.17 689.618C1541.86 688.362 1541.26 687.716 1539.2 683.198C1534.58 673.097 1528.22 665.769 1512.46 652.392C1506.8 647.593 1500.11 641.053 1497.59 637.86C1491.4 630.028 1481.35 619.882 1468.24 608.238C1454.08 595.657 1444.06 585.911 1444.06 584.712C1444.06 582.934 1440 578.943 1437.28 578.052C1435.3 577.403 1434.46 576.579 1434.14 574.961C1433.34 571.017 1428.36 564.971 1419.8 557.573C1415.17 553.57 1406.66 544.789 1400.78 537.965C1383.88 518.326 1375.56 511.575 1368.34 511.619C1361.88 511.659 1354.35 516.898 1346.45 526.858C1343.67 530.352 1341.05 533.211 1340.61 533.211C1340.16 533.211 1336.78 534.666 1333.07 536.444C1325.63 540.024 1316.77 547.606 1312.92 553.71C1311.08 556.615 1308.46 558.626 1298.58 564.705C1291.93 568.797 1281.17 574.747 1274.68 577.927C1268.18 581.108 1258.37 586.672 1252.87 590.293C1244.25 595.974 1242.36 596.899 1239.09 597.04C1234.1 597.256 1231.38 598.744 1227.09 603.615L1223.55 607.632L1209.25 611.243C1201.3 613.25 1192.78 615.94 1190.07 617.296C1176.67 624.011 1170.17 636.007 1171.02 652.461C1171.47 661.315 1173.63 668.393 1179.84 681.42L1183.92 689.969L1183.22 697.827C1182.12 710.313 1182.56 712.806 1186.67 717.325L1189.58 720.521L1189.44 730.42C1189.26 743.933 1191.76 755.089 1197.44 766.149C1198.32 767.854 1199.03 770.796 1199.03 772.687C1199.03 777.167 1200.15 780.896 1202.55 784.449C1203.61 786.028 1205.64 791.102 1207.06 795.724C1208.47 800.346 1210.85 806.482 1212.35 809.359C1214.73 813.951 1214.98 814.974 1214.35 817.716C1213.49 821.532 1214.37 826.444 1217.12 833.112C1218.25 835.847 1219.72 841.679 1220.38 846.071C1221.83 855.661 1223.2 859.875 1226.88 866.116C1229.03 869.751 1229.66 871.72 1229.66 874.747C1229.66 879.41 1231.5 885.991 1233.55 888.653C1234.38 889.735 1235.43 893.324 1235.98 896.927C1237.1 904.31 1239.98 911.134 1242.69 912.809C1245.27 914.413 1248.7 914.837 1253.23 914.116ZM625.15 734.998C633.063 732.472 638.802 727.778 645.949 717.986C647.758 715.508 653.003 710.226 657.605 706.248C669.458 696.001 676.778 687.941 680.34 681.212C682.361 677.391 685.479 673.363 689.537 669.325C693.906 664.979 697.303 660.493 701.319 653.767C706.093 645.769 710.122 640.779 727.514 621.318C761.622 583.152 761.484 583.324 763.062 577.208C763.683 574.805 764.628 573.07 765.461 572.808C766.217 572.569 767.25 571.381 767.756 570.167C768.325 568.803 769.975 567.361 772.075 566.392C774.682 565.188 775.531 564.318 775.724 562.647C776.121 559.238 766.196 524.007 761.57 512.402C751.664 487.549 748.47 478.413 748.464 474.913C748.451 467.845 746.805 456.889 745.222 453.335C744.066 450.739 743.634 447.998 743.634 443.239C743.634 438.206 743.254 435.98 741.975 433.536C741.063 431.793 739.796 427.485 739.16 423.964C737.763 416.215 734.078 408.445 730.527 405.755C727.383 403.374 719.721 401.547 707.893 400.361C694.222 398.989 675.878 401.022 656.605 406.048C651.496 407.38 644.595 409.182 641.27 410.052C637.945 410.922 629.784 412.143 623.135 412.766C616.485 413.389 609.191 414.451 606.927 415.127C602.692 416.39 597.802 419.718 594.872 423.331L593.207 425.382L590.036 423.303C583.111 418.764 576.016 418.833 561.969 423.577C555.76 425.674 553.484 426.021 544.647 426.218C535.829 426.415 533.882 426.711 530.04 428.437C527.083 429.766 523.862 430.499 520.367 430.637C517.486 430.751 512.227 431.522 508.68 432.351C501.169 434.105 484.604 439.874 481.679 441.754C476.364 445.169 468.605 451.934 467.904 453.764C466.907 456.369 468.046 459.929 471.205 464.074C472.646 465.965 473.582 468.177 473.596 469.722C473.609 471.268 474.443 473.234 475.725 474.748C477.517 476.863 477.858 478.095 478.009 483.012C478.147 487.481 478.766 490.106 480.739 494.594C482.142 497.785 484.41 502.959 485.778 506.091C487.588 510.232 488.459 513.81 488.974 519.213C489.806 527.949 491.571 532.992 496.101 539.582C497.921 542.23 499.411 544.587 499.411 544.818C499.411 545.05 501.59 550.07 504.255 555.973C506.919 561.876 509.862 569.164 510.795 572.168C512.759 578.496 515.656 584.476 517.487 585.985C518.19 586.563 520.06 591.161 521.645 596.202C525.593 608.76 529.341 614.753 535.126 617.761C536.371 618.408 538.82 620.22 540.566 621.787C543.204 624.154 543.742 625.152 543.742 627.682C543.742 629.967 544.318 631.302 546.045 633.016C547.836 634.794 548.481 636.364 548.947 640.067C549.998 648.418 552.297 653.099 558.262 659.032C563.181 663.925 563.704 664.766 564.149 668.498C564.765 673.668 567.557 679.717 571.735 684.932C573.522 687.164 575.254 690.225 575.582 691.735C576.68 696.779 579.313 700.678 586.846 708.412C591.368 713.055 595.193 717.829 596.526 720.491C603.776 734.977 612.058 739.175 625.15 734.998ZM1696.75 622.866C1699 621.971 1701.31 619.227 1704.38 613.792C1706.04 610.85 1707.79 608.841 1709.13 608.336C1712.24 607.167 1714.82 604.523 1716.83 600.44C1719.94 594.136 1728.34 583.544 1732.4 580.821C1739.6 575.988 1746.74 567.339 1752.21 556.821C1753.45 554.45 1755.63 551.898 1757.57 550.559C1761.63 547.76 1763.45 544.412 1763.11 540.385C1762.87 537.602 1763.31 536.798 1767.75 531.86C1774.29 524.585 1776.74 520.556 1778.26 514.585C1778.95 511.844 1782.83 503.118 1786.87 495.194C1799.66 470.152 1801.15 466.844 1802.84 459.729C1804.05 454.689 1805.22 451.895 1807.09 449.575C1811.67 443.913 1813.71 439.562 1821.59 418.552C1825.85 407.212 1830.31 396.465 1831.51 394.669C1833.11 392.262 1833.77 390.111 1834.02 386.475C1834.23 383.329 1835.16 379.808 1836.6 376.743C1839.72 370.11 1841.83 361.928 1843.91 348.505C1845.54 337.941 1845.89 336.795 1848.51 333.393C1852.42 328.306 1854.47 322.65 1855.14 315.117C1855.46 311.595 1856.16 306.72 1856.71 304.282C1857.95 298.772 1857.01 294.743 1853.5 290.524C1850.47 286.884 1833.21 278.064 1823.37 275.129C1816.28 273.013 1806.65 271.507 1800.06 271.483C1794.17 271.46 1789.36 269.957 1783.98 266.451C1777.99 262.551 1769.4 260.335 1758.01 259.756C1750.32 259.365 1748.47 258.982 1744.09 256.879C1739.16 254.515 1738.8 254.464 1730.55 254.928C1722.32 255.391 1721.95 255.339 1718.27 253.191C1713.35 250.314 1709.69 249.086 1706.1 249.1C1700.83 249.12 1682.4 244.889 1679.42 242.977C1675.25 240.296 1670.58 239.526 1658.39 239.503C1649.21 239.487 1646.66 239.204 1642.67 237.759C1638.51 236.249 1635.88 235.999 1621.67 235.768C1605.79 235.509 1605.29 235.448 1598.7 233.012L1591.97 230.522L1570.61 230.355C1553.17 230.219 1548.21 229.926 1543.61 228.761C1535.15 226.623 1524.56 226.756 1519.19 229.067C1513.89 231.353 1509.3 236.387 1507.36 242.045C1505.1 248.662 1504.87 259.321 1506.82 267.877L1508.45 275.06L1504.99 280.282C1498.12 290.628 1494.84 298.975 1494.84 306.094C1494.84 312.739 1489.56 329.045 1483 342.62C1479.7 349.469 1476.44 356.347 1475.76 357.905C1472.84 364.614 1468.91 377.251 1467.81 383.485C1467.16 387.194 1466.53 390.3 1466.42 390.387C1466.32 390.474 1465.06 391.137 1463.62 391.862C1460.88 393.248 1458.57 396.747 1458.57 399.528C1458.57 400.439 1457.17 404.438 1455.45 408.414C1452.63 414.943 1451.42 416.604 1442.97 425.53C1437.82 430.967 1433.21 436.439 1432.72 437.693C1431.47 440.932 1432.49 447.138 1434.93 451.05C1437.72 455.532 1441.54 459.456 1449.71 466.245C1453.47 469.375 1460.37 475.595 1465.02 480.066C1473.45 488.166 1479.72 492.744 1486.2 495.534C1488.07 496.34 1494 500.407 1499.37 504.569C1517.2 518.389 1529.12 525.077 1541.85 528.417C1548.47 530.153 1548.65 530.267 1550.34 533.716C1552.7 538.54 1557.9 543.95 1562.85 546.737C1567.02 549.082 1579.13 553.219 1581.82 553.219C1582.73 553.219 1584.39 555.004 1586.23 557.967C1591.56 566.544 1597.42 570.721 1614.43 578.06C1620.25 580.569 1626.1 583.208 1627.43 583.924C1628.76 584.638 1630.27 585.225 1630.79 585.228C1632.06 585.235 1638.23 590.242 1645.97 597.554C1652.61 603.824 1660.29 608.443 1664.09 608.443C1665.73 608.443 1666.51 609.05 1667.39 611.03C1668.95 614.534 1672.67 616.823 1678.74 618.007C1681.52 618.551 1685.44 619.812 1687.46 620.808C1692.07 623.098 1694.71 623.681 1696.75 622.866ZM1200.83 360.178C1204.47 359.219 1208.28 355.14 1209.58 350.814C1210.43 348.013 1210.92 347.57 1214.07 346.783C1219.31 345.472 1223.41 341.291 1227.67 332.921C1229.69 328.929 1233.56 322.75 1236.26 319.189C1241.32 312.534 1243.54 308.315 1244.55 303.48C1245.53 298.737 1250.65 284.96 1253.55 279.244C1256.47 273.49 1258.99 264.119 1259.92 255.585C1260.34 251.723 1261.09 249.608 1263 246.91C1265.48 243.415 1265.53 243.153 1265.57 234.01C1265.59 228.877 1265.9 218.195 1266.26 210.271C1267.32 187.306 1264.27 164.707 1259.1 157.069C1257.61 154.88 1256.16 151.909 1255.86 150.466C1254.84 145.567 1252.28 141.257 1249.77 140.223C1244.35 137.993 1239.92 140.125 1223.59 152.832C1217.5 157.572 1211.71 162.073 1210.72 162.835C1209.6 163.703 1206.71 164.416 1202.98 164.747C1193.96 165.545 1189.35 167.579 1183.12 173.501L1177.74 178.612L1169.93 179.314C1160.3 180.18 1157.45 181.622 1154.76 186.999C1152.89 190.724 1152.84 191.204 1153.72 196.99C1154.23 200.333 1155.73 205.796 1157.05 209.129C1158.38 212.463 1162.79 228.31 1166.87 244.345L1174.28 273.499L1174.48 285.904C1174.68 298.336 1176.1 307.987 1178.6 313.916C1179.59 316.247 1179.69 319.835 1179.22 335.28C1178.57 356.642 1178.8 357.887 1183.81 359.878C1187.34 361.282 1196.07 361.436 1200.83 360.178ZM709.17 340.835C718.655 337.329 722.678 330.249 722.678 317.057C722.678 309.649 727.052 291.974 729.66 288.844C730.853 287.411 731.544 285.54 731.544 283.741C731.544 282.178 732.861 277.632 734.471 273.636C736.353 268.966 737.547 264.5 737.814 261.132C738.106 257.457 738.797 255.059 740.127 253.104C741.169 251.572 742.022 249.317 742.022 248.094C742.022 246.871 745.468 239.035 749.68 230.68C756.686 216.78 757.337 215.098 757.342 210.88C757.346 208.344 757.584 203.789 757.872 200.758C758.36 195.633 758.572 195.155 760.885 193.955C762.254 193.245 764.917 191.181 766.803 189.368C769.928 186.365 770.233 185.719 770.233 182.121C770.233 179.152 769.665 177.287 767.947 174.613C763.862 168.256 743.346 148.023 732.18 139.34C726.307 134.773 718.775 128.263 715.441 124.872C711.638 121.005 707.952 118.083 705.552 117.032C702.41 115.657 700.615 113.903 695.533 107.239C688.392 97.8766 683.413 92.8888 679.259 90.9384C677.649 90.1829 671.267 84.7413 665.077 78.8468C656.449 70.6312 653.504 67.301 652.465 64.5814C650.564 59.6113 647.664 56.4131 640.992 51.9296C635.966 48.5521 633.931 46.3288 625.15 34.6182C619.608 27.2278 614.168 19.6429 613.06 17.7629C611.951 15.8821 608.411 12.2533 605.193 9.6986C594.796 1.44542 590.493 1.78881 584.888 11.3185C582.084 16.0853 580.882 17.3347 577.426 19.0738C573.262 21.1692 566.039 27.8064 565.111 30.3907C564.834 31.1631 563.094 32.8838 561.245 34.2156C559.396 35.5473 557.086 37.8884 556.109 39.4178C555.133 40.9473 553.415 43.3138 552.291 44.6769C551.167 46.0399 549.304 49.6839 548.15 52.774C546.417 57.4176 545.291 59.0455 541.66 62.1581C539.244 64.2294 536.497 67.4291 535.556 69.2683C534.615 71.1075 532.107 74.5041 529.984 76.8164C526.934 80.1387 525.912 81.9851 525.112 85.6202C523.564 92.6456 513.935 112.067 510.332 115.431C507.176 118.375 504.86 122.25 503.906 126.182C503.593 127.473 502.453 129.571 501.374 130.845C499.003 133.642 498.939 135.531 501.062 140.176L502.678 143.712L500.687 145.778C497.63 148.951 494.228 156.934 494.14 161.138C494.088 163.621 493.493 165.547 492.32 167.028C488.905 171.34 486.519 177.625 483.781 189.531C480.536 203.644 479.863 205.412 475.114 212.3C470.419 219.11 468.66 224.903 468.366 234.528C468.17 240.952 467.634 243.715 465.245 250.604C463.66 255.18 461.526 260.588 460.505 262.624C458.659 266.302 458.648 266.51 458.834 294.477C459.038 325.223 459.106 325.7 463.815 329.03C468.762 332.528 476.045 332.895 486.87 330.194C490.037 329.404 493.449 329.159 496.945 329.472C499.853 329.732 520.3 330.284 542.385 330.7C582.275 331.451 582.591 331.47 590.746 333.617C598.752 335.723 599.709 335.79 629.583 336.295C656.451 336.749 660.657 336.991 663.839 338.259C667.31 339.642 672.438 340.127 698.497 341.535C703.954 341.831 707.021 341.629 709.17 340.835ZM1546.76 170.054C1547.1 169.724 1556.32 169.248 1567.25 168.996C1584.72 168.594 1587.67 168.336 1591.57 166.874C1599.26 163.988 1613.04 163.415 1646.78 164.58C1666.16 165.249 1671.29 164.842 1686.68 161.421C1691.85 160.269 1696.03 160.138 1715.69 160.504C1743.22 161.018 1758.49 160.186 1770.73 157.504C1776.83 156.167 1784.5 155.257 1794.3 154.704C1806.53 154.014 1809.57 153.583 1813.56 151.972L1818.29 150.058L1822 152.346C1826.49 155.109 1833.81 156.583 1839.82 155.934C1857.62 154.011 1858.56 153.778 1862.12 150.411C1863.97 148.661 1866.46 145.076 1867.65 142.437C1869.64 138.052 1869.79 136.986 1869.47 129.938C1869.16 123.104 1868.57 120.114 1865.52 110.094C1865.1 108.699 1864.6 100.374 1864.41 91.5941C1864.13 77.9682 1863.83 74.9989 1862.42 71.3197C1861.3 68.3921 1860.5 63.4171 1859.91 55.805C1859.2 46.5083 1858.18 41.1242 1853.91 24.1914C1851.08 12.9665 1848.38 2.52769 1847.92 0.993384C1847.46 -0.540918 1846.52 -6.03445 1845.84 -11.2143C1844.61 -20.5479 1842.05 -30.5579 1840.67 -31.4038C1840.28 -31.6455 1839.72 -34.6323 1839.44 -38.041C1837.47 -61.8937 1834.46 -76.3799 1826.87 -98.6615C1823.71 -107.906 1820.85 -117.09 1820.5 -119.07C1815.09 -149.785 1809.63 -169.503 1802.12 -185.499C1800.16 -189.681 1797.87 -195.436 1797.03 -198.288C1793.65 -209.732 1789.96 -214.311 1784.1 -214.311C1782.62 -214.311 1778.33 -213.076 1774.55 -211.566C1770.77 -210.057 1761.51 -206.414 1753.98 -203.472C1737.77 -197.143 1732.05 -194.348 1723.26 -188.48C1718.65 -185.401 1715.58 -183.944 1712.87 -183.541C1710.67 -183.213 1705.2 -180.991 1700.07 -178.342C1695.14 -175.798 1690.13 -173.483 1688.93 -173.199C1687.73 -172.914 1681.34 -169.45 1674.74 -165.502C1668.12 -161.55 1656.96 -155.838 1649.91 -152.8C1624.55 -141.868 1608.17 -133.443 1591.73 -122.877C1585.61 -118.941 1580.25 -116.565 1562.31 -109.844C1550.25 -105.324 1538.21 -100.643 1535.55 -99.4419C1532.24 -97.9509 1529.52 -97.2955 1526.95 -97.3722C1521.66 -97.5315 1515.5 -95.0015 1509.17 -90.0746C1506.19 -87.7544 1502.26 -84.9556 1500.44 -83.8552C1494.79 -80.4496 1490.87 -75.9062 1489.49 -71.1609C1487.83 -65.5049 1488.87 -60.013 1493.77 -48.6401C1495.76 -44.0181 1498.4 -36.4548 1499.64 -31.8328C1500.88 -27.2109 1503.55 -17.4866 1505.57 -10.2234C1510.29 6.71101 1510.97 9.72517 1514.96 31.3945C1519.16 54.1787 1521.66 64.676 1525.61 76.0881C1528.7 85.0079 1528.76 85.4354 1529.34 100.649C1529.89 114.998 1530.06 116.268 1531.68 117.982C1533.31 119.708 1533.49 121.069 1534.27 138.24C1535.16 157.711 1535.99 164.176 1538.02 167.242C1539.81 169.968 1545.13 171.676 1546.76 170.054ZM1137.43 149.389C1163.28 131.924 1187.04 116.454 1192.18 113.747C1198.68 110.326 1200.77 107.991 1200.88 104.021C1200.96 101.287 1201.17 101.101 1207.86 97.9543C1211.65 96.1687 1215.77 94.496 1217.02 94.2375C1218.26 93.9789 1220.8 92.4167 1222.66 90.7671C1224.52 89.1169 1227.54 86.7623 1229.39 85.5337C1235.77 81.2847 1235.97 76.453 1230.16 67.1955C1228.16 64.0118 1225.4 57.9859 1224.04 53.8041C1220.49 42.9666 1215.27 33.1745 1206.38 20.6899C1202.12 14.7113 1197.37 7.62016 1195.84 4.93266C1190.62 -4.18404 1181.26 -14.3933 1169.62 -23.6709C1166.51 -26.1423 1159.98 -31.9801 1155.11 -36.6436C1150.23 -41.3072 1144.25 -46.6872 1141.81 -48.5985C1137.12 -52.2696 1127.12 -57.4438 1124.7 -57.4438C1123.91 -57.4438 1123.27 -57.7744 1123.27 -58.1786C1123.27 -59.5839 1117.83 -62.2403 1110.81 -64.2596C1106.92 -65.3777 1102.25 -67.313 1100.41 -68.5615C1092.08 -74.2263 1084.55 -76.5505 1079.17 -75.1139C1072.96 -73.4539 1066.68 -65.8419 1063.59 -56.2434C1063.03 -54.4826 1061.67 -51.6917 1060.57 -50.0406C1059.17 -47.9341 1058.39 -45.3091 1057.95 -41.2369C1057.21 -34.3772 1052.4 -19.9621 1049.45 -15.7219C1046.63 -11.693 1045.99 -8.32199 1046.84 -2.04404C1047.54 3.12137 1047.49 3.31912 1044.69 7.90591C1043.12 10.4806 1041.62 13.9364 1041.34 15.5876C1041.03 17.4739 1040.41 18.5889 1039.66 18.5889C1039.01 18.5889 1037.29 19.7654 1035.84 21.2036C1033.17 23.86 1031.38 29.2895 1031.38 34.7719C1031.38 36.1469 1030.8 37.906 1030.1 38.6815C1028.16 40.8048 1026.62 45.7447 1026.58 49.9552C1026.56 52.0202 1026.18 53.9353 1025.73 54.2115C1023.69 55.4632 1021.6 61.4755 1021.05 67.6581C1020.51 73.7111 1020.21 74.5523 1017.09 78.6508C1013.45 83.4224 1011.23 87.9644 1011.23 90.6264C1011.23 93.1435 1014.09 98.1769 1016.81 100.451C1019.71 102.872 1024.78 104.57 1032.99 105.872C1038.02 106.669 1041.84 108.222 1055.71 115.109C1069.87 122.141 1072.96 124.006 1076.24 127.489C1079.73 131.192 1084.87 134.639 1086.91 134.639C1087.7 134.639 1106.81 147.45 1111.98 151.447C1116.48 154.92 1119.7 156.248 1123.62 156.248C1126.89 156.248 1128.37 155.514 1137.43 149.389ZM833.402 137.468C835.953 135.943 840.675 132.495 843.895 129.806C848.351 126.085 851.755 124.102 858.15 121.504C862.771 119.626 868.42 117.144 870.702 115.988C876.524 113.038 930.59 99.6637 939.497 98.9699C945.232 98.5225 947.249 98.7123 951.874 100.131C961.5 103.082 965.033 102.107 969.705 95.2099C971.266 92.9057 973.793 89.2193 975.321 87.0183C978.759 82.0666 981.455 74.4225 981.812 68.612C981.985 65.8003 982.749 63.1393 983.931 61.2409C985.296 59.0479 985.822 56.9007 985.938 53.0358C986.028 50.0465 987.524 42.1878 989.425 34.7134C993.338 19.3291 995.898 3.79446 995.909 -4.64194C995.921 -12.4541 997.091 -21.8869 999.53 -33.8344C1001.51 -43.5338 1004.71 -69.9933 1006.41 -90.7118C1008.3 -113.692 1003.7 -120.944 985.861 -123.104C983.191 -123.428 978.345 -124.284 975.09 -125.008C964.75 -127.309 954.64 -127.685 910.077 -127.421C868.602 -127.176 866.192 -127.082 858.895 -125.404C853.666 -124.202 847.021 -123.467 837.939 -123.083C826.166 -122.586 823.76 -122.238 816.982 -120.048C812.771 -118.689 803.735 -116.254 796.903 -114.639C768.634 -107.954 748.071 -99.6797 721.872 -84.4443C706.528 -75.5212 706.562 -75.5734 711.769 -69.2907C716.819 -63.1976 720.622 -56.1329 725.239 -44.2703C730.285 -31.3063 732.812 -26.3129 737.406 -20.2223C741.768 -14.4406 752.366 6.40442 754.9 14.187C757.6 22.4746 765.443 38.3062 769.594 43.8478C772.152 47.2612 773.397 49.811 773.796 52.4586C775.363 62.8326 780.673 73.7752 792.957 91.9437C800.223 102.691 802.142 106.141 803.062 110.12C804.237 115.195 809.834 126.947 813.84 132.746C819.613 141.104 825.104 142.429 833.402 137.468ZM1444.87 -139.829C1445.98 -140.166 1449.02 -141.575 1451.63 -142.961C1454.25 -144.348 1456.89 -145.482 1457.52 -145.482C1459.63 -145.482 1463.79 -148.089 1468.34 -152.263C1472.65 -156.207 1491.12 -168.04 1503.31 -174.662C1511.65 -179.195 1523.45 -187.435 1530.31 -193.518C1537.8 -200.158 1551.1 -207.974 1574.64 -219.563C1599.76 -231.927 1618.28 -242.688 1635.93 -255.159C1639.77 -257.876 1642.2 -258.996 1644.9 -259.299C1649.94 -259.862 1656.88 -263.495 1662.41 -268.454C1668.51 -273.926 1695.3 -290.617 1706.42 -295.874C1718.63 -301.639 1722.64 -304.855 1728.49 -313.54C1740.62 -331.544 1739.17 -338.635 1715.28 -377.982C1709.41 -387.666 1702.75 -399.085 1700.49 -403.356C1698.23 -407.628 1695.08 -413.136 1693.49 -415.596C1689.65 -421.561 1681.06 -430.505 1676.21 -433.596C1673.08 -435.592 1671.15 -437.9 1666.65 -445.055C1659.46 -456.489 1652.22 -466.128 1645.51 -473.223C1638.76 -480.361 1627.82 -493.652 1618.18 -506.437C1605.02 -523.883 1599.1 -530.1 1578.67 -547.956C1548.66 -574.183 1536.75 -584.801 1532.32 -589.279C1524.09 -597.609 1517.4 -600.878 1508.59 -600.878C1498.32 -600.878 1488.94 -596.394 1485.23 -589.714C1483.71 -586.968 1483.27 -585.014 1483.31 -581.173C1483.35 -576.519 1483.15 -575.942 1480.16 -572.353C1476.34 -567.765 1474.22 -563.809 1473.48 -559.935C1473.18 -558.308 1471.4 -555.226 1469.35 -552.768C1464.97 -547.513 1460.81 -540.878 1458.88 -536.05C1458.09 -534.069 1454.52 -528.847 1450.94 -524.445C1442.91 -514.554 1436.28 -504.609 1430.4 -493.622C1427.92 -488.995 1422.61 -480.531 1418.59 -474.814C1414.56 -469.097 1403.72 -453.254 1394.48 -439.608C1385.25 -425.963 1374.82 -411.376 1371.32 -407.195C1363.53 -397.91 1359.66 -391.233 1358.49 -385.061C1357.24 -378.429 1355.68 -375.721 1350.03 -370.323C1346.25 -366.714 1344.49 -365.577 1342.68 -365.577C1338.44 -365.577 1336.31 -363.042 1334.8 -356.154C1333.56 -350.523 1333.11 -349.683 1329.78 -346.769C1320.2 -338.38 1317.75 -335.592 1317.16 -332.412C1316.73 -330.078 1315.25 -327.833 1311.46 -323.766C1302.76 -314.437 1300.56 -306.86 1304.42 -299.494C1306.07 -296.327 1311.01 -291.289 1314.04 -289.681C1314.87 -289.24 1316 -287.167 1316.57 -285.028C1317.78 -280.569 1320.57 -276.601 1323.89 -274.656C1325.73 -273.575 1326.55 -272.111 1327.9 -267.513C1330.23 -259.536 1331.39 -258.325 1337.32 -257.631C1342.77 -256.992 1345.66 -255.239 1347.84 -251.246C1349.36 -248.456 1354.31 -243.924 1355.84 -243.924C1357.39 -243.924 1365.05 -233.689 1368.36 -227.195C1371.88 -220.281 1379.86 -210.64 1387.53 -204.049C1390.87 -201.183 1393.16 -198.373 1394.55 -195.466C1396.49 -191.39 1400.82 -186.878 1405.39 -184.175C1408.25 -182.478 1410.59 -178.609 1411.82 -173.533C1413.05 -168.412 1417.81 -162.801 1423.44 -159.836C1426.5 -158.228 1427.28 -157.251 1429.13 -152.727C1432.15 -145.346 1434.87 -141.536 1438.05 -140.216C1441.06 -138.968 1441.88 -138.92 1444.87 -139.829ZM221.469 -178.605C228.006 -180.944 237.715 -189.925 250.12 -205.108C262.907 -220.757 320.432 -275.8 329.341 -280.909C333.553 -283.324 335.802 -285.568 339.307 -290.85C340.971 -293.358 345.963 -297.892 353.925 -304.126C369.809 -316.564 373.862 -319.199 390.455 -327.879C398.134 -331.896 406.658 -336.679 409.396 -338.507C415.318 -342.463 424.209 -351.294 426.466 -355.465C427.401 -357.192 428.84 -358.596 429.892 -358.808C430.89 -359.01 432.597 -359.357 433.687 -359.581C434.776 -359.805 436.621 -360.866 437.787 -361.938C440.334 -364.282 450.374 -368.197 459.86 -370.546C465.249 -371.88 467.344 -372.824 469.387 -374.839C472.77 -378.174 472.813 -381.317 469.588 -389.314C468.258 -392.612 467.17 -395.786 467.17 -396.366C467.17 -399.08 463.65 -408.272 461.259 -411.799C459.796 -413.958 457.414 -419.297 455.966 -423.664C449.985 -441.694 441.637 -460.155 432.713 -475.085C430.259 -479.19 425.915 -487.834 423.059 -494.293C414.973 -512.582 409.97 -523.98 407.539 -529.647C400.5 -546.062 394.865 -556.431 387.724 -566.113C380.681 -575.665 372.919 -590.083 369.903 -599.22C364.009 -617.079 352.838 -636.99 339.789 -652.9C337.533 -655.651 336.723 -657.482 336.357 -660.649C335.779 -665.657 333.487 -670.33 329.423 -674.789C327.757 -676.616 323.93 -682.793 320.92 -688.516C317.909 -694.238 309.554 -709.185 302.353 -721.73C286.688 -749.024 286.984 -748.449 286.31 -752.817C285.537 -757.824 283.368 -761.525 278.171 -766.709C273.01 -771.856 268.114 -774.553 263.928 -774.553C259.62 -774.553 252.201 -770.428 245.494 -764.304C239.83 -759.13 239.186 -758.769 234.698 -758.251C228.724 -757.561 223.591 -755.345 220.708 -752.209C218.83 -750.166 217.56 -749.659 212.586 -748.959C204.773 -747.858 199.438 -745.472 195.776 -741.443C193.746 -739.208 190.282 -736.948 185.089 -734.468C177.133 -730.669 168.4 -725.362 163.017 -721.056C160.013 -718.654 159.832 -718.614 157.489 -719.816C154.159 -721.527 152.014 -720.774 148.047 -716.499C145.076 -713.299 143.779 -712.591 137.655 -710.829C128.428 -708.174 123.397 -705.699 108.826 -696.641C102.138 -692.484 95.0656 -688.287 93.1086 -687.314C91.1515 -686.341 82.1725 -681.353 73.1547 -676.231C58.9599 -668.167 56.1781 -666.26 52.4262 -662.016C48.7734 -657.885 47.5556 -657.029 44.6757 -656.572C39.6188 -655.77 35.4469 -653.674 28.6965 -648.547C25.3717 -646.022 20.1938 -642.718 17.1906 -641.204C10.7238 -637.948 5.78068 -633.721 3.69865 -629.67C1.53458 -625.456 -2.74935 -622.018 -6.59579 -621.407C-10.6356 -620.766 -15.6517 -617.052 -20.283 -611.272C-22.2183 -608.857 -28.4593 -601.262 -34.1522 -594.395L-44.503 -581.91L-48.5179 -581.438C-58.4166 -580.274 -69.9029 -571.988 -74.474 -562.714C-76.2552 -559.099 -77.1178 -558.321 -81.9151 -555.994C-84.8997 -554.547 -87.2035 -553.225 -87.0343 -553.057C-86.8658 -552.889 -84.5453 -553.847 -81.878 -555.183L-77.0289 -557.614L-78.6588 -551.834C-79.556 -548.655 -80.7506 -545.514 -81.3148 -544.854C-84.9613 -540.584 -85.3619 -538.516 -85.1837 -524.845L-85.0111 -511.64L-88.3221 -515.241C-92.2782 -519.545 -96.7274 -526.246 -98.3265 -530.307C-99.3187 -532.826 -99.4164 -532.904 -99.0045 -530.848C-98.1146 -526.397 -93.6935 -520.145 -79.5599 -503.346C-77.9439 -501.426 -74.8504 -498.773 -72.6854 -497.45C-69.8788 -495.735 -66.7716 -492.431 -61.8614 -485.94C-55.6058 -477.67 -47.901 -469.622 -46.2398 -469.622C-45.8795 -469.622 -45.3509 -468.562 -45.0648 -467.267C-44.2821 -463.73 -40.2247 -458.657 -36.7838 -456.914C-31.3666 -454.169 -19.1061 -442.778 -18.005 -439.466C-17.4625 -437.833 -15.4066 -434.785 -13.4359 -432.694C-11.4659 -430.602 -8.4127 -426.08 -6.65074 -422.645C-2.9962 -415.518 2.45717 -409.514 7.73989 -406.799C10.1249 -405.574 19.0966 -397.168 33.9354 -382.255C56.1815 -359.898 56.5958 -359.42 62.952 -348.831C69.4655 -337.98 70.7006 -336.541 87.0465 -320.757C90.4657 -317.456 94.1113 -313.133 95.1478 -311.152C96.942 -307.721 105.184 -299.148 106.688 -299.148C107.079 -299.148 109.912 -295.51 112.983 -291.063C126.886 -270.936 137.78 -258.777 147.897 -252.1C152.655 -248.958 153.32 -248.144 156.666 -241.348C159.842 -234.896 161.401 -232.887 169.385 -224.959C175.649 -218.739 178.656 -215.151 179.032 -213.449C179.645 -210.679 184.956 -204.99 188.779 -203.008C190.157 -202.294 195.302 -197.072 200.211 -191.403C211.523 -178.343 214.958 -176.275 221.469 -178.605ZM1201.89 -356.493C1204.76 -357.337 1206.41 -358.387 1207.53 -360.098C1208.4 -361.427 1210.99 -363.72 1213.28 -365.195C1218.18 -368.348 1220.66 -372.2 1223.59 -381.183C1227.66 -393.697 1230.02 -398.793 1233.9 -403.467C1236.03 -406.04 1239.03 -410.61 1240.56 -413.623C1243.53 -419.485 1250.62 -439.982 1250.63 -442.745C1250.63 -443.753 1251.76 -445.176 1253.5 -446.347C1260.44 -451.042 1265.12 -458.013 1268.45 -468.631C1269.38 -471.597 1271.38 -476.545 1272.89 -479.626C1274.41 -482.707 1275.91 -487.255 1276.23 -489.732C1276.76 -493.824 1277.14 -494.482 1280.34 -496.935C1284.26 -499.941 1291.09 -511.283 1295.14 -521.529C1297.08 -526.443 1297.44 -528.435 1297.3 -533.569L1297.14 -539.721L1302.02 -544.343C1307.93 -549.939 1311.42 -556.252 1316.85 -571.168C1319.03 -577.164 1322.14 -584.411 1323.75 -587.272C1325.36 -590.133 1328.75 -596.616 1331.29 -601.678C1333.83 -606.74 1340.56 -619.008 1346.26 -628.94C1354.62 -643.525 1357.22 -648.833 1359.77 -656.552C1363.61 -668.175 1365.32 -672.339 1372.53 -687.532C1378.54 -700.193 1378.71 -701.313 1375.47 -705.836C1373.83 -708.127 1358.52 -716.226 1341.16 -723.986C1335.96 -726.31 1330.19 -729.605 1327.49 -731.784C1322.11 -736.134 1318.7 -737.737 1314.82 -737.737C1308.75 -737.737 1307.26 -738.467 1306.74 -741.686C1306 -746.296 1304.17 -747.368 1295.2 -748.466C1286.03 -749.589 1281.4 -751.624 1278.91 -755.623C1275.55 -761.011 1268.55 -766.404 1263.29 -767.659C1262.06 -767.952 1258.07 -770.398 1254.42 -773.092C1245.56 -779.649 1240.95 -781.645 1232.49 -782.599C1225.09 -783.435 1221.99 -784.681 1211.34 -791.098C1200.94 -797.368 1189.35 -802.565 1185.78 -802.565C1184.29 -802.565 1163.13 -812.026 1154.63 -816.492C1147.58 -820.2 1141.52 -822.063 1133.4 -823.027C1130.17 -823.411 1127.1 -824.478 1123.95 -826.314C1117.04 -830.333 1109.49 -833.329 1099.09 -836.179C1093.99 -837.576 1086.37 -840.186 1082.16 -841.978C1064.8 -849.367 1059.16 -851.436 1052.89 -852.709C1032.61 -856.824 1024.73 -845.935 1022.47 -810.706C1021.83 -800.604 1021.3 -797.266 1019.72 -793.354C1017.53 -787.914 1016.19 -776.931 1016.01 -762.948C1015.91 -755.458 1015.3 -751.635 1011.92 -737.337C1009.73 -728.093 1006.69 -716.748 1005.15 -712.126C1001.95 -702.527 1001.69 -698.571 1003.98 -694.118C1004.87 -692.391 1005.59 -690.576 1005.59 -690.083C1005.59 -689.591 1003.97 -688.033 1001.99 -686.622C1000.01 -685.211 998.111 -683.619 997.762 -683.085C997.413 -682.551 996.902 -679.412 996.628 -676.11C996.334 -672.573 995.233 -667.808 993.947 -664.505C992.712 -661.334 991.566 -656.472 991.309 -653.301C991.001 -649.501 990.179 -646.41 988.752 -643.697C986.764 -639.912 986.642 -638.998 986.51 -626.882C986.412 -617.821 986.022 -613.134 985.176 -610.875C979.841 -596.619 979.625 -595.784 980.01 -590.91C980.298 -587.263 979.935 -584.659 978.538 -580.336C975.636 -571.353 972.72 -557.376 971.493 -546.554C970.633 -538.987 970.054 -536.474 969.038 -535.909C967.32 -534.954 965.29 -531.043 965.289 -528.687C965.289 -527.675 964.517 -524.865 963.575 -522.444C962.218 -518.956 961.73 -515.304 961.224 -504.837C960.779 -495.621 959.975 -488.923 958.565 -482.669C957.454 -477.741 956.095 -468.884 955.545 -462.986C954.564 -452.46 954.579 -452.195 956.377 -448.507C958.695 -443.752 963.437 -441.186 971.845 -440.135C980.198 -439.091 1005.42 -428.825 1021.71 -419.838C1032.5 -413.889 1036.57 -412.4 1047.27 -410.486C1052.05 -409.632 1058.43 -408.001 1061.44 -406.863C1065.37 -405.379 1068.46 -404.794 1072.36 -404.794C1076.57 -404.794 1080 -404.066 1087.44 -401.594C1092.74 -399.834 1098.71 -397.527 1100.7 -396.468C1105.45 -393.944 1111.48 -392.216 1120.69 -390.736C1126.76 -389.76 1129.44 -388.839 1134.79 -385.885C1146.27 -379.551 1156.06 -376.192 1168.41 -374.345C1174.11 -373.492 1174.7 -373.206 1178.75 -369.309C1181.12 -367.036 1184.15 -363.609 1185.5 -361.693C1187.95 -358.191 1193 -355.161 1196.21 -355.255C1197.1 -355.28 1199.65 -355.837 1201.89 -356.493ZM593.312 -428.874C599.115 -430.357 600.568 -430.436 607.82 -429.661C617.322 -428.646 623.588 -429.426 629.153 -432.316C631.226 -433.391 635.006 -434.654 637.551 -435.122C640.097 -435.589 643.263 -436.738 644.588 -437.673C646.775 -439.22 647.967 -439.365 657.633 -439.256C668.901 -439.131 675.228 -440.047 680.144 -442.516C682.605 -443.753 683.767 -443.888 686.56 -443.265C689.131 -442.692 692.202 -442.889 699.033 -444.067C706.417 -445.34 709.318 -445.494 714.71 -444.894C718.348 -444.49 721.72 -444.276 722.203 -444.419C722.686 -444.56 724.051 -444.887 725.235 -445.144C726.42 -445.401 728.415 -446.463 729.669 -447.503C731.821 -449.292 732.726 -449.42 746.053 -449.827C760.207 -450.26 774.624 -452.015 793.608 -455.617C799.149 -456.669 805.859 -457.936 808.519 -458.433C811.179 -458.931 817.039 -459.626 821.542 -459.977C830.612 -460.683 834.797 -462.232 837.483 -465.875C838.963 -467.882 839.173 -469.478 839.375 -480.281C839.592 -491.874 839.711 -492.651 841.97 -497.233C843.391 -500.115 844.851 -505.055 845.622 -509.584C846.328 -513.736 847.271 -517.811 847.716 -518.64C848.574 -520.23 848.731 -522.537 850.093 -553.658C851.051 -575.574 851.607 -578.941 857.348 -597.561C862.712 -614.957 864.245 -623.006 864.836 -636.895C865.109 -643.283 865.887 -650.481 866.566 -652.902C869.352 -662.824 870.962 -672.259 873.017 -690.701C874.546 -704.411 875.801 -712.127 877.284 -716.928L879.385 -723.731L879.878 -769.351C880.352 -813.083 880.445 -815.198 882.11 -820.493C883.065 -823.53 884.203 -829.472 884.637 -833.698C885.516 -842.24 884.945 -868.542 883.781 -873.159C882.791 -877.084 879.783 -880.51 875.602 -882.474C869.992 -885.11 832.38 -891.352 811.743 -893.072C797.768 -894.237 774.047 -893.589 764.188 -891.773C752.238 -889.571 748.388 -889.317 742.829 -890.36C735.198 -891.794 724.714 -891.618 710.136 -889.812C703.07 -888.937 694.68 -888.216 691.49 -888.211C685.745 -888.202 661.868 -884.987 655.473 -883.362C653.647 -882.898 650.701 -881.953 648.927 -881.262C646.957 -880.495 643.616 -880.059 640.334 -880.142C634.713 -880.285 630.159 -878.943 627.176 -876.264C624.677 -874.019 622.164 -873.72 603.87 -873.495C590.389 -873.328 585.945 -872.996 582.431 -871.892C579.993 -871.126 573.519 -870.152 568.044 -869.729C561.878 -869.252 556.356 -868.341 553.535 -867.336C545.768 -864.569 543.636 -864.232 533.667 -864.183C517.949 -864.107 507.851 -861.596 500.262 -855.878C497.719 -853.962 496.839 -853.787 489.784 -853.782C479.477 -853.776 468.041 -851.976 460.162 -849.122C454.072 -846.914 450.557 -844.912 440.99 -838.197C438.782 -836.647 436.243 -835.371 435.348 -835.361C432.921 -835.335 427.516 -832.652 425.498 -830.471C421.015 -825.63 420.278 -818.985 422.482 -803.29C423.961 -792.76 426.82 -783.222 430.497 -776.554C432.601 -772.739 440.452 -749.961 446.36 -730.534C446.83 -728.993 450.757 -717.648 455.087 -705.323C459.419 -692.998 463.188 -681.113 463.463 -678.912C463.762 -676.527 464.975 -673.293 466.466 -670.908C467.936 -668.555 470.608 -661.476 472.949 -653.726C477.544 -638.522 479.73 -632.761 484.514 -623.25C486.407 -619.488 488.892 -612.915 490.037 -608.645C492.409 -599.795 496.6 -589.268 500.777 -581.67C502.35 -578.809 507.249 -566.563 511.663 -554.458C516.078 -542.353 524.339 -521.644 530.02 -508.438C536.387 -493.641 540.721 -482.445 541.314 -479.262C542.477 -473.019 544.957 -466.214 547.453 -462.418C548.466 -460.878 549.891 -457.816 550.621 -455.615C554.891 -442.725 562.122 -432.866 569.72 -429.577C575.719 -426.979 584.832 -426.708 593.312 -428.874ZM-99.3397 -536.851C-99.0609 -538.831 -98.6063 -541.172 -98.3289 -542.053C-98.0516 -542.933 -98.3941 -542.438 -99.089 -540.952C-99.7845 -539.466 -100.24 -537.125 -100.1 -535.75C-99.8788 -533.559 -99.7845 -533.696 -99.3397 -536.851ZM-92.6095 -548.638C-88.6358 -552.346 -88.3817 -552.719 -91.1834 -550.73C-93.9723 -548.75 -98.6837 -543.953 -97.7059 -544.09C-97.5623 -544.11 -95.2694 -546.156 -92.6095 -548.638Z" fill="#FAF8F5"/>
</g>
</svg>
