<svg width="426" height="244" viewBox="0 0 426 244" fill="none" xmlns="http://www.w3.org/2000/svg">
<g opacity="0.05">
<path opacity="0.11" d="M17.2505 102.199C25.3341 79.641 70.9067 68.0203 140.144 47.7411C161.935 41.3611 176.462 41.1332 186.068 43.9814C191.106 39.5382 196.729 35.8925 203.056 33.2722C207.156 31.5632 211.491 30.6518 215.943 30.0822C217.817 29.8543 219.574 29.6264 221.449 29.5125C229.181 28.9429 237.147 29.0568 244.879 29.3986C255.072 29.8543 265.147 31.3354 274.988 33.8418C306.268 42.0446 334.619 60.0453 354.418 85.2235C360.51 92.9706 365.665 101.401 370.116 110.06C371.171 111.997 372.108 114.047 373.045 116.098L393.078 107.326L397.062 108.807C397.062 108.807 402.216 126.238 407.957 147.542C414.869 151.302 406.862 158.41 408.619 161.144L410.953 196.954H410.945C410.945 196.954 384.624 225.895 366.816 228.288C359.872 239.478 357.55 241.717 357.55 241.717L261.281 219.887C261.281 219.887 222.846 225.207 220.034 225.207C213.825 224.295 145.299 216.697 139.09 216.241C139.441 222.393 139.207 244.495 120.58 240.736C120.345 240.736 120.228 240.736 119.994 240.622H119.877C119.642 240.508 119.408 240.394 119.057 240.28C119.057 239.482 118.94 238.799 118.822 238.001C118.705 238.001 118.588 237.887 118.471 237.887C118.588 237.887 118.588 237.774 118.705 237.774C117.885 233.9 115.894 230.026 113.082 226.95C112.965 226.95 112.848 226.836 112.73 226.836L107.107 226.95L17.6019 219.887C16.3133 220.001 15.0246 219.887 13.9702 219.545C-7.9375 213.393 9.63556 123.389 17.2505 102.199ZM376.325 178.189C376.325 178.303 376.325 178.303 376.325 178.417C378.083 177.847 379.84 177.392 381.715 177.164C382.652 177.05 383.472 176.936 384.409 176.936L384.292 176.252C382.066 175.227 379.84 174.315 377.497 173.518C377.028 174.999 376.677 176.594 376.325 178.189ZM342.351 114.047C338.368 105.958 334.033 98.0974 328.878 90.6921C319.975 78.046 308.962 66.881 296.31 57.6528C289.281 52.526 281.783 47.9689 274.051 44.0954C264.444 39.4243 254.252 35.7786 243.825 33.3861C242.536 33.0443 241.13 32.8164 239.842 32.5886C238.67 32.3607 237.499 32.1329 236.21 31.905C235.741 32.0189 235.156 32.1329 234.687 32.3607C232.227 33.0443 229.884 34.0697 227.541 35.2089C219.34 39.3104 212.545 45.3486 206.687 52.1843C220.16 57.7668 239.139 65.9696 256.595 74.1724C257.063 74.1724 257.532 74.1724 258.001 74.1724C276.745 74.5142 295.021 81.5778 308.259 94.6795C313.063 99.4645 317.046 104.933 320.209 110.857C328.41 113.82 337.079 117.123 345.631 120.427C344.46 118.377 343.405 116.212 342.351 114.047ZM357.55 241.717C359.307 241.603 355.676 241.831 357.55 241.717C353.215 235.109 355.004 236.406 353.715 227.52C353.481 225.925 357.646 165.591 357.529 164.11L261.281 219.887L357.55 241.717ZM261.281 219.887L357.529 164.369V164.11C357.935 162.373 357.177 165.249 357.529 164.11L326.887 157.796C321.498 181.493 302.987 201.316 280.728 212.481C274.519 215.558 267.959 218.064 261.281 219.887Z" fill="#212121"/>
<path d="M241.552 0.346969C251.744 0.802683 261.82 2.28375 271.66 4.79017C302.94 12.993 331.292 30.9937 351.09 56.1719C357.182 63.8051 362.337 72.2358 366.789 80.8943C369.249 85.5654 371.358 90.2364 373.115 95.1354C373.935 97.4139 374.521 99.6925 375.107 101.971C375.458 103.11 375.927 104.364 375.81 105.617C375.693 107.098 374.755 108.465 374.052 109.604C373.818 109.946 371.475 110.06 371.475 110.06C369.366 110.174 367.258 110.288 365.149 110.288C363.04 110.288 360.931 110.288 358.823 110.06C358.12 110.06 356.831 110.06 356.245 109.604C353.785 107.781 351.208 106.186 349.567 103.566C348.279 101.401 346.99 99.2368 345.584 97.0721C343.124 93.0846 341.015 88.8693 338.906 84.7679C334.923 76.679 330.589 68.8179 325.434 61.4126C316.53 48.7665 305.518 37.6015 292.865 28.3733C285.836 23.2466 278.338 18.6894 270.606 14.8159C261 10.1448 250.807 6.4991 240.381 4.10661C239.092 3.76482 237.686 3.53696 236.397 3.30911C230.422 1.37232 224.213 0.688754 218.004 0.346969C225.971 -0.222672 233.937 0.00518423 241.552 0.346969Z" fill="#4F4F4F"/>
<path d="M199.847 4.10583C203.947 2.3969 208.282 1.48547 212.734 0.915833C214.608 0.687976 216.366 0.46012 218.24 0.346191C224.566 0.687976 230.658 1.48548 236.633 3.30833C235.461 3.08047 234.29 2.85262 233.001 2.62476C232.533 2.73869 231.947 2.85262 231.478 3.08047C229.018 3.76404 226.558 4.7894 224.332 5.92868C211.562 12.4226 202.073 23.4736 194.341 35.0943C193.872 35.7779 190.241 35.7779 190.124 35.7779C186.726 36.0058 183.329 36.1197 179.931 36.0058C176.534 36.0058 173.137 36.0058 169.739 35.7779C169.388 35.7779 165.405 35.2083 165.522 35.0943C174.074 22.4483 184.969 10.144 199.847 4.10583Z" fill="#4F4F4F"/>
<path d="M350.335 198.293C346.746 173.05 359.321 150.506 378.42 147.94C397.52 145.375 415.913 163.758 419.502 189.001C423.091 214.245 410.517 236.788 391.417 239.354C372.317 241.92 353.924 223.536 350.335 198.293Z" fill="#212121"/>
<path d="M364.792 194.55C361.949 174.542 371.854 156.682 386.916 154.658C401.978 152.633 416.493 167.212 419.336 187.22C422.179 207.227 412.274 225.088 397.212 227.112C382.151 229.136 367.636 214.558 364.792 194.55Z" fill="#4F4F4F"/>
<path d="M383.547 192.563C381.997 181.655 387.391 171.919 395.595 170.816C403.799 169.714 411.706 177.662 413.256 188.57C414.806 199.477 409.412 209.214 401.208 210.316C393.004 211.419 385.097 203.47 383.547 192.563Z" fill="#424242"/>
<path d="M383.484 192.5C381.934 181.592 386.6 171.954 393.907 170.972C401.214 169.99 408.393 178.036 409.943 188.944C411.493 199.851 406.827 209.49 399.52 210.472C392.214 211.454 385.034 203.408 383.484 192.5Z" fill="#212121"/>
<path d="M135.511 185.596C135.511 185.596 138.791 216.698 116.415 211.457C119.461 208.609 119.461 205.647 119.461 205.647L117.938 201.204L103.763 193.457C103.763 193.457 81.9727 191.634 93.4536 184.57C104.934 177.621 135.511 185.596 135.511 185.596Z" fill="black"/>
<path d="M115.644 211.229C115.41 205.761 112.364 200.178 108.264 196.418C109.552 196.988 110.958 197.672 112.247 198.241C114.004 199.039 115.879 199.95 117.402 201.203C118.925 202.457 120.096 204.166 120.213 206.102C120.33 209.52 118.573 211.001 115.644 211.229Z" fill="#424242"/>
<path d="M304.888 65.629C320.821 81.3512 328.084 104.82 323.867 126.467C319.064 151.075 300.202 171.81 277.24 183.203C254.278 194.596 227.684 197.444 201.91 195.621C176.254 193.798 151.183 187.76 125.409 186.507C120.371 186.279 115.1 184.798 110.062 185.937C107.719 186.507 105.142 188.9 105.844 191.52C106.547 194.596 110.765 195.963 113.342 197.33C116.857 199.153 120.723 201.204 121.894 204.85C123.066 208.495 118.849 213.28 115.568 211.23C119.551 209.862 119.317 203.938 116.271 201.09C113.225 198.356 108.773 197.672 104.79 196.533C100.807 195.393 96.4722 193.115 95.6521 189.127C94.4806 183.545 100.807 179.443 106.196 177.279C138.647 164.633 176.488 162.696 203.668 141.391C224.404 125.328 235.885 98.6683 233.424 73.0344C232.604 65.4012 229.91 53.7805 236.705 47.7423C241.039 43.7548 249.24 45.008 254.746 45.1219C273.374 45.4637 291.767 52.5273 304.888 65.629Z" fill="#212121"/>
<path d="M298.779 67.4517C314.126 82.7181 321.273 105.504 317.172 126.467C312.486 150.392 294.21 170.443 271.951 181.494C249.692 192.545 223.801 195.393 198.847 193.57C173.894 191.748 149.643 185.937 124.689 184.798C119.769 184.57 114.731 183.089 109.811 184.228C107.468 184.798 105.125 187.077 105.71 189.697C106.413 192.773 110.514 194.026 112.974 195.279C116.371 196.988 120.12 199.039 121.292 202.571C122.463 206.103 118.363 210.774 115.2 208.723C119.066 207.47 118.832 201.659 115.903 198.925C112.974 196.191 108.639 195.621 104.773 194.596C100.907 193.57 96.6896 191.292 95.8695 187.418C94.8151 182.064 100.907 177.962 106.062 175.912C137.576 163.607 174.245 161.784 200.722 141.049C220.755 125.327 232.002 99.4656 229.424 74.6292C228.721 67.2239 226.027 55.945 232.587 50.0207C236.805 46.1471 244.771 47.4003 250.043 47.5143C268.085 47.8561 285.892 54.8057 298.779 67.4517Z" fill="#424242"/>
<path d="M109.328 197.787L103.705 197.9L97.8473 197.445C100.542 196.989 103.353 196.647 106.048 196.078C107.922 197.103 109.328 197.787 109.328 197.787Z" fill="url(#paint0_linear_11842_144545)"/>
<path d="M23.0215 84.8827L185.162 15.6143C185.162 15.6143 200.04 21.5385 219.019 29.6274C248.19 49.6788 253.462 123.39 216.91 151.303C197.346 166 176.024 176.595 153.765 184.114C149.078 183.886 144.275 183.659 139.238 183.431C80.7781 180.355 97.7653 191.747 106.083 196.077C103.389 196.533 100.577 196.988 97.8824 197.444L10.6032 190.494L23.0215 84.8827Z" fill="#212121"/>
<path d="M219.067 29.627C245.66 41.0198 280.221 56.9698 292.873 67.4512C309.04 80.8947 317.007 113.478 304.12 138.315C282.095 130.681 259.953 123.39 237.577 116.782C242.38 89.3254 241.794 49.4505 219.067 29.627Z" fill="url(#paint1_linear_11842_144545)"/>
<path d="M216.885 151.303C228.834 142.189 235.044 130.113 237.504 116.783C259.88 123.391 282.022 130.682 304.047 138.316C299.712 146.519 293.152 153.924 283.779 159.506C248.516 180.355 220.868 186.849 153.856 184.229C176.115 176.596 197.32 166 216.885 151.303Z" fill="#212121"/>
<path d="M201.368 40.6784C201.368 40.6784 206.054 -1.81691 136.816 18.5763C67.5784 38.8555 22.0057 50.3623 13.9221 73.034C5.83855 95.5918 -13.6089 196.191 15.328 190.722C44.2649 185.253 104.95 169.987 135.879 169.076C166.69 168.164 199.142 167.253 201.368 109.605C203.828 51.8433 201.368 40.6784 201.368 40.6784Z" fill="url(#paint2_linear_11842_144545)"/>
<path d="M79.1056 36.805C94.8042 31.9061 112.963 26.6654 133.23 20.7411C200.711 1.03153 196.025 42.2736 196.025 42.2736C196.025 42.2736 198.368 53.0968 196.142 109.15C193.916 165.316 162.402 166.228 132.293 167.139C116.243 167.595 91.8753 172.038 68.4447 176.937C65.3987 130.226 67.6246 82.2624 79.1056 36.805Z" fill="url(#paint3_linear_11842_144545)"/>
<path d="M74.4077 38.2853C75.9307 37.8296 77.4536 37.2599 79.0938 36.8042C67.6129 82.2616 65.387 130.112 68.4329 177.05C66.5585 177.392 64.8013 177.848 62.9268 178.189C60.2323 131.251 62.4582 83.9705 74.4077 38.2853Z" fill="#212121"/>
<path d="M13.6826 73.8313C18.8373 59.0206 40.5104 49.1088 74.4844 38.2856C62.5349 83.857 60.4262 131.251 63.0035 178.19C44.4935 182.063 27.0379 186.051 15.0884 188.329C-13.1452 193.684 5.83344 95.8195 13.6826 73.8313Z" fill="url(#paint4_linear_11842_144545)"/>
<path d="M382.941 129.314C375.76 129.314 369.938 123.652 369.938 116.668C369.938 109.684 375.76 104.022 382.941 104.022C390.123 104.022 395.945 109.684 395.945 116.668C395.945 123.652 390.123 129.314 382.941 129.314Z" fill="black"/>
<path d="M420.081 173.517C420.081 173.517 421.604 148.453 410.123 131.022C399.814 115.413 314.526 81.121 291.213 73.2599C285.004 71.2092 277.623 70.9813 271.297 72.4624C266.962 73.4878 262.862 75.8803 260.636 79.526C253.958 90.8049 258.41 105.388 269.891 111.312C278.209 115.641 288.284 117.578 297.305 120.312C306.443 123.161 315.464 125.895 324.602 128.743C339.48 133.3 354.358 137.971 369.237 142.528C370.291 142.87 371.346 143.212 372.4 143.554C389.27 148.794 403.446 160.187 411.764 175.454L420.081 173.517Z" fill="url(#paint5_linear_11842_144545)"/>
<path d="M420.088 173.518C420.088 173.518 429.694 145.72 418.213 128.288C410.012 115.756 335.034 87.9579 293.445 73.2611C280.206 68.59 266.382 78.3879 266.734 92.0593C266.968 100.376 272.591 107.554 280.675 110.06L380.255 140.821C397.125 146.061 411.301 157.454 419.619 172.721L420.088 173.518Z" fill="url(#paint6_linear_11842_144545)"/>
<path d="M387.257 105.388C392.997 104.704 398.035 109.148 401.315 113.249C405.649 133.87 410.804 158.82 413.967 175.454C420.293 208.265 408.461 205.759 408.461 205.759C394.989 210.658 391.708 190.948 391.708 190.948L376.713 130.338C375.541 125.667 374.604 120.313 375.776 115.641C377.299 110.173 381.282 106.185 387.257 105.388Z" fill="#4F4F4F"/>
<path d="M381.727 112.453C384.07 109.605 388.053 107.782 392.27 107.782C400.471 107.782 404.22 116.554 405.977 123.162C409.023 134.669 411.952 146.062 414.646 157.682C415.935 163.265 417.224 168.847 418.278 174.43C423.315 200.747 416.755 204.393 413.943 204.735C413.006 204.849 412.069 204.963 411.132 205.19C398.948 208.039 396.019 189.924 396.019 189.924C393.793 180.924 391.684 171.809 389.459 162.809C387.701 155.518 385.944 148.226 384.187 140.935C383.25 137.175 382.429 133.53 381.492 129.77C380.672 126.58 379.501 123.276 379.266 119.972C379.032 117.124 379.969 114.504 381.727 112.453Z" fill="url(#paint7_linear_11842_144545)"/>
<path d="M159.959 22.3357C157.264 23.2471 154.804 24.7282 153.515 27.0067C152.695 28.4878 152.461 30.4246 153.047 32.1335C154.453 36.0071 159.256 37.1463 163.005 37.4881C167.339 37.8299 171.674 37.4881 176.009 36.6906C179.054 36.121 182.1 34.9817 183.975 32.5892C186.435 29.5131 185.966 24.956 182.335 23.0192C177.766 20.5128 172.025 20.3989 166.988 20.9685C164.996 21.0824 162.302 21.4242 159.959 22.3357Z" fill="#616161"/>
<path d="M169.044 28.9425C169.044 32.816 172.324 36.006 176.307 36.006C180.29 36.006 183.57 32.816 183.57 28.9425C183.57 25.0689 180.29 21.8789 176.307 21.8789C172.324 21.8789 169.044 25.0689 169.044 28.9425Z" fill="#212121"/>
<path d="M34.0572 73.3758C35.5801 72.1226 36.8688 70.6415 37.1031 68.8187C37.3374 67.5655 36.8688 66.3123 36.1659 65.4008C34.2915 63.1223 30.7769 63.578 28.3167 64.2615C25.3879 65.059 22.5763 66.3123 19.999 67.9073C18.1245 68.9326 16.4844 70.5276 15.7815 72.4644C14.9614 75.0847 16.3672 77.933 19.1789 78.3887C22.8106 78.9583 26.5594 77.7051 29.7225 76.1101C31.1284 75.3126 32.6513 74.4012 34.0572 73.3758Z" fill="#616161"/>
<path d="M21.6265 77.7051C18.8444 77.7051 16.589 75.5117 16.589 72.8061C16.589 70.1006 18.8444 67.9072 21.6265 67.9072C24.4087 67.9072 26.6641 70.1006 26.6641 72.8061C26.6641 75.5117 24.4087 77.7051 21.6265 77.7051Z" fill="#212121"/>
<path d="M25.8853 177.849C27.4083 176.596 28.6969 175.115 28.9312 173.292C29.1655 172.039 28.6969 170.785 27.994 169.874C26.1196 167.595 22.605 168.051 20.1449 168.735C17.2161 169.532 14.4044 170.785 11.8271 172.38C9.95265 173.406 8.31252 175.001 7.6096 176.938C6.78954 179.558 8.19536 182.406 11.007 182.862C14.6387 183.431 18.3876 182.178 21.5507 180.583C22.9565 179.786 24.5966 178.874 25.8853 177.849Z" fill="#616161"/>
<path d="M18.2584 175.568C17.3212 173.062 14.3924 171.695 11.6979 172.606C9.12056 173.517 7.71473 176.366 8.65195 178.986C9.58916 181.492 12.518 182.86 15.2125 181.948C17.9069 181.037 19.1956 178.189 18.2584 175.568Z" fill="#212121"/>
<path d="M152.24 142.529C149.545 143.44 147.085 144.922 145.797 147.2C144.977 148.681 144.742 150.618 145.328 152.327C146.734 156.2 151.537 157.34 155.286 157.681C159.621 158.023 163.955 157.681 168.29 156.884C171.336 156.314 174.382 155.175 176.256 152.783C178.716 149.707 178.248 145.149 174.616 143.213C170.047 140.706 164.307 140.592 159.269 141.162C157.277 141.276 154.7 141.618 152.24 142.529Z" fill="#616161"/>
<path d="M161.465 149.137C161.465 153.011 164.746 156.201 168.729 156.201C172.712 156.201 175.992 153.011 175.992 149.137C175.992 145.264 172.712 142.074 168.729 142.074C164.746 142.074 161.465 145.264 161.465 149.137Z" fill="#212121"/>
</g>
<defs>
<linearGradient id="paint0_linear_11842_144545" x1="103.77" y1="195.904" x2="103.59" y2="198.028" gradientUnits="userSpaceOnUse">
<stop offset="0.2207" stop-color="#757575"/>
<stop offset="1"/>
</linearGradient>
<linearGradient id="paint1_linear_11842_144545" x1="268.354" y1="31.8515" x2="259.251" y2="139.498" gradientUnits="userSpaceOnUse">
<stop offset="0.2207" stop-color="#757575"/>
<stop offset="1"/>
</linearGradient>
<linearGradient id="paint2_linear_11842_144545" x1="177.072" y1="41.2001" x2="-158.882" y2="368.671" gradientUnits="userSpaceOnUse">
<stop offset="0.2207" stop-color="#D1D1D1"/>
<stop offset="1"/>
</linearGradient>
<linearGradient id="paint3_linear_11842_144545" x1="142.974" y1="66.1154" x2="58.0611" y2="306.897" gradientUnits="userSpaceOnUse">
<stop offset="0.2207" stop-color="#757575"/>
<stop offset="1"/>
</linearGradient>
<linearGradient id="paint4_linear_11842_144545" x1="53.8218" y1="84.3338" x2="-19.9497" y2="293.52" gradientUnits="userSpaceOnUse">
<stop offset="0.2207" stop-color="#757575"/>
<stop offset="1"/>
</linearGradient>
<linearGradient id="paint5_linear_11842_144545" x1="420.135" y1="123.51" x2="257.565" y2="123.51" gradientUnits="userSpaceOnUse">
<stop stop-color="#4F4F4F"/>
<stop offset="1"/>
</linearGradient>
<linearGradient id="paint6_linear_11842_144545" x1="320.206" y1="87.2531" x2="439.391" y2="235.472" gradientUnits="userSpaceOnUse">
<stop offset="0.2207" stop-color="#757575"/>
<stop offset="1"/>
</linearGradient>
<linearGradient id="paint7_linear_11842_144545" x1="413.647" y1="139.659" x2="377.401" y2="188.023" gradientUnits="userSpaceOnUse">
<stop offset="0.2207" stop-color="#757575"/>
<stop offset="1"/>
</linearGradient>
</defs>
</svg>
