<svg width="8" height="64" fill="none" xmlns="http://www.w3.org/2000/svg"><g id="Mask group"><mask id="mask0_9961_3095" style="mask-type:alpha" maskUnits="userSpaceOnUse" x="0" y="0" width="8" height="64"><rect id="Rectangle 1261254356" width="8" height="64" fill="#D9D9D9"/></mask><g mask="url(#mask0_9961_3095)"><path id="Mask group (Traced)" fill-rule="evenodd" clip-rule="evenodd" d="M4.85645 -712.727L1.7129 -712.727L1.5358 -711.237C1.27753 -709.066 1.33867 -704.695 1.65049 -703.025C1.79892 -702.229 2.1974 -700.898 2.53558 -700.066C3.30196 -698.183 3.32199 -697.131 2.69982 -691.421C2.41498 -688.806 2.2402 -685.808 2.22544 -683.281C2.2052 -679.812 2.26782 -678.966 2.69834 -676.899L3.19465 -674.516L2.44513 -672.72C1.08714 -669.467 0.983619 -666.727 2.1196 -664.09C3.1276 -661.751 4.34918 -655.087 4.56086 -650.772C4.67703 -648.402 4.66079 -648.264 4.14825 -647.283C3.14257 -645.359 3.06835 -644.926 3.03968 -640.815L3.01227 -636.901L2.24715 -634.987C0.818533 -631.416 0.274368 -628.291 0.490052 -624.901C0.652817 -622.345 0.972231 -620.977 1.96569 -618.587C2.55138 -617.178 2.78541 -616.228 3.03525 -614.247C3.65342 -609.346 5.04556 -589.258 5.58804 -577.414C5.74659 -573.951 5.60069 -572.854 4.01437 -565.585C2.45798 -558.454 2.03821 -555.566 2.03441 -551.969C2.03167 -549.307 2.10399 -548.626 2.58554 -546.778C3.73754 -542.356 3.89651 -535.128 2.92224 -531.459C2.21383 -528.791 2.22459 -524.85 2.94627 -522.609C3.65869 -520.396 3.61061 -517.902 2.74471 -512.141C1.1546 -501.563 0.605581 -494.242 0.99921 -488.864C1.31567 -484.542 1.81936 -481.905 3.15289 -477.588C3.73142 -475.715 4.20496 -474.053 4.20496 -473.893C4.20496 -473.734 3.73543 -472.471 3.16174 -471.087C0.738195 -465.238 0.314416 -460.143 1.46642 -450.707C1.70572 -448.747 1.8455 -446.909 1.77698 -446.623C1.70846 -446.336 1.30154 -445.489 0.872917 -444.74L0.0936709 -443.379L0.0264143 -440.69C-0.0391553 -438.074 -0.0241855 -437.963 0.593982 -436.52C0.943336 -435.706 1.34666 -434.503 1.49045 -433.847C1.83369 -432.284 1.79574 -415.904 1.44154 -412.747C1.02282 -409.016 1.48307 -404.934 2.61673 -402.32C3.29457 -400.758 3.30722 -399.479 2.6998 -393.904C2.41496 -391.289 2.24018 -388.292 2.22542 -385.765C2.20518 -382.295 2.2678 -381.449 2.69832 -379.382L3.19463 -376.999L2.44511 -375.204C1.08712 -371.95 0.983601 -369.21 2.11958 -366.574C3.12758 -364.234 4.34916 -357.57 4.56084 -353.256C4.67701 -350.885 4.66077 -350.748 4.14823 -349.767C3.14255 -347.843 3.06834 -347.41 3.03966 -343.299L3.01225 -339.384L2.24713 -337.471C0.818515 -333.899 0.27435 -330.775 0.490034 -327.385C0.652799 -324.828 0.972213 -323.461 1.96567 -321.07C2.55137 -319.661 2.78539 -318.711 3.03523 -316.73C3.6534 -311.83 5.04554 -291.741 5.58802 -279.898C5.74657 -276.434 5.60067 -275.338 4.01435 -268.069C2.45796 -260.937 2.03819 -258.049 2.0344 -254.452C2.03165 -251.791 2.10397 -251.11 2.58552 -249.261C3.73752 -244.84 3.89649 -237.612 2.92222 -233.943C2.21382 -231.275 2.22457 -227.334 2.94626 -225.092C3.65867 -222.88 3.6106 -220.386 2.7447 -214.625C1.15458 -204.046 0.605563 -196.725 0.999192 -191.348C1.31566 -187.025 1.81934 -184.388 3.15287 -180.072C3.7314 -178.199 4.20494 -176.536 4.20494 -176.377C4.20494 -176.218 3.73541 -174.955 3.16173 -173.57C0.738177 -167.722 0.314398 -162.627 1.4664 -153.191C1.7057 -151.231 1.84548 -149.392 1.77696 -149.106C1.70844 -148.82 1.30153 -147.973 0.872899 -147.224L0.093653 -145.862L0.0263964 -143.174C-0.0391732 -140.557 -0.0242034 -140.446 0.593964 -139.004C1.81702 -136.15 1.99306 -133.554 1.64034 -123.566C1.21192 -111.439 1.28192 -110.128 2.53301 -106.847C3.29855 -104.839 3.31626 -103.902 2.69493 -98.2601C2.07255 -92.6099 2.0308 -86.2287 2.60238 -84.1635C3.17859 -82.0815 3.14717 -80.9071 2.47883 -79.568C2.17501 -78.9595 1.80394 -78.0021 1.65404 -77.4404C1.25661 -75.9528 1.31712 -73.0667 1.77126 -71.8237C3.0913 -68.2123 3.63821 -65.7968 4.30339 -60.6376C4.78515 -56.9026 4.73961 -55.2656 4.1206 -54.0748C3.15582 -52.2192 3.07507 -51.7381 3.04175 -47.6547L3.00992 -43.7401L2.24332 -41.8199C0.0133184 -36.2342 -0.155983 -30.5024 1.77231 -25.8687C2.62978 -23.8082 2.85875 -22.8839 3.14232 -20.337C3.72443 -15.1095 5.05016 4.40607 5.58779 15.6611C5.76426 19.3564 5.5859 20.576 3.48387 30.0485C1.88827 37.2392 1.59774 42.537 2.58655 46.4109C3.74573 50.9519 3.895 57.9956 2.91229 61.7864C2.18533 64.5901 2.22392 68.382 3.0059 71.0078C3.70503 73.3557 3.70841 74.1161 3.03922 78.8107C0.0986984 99.4428 0.121257 105.897 3.16782 115.656C3.73771 117.481 4.20429 119.113 4.2045 119.282C4.20471 119.451 3.76765 120.636 3.23339 121.914C0.756291 127.839 0.312272 133 1.46638 142.453C1.70568 144.414 1.84546 146.252 1.77694 146.538C1.70842 146.824 1.30151 147.671 0.872881 148.42L0.0936352 149.782L0.0261678 152.477C-0.0396125 155.105 -0.0252759 155.21 0.59985 156.679C0.952366 157.508 1.3559 158.708 1.49653 159.345C1.8345 160.879 1.78896 177.718 1.43939 180.504C1.01119 183.916 1.42864 187.773 2.54248 190.694C3.29748 192.674 3.31435 193.631 2.69491 199.256C2.07253 204.907 2.03078 211.288 2.60236 213.353C3.17857 215.435 3.14715 216.609 2.47881 217.948C2.17499 218.557 1.80392 219.514 1.65402 220.076C1.2566 221.564 1.31711 224.45 1.77124 225.693C3.09128 229.304 3.63819 231.72 4.30337 236.879C4.78513 240.614 4.73959 242.251 4.12058 243.442C3.1558 245.297 3.07505 245.778 3.04174 249.862L3.0099 253.776L2.2433 255.696C0.0133005 261.282 -0.156001 267.014 1.7723 271.648C2.62976 273.708 2.85873 274.633 3.1423 277.179C3.72442 282.407 5.05015 301.922 5.58778 313.178C5.76424 316.873 5.58588 318.093 3.48385 327.565C1.88825 334.756 1.59772 340.053 2.58654 343.927C3.74571 348.468 3.89498 355.512 2.91228 359.303C2.18532 362.107 2.2239 365.898 3.00589 368.524C3.70501 370.872 3.70839 371.633 3.0392 376.327C0.0986806 396.959 0.121239 403.414 3.1678 413.172C3.73769 414.998 4.20427 416.63 4.20448 416.799C4.20469 416.968 3.76763 418.152 3.23337 419.43C0.756273 425.355 0.312254 430.517 1.46636 439.97C1.70566 441.93 1.84545 443.768 1.77692 444.055C1.7084 444.341 1.30149 445.188 0.872863 445.937L0.0936173 447.298L0.02615 449.994C-0.0396304 452.622 -0.0252938 452.727 0.599832 454.196C1.8271 457.08 1.98164 459.426 1.63735 469.935C1.21505 482.828 1.28989 484.152 2.62785 487.46C3.29114 489.1 3.3021 490.393 2.69975 495.922C2.41491 498.537 2.24013 501.535 2.22537 504.061C2.20513 507.531 2.26774 508.377 2.69827 510.444L3.19457 512.827L2.42967 514.659C1.01159 518.057 0.975536 520.434 2.29178 523.72C3.38643 526.451 4.74295 534.883 4.57133 537.886C4.50428 539.06 4.33224 539.706 3.76573 540.91L3.0453 542.442L3.09506 545.953C3.13849 549.013 3.09084 549.625 2.72336 550.719C0.637354 556.93 0.260592 558.898 0.483234 562.425C0.637565 564.87 0.92683 566.099 1.95887 568.693C3.01494 571.347 3.1931 572.744 4.09083 585.419C4.7752 595.081 5.18886 601.714 5.48803 607.821C5.76739 613.524 5.73893 613.79 3.98309 621.876C1.70839 632.351 1.44316 636.415 2.72925 641.076C3.73177 644.709 3.8296 652.421 2.91732 655.883C2.1931 658.632 2.22768 662.449 3.00039 665.019C3.3158 666.068 3.57238 667.408 3.57238 668.005C3.57238 668.601 3.23842 671.46 2.83045 674.358C0.0666159 693.984 0.165708 700.343 3.3938 710.519C3.96263 712.311 4.18949 713.336 4.10136 713.717C4.0301 714.025 3.55488 715.288 3.04508 716.525C1.2747 720.821 0.695113 724.43 0.907424 729.837C0.980794 731.709 1.19057 734.351 1.37316 735.709C1.55574 737.066 1.72209 738.831 1.74275 739.631C1.77817 741.003 1.73326 741.165 0.93694 742.524L0.0935995 743.964L0.0267644 746.626C-0.0383836 749.212 -0.0217277 749.333 0.59644 750.797C1.70881 753.429 1.7417 753.795 1.77206 763.878C1.80305 774.181 1.77058 773.901 3.15302 775.834L3.79164 776.728L5.89578 776.728L7.99991 776.728L7.99996 32.0007L8 -712.727L4.85645 -712.727Z" fill="#EFE9E1"/></g></g></svg>