<svg width="8" height="64" fill="none" xmlns="http://www.w3.org/2000/svg"><g id="Mask group"><mask id="mask0_9961_3105" style="mask-type:alpha" maskUnits="userSpaceOnUse" x="0" y="0" width="8" height="64"><rect id="Rectangle 1261254356" width="8" height="64" fill="#D9D9D9"/></mask><g mask="url(#mask0_9961_3105)"><path id="Mask group (Traced)" fill-rule="evenodd" clip-rule="evenodd" d="M3.14355 -712.727L6.2871 -712.727L6.4642 -711.237C6.72247 -709.066 6.66133 -704.695 6.34951 -703.025C6.20108 -702.229 5.8026 -700.898 5.46442 -700.066C4.69804 -698.183 4.67801 -697.131 5.30018 -691.421C5.58502 -688.806 5.7598 -685.808 5.77456 -683.281C5.7948 -679.812 5.73218 -678.966 5.30166 -676.899L4.80535 -674.516L5.55487 -672.72C6.91286 -669.467 7.01638 -666.727 5.8804 -664.09C4.8724 -661.751 3.65082 -655.087 3.43914 -650.772C3.32297 -648.402 3.33921 -648.264 3.85175 -647.283C4.85743 -645.359 4.93165 -644.926 4.96032 -640.815L4.98773 -636.901L5.75285 -634.987C7.18147 -631.416 7.72563 -628.291 7.50995 -624.901C7.34718 -622.345 7.02777 -620.977 6.03431 -618.587C5.44862 -617.178 5.21459 -616.228 4.96475 -614.247C4.34658 -609.346 2.95444 -589.258 2.41196 -577.414C2.25341 -573.951 2.39931 -572.854 3.98563 -565.585C5.54202 -558.454 5.96179 -555.566 5.96559 -551.969C5.96833 -549.307 5.89601 -548.626 5.41446 -546.778C4.26246 -542.356 4.10349 -535.128 5.07776 -531.459C5.78617 -528.791 5.77541 -524.85 5.05373 -522.609C4.34131 -520.396 4.38939 -517.902 5.25529 -512.141C6.8454 -501.563 7.39442 -494.242 7.00079 -488.864C6.68433 -484.542 6.18064 -481.905 4.84711 -477.588C4.26858 -475.715 3.79504 -474.053 3.79504 -473.893C3.79504 -473.734 4.26457 -472.471 4.83826 -471.087C7.26181 -465.238 7.68558 -460.143 6.53358 -450.707C6.29428 -448.747 6.1545 -446.909 6.22302 -446.623C6.29154 -446.336 6.69846 -445.489 7.12708 -444.74L7.90633 -443.379L7.97359 -440.69C8.03916 -438.074 8.02419 -437.963 7.40602 -436.52C7.05666 -435.706 6.65334 -434.503 6.50955 -433.847C6.16631 -432.284 6.20426 -415.904 6.55846 -412.747C6.97718 -409.016 6.51693 -404.934 5.38327 -402.32C4.70543 -400.758 4.69278 -399.479 5.3002 -393.904C5.58504 -391.289 5.75982 -388.292 5.77458 -385.765C5.79482 -382.295 5.7322 -381.449 5.30168 -379.382L4.80537 -376.999L5.55489 -375.204C6.91288 -371.95 7.0164 -369.21 5.88042 -366.574C4.87242 -364.234 3.65084 -357.57 3.43916 -353.256C3.32299 -350.885 3.33923 -350.748 3.85177 -349.767C4.85745 -347.843 4.93166 -347.41 4.96034 -343.299L4.98775 -339.384L5.75287 -337.471C7.18148 -333.899 7.72565 -330.775 7.50997 -327.385C7.3472 -324.828 7.02779 -323.461 6.03433 -321.07C5.44863 -319.661 5.21461 -318.711 4.96477 -316.73C4.3466 -311.83 2.95446 -291.741 2.41198 -279.898C2.25343 -276.434 2.39933 -275.338 3.98565 -268.069C5.54204 -260.937 5.96181 -258.049 5.9656 -254.452C5.96835 -251.791 5.89603 -251.11 5.41448 -249.261C4.26248 -244.84 4.10351 -237.612 5.07778 -233.943C5.78618 -231.275 5.77543 -227.334 5.05374 -225.092C4.34133 -222.88 4.3894 -220.386 5.2553 -214.625C6.84542 -204.046 7.39444 -196.725 7.00081 -191.348C6.68434 -187.025 6.18066 -184.388 4.84713 -180.072C4.2686 -178.199 3.79506 -176.536 3.79506 -176.377C3.79506 -176.218 4.26459 -174.955 4.83827 -173.57C7.26182 -167.722 7.6856 -162.627 6.5336 -153.191C6.2943 -151.231 6.15452 -149.392 6.22304 -149.106C6.29156 -148.82 6.69847 -147.973 7.1271 -147.224L7.90635 -145.862L7.9736 -143.174C8.03917 -140.557 8.0242 -140.446 7.40604 -139.004C6.18298 -136.15 6.00694 -133.554 6.35966 -123.566C6.78808 -111.439 6.71808 -110.128 5.46699 -106.847C4.70145 -104.839 4.68374 -103.902 5.30507 -98.2601C5.92745 -92.6099 5.9692 -86.2287 5.39762 -84.1635C4.82141 -82.0815 4.85283 -80.9071 5.52117 -79.568C5.82499 -78.9595 6.19606 -78.0021 6.34596 -77.4404C6.74339 -75.9528 6.68288 -73.0667 6.22874 -71.8237C4.9087 -68.2123 4.36179 -65.7968 3.69661 -60.6376C3.21485 -56.9026 3.26039 -55.2656 3.8794 -54.0748C4.84418 -52.2192 4.92493 -51.7381 4.95825 -47.6547L4.99008 -43.7401L5.75668 -41.8199C7.98668 -36.2342 8.15598 -30.5024 6.22769 -25.8687C5.37022 -23.8082 5.14125 -22.8839 4.85768 -20.337C4.27557 -15.1095 2.94984 4.40607 2.41221 15.6611C2.23574 19.3564 2.4141 20.576 4.51613 30.0485C6.11173 37.2392 6.40226 42.537 5.41345 46.4109C4.25427 50.9519 4.105 57.9956 5.08771 61.7864C5.81467 64.5901 5.77608 68.382 4.9941 71.0078C4.29497 73.3557 4.29159 74.1161 4.96078 78.8107C7.9013 99.4428 7.87874 105.897 4.83218 115.656C4.26229 117.481 3.79571 119.113 3.7955 119.282C3.79529 119.451 4.23235 120.636 4.76661 121.914C7.24371 127.839 7.68773 133 6.53362 142.453C6.29432 144.414 6.15454 146.252 6.22306 146.538C6.29158 146.824 6.69849 147.671 7.12712 148.42L7.90636 149.782L7.97383 152.477C8.03961 155.105 8.02528 155.21 7.40015 156.679C7.04763 157.508 6.6441 158.708 6.50347 159.345C6.1655 160.879 6.21104 177.718 6.56061 180.504C6.98881 183.916 6.57136 187.773 5.45752 190.694C4.70252 192.674 4.68565 193.631 5.30509 199.256C5.92747 204.907 5.96922 211.288 5.39764 213.353C4.82143 215.435 4.85285 216.609 5.52119 217.948C5.82501 218.557 6.19608 219.514 6.34598 220.076C6.7434 221.564 6.68289 224.45 6.22876 225.693C4.90872 229.304 4.36181 231.72 3.69663 236.879C3.21487 240.614 3.26041 242.251 3.87942 243.442C4.8442 245.297 4.92495 245.778 4.95826 249.862L4.9901 253.776L5.7567 255.696C7.9867 261.282 8.156 267.014 6.2277 271.648C5.37024 273.708 5.14127 274.633 4.8577 277.179C4.27558 282.407 2.94985 301.922 2.41222 313.178C2.23576 316.873 2.41412 318.093 4.51615 327.565C6.11175 334.756 6.40228 340.053 5.41346 343.927C4.25429 348.468 4.10502 355.512 5.08772 359.303C5.81468 362.107 5.7761 365.898 4.99411 368.524C4.29499 370.872 4.29161 371.633 4.9608 376.327C7.90132 396.959 7.87876 403.414 4.8322 413.172C4.26231 414.998 3.79573 416.63 3.79552 416.799C3.79531 416.968 4.23237 418.152 4.76663 419.43C7.24373 425.355 7.68775 430.517 6.53364 439.97C6.29434 441.93 6.15455 443.768 6.22308 444.055C6.2916 444.341 6.69851 445.188 7.12714 445.937L7.90638 447.298L7.97385 449.994C8.03963 452.622 8.02529 452.727 7.40017 454.196C6.1729 457.08 6.01836 459.426 6.36265 469.935C6.78495 482.828 6.71011 484.152 5.37215 487.46C4.70886 489.1 4.6979 490.393 5.30025 495.922C5.58509 498.537 5.75987 501.535 5.77463 504.061C5.79487 507.531 5.73226 508.377 5.30173 510.444L4.80543 512.827L5.57033 514.659C6.98841 518.057 7.02446 520.434 5.70822 523.72C4.61357 526.451 3.25705 534.883 3.42867 537.886C3.49572 539.06 3.66776 539.706 4.23427 540.91L4.9547 542.442L4.90494 545.953C4.86151 549.013 4.90916 549.625 5.27664 550.719C7.36265 556.93 7.73941 558.898 7.51677 562.425C7.36244 564.87 7.07317 566.099 6.04113 568.693C4.98506 571.347 4.8069 572.744 3.90917 585.419C3.2248 595.081 2.81114 601.714 2.51197 607.821C2.23261 613.524 2.26107 613.79 4.01691 621.876C6.29161 632.351 6.55684 636.415 5.27075 641.076C4.26823 644.709 4.1704 652.421 5.08268 655.883C5.8069 658.632 5.77232 662.449 4.99961 665.019C4.6842 666.068 4.42762 667.408 4.42762 668.005C4.42762 668.601 4.76158 671.46 5.16955 674.358C7.93338 693.984 7.83429 700.343 4.6062 710.519C4.03737 712.311 3.81051 713.336 3.89864 713.717C3.9699 714.025 4.44512 715.288 4.95492 716.525C6.7253 720.821 7.30489 724.43 7.09258 729.837C7.01921 731.709 6.80943 734.351 6.62684 735.709C6.44426 737.066 6.27791 738.831 6.25725 739.631C6.22183 741.003 6.26674 741.165 7.06306 742.524L7.9064 743.964L7.97324 746.626C8.03838 749.212 8.02173 749.333 7.40356 750.797C6.29119 753.429 6.2583 753.795 6.22794 763.878C6.19695 774.181 6.22942 773.901 4.84698 775.834L4.20836 776.728L2.10422 776.728L8.95209e-05 776.728L4.47605e-05 32.0007L0 -712.727L3.14355 -712.727Z" fill="#EFE9E1"/></g></g></svg>