<svg width="398" height="10" viewBox="0 0 398 10" fill="none" xmlns="http://www.w3.org/2000/svg">
<path d="M398 0L7.62939e-06 -1.73971e-05L7.28938e-06 7.77864L0.926747 7.98388C2.99278 8.44124 4.90699 8.59879 7.05713 8.4886C9.61508 8.35758 10.6615 8.21045 14.4146 7.45361C17.544 6.82275 18.6386 6.81445 19.2748 7.41683C19.4919 7.62256 20.0172 8.12923 20.442 8.54232C21.871 9.93294 22.0635 10 24.623 10C27.0929 10 27.2875 9.93864 28.8571 8.66585C29.5476 8.10612 30.6653 7.57715 31.8319 7.25813C33.1288 6.90332 48.052 7.01334 49.6498 7.38948C53.1205 8.20638 57.3725 7.70817 59.7446 6.20686C60.2211 5.90527 60.9489 5.44401 61.3616 5.1818C62.0597 4.73844 62.2252 4.70605 63.714 4.72151C64.5948 4.73063 66.059 4.86653 66.9673 5.02359C77.9403 6.92025 79.9489 6.95312 83.8842 5.30078C84.4794 5.0511 85.1726 4.89892 85.7362 4.89436C86.5657 4.88769 86.6972 4.93831 87.3968 5.53287C88.384 6.37174 89.8406 7.20264 90.8156 7.48275C90.9681 7.52653 91.1481 7.56103 91.3519 7.5861C91.8168 7.64323 92.4046 7.65088 93.0678 7.60628C94.6538 7.5 95.2787 7.26172 96.7462 6.20345C99.1721 4.45393 106.572 2.37499 110.461 2.35009L112.363 2.33804L113.364 3.19026C113.915 3.65901 114.726 4.21272 115.166 4.42089C116.179 4.8999 117.983 5.04671 119.923 4.80794C122.176 4.53108 122.855 4.7137 125.476 6.30045C126.687 7.03385 128.205 7.84294 128.849 8.0988C133.676 10.016 137.956 9.51872 141.893 6.5835C144.024 4.99446 145.937 4.60205 159.06 3.06266C172.757 1.45605 180.245 0.759595 184.085 0.734855L187.138 0.715487L189.34 1.40299C190.552 1.78124 192.922 2.61035 194.607 3.24593C204.589 7.00847 209.3 7.53353 213.901 5.39632C216.136 4.35807 219.044 3.95931 223.274 4.11084C226.374 4.22184 226.985 4.33626 229.08 5.19743C230.815 5.91048 231.947 6.09326 233.918 5.97884C235.749 5.8724 235.986 5.8016 238.471 4.6154C240.379 3.70475 241.347 3.79525 248.65 5.56787C265.974 9.77345 273.704 9.49252 283.112 4.31592C285.175 3.18066 285.868 2.94189 286.492 3.15169C286.739 3.23454 287.683 3.84278 288.591 4.50358C291.223 6.41879 293.575 7.5127 296.398 8.13445C297.502 8.37761 298.568 8.45232 300.852 8.44646C303.96 8.43849 305.932 8.20183 309.211 7.44272C310.162 7.22234 311.481 7.05291 312.321 7.04281L313.78 7.0254L314.373 7.68002C315.183 8.57309 315.958 9.26141 316.607 9.66326C317.075 9.9533 317.464 10 319.419 10C321.906 10 321.941 9.98878 323.776 8.60483C324.567 8.0075 325.504 7.57049 326.678 7.25131C327.254 7.09506 329.846 7.03175 335.888 7.0267C343.586 7.02019 344.436 7.04933 345.948 7.36915C347.114 7.61573 348.261 7.71876 349.852 7.71925C353.141 7.72055 355.191 7.14877 357.297 5.64307C359.084 4.36573 359.327 4.36199 366.368 5.5031C374.624 6.84132 376.753 6.82146 380.366 5.3724C381.085 5.08367 381.86 4.89877 382.384 4.89063C383.19 4.87794 383.293 4.92302 384.317 5.73878C384.912 6.21274 385.835 6.813 386.369 7.0726C387.246 7.4992 387.518 7.54575 389.191 7.55551C391.263 7.5674 391.687 7.43133 393.395 6.20737C394.274 5.57765 396.399 4.60206 397.524 4.31234L398 4.18995L398 0Z" fill="#FAF8F5"/>
</svg>
