<svg width="432" height="6" viewBox="0 0 432 6" fill="none" xmlns="http://www.w3.org/2000/svg">
<path d="M432 0H0V4.63379L1.00586 4.75879C3.24829 5.03906 5.32617 5.13477 7.65991 5.06738C10.4363 4.9873 11.572 4.89746 15.646 4.43457C19.0425 4.04883 20.2307 4.04395 20.9214 4.41211C21.1572 4.53809 21.7273 4.84766 22.1882 5.10059C23.7393 5.95117 23.9482 5.99219 26.7263 5.99219C29.4075 5.99219 29.6187 5.95508 31.3223 5.17578C32.0715 4.83398 33.2849 4.51074 34.5513 4.31543C35.959 4.09863 52.1567 4.16602 53.8914 4.39551C57.6584 4.89551 62.2737 4.59082 64.8484 3.67188C65.3657 3.48828 66.1555 3.20605 66.6035 3.04492C67.3611 2.77441 67.541 2.75391 69.157 2.76367C70.113 2.76953 71.7021 2.85254 72.6882 2.94824C84.5984 4.1084 86.7786 4.12891 91.0503 3.11816C91.3528 3.04688 91.6785 2.98828 92.0024 2.94629C92.3701 2.89844 92.7351 2.87109 93.0603 2.86914C93.9609 2.86523 94.1035 2.89648 94.8628 3.25977C95.9343 3.77344 97.5156 4.28125 98.5737 4.45215C98.845 4.49609 99.1965 4.52441 99.6096 4.53711C100.024 4.55078 100.5 4.54785 101.018 4.52832C102.74 4.46289 103.418 4.31738 105.011 3.66992C107.644 2.60059 115.676 1.3291 119.897 1.31348L121.962 1.30566L123.049 1.82715C123.646 2.11426 124.526 2.45312 125.004 2.58008C126.104 2.87305 128.062 2.96289 130.168 2.81641C132.613 2.64746 133.35 2.75879 136.195 3.72949C137.51 4.17773 139.157 4.67285 139.856 4.8291C145.095 6.00195 149.741 5.69824 154.014 3.90234C156.327 2.93066 158.405 2.69043 172.648 1.74902C187.515 0.766602 195.643 0.34082 199.811 0.326172L203.125 0.313477L205.515 0.734375C206.83 0.96582 209.402 1.47266 211.232 1.86133C222.067 4.16211 227.18 4.4834 232.174 3.17676C234.6 2.54199 237.757 2.29785 242.348 2.39062C245.713 2.45801 246.375 2.52832 248.65 3.05469C250.533 3.49121 251.762 3.60254 253.9 3.5332C255.889 3.46777 256.146 3.4248 258.844 2.69922C260.914 2.1416 261.965 2.19727 269.891 3.28125C288.695 5.85352 297.085 5.68164 307.297 2.51562C309.537 1.82129 310.29 1.67578 310.967 1.80371C311.234 1.85449 312.259 2.22656 313.244 2.63086C316.102 3.80176 318.655 4.4707 321.718 4.85156C322.917 5 324.074 5.0459 326.553 5.04199C329.927 5.03711 332.066 4.89258 335.626 4.42773C336.658 4.29297 338.09 4.18945 339.002 4.18359L340.585 4.17285L341.229 4.57324C342.108 5.11914 342.949 5.54004 343.653 5.78613C344.162 5.96387 344.584 5.99219 346.706 5.99219C349.405 5.99219 349.443 5.98535 351.435 5.13867C352.294 4.77344 353.311 4.50586 354.585 4.31152C355.21 4.21582 358.024 4.17676 364.582 4.17383C372.938 4.16992 373.86 4.1875 375.501 4.38281C376.386 4.48828 377.261 4.55078 378.297 4.5791C378.743 4.5918 379.219 4.59766 379.739 4.59766C383.309 4.59766 385.534 4.24805 387.82 3.32715C389.76 2.5459 390.024 2.54395 397.666 3.24219C406.627 4.06055 408.938 4.04785 412.859 3.16211C413.64 2.98535 414.481 2.87207 415.05 2.86719C415.925 2.85938 416.036 2.88672 417.148 3.38574C417.793 3.67578 418.796 4.04297 419.375 4.20215C420.327 4.46289 420.623 4.49121 422.439 4.49707C424.688 4.50488 425.148 4.4209 427.002 3.67285C427.956 3.28711 430.263 2.69043 431.484 2.51367L432 2.43848V0Z" fill="#FAF8F5"/>
</svg>
