<svg width="15" height="640" viewBox="0 0 15 640" fill="none" xmlns="http://www.w3.org/2000/svg">
<path d="M0 0V640H11.668L11.9758 638.51C12.6619 635.188 12.8982 632.109 12.7329 628.652C12.5364 624.539 12.3157 622.856 11.1804 616.821C10.2341 611.789 10.2217 610.028 11.1252 609.005C11.4338 608.656 12.1938 607.812 12.8135 607.128C14.8994 604.831 15 604.521 15 600.405C15 596.434 14.908 596.121 12.9988 593.597C12.1592 592.486 11.3657 590.689 10.8872 588.813C10.355 586.728 10.52 562.73 11.0842 560.161C12.3096 554.58 11.5623 547.743 9.3103 543.928C8.85791 543.162 8.16602 541.992 7.77271 541.328C7.10767 540.206 7.05908 539.939 7.08228 537.545C7.09595 536.129 7.2998 533.774 7.5354 532.314C10.3804 514.669 10.4297 511.439 7.95117 505.111C7.57666 504.154 7.34839 503.039 7.34155 502.133C7.33154 500.799 7.40747 500.587 8.29932 499.462C9.55762 497.875 10.804 495.533 11.2241 493.965C11.2898 493.72 11.3416 493.43 11.3792 493.103C11.4648 492.355 11.4763 491.41 11.4094 490.343C11.25 487.793 10.8926 486.788 9.30518 484.428C6.68091 480.527 3.5625 468.628 3.52515 462.374L3.50708 459.316L4.7854 457.706C5.48853 456.821 6.31909 455.517 6.63135 454.809C7.34985 453.179 7.57007 450.279 7.21191 447.159C6.79663 443.536 7.07056 442.444 9.45068 438.229C10.5508 436.282 11.7644 433.841 12.1482 432.806C15.0239 425.044 14.2781 418.161 9.87524 411.831C7.4917 408.404 6.90308 405.327 4.59399 384.225C2.18408 362.2 1.1394 350.158 1.10229 343.984L1.07324 339.074L2.10449 335.533C2.67188 333.585 3.91553 329.774 4.8689 327.064C10.5127 311.012 11.3003 303.437 8.09448 296.039C6.53711 292.445 5.93896 287.768 6.16626 280.966C6.33276 275.981 6.50439 275 7.79614 271.63C8.86572 268.84 9.13989 267.02 8.96826 263.851C8.80859 260.906 8.70239 260.525 6.9231 256.528C5.55713 253.46 5.69287 251.904 8.35181 240.161C14.6602 212.303 14.2388 199.874 6.47388 184.745C4.771 181.427 4.41284 180.312 4.72754 179.309C4.85181 178.913 5.76416 177.395 6.75537 175.934C9.62817 171.701 11.269 167.919 12.2017 163.38C12.5664 161.605 12.6785 159.891 12.6697 156.217C12.6577 151.22 12.3027 148.05 11.1641 142.777C10.8335 141.247 10.5793 139.126 10.5642 137.775L10.5381 135.43L11.52 134.475C12.8596 133.173 13.8921 131.927 14.4949 130.884C14.9299 130.131 15 129.505 15 126.361C15 122.362 14.9832 122.306 12.9072 119.356C12.0112 118.083 11.3557 116.576 10.877 114.688C10.6426 113.763 10.5476 109.594 10.54 99.8794C10.5303 87.5 10.574 86.1338 11.0537 83.7021C11.4236 81.8267 11.5781 79.9819 11.5789 77.4243C11.5808 72.1353 10.7231 68.8389 8.4646 65.4517C6.54858 62.5781 6.54297 62.187 8.25464 50.8652C10.262 37.5894 10.2322 34.1665 8.05859 28.3569C7.62549 27.1997 7.34814 25.9536 7.33594 25.1108C7.31689 23.8149 7.38452 23.6499 8.60815 22.0034C9.31909 21.0464 10.2195 19.5615 10.6089 18.7036C11.2488 17.2935 11.3186 16.8555 11.3333 14.165C11.3511 10.833 11.147 10.1509 9.31104 7.4043C8.36646 5.99121 6.90308 2.57373 6.46851 0.764648L6.28491 0H0Z" fill="#FAF8F5"/>
</svg>
