<svg width="16" height="16" viewBox="0 0 16 16" fill="none" xmlns="http://www.w3.org/2000/svg">
<path d="M8.0026 1.33594C4.32927 1.33594 1.33594 4.32927 1.33594 8.0026C1.33594 11.6759 4.32927 14.6693 8.0026 14.6693C11.6759 14.6693 14.6693 11.6759 14.6693 8.0026C14.6693 4.32927 11.6759 1.33594 8.0026 1.33594ZM10.9026 10.3826C10.8093 10.5426 10.6426 10.6293 10.4693 10.6293C10.3826 10.6293 10.2959 10.6093 10.2159 10.5559L8.14927 9.3226C7.63594 9.01594 7.25594 8.3426 7.25594 7.74927V5.01594C7.25594 4.7426 7.4826 4.51594 7.75594 4.51594C8.02927 4.51594 8.25594 4.7426 8.25594 5.01594V7.74927C8.25594 7.98927 8.45594 8.3426 8.6626 8.4626L10.7293 9.69594C10.9693 9.83594 11.0493 10.1426 10.9026 10.3826Z" fill="#FAF8F5"/>
</svg>
