<svg width="80" height="80" viewBox="0 0 80 80" fill="none" xmlns="http://www.w3.org/2000/svg">
<path d="M72.0594 30.2182L65.8579 27.0053C64.7106 26.427 63.2842 26.8768 62.7261 28.0656C62.1369 29.2864 62.6021 30.7322 63.7493 31.3105L68.6796 33.8487V49.2383L57.0517 49.2704V16.3065C57.0517 9.88082 52.8966 6.66797 47.7493 6.66797H22.9431C17.7958 6.66797 13.6408 9.88082 13.6408 16.3065V68.5154H8.98964C7.71833 68.5154 6.66406 69.6077 6.66406 70.925C6.66406 72.2423 7.71833 73.3346 8.98964 73.3346H61.7028C62.9741 73.3346 64.0284 72.2423 64.0284 70.925C64.0284 69.6077 62.9741 68.5154 61.7028 68.5154H57.0517V54.0897L71.0052 54.0575C72.3075 54.0575 73.3307 52.9652 73.3307 51.6479V32.3708C73.3307 31.4712 72.8346 30.6358 72.0594 30.2182ZM21.3927 22.3788C21.3927 17.9129 24.0284 16.3065 27.2532 16.3065H43.4703C46.6641 16.3065 49.2997 17.9129 49.2997 22.3788V26.3306C49.2997 30.7644 46.6641 32.3708 43.4393 32.3708H27.2532C24.0284 32.3708 21.3927 30.7644 21.3927 26.2985V22.3788ZM22.9431 39.5997H32.2455C33.5168 39.5997 34.571 40.6921 34.571 42.0093C34.571 43.3266 33.5168 44.419 32.2455 44.419H22.9431C21.6718 44.419 20.6176 43.3266 20.6176 42.0093C20.6176 40.6921 21.6718 39.5997 22.9431 39.5997Z" fill="#CC911C"/>
</svg>
