<svg width="125" height="40" viewBox="0 0 125 40" fill="none" xmlns="http://www.w3.org/2000/svg">
<g clip-path="url(#clip0_10307_71354)">
<path d="M125 0H0V40H125V0Z" fill="#211C17"/>
<path d="M97.6359 28.3126H99.3107V17.4622H97.6359V28.3126ZM112.721 21.3708L110.802 26.0749H110.744L108.751 21.3708H106.948L109.935 27.9457L108.232 31.603H109.98L114.584 21.3708H112.721ZM103.224 27.0802C102.674 27.0802 101.91 26.8151 101.91 26.1587C101.91 25.3212 102.863 25.0002 103.685 25.0002C104.422 25.0002 104.767 25.1537 105.215 25.3633C105.085 26.3682 104.19 27.0802 103.224 27.0802ZM103.425 21.1333C102.213 21.1333 100.957 21.65 100.437 22.7947L101.924 23.3948C102.242 22.7947 102.833 22.5991 103.454 22.5991C104.32 22.5991 105.201 23.1019 105.215 23.9952V24.1068C104.912 23.9393 104.262 23.6881 103.468 23.6881C101.867 23.6881 100.235 24.5394 100.235 26.1308C100.235 27.5827 101.549 28.518 103.021 28.518C104.147 28.518 104.767 28.0295 105.157 27.4572H105.215V28.2946H106.832V24.1345C106.832 22.2085 105.345 21.1333 103.425 21.1333ZM93.0749 22.6916H90.6924V18.9723H93.0749C94.3271 18.9723 95.0377 19.9748 95.0377 20.8319C95.0377 21.6728 94.3271 22.6916 93.0749 22.6916ZM93.0317 17.4622H89.0183V28.3126H90.6924V24.2017H93.0317C94.8881 24.2017 96.7125 22.9022 96.7125 20.8319C96.7125 18.7617 94.8881 17.4622 93.0317 17.4622ZM71.1482 27.0822C69.9911 27.0822 69.0225 26.1454 69.0225 24.8588C69.0225 23.5585 69.9911 22.6076 71.1482 22.6076C72.2906 22.6076 73.1871 23.5585 73.1871 24.8588C73.1871 26.1454 72.2906 27.0822 71.1482 27.0822ZM73.0714 21.9783H73.0134C72.6377 21.5449 71.9143 21.1534 71.0034 21.1534C69.0947 21.1534 67.3452 22.7754 67.3452 24.8588C67.3452 26.9283 69.0947 28.5364 71.0034 28.5364C71.9143 28.5364 72.6377 28.1448 73.0134 27.6976H73.0714V28.2288C73.0714 29.6413 72.2906 30.3964 71.0325 30.3964C70.0059 30.3964 69.3696 29.683 69.1091 29.0819L67.6488 29.6691C68.0682 30.6479 69.1817 31.8505 71.0325 31.8505C72.999 31.8505 74.6619 30.7316 74.6619 28.0051V21.3771H73.0714V21.9783ZM75.8189 28.3126H77.496V17.4618H75.8189V28.3126ZM79.9685 24.733C79.9253 23.3066 81.1113 22.5797 81.964 22.5797C82.6299 22.5797 83.1932 22.9011 83.3807 23.3629L79.9685 24.733ZM85.1746 23.5026C84.8568 22.6773 83.8874 21.1534 81.906 21.1534C79.9394 21.1534 78.3055 22.6496 78.3055 24.8449C78.3055 26.9144 79.9253 28.5364 82.0942 28.5364C83.8442 28.5364 84.8568 27.5016 85.2757 26.9005L83.9744 26.0613C83.5406 26.6767 82.9476 27.0822 82.0942 27.0822C81.2415 27.0822 80.6336 26.7045 80.243 25.9636L85.3479 23.922L85.1746 23.5026ZM44.5076 22.2861V23.8521H48.3828C48.2671 24.733 47.9635 25.3762 47.5007 25.8236C46.937 26.3692 46.0548 26.9703 44.5076 26.9703C42.1217 26.9703 40.2564 25.1106 40.2564 22.8034C40.2564 20.4962 42.1217 18.6363 44.5076 18.6363C45.7946 18.6363 46.7343 19.1259 47.4284 19.7551L48.5708 18.6505C47.602 17.7554 46.315 17.0703 44.5076 17.0703C41.2395 17.0703 38.4922 19.6433 38.4922 22.8034C38.4922 25.9636 41.2395 28.5364 44.5076 28.5364C46.2719 28.5364 47.6021 27.9773 48.643 26.9283C49.7131 25.8935 50.0458 24.4393 50.0458 23.2649C50.0458 22.9011 50.017 22.5658 49.9589 22.2861H44.5076ZM54.4516 27.0822C53.2946 27.0822 52.2967 26.1593 52.2967 24.8449C52.2967 23.5165 53.2946 22.6076 54.4516 22.6076C55.6082 22.6076 56.606 23.5165 56.606 24.8449C56.606 26.1593 55.6082 27.0822 54.4516 27.0822ZM54.4516 21.1534C52.3402 21.1534 50.6193 22.7054 50.6193 24.8449C50.6193 26.9703 52.3402 28.5364 54.4516 28.5364C56.5626 28.5364 58.2833 26.9703 58.2833 24.8449C58.2833 22.7054 56.5626 21.1534 54.4516 21.1534ZM62.8107 27.0822C61.6541 27.0822 60.6562 26.1593 60.6562 24.8449C60.6562 23.5165 61.6541 22.6076 62.8107 22.6076C63.9674 22.6076 64.9652 23.5165 64.9652 24.8449C64.9652 26.1593 63.9674 27.0822 62.8107 27.0822ZM62.8107 21.1534C60.6994 21.1534 58.9789 22.7054 58.9789 24.8449C58.9789 26.9703 60.6994 28.5364 62.8107 28.5364C64.9218 28.5364 66.6426 26.9703 66.6426 24.8449C66.6426 22.7054 64.9218 21.1534 62.8107 21.1534Z" fill="#FAF8F5"/>
<path d="M40.6918 10.9266C40.7023 11.7505 40.5316 12.415 40.181 12.9195H42.9034V8.99134H40.6918V10.9266ZM39.4507 14.6645H38.7891V12.9195H39.3157C39.7819 12.5309 40.0098 11.8671 40.0004 10.9266V8.35156H43.5958V12.9195H44.1972V14.6645H43.5353V13.5593H39.4507V14.6645Z" fill="#FAF8F5"/>
<path d="M40.6956 10.9275L40.6059 10.9285L40.6066 10.9987C40.6063 11.7781 40.4379 12.4007 40.11 12.8718L40.0161 13.0072H42.9969V8.9054H40.6059V10.9285L40.6956 10.9275H40.7854V9.07903H42.8175V12.8336H40.1847V12.9204L40.2591 12.9686C40.6121 12.4607 40.7861 11.8015 40.7861 10.9987L40.7854 10.9264L40.6956 10.9275ZM39.4545 14.6654V14.5786H38.8827V13.0072H39.3195H39.3528L39.378 12.9861C39.8632 12.5813 40.0943 11.907 40.0943 10.9844L40.094 10.9268V8.43925H43.5099V13.0072H44.1113V14.5786H43.6289V13.5601V13.4733H39.3647V14.6654H39.4545H39.5443V13.647H43.4493V14.6654V14.7522H44.201H44.2908V12.8336H43.6894V8.26562H39.9145V10.9278L39.9148 10.9844C39.9145 11.8826 39.6894 12.4987 39.2609 12.8542L39.3195 12.9204V12.8336H38.7929H38.7031V14.7522H39.4545H39.5443V14.6654H39.4545Z" fill="#FAF8F5"/>
<path d="M46.1558 12.4497C46.5548 12.8399 47.0421 13.0349 47.6189 13.0349C48.1955 13.0349 48.6836 12.8399 49.0815 12.4497C49.4806 12.0595 49.6804 11.5607 49.6804 10.9549C49.6804 10.349 49.4806 9.85023 49.0815 9.46C48.6836 9.06978 48.1955 8.87482 47.6189 8.87482C47.0421 8.87482 46.5548 9.06978 46.1558 9.46C45.7578 9.85023 45.558 10.349 45.558 10.9549C45.558 11.5607 45.7578 12.0595 46.1558 12.4497ZM49.5935 12.8857C49.0641 13.4122 48.406 13.675 47.6189 13.675C46.8317 13.675 46.1733 13.4122 45.6449 12.8857C45.1155 12.3598 44.8516 11.7161 44.8516 10.9549C44.8516 10.1936 45.1155 9.54978 45.6449 9.024C46.1733 8.49741 46.8317 8.23438 47.6189 8.23438C48.4013 8.23438 49.0581 8.49882 49.5899 9.02741C50.1211 9.55601 50.3868 10.1984 50.3868 10.9549C50.3868 11.7161 50.1222 12.3598 49.5935 12.8857Z" fill="#FAF8F5"/>
<path d="M46.1596 12.4506L46.0958 12.5116C46.5091 12.9175 47.0249 13.1236 47.6227 13.1226C48.2201 13.1236 48.7369 12.9175 49.1492 12.5116C49.5654 12.1054 49.7747 11.5798 49.774 10.9557C49.7747 10.3316 49.5654 9.80607 49.1492 9.39985C48.7369 8.994 48.2201 8.78785 47.6227 8.78888C47.0249 8.78785 46.5091 8.994 46.0958 9.39985C45.6807 9.80607 45.4714 10.3316 45.472 10.9557C45.4714 11.5798 45.6807 12.1054 46.0958 12.5116L46.1596 12.4506L46.2237 12.3896C45.8429 12.0149 45.6525 11.5436 45.6516 10.9557C45.6525 10.3678 45.8429 9.89659 46.2237 9.52185C46.608 9.14726 47.0666 8.96355 47.6227 8.96251C48.1784 8.96355 48.6384 9.14726 49.0215 9.52185C49.4033 9.89659 49.5935 10.3678 49.5944 10.9557C49.5935 11.5436 49.4033 12.0149 49.0215 12.3896C48.6384 12.7642 48.1784 12.9479 47.6227 12.949C47.0666 12.9479 46.608 12.7642 46.2237 12.3896L46.1596 12.4506ZM49.5973 12.8866L49.5332 12.8262C49.0187 13.3361 48.3891 13.5881 47.6227 13.5891C46.8559 13.5881 46.2266 13.3361 45.7129 12.8262C45.1996 12.3146 44.9461 11.6976 44.9451 10.9557C44.9461 10.2139 45.1996 9.59688 45.7129 9.08518C46.2266 8.57525 46.8559 8.32303 47.6227 8.322C48.3845 8.32303 49.0125 8.57637 49.5296 9.08896C50.045 9.60296 50.2999 10.219 50.3009 10.9557C50.2999 11.6976 50.0458 12.3146 49.5332 12.8262L49.5973 12.8866L49.6618 12.9469C50.206 12.4065 50.4812 11.7362 50.4804 10.9557C50.4812 10.1797 50.2052 9.51074 49.6583 8.96792C49.1113 8.42303 48.4263 8.14748 47.6227 8.14844C46.8149 8.14748 46.1276 8.42177 45.5842 8.96459C45.039 9.50533 44.7649 10.1753 44.7656 10.9557C44.7649 11.7362 45.039 12.4065 45.5842 12.9473C46.1276 13.4901 46.8149 13.7634 47.6227 13.7627C48.4301 13.7634 49.1173 13.4897 49.6618 12.9469L49.5973 12.8866Z" fill="#FAF8F5"/>
<path d="M53.876 13.675C53.0836 13.675 52.4192 13.4157 51.8827 12.8965C51.3453 12.3779 51.0781 11.7305 51.0781 10.9549C51.0781 10.1791 51.3453 9.53186 51.8827 9.01319C52.4192 8.49408 53.0836 8.23438 53.876 8.23438C54.6876 8.23438 55.3475 8.51815 55.8541 9.08541L55.372 9.5366C55.0067 9.09519 54.5071 8.87482 53.876 8.87482C53.2887 8.87482 52.7932 9.06637 52.39 9.44949C51.9862 9.8326 51.7845 10.3344 51.7845 10.9549C51.7845 11.5753 51.9862 12.0775 52.39 12.4602C52.7932 12.8433 53.2887 13.0349 53.876 13.0349C54.5228 13.0349 55.074 12.783 55.5308 12.2788L56.0119 12.744C55.7658 13.0302 55.4579 13.2569 55.0862 13.4238C54.7156 13.5913 54.3115 13.675 53.876 13.675Z" fill="#FAF8F5"/>
<path d="M53.872 13.6759V13.5891C53.0996 13.5881 52.4632 13.3389 51.9422 12.8361C51.4216 12.3326 51.1646 11.7121 51.1638 10.9557C51.1646 10.1993 51.4216 9.57888 51.9422 9.0754C52.4632 8.57222 53.0996 8.32303 53.872 8.322C54.6623 8.3234 55.2906 8.59392 55.7821 9.14281L55.8501 9.08622L55.7877 9.02385L55.3057 9.47548L55.368 9.53748L55.4381 9.48325C55.0574 9.02148 54.5241 8.78763 53.872 8.78888C53.2643 8.78822 52.7416 8.99 52.3233 9.38829C51.9008 9.78807 51.6897 10.3176 51.6908 10.9557C51.6897 11.5938 51.9008 12.1241 52.3233 12.5232C52.7416 12.9215 53.2643 13.1233 53.872 13.1226C54.5434 13.1236 55.1251 12.857 55.5941 12.337L55.5268 12.2797L55.4633 12.341L55.9444 12.8062L56.0079 12.7448L55.9388 12.6896C55.7011 12.9656 55.4052 13.1839 55.0443 13.346C54.6857 13.508 54.2959 13.5887 53.872 13.5891V13.6759V13.7627C54.3193 13.7627 54.7373 13.6766 55.1201 13.5033C55.503 13.3318 55.8221 13.0968 56.0769 12.8004L56.1292 12.7398L55.5903 12.2184L55.5223 12.1525L55.4592 12.2224C55.0153 12.711 54.4943 12.9479 53.872 12.949C53.3047 12.9479 52.8374 12.7669 52.4492 12.399C52.0635 12.0329 51.8711 11.5585 51.8703 10.9557C51.8711 10.353 52.0632 9.87933 52.4489 9.51244C52.8371 9.14459 53.3047 8.96355 53.872 8.96251C54.4817 8.96385 54.9476 9.17074 55.2979 9.59177L55.3596 9.66637L55.9125 9.14866L55.9735 9.09163L55.9182 9.02962C55.3967 8.44377 54.705 8.14748 53.872 8.14844C53.0592 8.1477 52.3667 8.418 51.8153 8.95266C51.2609 9.48629 50.9833 10.161 50.9844 10.9557C50.9833 11.7504 51.2609 12.4252 51.8153 12.9591C52.3667 13.4935 53.0592 13.7634 53.872 13.7627V13.6759Z" fill="#FAF8F5"/>
<path d="M58.8059 13.5593H58.1135V8.99134H56.6094V8.35156H60.31V8.99134H58.8059V13.5593Z" fill="#FAF8F5"/>
<path d="M58.8097 13.5601V13.4734H58.2071V8.9054H56.703V8.43925H60.2241V8.9054H58.7199V13.5601H58.8097H58.8995V9.07903H60.4036V8.35244V8.26562H56.5234V8.99222V9.07903H58.0276V13.647H58.8097H58.8995V13.5601H58.8097Z" fill="#FAF8F5"/>
<path d="M65.06 8.35156L63.0222 12.7445C62.7407 13.3653 62.3231 13.6756 61.7664 13.6756C61.6009 13.6756 61.4227 13.6369 61.2317 13.5593L61.4122 12.9408C61.5279 13.0042 61.6482 13.0354 61.7734 13.0354C61.9339 13.0354 62.0583 13.0052 62.1461 12.9449C62.2337 12.8842 62.315 12.7733 62.3905 12.6136L62.586 12.1986L60.7734 8.35156H61.5858L62.917 11.3408H62.9469L64.2472 8.35156H65.06Z" fill="#FAF8F5"/>
<path d="M65.0667 8.35244L64.9847 8.31688L62.947 12.7101L62.9466 12.7109C62.6696 13.3126 62.2914 13.5867 61.7732 13.5897C61.622 13.5897 61.4558 13.5544 61.2731 13.4801L61.2385 13.5601L61.325 13.5838L61.5053 12.9655L61.419 12.9418L61.3752 13.0173C61.5028 13.0872 61.6392 13.1235 61.7802 13.1232C61.9516 13.1232 62.0953 13.0916 62.2051 13.0163C62.3131 12.9407 62.3997 12.8176 62.4789 12.6508L62.6746 12.2358L62.6914 12.1996L60.9198 8.43925H61.5337L62.8646 11.4286H62.9536H63.0132L64.3136 8.43925H65.0667V8.35244V8.26562H64.254H64.1944L62.8705 11.3083L62.9536 11.3418V11.255H62.9239V11.3418L63.0062 11.3076L61.6519 8.26562H60.7802H60.6406L62.494 12.1996L62.3155 12.5786C62.2444 12.7308 62.1679 12.8292 62.1006 12.8749C62.0351 12.9207 61.9295 12.9499 61.7802 12.9496C61.6704 12.9496 61.567 12.9227 61.4632 12.8661L61.3636 12.8119L61.1522 13.5364L61.1304 13.6104L61.2038 13.6402C61.4032 13.7212 61.5929 13.7633 61.7732 13.7633C62.3681 13.7659 62.8253 13.4195 63.1111 12.7804L63.1107 12.781L65.2053 8.26562H65.0667V8.35244Z" fill="#FAF8F5"/>
<path d="M65.8438 13.5593V8.35156H69.74V13.5593H69.0476V8.99134H66.5351V13.5593H65.8438Z" fill="#FAF8F5"/>
<path d="M65.8475 13.5601H65.9373V8.43925H69.6538V13.4734H69.1412V8.9054H66.4492V13.4734H65.8475V13.5601V13.647H66.5389H66.6287V9.07903H68.9617V13.647H69.7438H69.8336V8.26562H65.7578V13.647H65.8475V13.5601Z" fill="#FAF8F5"/>
<path d="M70.9766 13.5593V8.35156H71.6683V10.5842H74.3609V8.35156H75.0535V13.5593H74.3609V11.2097H71.6683V13.5593H70.9766Z" fill="#FAF8F5"/>
<path d="M70.9804 13.5601H71.0701V8.43925H71.5824V10.6718H74.4546V8.43925H74.9673V13.4734H74.4546V11.1238H71.5824V13.4734H70.9804V13.5601V13.647H71.6721H71.7618V11.2974H74.275V13.647H75.0573H75.1473V8.26562H74.3648H74.275V10.4983H71.7618V8.26562H70.9804H70.8906V13.647H70.9804V13.5601Z" fill="#FAF8F5"/>
<path d="M77.2496 12.4497C77.6492 12.8399 78.1365 13.0349 78.7132 13.0349C79.2898 13.0349 79.7779 12.8399 80.176 12.4497C80.5748 12.0595 80.7749 11.5607 80.7749 10.9549C80.7749 10.349 80.5748 9.85023 80.176 9.46C79.7779 9.06978 79.2898 8.87482 78.7132 8.87482C78.1365 8.87482 77.6492 9.06978 77.2496 9.46C76.8523 9.85023 76.6522 10.349 76.6522 10.9549C76.6522 11.5607 76.8523 12.0595 77.2496 12.4497ZM80.6879 12.8857C80.1589 13.4122 79.5004 13.675 78.7132 13.675C77.926 13.675 77.2675 13.4122 76.7392 12.8857C76.2095 12.3598 75.9453 11.7161 75.9453 10.9549C75.9453 10.1936 76.2095 9.54978 76.7392 9.024C77.2675 8.49741 77.926 8.23438 78.7132 8.23438C79.4959 8.23438 80.1522 8.49882 80.6842 9.02741C81.2154 9.55601 81.481 10.1984 81.481 10.9549C81.481 11.7161 81.2161 12.3598 80.6879 12.8857Z" fill="#FAF8F5"/>
<path d="M77.253 12.4506L77.1897 12.5116C77.6034 12.9175 78.1183 13.1236 78.7165 13.1226C79.314 13.1236 79.8304 12.9175 80.2433 12.5116C80.6592 12.1054 80.8683 11.5798 80.8676 10.9557C80.8683 10.3316 80.6592 9.80607 80.2433 9.39985C79.8304 8.994 79.314 8.78785 78.7165 8.78888C78.1183 8.78785 77.6034 8.994 77.1897 9.39985C76.7746 9.80607 76.5647 10.3316 76.5655 10.9557C76.5647 11.5798 76.7746 12.1054 77.1897 12.5116L77.253 12.4506L77.3177 12.3896C76.9368 12.0149 76.7463 11.5436 76.7455 10.9557C76.7463 10.3678 76.9368 9.89659 77.3177 9.52185C77.7016 9.14726 78.1607 8.96355 78.7165 8.96251C79.2723 8.96355 79.7321 9.14726 80.1153 9.52185C80.497 9.89659 80.6875 10.3678 80.6882 10.9557C80.6875 11.5436 80.497 12.0149 80.1153 12.3896C79.7321 12.7642 79.2723 12.9479 78.7165 12.949C78.1607 12.9479 77.7016 12.7642 77.3177 12.3896L77.253 12.4506ZM80.6912 12.8866L80.6265 12.8262C80.1124 13.3361 79.4829 13.5881 78.7165 13.5891C77.9501 13.5881 77.3199 13.3361 76.8073 12.8262C76.2932 12.3146 76.0402 11.6976 76.0387 10.9557C76.0402 10.2139 76.2932 9.59688 76.8073 9.08518C77.3199 8.57525 77.9501 8.32303 78.7165 8.322C79.4784 8.32303 80.1064 8.57637 80.6235 9.08896C81.1391 9.60296 81.3936 10.219 81.3943 10.9557C81.3936 11.6976 81.1391 12.3146 80.6265 12.8262L80.6912 12.8866L80.7552 12.9469C81.2999 12.4065 81.5751 11.7362 81.5744 10.9557C81.5751 10.1797 81.2991 9.51074 80.7522 8.96792C80.2054 8.42303 79.5201 8.14748 78.7165 8.14844C77.9085 8.14748 77.2217 8.42177 76.6778 8.96459C76.1324 9.50533 75.8586 10.1753 75.8594 10.9557C75.8586 11.7362 76.1324 12.4065 76.6778 12.9473C77.2217 13.4901 77.9085 13.7634 78.7165 13.7627C79.5238 13.7634 80.2113 13.4897 80.7552 12.9469L80.6912 12.8866Z" fill="#FAF8F5"/>
<path d="M85.0037 12.9195H86.3958C86.6615 12.9195 86.8772 12.8297 87.0432 12.6497C87.2083 12.471 87.2909 12.2743 87.2909 12.0607C87.2909 11.8474 87.2054 11.6525 87.035 11.4755C86.8653 11.2985 86.6406 11.2097 86.3653 11.2097H85.0037V12.9195ZM85.0037 10.5842H86.2604C86.5216 10.5842 86.7307 10.5011 86.8884 10.3333C87.0469 10.1662 87.1257 9.98341 87.1257 9.78438C87.1257 9.58571 87.0491 9.40327 86.8958 9.23927C86.7433 9.07408 86.5409 8.99134 86.2909 8.99134H85.0037V10.5842ZM84.3125 13.5593V8.35156H86.2604C86.6815 8.35156 87.0469 8.48653 87.3542 8.75497C87.6629 9.0246 87.8177 9.3626 87.8177 9.76979C87.8177 10.0169 87.7515 10.2353 87.6176 10.4245C87.4851 10.6136 87.3088 10.7567 87.0878 10.8537V10.8825C87.3527 10.9696 87.5714 11.1202 87.7418 11.3334C87.9115 11.547 87.9978 11.7946 87.9978 12.0756C87.9978 12.5022 87.8363 12.8561 87.5127 13.1372C87.189 13.4186 86.8065 13.5593 86.3653 13.5593H84.3125Z" fill="#FAF8F5"/>
<path d="M85.0071 12.9204V13.0072H86.3992C86.6856 13.0082 86.9327 12.9065 87.1127 12.7084C87.2906 12.5176 87.385 12.2972 87.3836 12.0616C87.385 11.8256 87.2868 11.6062 87.1038 11.4171C86.9178 11.2221 86.6641 11.1228 86.3687 11.1238H84.917V13.0072H85.0071V12.9204H85.0971V11.2974H86.3687C86.6254 11.2984 86.8181 11.3771 86.9728 11.5354C87.1306 11.7008 87.2035 11.8714 87.2042 12.0616C87.2035 12.2531 87.1328 12.4261 86.9788 12.5928C86.8292 12.7543 86.644 12.8322 86.3992 12.8336H85.0071V12.9204ZM85.0071 10.5851V10.6718H86.2638C86.5435 10.6728 86.7846 10.5793 86.9587 10.3925C87.1284 10.2135 87.2184 10.007 87.2184 9.78526C87.2184 9.56489 87.1313 9.35874 86.9654 9.18178C86.798 8.99792 86.5644 8.90437 86.2943 8.9054H84.917V10.6718H85.0071V10.5851H85.0971V9.07903H86.2943C86.5249 9.08037 86.6953 9.15155 86.8315 9.2977C86.9728 9.44963 87.0383 9.60866 87.0391 9.78526C87.0383 9.96118 86.9706 10.1206 86.8255 10.2755C86.6834 10.4243 86.5048 10.4973 86.2638 10.4983H85.0071V10.5851ZM84.3159 13.5601H84.4059V8.43926H86.2638C86.6648 8.43992 87.0041 8.56533 87.298 8.82037C87.5897 9.076 87.7303 9.38489 87.731 9.77066C87.731 10.003 87.6693 10.202 87.5473 10.3765C87.423 10.5529 87.2608 10.6844 87.0532 10.7756L87.0011 10.7987V10.8834V10.9455L87.0614 10.9654C87.3121 11.0482 87.5138 11.1872 87.6745 11.3876C87.8322 11.587 87.9118 11.8124 87.9118 12.0765C87.9103 12.482 87.7615 12.8064 87.4557 13.0737C87.147 13.3412 86.7906 13.4727 86.3687 13.4733H84.3159V13.5601V13.647H86.3687C86.83 13.6476 87.2377 13.4978 87.5755 13.2024C87.917 12.9078 88.0919 12.5244 88.0911 12.0765C88.0919 11.7785 87.9989 11.5093 87.8166 11.2814C87.6358 11.0556 87.4007 10.8932 87.1202 10.8014L87.0911 10.8834H87.1812V10.8546H87.0911L87.1283 10.9336C87.362 10.8309 87.5547 10.6766 87.6953 10.4738C87.8389 10.2701 87.9103 10.0327 87.9103 9.77066C87.9118 9.34244 87.7444 8.97496 87.4178 8.69148C87.0949 8.40903 86.7042 8.26496 86.2638 8.26563H84.2266V13.647H84.3159V13.5601Z" fill="#FAF8F5"/>
<path d="M20.0634 19.75L10.5078 29.5576C10.5081 29.5597 10.5089 29.5614 10.5092 29.5634C10.8022 30.6283 11.8081 31.4125 13.0019 31.4125C13.4792 31.4125 13.9272 31.2878 14.3115 31.0687L14.342 31.0514L25.098 25.0495L20.0634 19.75Z" fill="#EB3131"/>
<path d="M29.7283 18.078L29.719 18.0719L25.0754 15.4688L19.8438 19.9705L25.0936 25.0465L29.7128 22.4692C30.5226 22.0465 31.0724 21.2208 31.0724 20.2688C31.0724 19.3236 30.53 18.5022 29.7283 18.078Z" fill="#F6B60B"/>
<path d="M10.5017 10.9375C10.4443 11.1423 10.4141 11.3569 10.4141 11.5796V28.9102C10.4141 29.1325 10.4439 29.3478 10.5021 29.5519L20.3865 19.9952L10.5017 10.9375Z" fill="#5778C5"/>
<path d="M20.1342 20.2476L25.0802 15.4662L14.3364 9.44268C13.9458 9.21646 13.49 9.08594 13.0024 9.08594C11.8086 9.08594 10.8013 9.87149 10.5082 10.9377L10.5078 10.9405L20.1342 20.2476Z" fill="#3BAD49"/>
</g>
<defs>
<clipPath id="clip0_10307_71354">
<rect width="125" height="40" rx="12" fill="white"/>
</clipPath>
</defs>
</svg>
