<svg width="16" height="16" viewBox="0 0 16 16" fill="none" xmlns="http://www.w3.org/2000/svg">
<mask id="mask0_11926_44476" style="mask-type:alpha" maskUnits="userSpaceOnUse" x="0" y="0" width="16" height="16">
<rect width="16" height="16" fill="#D9D9D9"/>
</mask>
<g mask="url(#mask0_11926_44476)">
<path fill-rule="evenodd" clip-rule="evenodd" d="M10.9046 1.3481C10.4628 1.42611 10.1084 1.74569 9.97251 2.18875C9.94762 2.26989 9.93487 2.41496 9.92409 2.73957C9.91311 3.07042 9.90152 3.20019 9.87758 3.26034C9.85435 3.31867 9.84545 3.40916 9.84482 3.59306L9.84395 3.84565L9.73472 3.8879C9.51444 3.9731 9.24441 4.20715 9.13416 4.40845L9.0883 4.49217H10.2205H11.3527L11.3068 4.40821C11.1967 4.20651 10.9293 3.97416 10.7096 3.88918L10.6014 3.84734L10.5934 3.56385C10.5872 3.34705 10.5774 3.26529 10.5516 3.21628C10.5041 3.1262 10.5019 2.42338 10.5486 2.28479C10.5917 2.1569 10.6973 2.04073 10.8304 1.97465L10.9439 1.91834H11.7763H12.6087L12.7102 1.97249C12.8437 2.04363 12.9676 2.18779 13.0051 2.3155C13.0309 2.40313 13.0348 2.82912 13.0348 5.56742V8.71847H13.3221H13.6095V5.54694C13.6095 2.45412 13.6085 2.37158 13.5704 2.22071C13.5157 2.00485 13.4242 1.84033 13.2731 1.68644C13.1256 1.53614 13.0157 1.46575 12.8114 1.39072L12.6681 1.3381L11.8357 1.33438C11.3779 1.33233 10.9589 1.3385 10.9046 1.3481ZM8.99174 4.63238C8.93817 4.68652 8.94183 4.76402 9.00076 4.82357L9.04939 4.87274H10.2205H11.3916L11.4402 4.82357C11.4995 4.76372 11.5025 4.69476 11.4485 4.63617L11.4081 4.59232H10.2197C9.05779 4.59232 9.0305 4.59321 8.99174 4.63238ZM9.0512 5.21521C9.0512 5.22729 9.00333 5.30617 8.94483 5.39047C8.80239 5.59572 8.77373 5.65679 8.77373 5.75503C8.77373 6.06936 9.15288 6.19122 9.32293 5.93154C9.36586 5.86596 9.3719 5.83796 9.36471 5.73753C9.35737 5.6351 9.3432 5.60133 9.25313 5.47179C9.19639 5.39019 9.13501 5.29413 9.11672 5.25832C9.0839 5.19402 9.0512 5.17251 9.0512 5.21521ZM10.1561 5.28864C10.126 5.34082 10.0641 5.43676 10.0183 5.50188C9.91648 5.64689 9.8949 5.79632 9.95876 5.91429C10.005 5.99968 10.1267 6.07387 10.2205 6.07387C10.3143 6.07387 10.436 5.99968 10.4822 5.91429C10.5102 5.86269 10.5183 5.81512 10.5131 5.73402C10.5068 5.6364 10.4909 5.60147 10.3732 5.42725C10.3001 5.31911 10.2403 5.22222 10.2403 5.21193C10.2403 5.16942 10.2073 5.19943 10.1561 5.28864ZM11.3243 5.25832C11.306 5.29413 11.2446 5.39019 11.1879 5.47179C11.0978 5.60133 11.0836 5.6351 11.0763 5.73753C11.0691 5.83796 11.0751 5.86596 11.1181 5.93154C11.2483 6.13041 11.5378 6.11389 11.6373 5.90191C11.6979 5.77282 11.6725 5.64491 11.5517 5.47123C11.4952 5.38993 11.434 5.29413 11.4157 5.25832C11.3974 5.22252 11.3768 5.19322 11.37 5.19322C11.3631 5.19322 11.3426 5.22252 11.3243 5.25832ZM8.9478 6.59062C8.77962 6.84227 8.77371 6.85513 8.77381 6.96954C8.77395 7.14709 8.89905 7.27618 9.07101 7.27618C9.24282 7.27618 9.36808 7.14709 9.36822 6.96986C9.3683 6.86525 9.33926 6.79492 9.23761 6.65367C9.20124 6.60314 9.15049 6.52442 9.1248 6.47871L9.07811 6.39563L8.9478 6.59062ZM10.097 6.59106C9.92915 6.84223 9.9232 6.85517 9.9233 6.96954C9.92344 7.14709 10.0485 7.27618 10.2205 7.27618C10.3923 7.27618 10.5176 7.14709 10.5177 6.96986C10.5178 6.86176 10.4907 6.79953 10.3666 6.62327C10.3193 6.55603 10.2685 6.47751 10.2538 6.44877L10.227 6.39653L10.097 6.59106ZM11.3513 6.41241C11.3507 6.4275 11.3025 6.50862 11.2442 6.59268C11.0978 6.80384 11.0727 6.85918 11.0728 6.96986C11.0729 7.14709 11.1982 7.27618 11.37 7.27618C11.5417 7.27618 11.6671 7.14707 11.6672 6.97006C11.6673 6.86038 11.6328 6.78449 11.4952 6.59174C11.4427 6.51817 11.3891 6.44156 11.3761 6.42149C11.3601 6.39667 11.3521 6.39376 11.3513 6.41241ZM2.20381 8.99033C2.11144 9.03888 2.05907 9.09739 2.0233 9.19203C1.96 9.35954 2.02951 9.54323 2.1853 9.62011C2.26511 9.65949 2.32042 9.65987 7.99779 9.65987C14.2656 9.65987 13.8059 9.66906 13.9121 9.54151C14.06 9.36393 14.0166 9.11874 13.817 9.00453L13.7383 8.95948L8.0008 8.95928C2.84063 8.95908 2.25728 8.96221 2.20381 8.99033ZM2.75352 10.9568C2.76046 11.9462 2.76274 12.0004 2.80373 12.1493C2.89868 12.4942 3.0735 12.7909 3.32637 13.0362C3.62924 13.33 3.94933 13.4871 4.36406 13.5454C4.47698 13.5613 5.55483 13.5659 8.1098 13.5616L11.697 13.5554L11.855 13.5091C12.5239 13.3127 13.0188 12.8085 13.1957 12.1436C13.2396 11.9786 13.2412 11.9412 13.248 10.9468L13.2551 9.92025H8.00066H2.74627L2.75352 10.9568ZM4.80998 14.2367V14.6673H5.23608H5.66219V14.2367V13.806H5.23608H4.80998V14.2367ZM10.3394 14.2367V14.6673H10.7655H11.1916V14.2367V13.806H10.7655H10.3394V14.2367Z" fill="#388289"/>
</g>
</svg>
