<svg width="16" height="16" viewBox="0 0 16 16" fill="none" xmlns="http://www.w3.org/2000/svg">
<mask id="mask0_11926_44459" style="mask-type:alpha" maskUnits="userSpaceOnUse" x="0" y="0" width="16" height="16">
<rect width="16" height="16" fill="#D9D9D9"/>
</mask>
<g mask="url(#mask0_11926_44459)">
<path d="M1.59687 6.42211C1.43415 6.56503 1.43415 6.79674 1.59687 6.93965C1.75958 7.08257 2.0234 7.08257 2.18612 6.93965L6.38592 3.251V5.4487C6.38592 5.65081 6.57246 5.81465 6.80258 5.81465C7.0327 5.81465 7.21925 5.65081 7.21925 5.4487V2.39968C7.2302 2.29513 7.19011 2.18723 7.09897 2.10719C7.01127 2.03016 6.89419 1.99464 6.77941 2.00065L3.2934 2.00065C3.06328 2.00065 2.87674 2.1645 2.87674 2.36661C2.87674 2.56872 3.06328 2.73256 3.2934 2.73256L5.79768 2.73256L1.59687 6.42211Z" fill="#CC911C"/>
<path d="M10.2248 3.2653C10.2248 2.72633 10.7223 2.28941 11.3359 2.28941H13.5582C14.1718 2.28941 14.6693 2.72633 14.6693 3.2653V13.0241C14.6693 13.5631 14.1718 14 13.5582 14H2.44705C1.8334 14 1.33594 13.5631 1.33594 13.0241V11.0724C1.33594 10.5334 1.8334 10.0965 2.44705 10.0965H5.78038V7.16883C5.78038 6.62986 6.27784 6.19294 6.89149 6.19294H10.2248V3.2653Z" fill="#CC911C"/>
</g>
</svg>
