<svg width="16" height="16" viewBox="0 0 16 16" fill="none" xmlns="http://www.w3.org/2000/svg">
<mask id="mask0_11926_44464" style="mask-type:alpha" maskUnits="userSpaceOnUse" x="0" y="0" width="16" height="16">
<rect width="16" height="16" fill="#D9D9D9"/>
</mask>
<g mask="url(#mask0_11926_44464)">
<path fill-rule="evenodd" clip-rule="evenodd" d="M13.3606 1.34209C13.287 1.35489 13.1506 1.40198 13.0725 1.44155C12.9888 1.48393 11.3784 2.76079 11.305 2.84291C11.2499 2.90464 11.1863 3.04172 11.1757 3.12155C11.1701 3.16327 11.1445 3.19961 11.107 3.21877L11.0169 3.26486C10.9033 3.32298 10.8584 3.35414 10.8315 3.39352C10.812 3.4221 10.739 3.58946 10.6691 3.76544C10.5993 3.94142 10.5399 4.08773 10.537 4.09056C10.5342 4.09339 10.3444 4.00201 10.1154 3.88748C9.65042 3.65505 9.5615 3.61905 9.37205 3.58659C8.93155 3.51108 8.4829 3.63671 8.13821 3.93203C8.02312 4.03065 4.17476 8.65008 4.13746 8.73439C4.05992 8.90966 4.19571 9.10924 4.391 9.10703C4.44181 9.10645 4.79987 9.02259 5.45118 8.85872C5.99207 8.72262 6.78615 8.52375 7.2158 8.41678C7.64545 8.3098 8.00954 8.21899 8.02488 8.21499C8.20688 8.16745 10.469 7.59964 10.5567 7.57947C10.622 7.56447 10.7067 7.54305 10.7451 7.53188C10.7834 7.52069 11.2975 7.39166 11.8875 7.24514C12.4775 7.09862 12.9874 6.9671 13.0206 6.95286C13.4056 6.78784 13.6253 6.35829 13.5295 5.95803C13.4874 5.7825 13.4175 5.657 13.2908 5.52958C13.221 5.45947 13.1404 5.40112 13.0519 5.35681L12.3591 5.00952C11.6467 4.65247 11.5315 4.59876 11.524 4.6202C11.4999 4.6893 11.2498 5.30376 11.2305 5.34111C11.1892 5.42144 11.0897 5.5392 11.0148 5.59625C10.9738 5.62744 10.3036 6.03464 9.52543 6.50113C8.2193 7.28407 8.10493 7.34975 8.03787 7.3553C7.94974 7.36261 7.88301 7.34231 7.82504 7.29055C7.71259 7.19017 7.70885 6.99632 7.81741 6.89545C7.83945 6.87495 8.4915 6.47805 9.2664 6.01345C10.0413 5.54884 10.6898 5.15133 10.7075 5.13007C10.7443 5.08575 10.7339 5.11034 11.0411 4.3426L11.242 3.84039C11.2624 3.78938 11.301 3.74777 11.3504 3.72361C11.3995 3.69956 11.4561 3.69588 11.5079 3.71337L11.5355 3.7227C11.5952 3.74284 11.6749 3.75933 11.7126 3.75933C11.7591 3.75933 12.0171 3.69214 12.5116 3.55127C12.9134 3.43685 13.4021 3.2982 13.5978 3.24318C13.7934 3.18815 14.0027 3.12484 14.0628 3.10249C14.4225 2.96884 14.6586 2.63597 14.6607 2.25983C14.6615 2.09548 14.6363 1.98455 14.5636 1.83439C14.4926 1.68754 14.316 1.51028 14.1697 1.43898C13.9952 1.35396 13.8797 1.33194 13.6199 1.33413C13.4965 1.33518 13.3798 1.33876 13.3606 1.34209ZM3.33931 2.44834C2.23343 2.44838 1.33748 3.34589 1.33937 4.45178L1.33947 4.50584C1.34143 5.51598 2.15992 6.33431 3.17006 6.33608L3.36668 6.33642L4.45102 6.33832C5.04607 6.33936 5.61068 6.07538 5.99145 5.6181L6.51651 4.98754C7.1359 4.2437 7.68704 3.59404 7.74126 3.54383C8.33204 2.9969 9.178 2.85617 9.92359 3.18082C10.0121 3.21934 10.0873 3.24311 10.12 3.24292C10.1978 3.24247 10.2808 3.199 10.3349 3.13046C10.361 3.0973 10.4266 3.0253 10.4807 2.97045C10.6059 2.84341 10.6359 2.75833 10.5965 2.64201C10.5703 2.56504 10.5307 2.51929 10.4583 2.48262C10.4136 2.45995 10.3641 2.44814 10.314 2.44814L5.97126 2.44826L3.33931 2.44834ZM14.186 6.3698C14.1111 6.40686 14.0681 6.47031 14.0217 6.61238C13.9552 6.81615 13.8646 6.96334 13.6997 7.13599C13.5356 7.3077 13.3141 7.44592 13.1025 7.50851C13.0092 7.53613 12.0917 7.76781 11.1635 7.99812C10.7263 8.10662 5.49637 9.4138 5.37097 9.44592C5.28682 9.46748 5.22798 9.54331 5.22798 9.63017V9.8501C5.22798 10.0531 5.39252 10.2177 5.59552 10.2177L5.92895 10.2178C6.5576 10.218 14.6356 10.2179 14.6617 10.2177C14.6676 10.2177 14.6707 9.39064 14.6686 8.37988C14.6645 6.339 14.6729 6.5105 14.5719 6.41395C14.5096 6.35433 14.4656 6.33986 14.3466 6.33988C14.2723 6.33988 14.2308 6.34761 14.186 6.3698ZM1.34534 6.89317C1.33545 6.90305 1.33198 10.2089 1.34185 10.2188C1.34505 10.222 2.09519 10.223 3.00883 10.221L4.37559 10.2181C4.53829 10.2177 4.67 10.0857 4.67 9.92301V9.67483C4.67 9.6509 4.64814 9.63293 4.62466 9.63755C4.59972 9.64245 4.51341 9.6501 4.43285 9.65455C4.18082 9.66846 3.99683 9.59911 3.81733 9.42256C3.59886 9.2077 3.51924 8.92013 3.59557 8.62168C3.6451 8.42802 3.60306 8.48533 4.38403 7.54712C4.67558 7.19688 4.91621 6.90437 4.91876 6.89709C4.92408 6.882 1.36042 6.87808 1.34534 6.89317ZM1.33634 12.6064V12.671C1.33634 13.7686 2.21982 14.6597 3.31746 14.6624C4.05938 14.6643 5.01292 14.6654 6.18353 14.6644L8.83058 14.6621C9.90418 14.6611 10.7745 13.7916 10.7765 12.718C10.7784 11.6458 9.90983 10.7756 8.83765 10.7756H6.05803H3.16682C2.15575 10.7756 1.33617 11.5953 1.33634 12.6064ZM11.3379 12.7214V13.128C11.3379 13.9781 12.0271 14.6673 12.8773 14.6673C13.8663 14.6673 14.6676 13.8644 14.6655 12.8753L14.6649 12.6168V12.4461C14.6649 11.5268 13.9207 10.781 13.0014 10.779C12.0833 10.7771 11.3379 11.5208 11.3379 12.439V12.7214Z" fill="#61519E"/>
</g>
</svg>
