<svg width="32" height="32" viewBox="0 0 32 32" fill="none" xmlns="http://www.w3.org/2000/svg">
<path d="M10.2262 26.6873V9.97594C10.2262 9.31801 10.4182 8.67653 10.7702 8.13374L15.1387 1.4558C15.8268 0.386667 17.539 -0.369947 18.9952 0.18929C20.5634 0.732078 21.6035 2.54137 21.2674 4.15329L20.4353 9.53184C20.3713 10.0253 20.4993 10.4694 20.7714 10.8148C21.0434 11.1273 21.4435 11.3247 21.8755 11.3247H28.4523C29.7164 11.3247 30.8045 11.851 31.4446 12.7721C32.0527 13.6603 32.1647 14.8117 31.7646 15.9795L27.8282 28.2992C27.3321 30.3387 25.1719 32 23.0276 32H16.7869C15.7148 32 14.2106 31.6217 13.5225 30.9144L11.4743 29.2861C10.6902 28.6775 10.2262 27.707 10.2262 26.6873Z" fill="#E2712E"/>
<path d="M5.13659 6.77201H3.4884C1.00812 6.77201 0 7.7589 0 10.1932V26.7401C0 29.1744 1.00812 30.1613 3.4884 30.1613H5.13659C7.61687 30.1613 8.62499 29.1744 8.62499 26.7401V10.1932C8.62499 7.7589 7.61687 6.77201 5.13659 6.77201Z" fill="#E2712E"/>
</svg>
