<svg width="32" height="32" viewBox="0 0 32 32" fill="none" xmlns="http://www.w3.org/2000/svg">
<path d="M13.6181 14.7514L10.0976 0.623974C10.0176 0.25599 9.6815 0 9.29744 0C4.16065 0 0 4.15983 0 9.29561V18.4152C0 18.9592 0.528082 19.3592 1.05616 19.1992L13.058 15.7273C13.4741 15.6154 13.7301 15.1834 13.6181 14.7514Z" fill="#E57F43"/>
<path d="M14.5943 18.6886C14.4822 18.2406 14.0182 17.9686 13.5701 18.0966L0.592092 21.8724C0.240037 21.9844 0 22.3044 0 22.6724V22.7044C0 27.8402 4.16065 32 9.29744 32H16.8506C17.3787 32 17.7788 31.504 17.6507 30.976L14.5943 18.6886Z" fill="#E57F43"/>
<path d="M22.7026 0H13.5011C12.9731 0 12.573 0.49598 12.701 1.02396L20.2862 31.3747C20.3822 31.7427 20.7023 31.9987 21.0863 31.9987H22.6866C27.8394 31.9987 32 27.8388 32 22.7031V9.29561C32 4.15983 27.8394 0 22.7026 0Z" fill="#E57F43"/>
</svg>
