<svg width="48" height="48" viewBox="0 0 48 48" fill="none" xmlns="http://www.w3.org/2000/svg">
<path fill-rule="evenodd" clip-rule="evenodd" d="M32.5355 0.261898C32.3601 0.405978 29.1569 3.92087 25.4174 8.07268C18.804 15.4152 18.6143 15.6354 18.4764 16.1289C18.0236 17.7499 19.3352 19.1909 20.8509 18.7376C21.1322 18.6535 22.0124 17.7169 27.1483 12.0367C30.4319 8.40494 33.1549 5.43358 33.1993 5.43358C33.2437 5.43358 35.9292 8.37189 39.1671 11.963C43.1769 16.4104 45.1585 18.5467 45.3813 18.6626C45.8567 18.9095 46.444 18.8865 46.962 18.6007C47.9052 18.0802 48.2681 16.8726 47.7892 15.848C47.7078 15.6736 44.4829 12.0366 40.6228 7.7655L33.6045 0H33.2294C32.9439 0 32.7784 0.0624852 32.5355 0.261898ZM33.0313 7.1602C32.943 7.19841 30.5251 9.8318 27.658 13.0121L22.4453 18.7945V22.1525V25.5107L22.9973 25.7662C23.3008 25.9068 24.2463 26.3851 25.0983 26.8291C26.2175 27.4124 26.8473 27.6848 27.3678 27.8106C28.0969 27.9869 29.9484 28.2546 30.4377 28.2546H30.7039V24.4622C30.7039 21.045 30.7173 20.6575 30.8391 20.5455C30.9465 20.4469 31.4364 20.4212 33.217 20.4212C35.3426 20.4212 35.4657 20.4304 35.5757 20.597C35.6717 20.7424 35.6917 21.4498 35.6917 24.6897V28.6067L35.8735 28.7476C36.0308 28.8695 36.5016 28.8885 39.3691 28.888C41.2916 28.8877 42.8046 28.8501 42.9727 28.7984C43.3015 28.6972 43.7345 28.2431 43.8636 27.8639C43.9204 27.6969 43.9503 26.0892 43.9503 23.2017V18.7944L38.7036 12.9809C35.8178 9.78353 33.3972 7.15014 33.3242 7.12904C33.2514 7.10794 33.1195 7.12198 33.0313 7.1602ZM0.558067 25.0361C0.4153 25.1049 0.231322 25.2747 0.149227 25.4134C0.00752329 25.653 0 26.0781 0 33.8201C0 41.7615 0.00417077 41.9812 0.159775 42.2358C0.443183 42.6994 0.67099 42.7442 2.74471 42.7442C4.82587 42.7442 5.0356 42.7002 5.29808 42.2081C5.42678 41.9668 5.43758 41.3177 5.43758 33.8282C5.43758 24.8662 5.46562 25.3399 4.91778 25.052C4.68139 24.9278 4.32921 24.9045 2.72688 24.9075C1.28866 24.9102 0.753657 24.9419 0.558067 25.0361ZM14.3912 25.9631C12.8423 26.1172 10.0973 26.6791 8.50388 27.1683C7.30377 27.5367 7.18087 27.5975 6.9686 27.927L6.78675 28.2094V33.7788V39.3482L6.974 39.6817C7.20785 40.0982 7.57139 40.2517 8.6558 40.3917C10.01 40.5665 10.4503 40.7601 15.0862 43.2196C19.8893 45.7679 21.9869 46.8379 23.3834 47.4523C25.1724 48.2394 26.2043 48.2059 32.0531 47.171C33.4472 46.9244 35.2686 46.6199 36.1006 46.4943C36.9326 46.3687 37.8786 46.204 38.2028 46.1283C38.9303 45.9584 39.8362 45.474 40.8023 44.7382C41.207 44.4301 42.1821 43.7077 42.9691 43.1331C46.1368 40.8204 47.0954 39.8308 47.3208 38.6408C47.4418 38.0017 47.3471 37.7478 46.8918 37.4905L46.5559 37.3008L46.8429 36.9488C47.0008 36.7553 47.1873 36.4743 47.2573 36.3243C47.6187 35.5503 47.1706 34.6183 46.1989 34.123C45.8466 33.9434 45.6658 33.9157 44.8907 33.9226C44.0857 33.9297 43.9158 33.9616 43.2727 34.2267C42.4438 34.5683 41.5998 35.1519 40.7468 35.9731C39.0316 37.6244 37.9225 38.056 34.3835 38.4498C33.3986 38.5593 32.6148 38.5865 31.4807 38.5507C29.6012 38.4911 28.9371 38.3415 27.3551 37.6212C26.7459 37.3438 25.9977 37.0113 25.6923 36.8823C24.8473 36.5253 25.0515 36.4517 26.8847 36.4523C28.698 36.4529 33.5569 36.7187 34.7058 36.8802C35.1356 36.9405 35.8001 36.9899 36.1824 36.9897C36.7842 36.9894 36.9362 36.9554 37.3153 36.7361C37.9208 36.3859 38.3914 35.8173 38.7608 34.9892C39.181 34.0473 39.224 33.5042 38.9307 32.8403C38.6534 32.2127 38.0269 31.5669 37.3846 31.2467C35.8942 30.504 32.927 29.8824 29.3547 29.5648C26.9321 29.3493 26.8155 29.3153 24.7604 28.2241C22.1285 26.8267 20.8763 26.3648 18.8371 26.0389C18.0365 25.9111 15.3713 25.8656 14.3912 25.9631Z" fill="#E2712E"/>
</svg>
