<svg width="16" height="16" viewBox="0 0 16 16" fill="none" xmlns="http://www.w3.org/2000/svg">
<g clip-path="url(#clip0_11088_33836)">
<path d="M13.7448 5.63073C13.0448 2.55073 10.3581 1.16406 7.99811 1.16406C7.99811 1.16406 7.99811 1.16406 7.99144 1.16406C5.63811 1.16406 2.94478 2.54406 2.24478 5.62406C1.46478 9.06406 3.57144 11.9774 5.47811 13.8107C6.18478 14.4907 7.09144 14.8307 7.99811 14.8307C8.90478 14.8307 9.81144 14.4907 10.5114 13.8107C12.4181 11.9774 14.5248 9.07073 13.7448 5.63073ZM7.99811 8.97073C6.83811 8.97073 5.89811 8.03073 5.89811 6.87073C5.89811 5.71073 6.83811 4.77073 7.99811 4.77073C9.15811 4.77073 10.0981 5.71073 10.0981 6.87073C10.0981 8.03073 9.15811 8.97073 7.99811 8.97073Z" fill="#FAF8F5"/>
</g>
<defs>
<clipPath id="clip0_11088_33836">
<rect width="16" height="16" fill="white"/>
</clipPath>
</defs>
</svg>
