<svg width="86" height="32" viewBox="0 0 86 32" fill="none" xmlns="http://www.w3.org/2000/svg">
<path fill-rule="evenodd" clip-rule="evenodd" d="M68.7767 12.0305C67.6353 12.1658 66.5563 12.6333 66.0282 13.2213C65.6247 13.6706 65.338 14.2513 65.1967 14.9057C65.0886 15.406 65.054 16.2716 65.1203 16.8115C65.3505 18.6843 66.3112 19.689 68.2699 20.1055C68.6232 20.1807 68.8788 20.1942 70.2715 20.2113C72.2694 20.2358 72.6266 20.1922 73.4884 19.8185C74.5136 19.3739 75.0722 18.6864 75.0993 17.8357C75.1099 17.505 75.0245 17.3234 74.7836 17.1642C74.6649 17.0856 74.584 17.0752 74.0926 17.0752C73.7865 17.0752 73.4765 17.09 73.4038 17.108C73.1905 17.1608 72.9044 17.4233 72.7188 17.7366C72.5033 18.1001 72.1313 18.4118 71.7852 18.5188C71.5678 18.5859 71.3855 18.5957 70.4145 18.5922C69.5499 18.5891 69.2209 18.5723 68.9718 18.5187C67.9212 18.2924 67.6162 17.8085 67.5692 16.2936C67.5231 14.8082 67.7758 14.1595 68.5247 13.8411C68.9459 13.662 69.3183 13.6243 70.5159 13.6394C71.5644 13.6527 71.586 13.6548 71.8223 13.7654C72.123 13.9061 72.4013 14.1711 72.6059 14.5113C72.7933 14.823 73.0548 15.0456 73.3063 15.1075C73.4065 15.1322 73.6929 15.1525 73.943 15.1526C74.8651 15.1531 75.1229 14.8509 74.9209 14.006C74.7478 13.282 74.2396 12.7771 73.2705 12.3664C72.4951 12.0378 72.3059 12.0118 70.6051 12.0011C69.7794 11.9959 68.9567 12.0091 68.7767 12.0305ZM18.148 12.1091C17.8315 12.2802 17.8478 12.0635 17.8478 16.1162V19.7879L17.9565 19.9308C18.1407 20.1731 18.1802 20.1793 19.5535 20.18C20.9486 20.1807 21.0007 20.1717 21.3375 19.8722C21.4242 19.795 22.235 18.5638 23.1617 17.1021L24.8297 14.4709L24.8773 19.8914L25.2334 20.1806H25.999C26.8356 20.1806 26.9581 20.1544 27.1221 19.9398C27.209 19.8262 27.2131 19.6763 27.2259 16.188C27.2408 12.1495 27.2501 12.2788 26.9331 12.1074C26.7973 12.034 26.6825 12.0266 25.6737 12.0265C24.4374 12.0263 24.3618 12.0406 24.0327 12.3361C23.9468 12.4132 23.0616 13.7466 22.0655 15.2991L20.2545 18.1218L20.2307 15.2536C20.2048 12.1357 20.2171 12.264 19.9298 12.1087C19.7967 12.0368 19.6868 12.0266 19.0392 12.0266C18.3905 12.0266 18.282 12.0367 18.148 12.1091ZM30.5486 12.1103C30.47 12.1561 30.3681 12.2556 30.3223 12.3312C30.2447 12.459 30.2389 12.7218 30.2389 16.0936C30.2389 20.0866 30.2273 19.9293 30.5339 20.095C30.6753 20.1715 30.7731 20.1803 31.478 20.1803C32.1828 20.1803 32.2807 20.1715 32.4221 20.095C32.7072 19.9409 32.7171 19.8787 32.7171 18.2385V16.7583H37.0539V18.2603C37.0539 19.9192 37.0568 19.9371 37.3541 20.0978C37.4889 20.1707 37.5971 20.1803 38.2835 20.1805C39.1323 20.1806 39.2534 20.155 39.4179 19.9398C39.5047 19.8262 39.5088 19.6763 39.5217 16.188C39.5366 12.1446 39.547 12.2887 39.2254 12.1125C39.0838 12.0349 38.9902 12.0263 38.2874 12.0265C37.6076 12.0266 37.4877 12.0369 37.3599 12.106C37.0678 12.2639 37.0539 12.3405 37.0539 13.7966V15.1106H32.7171V13.7966C32.7171 12.3405 32.7032 12.2639 32.4111 12.106C32.2831 12.0368 32.1636 12.0267 31.478 12.0267C30.7752 12.0269 30.6764 12.0357 30.5486 12.1103ZM42.8548 12.1001C42.7819 12.1409 42.6796 12.2524 42.6274 12.3478C42.5346 12.5177 42.5328 12.6016 42.5455 16.1715L42.5584 19.8215L42.6644 19.9532C42.7227 20.0257 42.8314 20.1074 42.9059 20.1347C43.0067 20.1718 43.8757 20.1807 46.3028 20.1697C49.9706 20.153 49.7507 20.1711 50.5736 19.8193C51.4847 19.4299 51.9444 18.8734 52.0649 18.0137C52.1333 17.5256 52.0667 17.121 51.8546 16.7368C51.6827 16.4255 51.3167 16.0629 51.042 15.9318L50.8852 15.8569L51.1194 15.6459C51.2526 15.526 51.4303 15.2975 51.5312 15.1165C51.7052 14.8043 51.7086 14.7886 51.704 14.3311C51.7003 13.9661 51.6769 13.8096 51.5966 13.6141C51.3049 12.9039 50.699 12.4404 49.7058 12.1673L49.2782 12.0498L46.1328 12.0379C43.2034 12.0269 42.9782 12.0311 42.8548 12.1001ZM54.887 12.1119C54.5805 12.2776 54.592 12.1213 54.592 16.1035C54.592 20.0856 54.5805 19.9294 54.887 20.095C55.0418 20.1787 55.1171 20.1803 58.9051 20.1803C62.6931 20.1803 62.7683 20.1787 62.9231 20.095C63.1589 19.9676 63.2298 19.7739 63.2105 19.3097C63.1922 18.8692 63.1213 18.737 62.8335 18.6069C62.6834 18.539 62.4416 18.533 59.8702 18.5329L57.0703 18.5329V16.9273L59.4889 16.9264C61.7397 16.9256 61.921 16.9201 62.1018 16.8473C62.378 16.736 62.4556 16.5688 62.4556 16.0844C62.4556 15.6425 62.3924 15.4905 62.1554 15.3624C62.0093 15.2834 61.8986 15.2799 59.5365 15.2798L57.0703 15.2796V13.6741H59.8836C62.9867 13.6741 62.9391 13.6779 63.1216 13.4125C63.2012 13.2967 63.2177 13.2002 63.2173 12.8502C63.2166 12.3742 63.1744 12.2649 62.9364 12.1226L62.7751 12.0263L58.9099 12.0265C55.1172 12.0266 55.0418 12.0282 54.887 12.1119ZM76.923 12.1082C76.6968 12.241 76.6612 12.3419 76.6593 12.8551C76.6578 13.2741 76.6687 13.3372 76.761 13.4411C76.9571 13.6621 77.0531 13.6741 78.6339 13.6741H80.089V16.7182C80.089 20.0778 80.0758 19.9284 80.3892 20.0978C80.5242 20.1708 80.6321 20.1803 81.3281 20.1803C82.0329 20.1803 82.1308 20.1715 82.2722 20.095C82.5756 19.9311 82.5672 20.0271 82.5672 16.6963V13.6741H84.0223C85.6032 13.6741 85.6992 13.6621 85.8953 13.4411C85.9875 13.3372 85.9986 13.2731 85.9986 12.8439V12.3631L85.6723 12.0474L81.3675 12.0368C77.1744 12.0264 77.0591 12.0282 76.923 12.1082ZM48.8865 13.71C49.4084 13.9977 49.3789 14.8567 48.839 15.0945C48.6736 15.1674 48.5074 15.175 46.8357 15.1864L45.0128 15.1988V13.5859L46.8595 13.5983C48.7038 13.6107 48.7065 13.6108 48.8865 13.71ZM49.0876 16.796C49.4475 16.9432 49.6356 17.2422 49.6356 17.6667C49.6356 18.0913 49.4475 18.3903 49.0876 18.5375C48.9122 18.6092 48.741 18.6156 46.9549 18.6164L45.0128 18.6174V16.7161L46.9549 16.717C48.741 16.7179 48.9122 16.7242 49.0876 16.796Z" fill="white"/>
<path fill-rule="evenodd" clip-rule="evenodd" d="M1.18449 9.69653C1.03389 9.75029 0.817806 9.85772 0.704326 9.93526C0.464375 10.0992 0.149494 10.5631 0.0653209 10.8767C0.0286208 11.0134 0.00665356 11.6905 0.00649514 12.6899L0.0061783 14.2849H2.32964H4.6531V17.6931C4.6531 19.5676 4.67095 21.1005 4.6927 21.0995C4.71446 21.0985 5.14108 20.712 5.64073 20.2406C6.14033 19.7693 7.63099 18.3652 8.9533 17.1205L11.3574 14.8575L11.3585 12.9416C11.3593 11.2931 11.347 10.9859 11.2706 10.7415C11.1534 10.3666 10.8034 9.96962 10.4196 9.77603C10.1365 9.63327 10.0694 9.62307 9.29384 9.60508L8.46918 9.58594L8.18492 9.81077C7.82336 10.0967 7.14776 10.4423 6.73893 10.5505C6.28338 10.671 5.53681 10.7101 5.08453 10.637C4.37291 10.5221 3.81982 10.2782 3.22618 9.81753L2.93976 9.59526L2.19905 9.59706C1.62753 9.59843 1.39577 9.62116 1.18449 9.69653ZM10.9898 20.9143C10.801 21.0921 10.6347 21.2508 10.6202 21.2669C10.6057 21.2829 9.92931 21.921 9.11716 22.6847C8.30505 23.4484 6.96986 24.7051 6.15004 25.4774L4.65954 26.8816H2.32975H0L0.016317 28.8038C0.0323172 30.6943 0.0345879 30.7299 0.155144 30.9632C0.436494 31.5077 0.878849 31.847 1.44921 31.9559C1.63883 31.992 3.21493 32.0062 5.90418 31.996L10.0657 31.9802L10.3678 31.834C10.7638 31.6424 11.1122 31.268 11.2509 30.8853C11.3586 30.5878 11.3598 30.5213 11.3465 25.5876L11.3331 20.591L10.9898 20.9143Z" fill="#25AD3A"/>
<path d="M2.00822 2.36703C2.53718 1.21953 3.55053 0.386737 4.78751 0.0828356C5.26535 -0.0345697 6.19325 -0.0258447 6.67178 0.100558C8.55574 0.598099 9.77793 2.20987 9.77651 4.1948C9.77566 5.39083 9.35871 6.38722 8.51534 7.20884C7.71686 7.98667 6.78051 8.36211 5.6588 8.35421C3.31221 8.33768 1.44811 6.29637 1.61155 3.92215C1.65279 3.3235 1.75861 2.90863 2.00822 2.36703Z" fill="#ED1C34"/>
</svg>
