<svg width="30" height="23" viewBox="0 0 30 23" fill="none" xmlns="http://www.w3.org/2000/svg">
<g id="Group">
<g id="Group_2">
<path id="Vector" d="M10.3483 15.9591C9.95526 15.9591 9.5419 15.9145 9.10822 15.8238C8.67453 15.7345 8.27338 15.5951 7.90474 15.407C7.68384 15.292 7.53069 15.1432 7.44395 14.9591C7.35857 14.7751 7.3274 14.5897 7.3518 14.4016C7.37619 14.2135 7.44802 14.0484 7.56593 13.905C7.68519 13.7616 7.83834 13.6655 8.02672 13.6168C8.2151 13.568 8.41975 13.6005 8.64065 13.7142C8.91035 13.8455 9.19089 13.9429 9.48227 14.0092C9.7723 14.0741 10.0447 14.1066 10.2995 14.1066C10.7169 14.1066 11.0408 14.0173 11.2699 13.8373C11.4989 13.6574 11.6141 13.4043 11.6141 13.0768C11.6141 12.7575 11.503 12.5031 11.2821 12.3109C11.0612 12.1188 10.7657 12.0227 10.3971 12.0227C10.2331 12.0227 10.0555 12.0471 9.8631 12.0958C9.67065 12.1445 9.47143 12.2392 9.26679 12.3773C9.16921 12.426 9.04317 12.4814 8.89273 12.5423C8.74094 12.6032 8.58373 12.6344 8.41974 12.6344C7.84647 12.6344 7.56051 12.3691 7.56051 11.8373V8.13639C7.56051 7.49904 7.88035 7.17969 8.51868 7.17969H12.3758C13.006 7.17969 13.3217 7.48551 13.3217 8.09985C13.3217 8.70472 13.006 9.00783 12.3758 9.00783H9.68556V10.5288C10.0623 10.3326 10.496 10.2352 10.988 10.2352C11.5369 10.2352 12.0193 10.3515 12.4367 10.5843C12.8542 10.817 13.1794 11.1418 13.4139 11.5599C13.647 11.9767 13.7636 12.4639 13.7636 13.0187C13.7636 13.6073 13.624 14.1242 13.3461 14.5694C13.0669 15.0146 12.6739 15.3583 12.1671 15.5992C11.6588 15.8387 11.053 15.9591 10.3483 15.9591Z" fill="#EFE9E2"/>
<path id="Vector_2" d="M29.7283 7.33418C29.548 7.15827 29.2987 7.07031 28.9788 7.07031C28.6915 7.07031 28.4652 7.12579 28.2971 7.2354C28.1291 7.34636 27.9719 7.52769 27.8242 7.78073L25.405 12.1339L22.9859 7.78073C22.8463 7.52769 22.6904 7.34501 22.5196 7.2354C22.3475 7.12444 22.1226 7.07031 21.8434 7.07031C21.4991 7.07031 21.2335 7.15827 21.0451 7.33418C21.037 7.3423 21.0316 7.35177 21.0234 7.35989L24.1907 13.5764L24.5078 14.1231C24.6135 14.3031 24.7328 14.4384 24.8643 14.5277C24.9957 14.6184 25.1624 14.663 25.3671 14.663C25.5798 14.663 25.7492 14.6184 25.8766 14.5277C26.004 14.437 26.1247 14.3031 26.2385 14.1231L27.9583 11.1312V14.9079C27.9583 15.2354 28.0464 15.4884 28.2226 15.6684C28.3988 15.8484 28.6509 15.9377 28.9775 15.9377C29.3136 15.9377 29.567 15.847 29.7391 15.6684C29.9113 15.4884 29.9966 15.2354 29.9966 14.9079V8.10144C29.998 7.76585 29.9072 7.5101 29.7283 7.33418Z" fill="#EFE9E2"/>
<path id="Vector_3" d="M15.2869 15.935C14.902 15.935 14.6188 15.8037 14.4399 15.5426C14.2596 15.2814 14.2596 14.9539 14.4399 14.5615L17.4973 7.98912C17.6451 7.66977 17.8253 7.43702 18.0381 7.29088C18.2509 7.14338 18.5002 7.07031 18.7876 7.07031C19.0654 7.07031 19.312 7.14338 19.5248 7.29088C19.7376 7.43838 19.9179 7.67112 20.0656 7.98912L23.123 14.5615C23.3114 14.9621 23.3196 15.2909 23.1474 15.5493C22.9753 15.8064 22.7056 15.935 22.337 15.935C22.009 15.935 21.7569 15.8619 21.5821 15.7144C21.4059 15.5669 21.2487 15.3301 21.1091 15.0027L20.7161 14.0703H16.8468L16.4538 15.0027C16.3061 15.3301 16.1543 15.5669 15.9998 15.7144C15.8439 15.8619 15.6068 15.935 15.2869 15.935ZM18.7632 9.53445L17.5841 12.3423H19.9666L18.7876 9.53445H18.7632Z" fill="#EFE9E2"/>
</g>
<g id="Group_3">
<path id="Vector_4" d="M14.8469 21.3146C14.8469 21.73 14.5731 22.0846 14.195 22.2077C14.191 22.2077 14.1882 22.2077 14.1869 22.2104C14.1408 22.2212 14.092 22.2321 14.0446 22.2415C13.2694 22.412 12.4779 22.5 11.681 22.5C5.60536 22.5 0.664062 17.5663 0.664062 11.5C0.664062 5.4364 5.60536 0.5 11.681 0.5C12.1974 0.5 12.6202 0.922192 12.6202 1.43911C12.6202 1.95737 12.1974 2.37821 11.681 2.37821C6.64349 2.37821 2.54381 6.46888 2.54381 11.4986C2.54381 16.5284 6.64213 20.6218 11.681 20.6218C12.3763 20.6218 13.0566 20.546 13.7193 20.3958C13.7803 20.3836 13.8427 20.3769 13.9077 20.3769C14.4268 20.3769 14.8469 20.7963 14.8469 21.3146Z" fill="#EFE9E2"/>
</g>
<path id="Vector_5" d="M16.3414 21.3283C16.8578 21.3283 17.2765 20.9103 17.2765 20.3946C17.2765 19.879 16.8578 19.4609 16.3414 19.4609C15.8249 19.4609 15.4062 19.879 15.4062 20.3946C15.4062 20.9103 15.8249 21.3283 16.3414 21.3283Z" fill="#D6703A"/>
</g>
</svg>
