<svg width="230" height="208" viewBox="0 0 230 208" fill="none" xmlns="http://www.w3.org/2000/svg">
<path opacity="0.5" fill-rule="evenodd" clip-rule="evenodd" d="M137.124 0.616317C134.609 1.52152 130.393 4.38338 125.388 8.58311L121.081 12.1967L115.061 14.6011C111.75 15.9236 107.388 17.8342 105.369 18.8472C101.851 20.6112 100.784 20.9194 80.0222 26.1709C59.226 31.4317 58.1189 31.6737 52.6845 32.1514C46.5713 32.6891 47.2226 32.7535 40.7281 30.967C35.42 29.5067 31.7237 30.4883 29.6726 33.9032C29.1717 34.7364 27.6461 36.9123 26.2822 38.7384C21.6966 44.8774 19.385 50.8071 19.385 56.4295C19.385 59.1284 19.3277 59.3449 18.2393 60.7711C16.6728 62.8229 15.8237 66.0683 16.0689 69.0669C16.2343 71.088 16.0515 72.1746 14.619 77.6869C10.1289 94.9662 8.47614 104.563 8.47102 113.387C8.46829 118.236 7.39077 127.591 6.24164 132.742C4.15957 142.075 2.64524 153.729 0.984634 173.193C-0.179498 186.839 -0.24906 189.379 0.449624 192.676C1.42417 197.274 3.80529 200.472 7.69596 202.411C10.1333 203.625 12.065 204.114 16.6571 204.682C18.6263 204.925 21.9254 205.518 23.9887 205.999C32.1666 207.908 34.9307 208.11 50.7559 207.957C67.7944 207.792 83.1422 207.797 95.9368 207.971C106.254 208.112 109.309 207.787 116.567 205.775C120.398 204.713 120.625 204.691 126.455 204.801C135.578 204.973 141.243 204.191 146.914 201.978C148.509 201.355 152.764 200.208 156.371 199.429C168.428 196.823 179.692 193.426 190.725 189.069C198.21 186.113 210.601 179.993 216.817 176.182C219.349 174.63 222.596 172.783 224.033 172.079C228.115 170.075 230.463 167.622 229.924 165.923C229.799 165.53 228.824 164.27 227.758 163.125C223.718 158.783 221.226 154.197 217.086 143.489C212.744 132.258 210.105 127.208 206.457 123.147C204.398 120.856 196.575 104.825 194.159 97.9477C190.603 87.8269 186.818 80.2382 182.371 74.3177C180.541 71.8807 180.028 70.9274 179.843 69.6155C179.508 67.2466 178.073 61.8819 177.032 59.1056C174.804 53.166 171.648 47.6936 163.463 35.5806L157.934 27.398L157.191 23.8181C156.592 20.9354 155.985 19.3085 154.077 15.465C147.36 1.93815 143.309 -1.60969 137.124 0.616317Z" fill="#1E1915"/>
</svg>
