<svg width="213" height="230" viewBox="0 0 213 230" fill="none" xmlns="http://www.w3.org/2000/svg">
<path opacity="0.5" fill-rule="evenodd" clip-rule="evenodd" d="M96.2917 0.0739115C95.4684 0.257102 94.5224 0.724728 93.5045 1.45173C91.7401 2.71189 88.0263 6.56345 85.2297 10.0332C83.1431 12.6221 81.2328 14.6668 75.4442 20.5076C67.7494 28.272 56.3631 38.8356 55.0762 39.4041C53.4431 40.1257 51.7377 41.8036 50.5906 43.8175C50.0606 44.7481 49.565 45.1889 45.0324 48.7604C38.0731 54.2442 37.9067 54.3533 31.0486 57.9265C25.0985 61.0267 23.0416 62.3571 20.5721 64.7027C19.3148 65.8968 17.8643 67.7094 17.1385 68.9933C16.812 69.5708 16.6162 69.7306 16.141 69.8078C14.3576 70.0973 13.8887 70.2785 13.2404 70.9283C12.7149 71.455 12.0548 71.798 10.0109 72.6066C8.59794 73.1657 6.49173 73.849 5.33043 74.1253C2.61409 74.7715 1.63522 75.1735 0.89892 75.9455C-0.267107 77.1681 -0.296499 78.651 0.79757 81.055C1.07375 81.6617 1.59958 83.2818 1.96613 84.655C2.91899 88.2254 3.5183 89.6304 4.64091 90.9265C4.9703 91.3066 5.42992 92.4374 6.16943 94.6868C8.51196 101.812 11.9361 109.46 15.2277 114.919C16.6949 117.352 19.0829 122.575 24.3618 134.897C27.4625 142.135 29.8506 146.584 32.6154 150.272C33.3615 151.268 34.9005 153.725 36.0353 155.732C37.6783 158.639 38.2025 159.73 38.6089 161.092C40.8367 168.556 44.9057 176.102 50.3822 182.926C51.7002 184.568 51.7823 184.718 51.7823 185.483C51.7823 187.45 52.6619 189.433 54.4544 191.507C55.3451 192.538 56.0152 193.622 57.4371 196.332C58.4457 198.254 61.8191 204.321 64.9336 209.815C70.381 219.425 70.6049 219.855 70.8244 221.129C71.269 223.709 71.748 224.587 74.029 227C78.1675 231.379 81.374 231.022 87.0908 225.546L88.7007 224.004L90.3793 223.792C93.4255 223.408 95.2373 222.59 96.2587 221.137C96.7575 220.428 96.7729 220.421 98.047 220.309C101.97 219.967 104.101 219.017 105.922 216.8C106.362 216.264 106.818 215.826 106.936 215.826C107.054 215.826 108.508 215.145 110.167 214.312C113.164 212.808 115.984 211.048 118.139 209.335L119.264 208.441L119.94 208.829C120.71 209.272 121.686 209.334 122.355 208.984C122.606 208.853 123.357 208.141 124.023 207.403L125.235 206.06L127.148 205.605C130.371 204.839 133.099 203.604 136.663 201.297C140.308 198.938 143.258 197.159 144.87 196.348C145.797 195.882 149.195 193.977 152.42 192.115L158.284 188.73L160.226 186.691L162.169 184.652L163.297 184.496C165.355 184.211 166.897 183.393 170.095 180.887C171.085 180.111 172.417 179.273 173.456 178.77C176.333 177.379 178.064 175.841 179.104 173.753C179.738 172.477 181.307 171.238 182.608 170.984C184.866 170.544 186.298 169.448 188.6 166.396C189.412 165.321 191.692 162.499 193.668 160.124L197.259 155.807L198.196 155.682C199.852 155.462 201.152 155.062 202.709 154.294C205.421 152.955 207.359 150.991 208.901 148.019C209.287 147.274 209.655 146.626 209.718 146.579C209.78 146.533 210.073 145.523 210.367 144.336C210.792 142.627 211.023 142.02 211.479 141.421C212.796 139.692 213.202 137.486 212.911 133.642C212.805 132.253 212.757 130.501 212.803 129.748L212.887 128.379L211.936 127.045C210.789 125.435 208.9 123.629 207.737 123.031C206.729 122.512 206.485 122.242 203.932 118.813C201.522 115.575 200.402 114.327 198.904 113.211C198.037 112.565 197.689 112.186 197.541 111.727C196.917 109.795 195.625 108.216 194.007 107.411C192.745 106.783 187.566 102.141 187.362 101.456C186.931 100.004 186.436 99.2136 185.194 97.9902C184.1 96.913 183.801 96.4918 183.301 95.32C181.935 92.1208 179.578 89.3817 177.106 88.1182C175.942 87.5236 175.279 86.8995 167.931 79.4844C163.574 75.0885 159.602 70.9686 159.103 70.3293C158.604 69.69 157.462 67.9376 156.565 66.4352C153.515 61.3272 151.631 58.9495 149.49 57.507C148.12 56.5836 144.839 53.0058 144.048 51.5719C143.021 49.7114 141.892 48.4204 140.447 47.4567C139.216 46.6351 139.071 46.4632 136.524 42.7942C130.784 34.5277 127.699 31.1601 123.159 28.207C121.731 27.2778 121.629 27.1712 121.282 26.2476C119.996 22.8185 117.97 20.1471 113.749 16.3159C112.455 15.1409 112.096 14.7147 112.009 14.2478C111.68 12.4945 110.505 10.9773 108.833 10.1492C107.587 9.53175 106.721 8.66913 103.141 4.47708C101.724 2.81804 100.256 1.23637 99.8788 0.962266C98.8175 0.191918 97.3712 -0.166335 96.2917 0.0739115Z" fill="#FAF8F5"/>
</svg>
