<svg width="230" height="216" viewBox="0 0 230 216" fill="none" xmlns="http://www.w3.org/2000/svg">
<path opacity="0.5" fill-rule="evenodd" clip-rule="evenodd" d="M86.5064 0.271783C85.5469 0.801226 84.6524 1.82322 83.8148 3.34687C81.5909 7.39243 81.4256 7.60086 79.8936 8.28841C78.0918 9.09695 76.5174 10.7842 75.9473 12.5175C75.6708 13.3577 74.5661 15.065 72.5811 17.7209C70.0372 21.1242 69.4009 21.8228 68.0047 22.7449C67.1125 23.3339 65.2434 24.951 63.8506 26.3384C61.081 29.0972 59.084 31.9052 57.1497 35.76C56.0379 37.9758 55.8649 38.1866 54.0691 39.5181C52.826 40.44 51.9418 41.3125 51.518 42.0353C50.9275 43.0429 50.88 43.304 50.9859 44.9537L51.1021 46.7658L49.9376 48.1145C49.2972 48.8565 47.8787 50.5037 46.7856 51.7753C44.4879 54.448 43.406 56.4215 42.9001 58.8639C42.443 61.0701 39.3797 67.7631 35.5629 74.895C31.3664 82.7365 29.6224 87.048 28.8654 91.4541C28.6394 92.7679 28.4265 93.2418 27.7092 94.0259C25.5222 96.4165 23.5834 99.96 21.8578 104.721C18.0154 115.323 14.8936 123.311 14.2952 124.073C12.9452 125.792 12.3607 127.755 12.3607 130.57C12.3607 131.708 12.1654 132.342 11.1763 134.419C9.29473 138.369 8.51087 141.493 6.99082 151.098L6.18564 156.187L4.86564 157.926C2.27497 161.338 1.32126 163.924 1.22016 167.81C1.16961 169.761 1.00527 170.911 0.587467 172.242C-0.236161 174.864 -0.191123 177.621 0.706052 179.479C1.72972 181.599 3.90737 183.44 7.4242 185.156C17.6379 190.142 20.7124 191.069 28.9418 191.645C30.956 191.786 33.568 192.075 34.7465 192.287C36.6048 192.623 37.0813 192.816 38.3399 193.743C42.5831 196.871 47.2252 198.111 54.7035 198.113L58.5957 198.115L59.7957 198.977C62.3758 200.831 64.7835 201.251 69.9533 200.752L73.1472 200.444L74.197 201.163C76.7613 202.92 79.2992 203.842 81.9625 203.985C83.0211 204.042 86.3631 204.614 89.3891 205.257C93.9923 206.234 95.0672 206.543 95.9692 207.148C96.5621 207.546 97.6941 208.125 98.4846 208.435C99.838 208.964 100.329 209.006 106.869 209.14C113.63 209.278 113.862 209.299 115.499 209.916C118.542 211.064 120.717 211.291 128.679 211.291H135.932L139.206 212.496C144.186 214.329 146.69 214.759 149.153 214.206C149.614 214.102 153.657 214.092 158.137 214.184C165.64 214.336 166.499 214.398 169.037 214.961C182.051 217.852 188.354 214.798 190.249 204.685C190.881 201.309 190.759 198.624 189.758 193.877L188.889 189.759L190.305 187.648C194.5 181.393 196.342 176.748 196.346 172.411C196.347 170.84 196.595 169.667 197.912 165.01C199.435 159.622 199.564 159.295 202.8 152.623C208.293 141.297 210.45 135.071 211.323 128.024C211.463 126.888 211.532 126.787 212.355 126.494C214.351 125.783 215.635 124.164 215.893 122.033C215.972 121.385 216.752 119.155 217.627 117.079L219.217 113.303L223.071 109.114C225.19 106.81 227.379 104.535 227.934 104.06C229.63 102.609 230.008 101.627 230 98.6946C229.994 96.4539 229.925 96.0483 229.366 94.9813C227.837 92.0574 225.027 88.959 221.262 86.0452C218.977 84.2767 214.555 80.2239 211.745 77.3242C208.565 74.0424 205.137 71.5974 201.092 69.7259C199.665 69.0661 197.924 67.8791 194.937 65.5303C187.39 59.596 183.272 56.8664 178.27 54.482C174.811 52.833 172.376 51.9742 169.196 51.2809C168.031 51.0272 167.061 50.784 167.04 50.7404C164.976 46.5703 164.785 46.2723 163.056 44.5301C160.098 41.5494 156.512 39.7982 150.715 38.5041L148.09 37.9183L147.519 36.8633C145.696 33.4911 143.633 31.2337 140.452 29.1303C138.028 27.528 136.156 26.587 131.414 24.5888C127.11 22.775 125.636 22.0894 124.478 21.363C124.016 21.0736 123.418 20.8367 123.149 20.8362C122.169 20.8343 118.888 18.3347 115.191 14.773C111.484 11.2018 109.566 9.69228 107.77 8.93237C106.525 8.40556 104.604 7.90487 103.815 7.90151C103.383 7.8996 103.156 7.77167 103.156 7.52971C103.156 6.86802 102.237 5.33863 101.43 4.65826C100.354 3.75149 99.4808 3.41874 96.3702 2.7307C94.5306 2.32367 93.0455 1.80885 91.5727 1.06715C89.8596 0.204465 89.1981 -0.00563576 88.2125 0.000113853C87.5377 0.00418649 86.7699 0.126366 86.5064 0.271783Z" fill="#1E1915"/>
</svg>
