<svg width="214" height="230" viewBox="0 0 214 230" fill="none" xmlns="http://www.w3.org/2000/svg">
<path opacity="0.5" fill-rule="evenodd" clip-rule="evenodd" d="M142.862 0.396193C142.304 0.614837 141.272 1.14055 140.568 1.56448C139.864 1.98842 138.703 2.50253 137.989 2.70717C135.647 3.37776 133.981 4.34361 132.653 5.7997C131.975 6.54252 130.733 7.6434 129.891 8.24637C127.879 9.68911 116.879 16.4699 114.398 17.7975C109.59 20.3703 104.716 23.8454 101.175 27.2259C99.2722 29.0427 98.5218 29.5529 93.0098 32.777C89.6714 34.7294 85.2463 37.1161 83.1762 38.0804C71.3023 43.6118 59.4068 50.4749 49.0059 57.7947C47.1251 59.1186 46.4016 59.5089 45.8288 59.5089C42.9533 59.5089 38.5297 61.8496 35.0523 65.2113C33.8356 66.3875 18.5553 76.1552 17.6797 76.3165C17.3792 76.3718 16.9367 76.5846 16.6964 76.789C16.456 76.9936 15.4726 77.4819 14.5111 77.8743C11.0137 79.3011 7.81229 81.3799 5.99658 83.4026C4.60874 84.9484 2.00459 88.8801 1.16503 90.6968C0.201339 92.7822 -0.0995683 94.5051 0.0276123 97.2089C0.244606 101.821 1.77143 105.022 11.1188 120.459C13.6558 124.649 16.5108 129.62 17.4632 131.506C21.1285 138.763 25.0186 143.587 29.6834 146.657C31.2325 147.676 31.3969 147.869 33.2497 150.837C37.8505 158.206 41.2258 162.785 44.6599 166.314C47.332 169.06 53.351 176.437 57.6964 182.291C61.9919 188.078 65.0132 191.756 67.8608 194.666C68.9261 195.754 73.9277 200.28 78.9755 204.723C93.3445 217.371 98.0275 221.584 100.5 224.086C103.086 226.704 105.232 228.23 107.681 229.194C109.825 230.038 113.09 230.246 115.459 229.689C117.146 229.293 120.61 227.729 121.778 226.836C123.786 225.303 124.902 222.44 124.688 219.378L124.565 217.617L125.604 216.398C128.11 213.457 129.003 211.89 129.481 209.592C129.775 208.181 129.941 207.886 131.471 206.06C133.978 203.067 135.622 200.345 137.056 196.808C137.407 195.945 138.158 194.827 139.183 193.643C143.371 188.803 147.786 182.234 151.032 176.014C152.289 173.604 154.046 170.81 156.791 166.858C158.963 163.73 164.442 155.655 168.967 148.914C175.062 139.836 177.824 135.92 179.622 133.813C184.205 128.44 186.249 124.711 186.718 120.864C186.972 118.785 187.735 117.6 190.467 115.045C192.854 112.812 192.945 112.753 194.131 112.63C196.555 112.38 197.405 111.321 198.17 107.599C198.411 106.426 198.75 105.196 198.923 104.866C199.339 104.073 200.728 102.773 202.908 101.134C203.886 100.399 205.044 99.3794 205.481 98.8681C206.259 97.9576 206.921 96.2851 206.921 95.2299C206.921 94.8587 207.544 94.0433 208.989 92.5211C212.593 88.7247 213.977 86.1955 213.999 83.3649C214.01 81.9585 213.912 81.5099 213.313 80.2326C212.539 78.5843 210.734 76.5469 208.809 75.1497C207.766 74.3927 207.594 74.1576 207.377 73.1913C206.817 70.6919 205.23 68.3908 203.273 67.2422C202.413 66.7373 202.293 66.555 201.876 65.1238C201.625 64.2626 201.216 62.9177 200.968 62.1352C200.17 59.6205 198.385 58.4135 195.959 58.7479C194.937 58.8886 194.834 58.8525 193.668 57.9515C192.958 57.4032 192.089 56.4411 191.593 55.6554C190.595 54.0723 189.102 52.627 187.917 52.0951C186.54 51.4777 183.291 47.3031 181.78 44.2088C180.056 40.6794 178.455 38.6239 173.494 33.5736C169.828 29.8407 169.089 28.9749 168.473 27.6921C167.635 25.9447 166.051 24.2577 163.676 22.5817C161.633 21.14 160.633 19.7111 160.247 17.6796C159.584 14.1957 157.731 12.0029 153.372 9.5451C152.45 9.02552 152.325 8.84343 151.649 7.05291C150.188 3.17904 148.808 1.10662 147.168 0.327251C146.194 -0.135644 144.136 -0.102814 142.862 0.396193Z" fill="#1E1915"/>
</svg>
