<svg width="230" height="227" viewBox="0 0 230 227" fill="none" xmlns="http://www.w3.org/2000/svg">
<path opacity="0.5" fill-rule="evenodd" clip-rule="evenodd" d="M184.141 0.225841C181.973 0.542433 179.348 1.32661 174.939 2.97541C171.268 4.34871 170.757 4.4747 168.003 4.6851C164.495 4.95318 162.558 5.39601 160.695 6.35569C159.721 6.85768 158.79 7.10595 157.428 7.22749C154.254 7.51091 151.072 8.7201 149.216 10.3484C148.449 11.0209 148.204 11.0927 146.666 11.0937C144.693 11.0947 143.607 11.6061 143.088 12.7791C142.783 13.4685 142.545 13.5749 139.651 14.3177C130.647 16.6297 124.086 19.4986 118.949 23.3707C117.246 24.6539 116.287 25.1663 114.288 25.8616C102.598 29.9275 92.7849 34.8697 85.1402 40.5414C83.1436 42.0228 80.9203 43.2818 75.5727 45.9588C71.7412 47.8769 67.6642 49.7869 66.5128 50.2032C63.6719 51.2305 61.1107 52.7818 58.8602 54.8382C57.8267 55.7828 56.3495 56.9165 55.5778 57.3576C54.6964 57.8618 53.6917 58.7524 52.8745 59.7547C51.6188 61.2943 51.5013 61.3716 49.4683 61.9864C44.3325 63.5397 41.3071 65.7489 40.4066 68.6034C39.9072 70.1864 39.1442 70.7688 33.8618 73.5986C27.7542 76.8704 25.2381 78.9004 23.4761 81.978C22.6586 83.4057 22.2127 83.608 19.8655 83.6179C18.487 83.6236 17.1317 84.0384 16.3875 84.6827C15.735 85.2474 14.5395 88.1526 14.5395 89.1734C14.5395 89.6903 14.3733 89.7836 13.0326 90.0197C10.03 90.5482 7.67987 92.077 6.10857 94.5236C5.37184 95.6709 5.2569 95.7481 4.28583 95.7481C2.75838 95.7481 1.14869 96.6508 0.519472 97.86L0 98.8581L1.54182 103.118L3.08389 107.378L2.76061 108.926L2.43733 110.474L3.97569 112.084C4.8219 112.97 7.04322 115.439 8.91154 117.571C12.4532 121.612 14.3072 123.332 17.0167 125.092C18.5977 126.118 21.4012 127.429 22.0257 127.435C22.2001 127.436 22.6462 128.244 23.0173 129.229C25.1603 134.921 29.1018 139.68 37.8254 147.106C44.0665 152.42 44.9191 153.238 46.6921 155.617C50.556 160.801 55.313 165.651 64.5793 173.853C73.093 181.389 76.3783 184.672 77.2027 186.466C78.0375 188.283 78.7116 188.926 80.5707 189.681C81.9619 190.246 82.0211 190.309 82.555 191.782C83.7004 194.943 85.5227 197.096 90.8378 201.569C94.9901 205.062 95.5497 205.64 100.922 211.983C107.815 220.123 110.911 223.273 113.948 225.233C119.819 229.025 125.146 226.812 132.235 217.636C134.069 215.261 134.252 215.102 135.728 214.567C142.102 212.259 147.345 208.111 150.895 202.564C151.665 201.363 152.242 200.941 158.256 197.186C162.921 194.274 166.408 192.319 170.48 190.334C176.76 187.272 182.104 184.179 186.458 181.085L189.307 179.06L191.165 179.009C194.766 178.909 197.16 177.417 199.588 173.76C200.02 173.109 202.046 172.466 208.258 171.008C218.797 168.535 223.124 166.201 226.487 161.175C229.233 157.071 230.45 151.822 229.85 146.666C229.314 142.063 227.908 137.915 224.388 130.554C222.36 126.313 222.327 126.077 223.015 120.541C223.24 118.73 223.337 116.832 223.245 116.046C223.028 114.206 222.08 112.194 220.796 110.847C219.396 109.38 219.063 107.972 219.436 105.1C220.176 99.4044 218.699 91.9507 215.418 84.8122C214.18 82.1213 214.122 81.8973 213.946 79.1636C213.742 76.007 213.396 74.9392 212.119 73.5268C211.42 72.7525 211.036 71.7867 209.734 67.5296C208.616 63.8766 207.748 61.5862 206.634 59.352L205.087 56.2489L205.466 54.7726C205.985 52.7506 205.636 50.6567 204.077 46.4442C202.504 42.1919 202.38 41.6971 202.075 38.4438C201.667 34.0972 200.421 30.4597 197.946 26.3873C197.141 25.064 197.034 24.7051 197.084 23.4922C197.205 20.51 196.288 17.0794 194.766 14.8188C194.105 13.8368 193.887 13.1791 193.641 11.4187C193.221 8.41118 192.327 4.97719 191.58 3.50537C190.696 1.76078 189.284 0.564711 187.714 0.228069C186.297 -0.0756507 186.207 -0.0756508 184.141 0.225841Z" fill="#1E1915"/>
</svg>
