<svg width="166" height="56" fill="none" xmlns="http://www.w3.org/2000/svg"><g id="Mask group" opacity="0.6"><mask id="mask0_9437_118258" style="mask-type:alpha" maskUnits="userSpaceOnUse" x="0" y="0" width="166" height="56"><rect id="Rectangle 1261254327" x="0.5" y="0.109375" width="165" height="55" fill="#D9D9D9"/></mask><g mask="url(#mask0_9437_118258)"><path id="logo 1 (Traced)" fill-rule="evenodd" clip-rule="evenodd" d="M140.59 15.6717L139.181 16.9371V19.6029V22.2689L138.656 22.5664C138.367 22.73 136.84 23.5309 135.261 24.3463C133.683 25.1616 132.202 25.9274 131.971 26.0481C131.417 26.3379 129.593 27.2804 125.673 29.3039C123.904 30.2175 122.403 31.012 122.339 31.0696C122.201 31.1939 122.151 33.0556 122.283 33.1742C122.333 33.2192 122.969 32.9368 123.697 32.5464C124.425 32.1562 125.056 31.8368 125.101 31.8368C125.145 31.8368 125.182 33.7906 125.182 36.1787V40.5205H119.8C116.833 40.5205 114.384 40.5705 114.342 40.6318C114.3 40.6931 114.547 40.9763 114.891 41.2611L115.516 41.7791H120.405H125.295L128.048 42.9747C129.562 43.6322 130.823 44.1703 130.852 44.1703C130.88 44.1703 132.215 44.7412 133.817 45.4391C137.967 47.2458 139.383 47.8201 139.686 47.8188C139.832 47.8182 140.707 47.5031 141.631 47.1186C142.555 46.734 145.709 45.4319 148.639 44.2251L153.968 42.0308H159.112H164.257L164.878 41.5636C165.22 41.3067 165.5 41.0236 165.5 40.9343C165.5 40.8048 164.375 40.7723 159.898 40.7723H154.296L154.333 37.2799L154.37 33.7875L155.979 33.0034C156.864 32.5722 157.603 32.1758 157.621 32.1224C157.66 32.0054 157.252 31.3569 155.755 29.1609C154.379 27.1415 150.086 20.7799 148.984 19.1257C148.546 18.4681 148.087 17.9126 147.964 17.8912C147.842 17.8698 147.155 18.1672 146.437 18.5519C145.72 18.9367 145.053 19.2516 144.957 19.2516C144.829 19.2516 144.779 18.9476 144.775 18.1503L144.769 17.0491L143.384 15.7277L142 14.4062L140.59 15.6717ZM6.55036 20.0136C4.41474 20.2136 1.28348 21.1221 1.2881 21.5404C1.29034 21.732 2.06633 23.7704 2.17385 23.8671C2.21361 23.9027 2.83336 23.735 3.55112 23.4944C4.26887 23.2538 5.32863 22.9824 5.90611 22.8914C7.30199 22.6716 9.53281 22.6975 10.6999 22.9471C12.8559 23.4081 14.7395 24.6595 15.6703 26.2492C16.1281 27.031 16.8247 29.1173 16.8253 29.7086L16.8257 30.0347L13.5708 30.1174C11.7807 30.1629 9.29006 30.2002 8.03627 30.2004L5.75659 30.2007L5.79635 31.5536L5.83611 32.9065L11.4009 32.9393L16.9657 32.9723L16.9653 33.3798C16.9647 34.0662 16.293 36.1259 15.7448 37.1225C15.0472 38.3908 13.6132 39.6989 12.3103 40.2556C9.87748 41.2953 6.89573 41.2757 3.54118 40.1977C2.80145 39.96 2.15145 39.7654 2.09671 39.7654C2.04184 39.7654 1.92704 40.0062 1.8415 40.3003C1.75597 40.5944 1.55493 41.1635 1.39492 41.5649C1.22245 41.9973 1.15525 42.3404 1.23001 42.4068C1.51924 42.6636 3.79345 43.3068 5.24015 43.541C7.33447 43.88 10.2598 43.8819 11.9528 43.5454C15.2041 42.899 17.7523 41.1429 19.2638 38.5069C20.4215 36.4882 20.8854 34.5972 20.8848 31.8997C20.8841 29.0261 20.4278 27.1753 19.187 25.0156C18.3124 23.4935 16.5262 21.9111 14.7641 21.0976C14.0537 20.7696 12.9827 20.3881 12.3842 20.2497C11.0919 19.9509 8.38807 19.8414 6.55036 20.0136ZM57.0895 20.019C54.3423 20.2795 51.3052 21.7522 49.6445 23.6293C48.7673 24.6208 47.6987 26.625 47.2464 28.127C46.8974 29.2861 46.868 29.5712 46.8639 31.8368C46.8601 33.9721 46.9003 34.436 47.1736 35.4078C48.347 39.5816 51.2165 42.342 55.5342 43.4506C57.0711 43.8452 60.325 43.8944 61.958 43.5477C63.4977 43.2208 65.5155 42.3637 66.5796 41.5844C68.4318 40.2281 69.9658 37.9713 70.6822 35.5494C71.0252 34.3894 71.0541 34.0987 71.0515 31.8368C71.0488 29.5916 71.0172 29.2755 70.6792 28.1241C69.9346 25.5867 68.2443 23.1882 66.3467 21.9762C63.5745 20.2059 60.9569 19.6524 57.0895 20.019ZM26.0996 31.9941L26.1353 43.3522H27.8853H29.6352L29.6717 37.972C29.6918 35.013 29.7464 32.5919 29.793 32.5919C30.05 32.5919 32.6902 34.475 34.535 35.9743C36.6309 37.6777 39.3911 40.514 40.8726 42.487C41.1909 42.9109 41.5541 43.2932 41.6795 43.3365C41.9773 43.4392 45.5914 43.4391 45.7056 43.3362C45.8231 43.2308 45.4784 42.6461 44.7137 41.6532C42.1436 38.3164 37.6017 33.9552 34.57 31.9134C34.0504 31.5634 33.625 31.242 33.625 31.1993C33.625 31.1565 35.0794 29.8241 36.8572 28.2385C39.8891 25.5338 44.6975 21.0008 44.8012 20.7491C44.8277 20.6851 43.9018 20.6359 42.6725 20.6359H40.497L39.2006 21.863C36.9384 24.0041 29.9261 30.3265 29.8134 30.3265C29.7539 30.3265 29.7052 28.1461 29.7052 25.4812V20.6359H27.8846H26.0638L26.0996 31.9941ZM77.3226 21.7371C76.7531 25.6422 75.729 38.4003 75.7038 41.9049L75.6934 43.3522L77.2833 43.388C78.2405 43.4095 78.9431 43.3715 79.049 43.2926C79.1713 43.2013 79.2538 42.4629 79.3201 40.8656C79.646 33.0257 80.1545 26.2351 80.4052 26.3744C80.6935 26.5346 83.8872 32.5209 86.3745 37.563L87.6159 40.0801H89.1291C90.329 40.0801 90.6666 40.0409 90.7591 39.8913C90.8232 39.7875 91.2933 38.853 91.8037 37.8147C94.3004 32.7363 97.8229 26.0778 97.9516 26.1936C98.1285 26.3526 98.5428 31.8404 98.9376 39.2584C99.0535 41.4366 99.1995 43.265 99.2622 43.3214C99.3248 43.3776 100.095 43.4077 100.974 43.388L102.572 43.3522L102.561 41.7161C102.549 39.8803 102.148 33.2595 101.945 31.5221C101.872 30.8992 101.777 29.9647 101.734 29.4456C101.545 27.1537 100.951 21.1761 100.887 20.9191C100.819 20.6451 100.764 20.6359 99.1749 20.6359H97.5326L96.577 22.1776C94.8976 24.887 91.9944 30.3141 89.491 35.4235L89.1828 36.0528L88.9967 35.7382C88.8944 35.5651 88.2925 34.3758 87.6593 33.0953C85.2824 28.2885 83.204 24.4776 81.5336 21.863L80.7496 20.6359H79.1163H77.4831L77.3226 21.7371ZM61.0609 22.9819C62.7106 23.3107 64.3739 24.3727 65.401 25.7533C67.9953 29.2402 67.751 35.4322 64.8958 38.5623C61.7061 42.0588 55.1498 41.72 52.4449 37.9188C51.3237 36.3433 50.8403 34.7589 50.7426 32.3402C50.5246 26.9435 53.1434 23.3904 57.7807 22.7908C58.7448 22.6662 59.7777 22.7263 61.0609 22.9819ZM1.62059 47.6916C1.21195 47.8401 0.757245 48.3901 0.564052 48.9696C0.250044 49.912 1.14573 51.3438 2.04925 51.3438C2.75161 51.3438 3.80619 50.616 3.80619 50.1312C3.80619 49.8607 3.52228 49.93 3.22115 50.2741C2.39546 51.2178 0.962756 49.9656 1.37826 48.6632C1.63291 47.8651 2.63611 47.7254 2.82931 48.4612C2.94942 48.9183 3.58038 48.8868 3.64015 48.4208C3.71855 47.8093 2.50396 47.3707 1.62059 47.6916ZM4.25417 47.7193C4.06042 47.8935 4.02528 48.5751 4.21007 48.5751C4.27825 48.5751 4.43714 48.4335 4.56328 48.2604C4.70579 48.065 4.92391 47.9458 5.13936 47.9458H5.48612V49.3107C5.48612 50.5157 5.45336 50.7022 5.20613 50.9033C5.05214 51.0286 4.92614 51.179 4.92614 51.2375C4.92614 51.296 5.39863 51.3438 5.9761 51.3438C7.04958 51.3438 7.33307 51.1908 6.67608 50.9663C6.33071 50.8482 6.32609 50.8276 6.32609 49.3963V47.9458H6.6828C6.88859 47.9458 7.18454 48.0866 7.38277 48.2788L7.72604 48.6118V48.1664C7.72604 47.8763 7.64876 47.6944 7.50457 47.6447C7.08514 47.4999 4.43042 47.5608 4.25417 47.7193ZM8.601 47.7749C8.1407 47.9486 8.03039 48.1185 8.28602 48.2604C8.37015 48.3071 8.42601 49.1609 8.42601 50.3989C8.42601 52.3674 8.41313 52.4632 8.13832 52.5416C7.55021 52.7094 7.95339 52.916 8.84963 52.9059C9.77808 52.8956 10.0614 52.7245 9.55451 52.4806C9.32226 52.3689 9.26598 52.2191 9.26598 51.7126C9.26598 51.1294 9.28586 51.0929 9.53673 51.2136C9.8828 51.3799 10.6068 51.3811 10.9507 51.2157C11.0972 51.1451 11.3765 50.8428 11.5715 50.5439C12.6097 48.9511 11.2104 46.814 9.78774 47.82C9.36454 48.1192 9.26598 48.1325 9.26598 47.8903C9.26598 47.6151 9.10092 47.5864 8.601 47.7749ZM13.4639 47.7506C12.9569 47.9986 12.4392 48.895 12.4392 49.5246C12.4392 50.5087 13.3264 51.3438 14.3717 51.3438C15.8004 51.3438 16.7494 49.5126 15.9145 48.3669C15.3998 47.6608 14.2424 47.3697 13.4639 47.7506ZM16.6857 47.7059C16.6857 47.788 16.7942 47.9264 16.9268 48.0135C17.1328 48.1491 17.1618 48.3606 17.1272 49.4743C17.0988 50.3863 17.0266 50.8363 16.8859 50.976C16.6006 51.2594 16.767 51.3438 17.6108 51.3438C18.4003 51.3438 18.6306 51.2162 18.2941 50.9651C17.9503 50.7086 18.0606 50.4343 18.7909 49.7304L19.4856 49.0609V49.9353C19.4856 50.5589 19.4254 50.8545 19.2756 50.9663C19.1601 51.0525 19.0656 51.1727 19.0656 51.2333C19.0656 51.3598 20.7916 51.3862 20.9299 51.262C20.98 51.217 20.8645 51.0497 20.6733 50.8904C20.3501 50.6212 20.3256 50.5166 20.3256 49.4062C20.3256 48.3339 20.3558 48.1927 20.6207 48.026C21.066 47.7456 20.8161 47.5683 19.9756 47.5683C19.1163 47.5683 18.908 47.7278 19.3484 48.0484L19.6526 48.2699L18.9171 49.0517C18.5125 49.4817 18.1285 49.8336 18.0637 49.8336C17.8951 49.8336 17.9174 48.4802 18.0905 48.1892C18.1703 48.0553 18.333 47.9458 18.4523 47.9458C18.5714 47.9458 18.643 47.8751 18.6112 47.7885C18.5325 47.5747 16.6857 47.4955 16.6857 47.7059ZM21.2631 47.6627C21.1064 47.9137 21.0391 48.4419 21.1554 48.5065C21.2274 48.5465 21.3773 48.4626 21.4885 48.3198C21.6003 48.1763 21.8704 48.0489 22.093 48.0345L22.4955 48.0087L22.535 49.3445C22.5739 50.6568 22.5683 50.684 22.2156 50.8918C21.6702 51.2129 21.9156 51.3438 23.0637 51.3438C24.1295 51.3438 24.4107 51.1903 23.7554 50.9663C23.4101 50.8482 23.4054 50.8276 23.4054 49.3963C23.4054 47.9867 23.4141 47.9458 23.7127 47.9458C23.8818 47.9458 24.1968 48.098 24.4127 48.284C24.802 48.6194 24.8054 48.6198 24.8054 48.3386C24.8054 48.1827 24.7401 47.9456 24.6605 47.8117C24.5302 47.5928 24.3542 47.5683 22.9188 47.5683C22.0406 47.5683 21.2956 47.6107 21.2631 47.6627ZM26.0683 47.7299C25.8775 47.8167 25.5756 48.1131 25.3976 48.3887C25.1351 48.7949 25.0834 49.03 25.125 49.6311C25.172 50.3128 25.2227 50.4115 25.7552 50.8582C26.5599 51.533 27.1488 51.5321 27.9018 50.8553C28.2007 50.5864 28.4452 50.275 28.4452 50.1631C28.4452 49.887 28.3468 49.9056 27.8598 50.2741C27.631 50.4471 27.2921 50.5887 27.1068 50.5887C26.6424 50.5887 25.9428 49.9817 25.8376 49.4875L25.7503 49.0785H27.0321C28.4927 49.0785 28.6487 48.9743 28.2067 48.2942C27.765 47.6141 26.8522 47.3733 26.0683 47.7299ZM29.2852 47.7526C29.2852 47.8539 29.4112 47.9975 29.5652 48.0717C29.8106 48.1897 29.8452 48.3352 29.8452 49.2476C29.8452 50.4668 29.6598 50.8363 29.1671 50.5992C28.9172 50.479 28.8459 50.4877 28.7782 50.6462C28.5855 51.0975 29.0182 51.4313 29.6201 51.2955C30.0892 51.1897 30.1648 50.9635 30.2554 49.3931L30.3352 48.0087H30.8252H31.3151L31.3548 49.356C31.3937 50.6754 31.3872 50.7075 31.041 50.9114C30.5232 51.2165 30.7277 51.3438 31.7351 51.3438C32.7222 51.3438 32.9077 51.2425 32.4979 50.927C32.2598 50.7438 32.2251 50.5498 32.2251 49.4028C32.2251 48.1992 32.2486 48.0819 32.5051 48.0087C32.6591 47.9648 32.7851 47.8821 32.7851 47.825C32.7851 47.6269 32.3349 47.5683 30.8137 47.5683C29.5646 47.5683 29.2852 47.602 29.2852 47.7526ZM33.2682 47.7042C33.2168 47.7789 33.3165 47.9293 33.4897 48.0384C33.7916 48.2286 33.8012 48.2891 33.7187 49.5064C33.656 50.4316 33.5746 50.814 33.4188 50.9164C32.9374 51.2329 33.2007 51.3438 34.4338 51.3438C35.787 51.3438 36.1337 51.2167 36.4952 50.5881C36.9004 49.8839 36.3257 49.2428 35.234 49.1811L34.535 49.1414L34.4919 48.6054C34.4598 48.2066 34.5046 48.0535 34.6669 48.0076C35.3972 47.8007 35.3785 47.8128 35.1611 47.6893C34.8748 47.5265 33.3822 47.5383 33.2682 47.7042ZM37.052 47.6984C36.9984 47.7763 37.0874 47.9237 37.2498 48.026C37.5158 48.1935 37.5449 48.3333 37.5449 49.4437C37.5449 50.5157 37.5086 50.7051 37.2649 50.9033C37.1109 51.0286 36.9849 51.179 36.9849 51.2375C36.9849 51.296 37.4259 51.3438 37.9649 51.3438C38.9493 51.3438 39.1852 51.2166 38.6648 50.9663C38.4397 50.8579 38.3849 50.7027 38.3849 50.1738V49.5159L39.1198 49.5175L39.8548 49.519L39.8296 50.1434C39.8134 50.5447 39.7257 50.8196 39.5846 50.9125C39.1341 51.2085 39.3505 51.3438 40.2748 51.3438C41.2044 51.3438 41.4155 51.2085 40.9564 50.9069C40.7828 50.7927 40.7114 50.4681 40.658 49.5495C40.5892 48.3681 40.5957 48.3356 40.9592 48.0327C41.4061 47.6604 41.2557 47.5683 40.2016 47.5683C39.4655 47.5683 39.1988 47.746 39.5694 47.9895C39.8076 48.1462 39.9045 48.8026 39.7273 49.0604C39.6728 49.1395 39.3486 49.2043 39.0066 49.2043H38.3849V48.6464C38.3849 48.1941 38.4393 48.0731 38.6726 48.0066C38.8307 47.9614 38.936 47.8585 38.9065 47.7778C38.8342 47.5811 37.1812 47.5104 37.052 47.6984ZM42.4299 47.7085C41.7688 47.9266 41.5732 48.8268 42.187 48.8268C42.3615 48.8268 42.5101 48.6959 42.6008 48.4618C42.8659 47.7779 43.7747 47.9213 43.6817 48.6323C43.644 48.9205 43.5292 49.0245 43.1037 49.1563C42.8116 49.2467 42.3863 49.4401 42.1587 49.5858C41.8105 49.8086 41.7447 49.9363 41.7447 50.389C41.7447 50.7507 41.8287 50.9956 42.0008 51.1355C42.3529 51.422 43.0449 51.3998 43.3547 51.0921C43.494 50.9537 43.654 50.8404 43.71 50.8404C43.7661 50.8404 43.8449 50.9537 43.8853 51.0921C43.9705 51.3854 44.483 51.4256 44.8596 51.1686C45.1516 50.9693 45.1816 50.7146 44.913 50.7146C44.6755 50.7146 44.5483 50.0717 44.5462 48.8615C44.5446 47.9826 44.5309 47.9459 44.1316 47.7603C43.6722 47.5466 42.9838 47.5257 42.4299 47.7085ZM46.3646 47.7888C45.9442 47.9775 45.8681 48.0802 45.8288 48.5121C45.789 48.9492 45.8421 49.06 46.2318 49.353L46.6807 49.6903L45.9626 50.4324C45.5677 50.8407 45.2446 51.2127 45.2446 51.2593C45.2446 51.3057 45.4966 51.3438 45.8046 51.3438C46.1126 51.3438 46.3646 51.2936 46.3646 51.2322C46.3646 51.0172 47.2762 49.8482 47.4495 49.8409C47.7039 49.8303 47.6746 50.7722 47.4145 50.9663C47.0295 51.2536 47.1968 51.3438 48.1145 51.3438C48.615 51.3438 49.0245 51.3058 49.0245 51.2594C49.0245 51.2129 48.9141 51.0654 48.7795 50.9318C48.5898 50.7436 48.5237 50.411 48.4869 49.4582C48.4424 48.3084 48.4594 48.2149 48.747 48.0339C48.9164 47.9273 49.0127 47.7789 48.9613 47.7042C48.8052 47.477 46.9222 47.5383 46.3646 47.7888ZM51.3411 47.6843C51.2929 47.7544 51.382 47.8839 51.5389 47.972C51.7956 48.1161 51.8243 48.2604 51.8243 49.408C51.8243 50.3885 51.7758 50.72 51.6144 50.8404C51.1639 51.1766 51.3703 51.3438 52.2361 51.3438C53.1095 51.3438 53.4133 51.1919 52.968 50.9777C52.7933 50.8935 52.6738 50.653 52.6148 50.2662C52.4466 49.1627 52.7931 49.2617 53.5915 50.545C54.0699 51.314 54.1088 51.3438 54.6363 51.3438C55.2639 51.3438 55.3519 51.1408 54.8874 50.7655C54.7242 50.6336 54.375 50.2236 54.1116 49.8544L53.6325 49.1828L53.8901 48.7846C54.0823 48.4876 54.264 48.3761 54.6045 48.3463C55.0084 48.3109 55.056 48.2674 55.0176 47.9687C54.9815 47.6873 54.9052 47.6312 54.5598 47.6312C54.2391 47.6312 54.0748 47.7307 53.8327 48.0717C53.364 48.732 52.937 49.2043 52.8088 49.2043C52.6122 49.2043 52.5176 48.6074 52.6607 48.2691C52.7359 48.0913 52.8987 47.9458 53.0226 47.9458C53.1463 47.9458 53.2216 47.8751 53.1899 47.7885C53.1185 47.5941 51.4672 47.5009 51.3411 47.6843ZM56.1419 47.7601C55.5343 48.0568 55.1842 48.6946 55.1842 49.5051C55.1842 50.1641 55.2269 50.2585 55.762 50.7803C56.2741 51.2798 56.4083 51.3438 56.9413 51.3438C58.0066 51.3438 58.8241 50.485 58.8241 49.3657C58.8241 47.9992 57.3992 47.1462 56.1419 47.7601ZM59.1041 47.6931C59.1041 47.7617 59.2301 47.8886 59.3841 47.975C59.6341 48.1153 59.664 48.2685 59.664 49.4039C59.664 50.5107 59.6282 50.7047 59.3874 50.9007C59.0048 51.2119 59.1521 51.3438 59.8823 51.3438C60.5506 51.3438 60.6476 51.2105 60.2895 50.7849C60.0641 50.517 59.9846 48.6803 60.2078 48.896C60.2758 48.9617 60.5562 49.5244 60.831 50.1462C61.1059 50.7681 61.3823 51.2924 61.4456 51.3114C61.5481 51.3421 61.9656 50.5435 62.4663 49.359C62.7586 48.6677 62.8839 48.7701 62.8839 49.7003C62.8839 50.421 62.831 50.6363 62.6039 50.8404C62.1489 51.2494 62.267 51.3438 63.2339 51.3438C63.7344 51.3438 64.1439 51.3058 64.1439 51.2594C64.1439 51.2129 64.0477 51.0794 63.9302 50.9627C63.7706 50.8042 63.7124 50.4235 63.6999 49.4569C63.6843 48.2497 63.7044 48.1489 64.0012 47.9476L64.3194 47.7319L63.9867 47.6518C63.1029 47.4391 62.9014 47.5267 62.5136 48.2919C62.312 48.69 62.0673 49.2118 61.9702 49.4516C61.8729 49.6915 61.7357 49.905 61.6653 49.9261C61.5948 49.9472 61.3241 49.4679 61.0639 48.8608C60.8035 48.2538 60.5238 47.7154 60.4423 47.6645C60.2197 47.5259 59.1041 47.5495 59.1041 47.6931ZM64.5639 47.6362C64.5639 47.6737 64.6978 47.8672 64.8615 48.0663C65.1265 48.3884 65.1525 48.5534 65.0986 49.5659C65.0543 50.4012 64.9752 50.7663 64.801 50.9393C64.6705 51.0688 64.5639 51.2129 64.5639 51.2594C64.5639 51.3058 64.9733 51.3438 65.4738 51.3438C66.3953 51.3438 66.6145 51.2085 66.1683 50.9153C65.9337 50.7611 65.7743 49.1174 65.9193 48.3485C65.996 47.9417 66.0107 47.934 66.6457 47.971L67.2938 48.0087L67.3334 49.3486C67.365 50.4189 67.3297 50.7271 67.1584 50.8812C66.7597 51.2396 66.9162 51.3438 67.8537 51.3438C68.8128 51.3438 69.033 51.1781 68.4837 50.8696C68.2342 50.7295 68.2037 50.5761 68.2037 49.4621C68.2037 48.3331 68.2323 48.1937 68.4988 48.026C69.0722 47.6649 68.6682 47.5683 66.5855 47.5683C65.4735 47.5683 64.5639 47.5988 64.5639 47.6362ZM69.8249 47.8346C69.5548 48.0255 69.4603 48.1944 69.491 48.4312C69.5576 48.947 69.9738 48.9261 70.2208 48.3945C70.4414 47.9198 70.5756 47.8658 71.0128 48.0761C71.1976 48.1651 71.2836 48.34 71.2836 48.6274C71.2836 49.0192 71.2412 49.0582 70.6764 49.1861C69.8897 49.3642 69.3237 49.8675 69.3237 50.3891C69.3237 51.2411 70.022 51.5727 70.9251 51.1494C71.2948 50.9761 71.3486 50.9761 71.4569 51.1501C71.6214 51.4143 72.1695 51.3942 72.4519 51.1136C72.7391 50.8283 72.7453 50.7146 72.4736 50.7146C72.3158 50.7146 72.2636 50.5628 72.2636 50.1038C72.2636 49.7678 72.2223 49.1383 72.1719 48.7048C72.0855 47.9615 72.0538 47.9068 71.6165 47.7424C70.9461 47.4907 70.2614 47.5258 69.8249 47.8346ZM73.0267 47.7042C72.9753 47.7789 73.074 47.9287 73.246 48.0371C73.5427 48.2238 73.5556 48.299 73.4922 49.4807C73.4552 50.1705 73.3536 50.7918 73.2645 50.8719C72.8948 51.2043 73.0932 51.3438 73.9352 51.3438C74.8222 51.3438 75.1113 51.1914 74.6474 50.9682C74.422 50.8597 74.3635 50.7056 74.3635 50.22V49.6083L74.9585 49.5518C75.2856 49.5207 75.6006 49.5181 75.6584 49.546C75.7162 49.574 75.7634 49.8784 75.7634 50.2225C75.7634 50.6627 75.7011 50.8699 75.5534 50.9207C75.4379 50.9606 75.3434 51.0721 75.3434 51.1685C75.3434 51.2999 75.5656 51.3438 76.23 51.3438C77.2344 51.3438 77.4373 51.2507 77.0428 50.971C76.8179 50.8116 76.7525 50.5517 76.6721 49.4974L76.5748 48.2173L77.0104 48.0148C77.7242 47.6829 77.9451 47.8893 78.0481 48.9843C78.1484 50.0517 78.0495 50.7751 77.7754 50.9796C77.4152 51.2484 77.5828 51.3438 78.4151 51.3438C79.3425 51.3438 79.5203 51.2381 79.1162 50.927C78.7533 50.6477 78.7683 50.574 79.2757 50.1403C79.5136 49.937 79.7988 49.6149 79.9094 49.4246C80.2307 48.8717 80.3833 49.0188 80.3833 49.8812C80.3833 50.4411 80.3197 50.7312 80.1733 50.8404C80.0578 50.9266 79.9633 51.0751 79.9633 51.1704C79.9633 51.3066 80.2717 51.3434 81.3982 51.3419C82.1875 51.3408 82.8997 51.2984 82.9809 51.2475C83.0622 51.1967 83.3405 50.8577 83.5995 50.4943C83.8583 50.131 84.1542 49.8336 84.2566 49.8336C84.5173 49.8336 84.4983 50.6426 84.2331 50.8404C83.7811 51.1777 83.9891 51.3438 84.8631 51.3438C85.7135 51.3438 85.922 51.2027 85.4932 50.9172C85.3389 50.8146 85.2706 50.4602 85.2356 49.5819C85.1793 48.1729 85.2271 47.9458 85.5794 47.9458C85.7243 47.9458 85.843 47.893 85.843 47.8284C85.843 47.61 85.2622 47.5437 84.1344 47.6335C82.8609 47.7348 82.4832 47.9519 82.4832 48.5821C82.4832 48.8526 82.6134 49.0737 82.9215 49.3267L83.3597 49.6865L82.7678 50.3176C82.2651 50.8535 81.9397 51.0921 81.7118 51.0921C81.6851 51.0921 81.5642 51.0031 81.4431 50.8944C81.2711 50.7396 81.2232 50.4084 81.2232 49.3723C81.2232 48.145 81.2441 48.0432 81.5089 47.9809C82.0302 47.8583 81.7024 47.6318 80.9473 47.5925C80.137 47.5504 79.7117 47.7436 80.1383 47.9599C80.2729 48.0283 80.3833 48.1601 80.3833 48.253C80.3833 48.4423 79.1244 49.8336 78.9531 49.8336C78.8927 49.8336 78.8433 49.4938 78.8433 49.0785C78.8433 48.4867 78.9049 48.268 79.1283 48.0671C79.2853 47.9261 79.3802 47.7622 79.3393 47.7029C79.2986 47.6436 78.3827 47.5939 77.3044 47.5927C75.7828 47.5908 75.3434 47.627 75.3434 47.7545C75.3434 47.8449 75.4379 47.9515 75.5534 47.9914C75.6973 48.041 75.7634 48.2432 75.7634 48.6341V49.2043H75.0635H74.3635V48.6464C74.3635 48.1992 74.4189 48.0728 74.6435 48.0087C74.9797 47.9128 75.0059 47.7495 74.702 47.6447C74.331 47.5167 73.1261 47.5594 73.0267 47.7042ZM14.8827 48.3193C15.2766 48.6734 15.2961 48.7398 15.2569 49.5962C15.2198 50.4097 15.1782 50.5249 14.8387 50.7522C14.4777 50.994 14.4462 50.9955 14.0922 50.7869C13.2939 50.3167 13.0436 48.8173 13.6695 48.2548C14.1182 47.8513 14.3775 47.865 14.8827 48.3193ZM27.3068 48.2618C27.4122 48.3517 27.4558 48.4871 27.4035 48.563C27.3019 48.7109 25.9253 48.7589 25.9253 48.6146C25.9253 48.5671 26.0628 48.3967 26.231 48.2359C26.5504 47.9302 26.9283 47.9393 27.3068 48.2618ZM47.5979 48.634C47.6533 49.4058 47.4949 49.5473 47.0189 49.1507C46.5626 48.7705 46.5401 48.4034 46.9569 48.1409C47.4142 47.8529 47.5493 47.9569 47.5979 48.634ZM57.5158 48.2452C57.857 48.5091 57.9096 48.6505 57.9589 49.4329C58.0103 50.2519 57.9868 50.3461 57.6558 50.6436C57.1933 51.0594 57.0058 51.05 56.5118 50.5866C56.1689 50.2648 56.0982 50.0811 56.0488 49.3837C55.9974 48.6581 56.0287 48.5241 56.3117 48.2531C56.7153 47.8669 57.0239 47.8649 57.5158 48.2452ZM84.4151 48.7337C84.462 49.54 84.3258 49.6373 83.7871 49.1824C83.3996 48.8551 83.3574 48.2661 83.7081 48.0801C84.2033 47.8173 84.3709 47.9721 84.4151 48.7337ZM10.5205 48.3207C11.0504 48.5757 11.2574 49.7997 10.8811 50.4538C10.556 51.019 10.0044 51.1267 9.54597 50.7146C9.31932 50.5108 9.26598 50.2951 9.26598 49.5819C9.26598 48.8687 9.31932 48.653 9.54597 48.4492C9.85536 48.1711 10.1332 48.1345 10.5205 48.3207ZM35.55 49.7408C36.0244 50.0759 35.5354 50.9663 34.877 50.9663C34.467 50.9663 34.465 50.9627 34.465 50.2143V49.4623L34.92 49.5399C35.1703 49.5824 35.4538 49.6729 35.55 49.7408ZM43.7208 49.6763C43.7296 49.7974 43.7251 50.0098 43.7107 50.1482C43.6524 50.7054 42.683 50.9393 42.5062 50.4388C42.4311 50.226 42.5094 50.0824 42.849 49.8096C43.3502 49.407 43.6972 49.3539 43.7208 49.6763ZM71.3994 49.7507C71.4956 50.1996 71.2899 50.5622 70.8632 50.6958C70.4908 50.8126 70.4162 50.7938 70.2292 50.5374C69.9688 50.1801 70.0805 49.8834 70.5653 49.6444C71.0283 49.4161 71.3361 49.4554 71.3994 49.7507Z" fill="#99948E"/></g></g></svg>