<svg width="166" height="56" fill="none" xmlns="http://www.w3.org/2000/svg"><g opacity="0.6"><mask id="mask0_9437_118251" style="mask-type:alpha" maskUnits="userSpaceOnUse" x="0" y="0" width="166" height="56"><rect x="0.5" y="0.109375" width="165" height="55" fill="#D9D9D9"/></mask><g mask="url(#mask0_9437_118251)"><path fill-rule="evenodd" clip-rule="evenodd" d="M150.671 5.97302C149.124 6.48923 148.683 7.82286 148.683 11.9841C148.683 17.7974 149.301 18.3987 155.278 18.4024C159.022 18.405 160.573 17.8627 161.06 16.3805C161.54 14.9214 161.45 9.04679 160.925 7.59503C160.578 6.63415 160.196 6.25846 159.259 5.95798C157.789 5.4858 152.099 5.4957 150.671 5.97302ZM158.063 8.65239C158.585 9.09412 158.678 9.62684 158.678 12.1514C158.678 14.3993 158.562 15.2145 158.203 15.4772C157.585 15.9285 152.476 15.9299 151.859 15.4794C151.523 15.2336 151.353 14.2925 151.272 12.2295C151.166 9.53182 151.211 9.28307 151.895 8.7287C152.862 7.94577 157.164 7.89294 158.063 8.65239ZM137.151 10.6372C136.76 11.1355 136.626 12.0138 136.626 14.0526C136.626 18.0494 136.792 18.2212 140.676 18.2212C144.776 18.2212 144.876 18.1258 144.876 14.1975C144.876 10.1522 144.692 9.96621 140.695 9.96621C138.173 9.96621 137.589 10.0766 137.151 10.6372ZM142.771 11.9034C143.208 12.2728 143.306 12.803 143.229 14.3799L143.13 16.3867L140.938 16.4964C138.402 16.6237 138.224 16.4557 138.217 13.9286C138.213 12.6691 138.362 12.1033 138.767 11.83C139.556 11.2991 142.112 11.3461 142.771 11.9034ZM127.462 22.7948C125.691 23.3003 124.863 23.9901 124.158 25.5468C123.559 26.8679 123.486 27.6553 123.472 32.8966C123.455 39.4554 123.733 40.9494 125.238 42.414C126.778 43.9127 128.239 44.1494 135.158 44.0213C142.445 43.8867 143.239 43.6232 144.4 40.9578C144.96 39.6711 145.034 38.7701 145.034 33.2635C145.034 27.3416 144.996 26.9483 144.268 25.4804C142.977 22.874 142.207 22.6341 134.88 22.5563C131.39 22.5192 128.052 22.6267 127.462 22.7948ZM151.569 22.9096C149.107 23.6988 148.842 24.4887 148.842 31.0515C148.842 36.1556 148.9 36.7471 149.476 37.4819C150.776 39.1425 151.516 39.3171 157.251 39.3171C165.246 39.3171 165.501 39.065 165.5 31.1722C165.5 25.6587 165.105 24.1306 163.438 23.1859C162.173 22.469 153.569 22.2683 151.569 22.9096ZM0.5 33.4469V44.0866H2.72116H4.94233V39.684V35.2814H11.9231H18.9039V33.08V30.8787H11.9231H4.94233V29.0443V27.2099H12.0818H19.2212V25.0085V22.8072H9.86061H0.5V33.4469ZM22.7116 33.4469V44.0866H24.9328H27.1539V33.4469V22.8072H24.9328H22.7116V33.4469ZM30.7189 33.3552L30.803 43.9032H33.0242H35.2453L35.3307 35.5565C35.3776 30.966 35.5204 27.2117 35.648 27.2139C35.7756 27.2157 38.3156 30.9719 41.2929 35.5606L46.7056 43.9032L50.5742 44.0063L54.4425 44.1094V33.4583V22.8072H52.2214H50.0002V31.2456C50.0002 36.4132 49.8818 39.684 49.6946 39.684C49.5265 39.684 48.2858 37.9915 46.9378 35.9234C45.5896 33.8553 43.0794 30.0576 41.3589 27.485L38.2312 22.8072H34.433H30.6345L30.7189 33.3552ZM56.981 25.0085V27.2099H60.7887H64.5964V35.6482V44.0866H66.8176H69.0387V35.6596V27.2326L72.9258 27.1295L76.8128 27.0264L76.908 24.9168L77.0032 22.8072H66.9921H56.981V25.0085ZM78.8753 33.4469V44.0866H88.2359H97.5965V42.0757V40.0648L90.5364 39.9661L83.4763 39.8674L83.3817 37.5744L83.2875 35.2814H90.2832H97.2792V33.2635V31.2456H90.2984H83.3176V29.0443V26.843H90.4571H97.5965V24.8251V22.8072H88.2359H78.8753V33.4469ZM100.77 33.4469V44.0866H102.991H105.212V39.5005V34.9145H106.5C107.879 34.9145 107.951 34.9776 113.562 41.1515C114.754 42.4632 115.93 43.6662 116.175 43.8247C116.42 43.9835 118.012 44.0661 119.713 44.0081L122.805 43.9032L117.34 38.4157C114.335 35.3977 111.875 32.8364 111.875 32.7245C111.875 32.6123 114.226 30.3765 117.099 27.7558L122.323 22.9907L119.003 22.8865L115.683 22.7823L111.798 26.6471C108.18 30.2473 107.822 30.5118 106.563 30.5118H105.212V26.6595V22.8072H102.991H100.77V33.4469ZM161.512 26.6856C161.901 27.1358 162.01 28.097 162.01 31.0622C162.01 36.1002 162.092 36.0151 157.228 36.0151C152.139 36.0151 152.077 35.948 152.225 30.649C152.306 27.7404 152.447 26.7314 152.808 26.4676C153.07 26.2769 155.023 26.118 157.149 26.1147C160.243 26.1103 161.112 26.224 161.512 26.6856ZM139.597 27.6035C140.426 28.3575 140.433 28.4052 140.433 33.2903C140.433 40.0498 140.715 39.7706 134.039 39.6172C129.441 39.5116 128.915 39.4327 128.508 38.7884C128.174 38.2594 128.058 36.8351 128.058 33.2503C128.058 26.7571 127.9 26.9156 134.441 26.872C138.353 26.8455 138.84 26.9149 139.597 27.6035Z" fill="#99948E"/></g></g></svg>