<svg width="166" height="56" fill="none" xmlns="http://www.w3.org/2000/svg"><g id="Mask group" opacity="0.6"><mask id="mask0_9437_118276" style="mask-type:alpha" maskUnits="userSpaceOnUse" x="0" y="0" width="166" height="56"><rect id="Rectangle 1261254327" x="0.5" y="0.109375" width="165" height="55" fill="#D9D9D9"/></mask><g mask="url(#mask0_9437_118276)"><path id="Group 48096076 (Traced)" fill-rule="evenodd" clip-rule="evenodd" d="M47.3825 18.4114C47.2391 18.567 47.2149 18.6813 47.2373 19.0992C47.2655 19.6268 47.6642 20.1157 48.3026 20.4057C48.8098 20.636 49.2227 20.7046 50.0859 20.7019C51.4633 20.6975 52.3061 20.3593 52.6847 19.6592C52.9762 19.12 52.9421 18.4955 52.6114 18.3176C52.5504 18.2847 52.2034 18.2578 51.8404 18.2578H51.1803L51.1398 18.618C51.0522 19.3965 50.84 19.5919 50.0815 19.5922C49.4532 19.5925 49.2347 19.5006 49.0872 19.174C49.0185 19.0217 48.9744 18.7957 48.9737 18.5915L48.9724 18.2578H48.2482C47.5393 18.2578 47.5211 18.2611 47.3825 18.4114ZM6.20751 21.3097C4.49385 21.5032 3.30532 22.0316 2.30696 23.0439C0.577604 24.7975 0.0295666 27.6818 0.924282 30.321C1.57372 32.2366 3.15521 33.6241 5.20394 34.0756C5.87179 34.2228 7.32268 34.2133 8.05505 34.0572C9.1416 33.8255 10.1131 33.3051 10.7887 32.593L11.1279 32.2354L10.963 32.0503C10.8723 31.9485 10.6294 31.689 10.4233 31.4736C9.94236 30.971 9.79433 30.9538 9.32357 31.3459C8.95756 31.6507 8.33859 31.9636 7.88117 32.0749C7.46281 32.1767 6.21062 32.1777 5.80352 32.0765C3.76269 31.5694 2.6107 29.3927 3.00199 26.7828C3.29794 24.8089 4.42131 23.6102 6.20537 23.3645C7.14181 23.2356 8.09741 23.4462 8.96627 23.9728C9.36328 24.2135 9.54905 24.2927 9.71636 24.2927C9.97018 24.2927 10.0303 24.2399 10.4739 23.6266C10.635 23.4039 10.7668 23.2668 10.7668 23.3219C10.7668 23.415 10.9034 23.4223 12.6424 23.4223H14.5181V28.7318V34.0413H15.7012H16.8843V28.7326V23.4238L18.7744 23.4086L20.6645 23.3932L20.6803 22.4213L20.6961 21.4493H15.7333H10.7706L10.7543 22.0887L10.7379 22.728L10.3339 22.4316C9.66834 21.9432 8.82557 21.5738 8.02545 21.4197C7.59156 21.3361 6.53802 21.2724 6.20751 21.3097ZM36.5354 21.3134C35.1759 21.4235 33.9332 21.901 32.9572 22.6883C31.3788 23.9615 30.5237 26.1566 30.7337 28.396C30.9649 30.8613 32.301 32.7882 34.4013 33.6855C36.1822 34.4464 38.4831 34.3588 40.1828 33.4654C42.7291 32.1271 43.9655 29.0495 43.1998 25.956C42.559 23.3675 40.5018 21.6173 37.7686 21.3352C37.2052 21.2772 37.0236 21.2739 36.5354 21.3134ZM73.0673 21.3134C72.113 21.3907 71.3125 21.6152 70.4991 22.0337C68.2766 23.1774 67.0273 25.6349 67.2678 28.3902C67.4809 30.8327 68.836 32.7879 70.9389 33.6877C72.6664 34.4268 74.9578 34.3591 76.6166 33.5199C78.3114 32.6624 79.4599 31.0772 79.8542 29.0509C79.9739 28.4356 79.9488 26.9202 79.8081 26.2656C79.2072 23.4714 77.1493 21.6292 74.3006 21.3352C73.7371 21.2772 73.5555 21.2739 73.0673 21.3134ZM160.411 21.3341C157.356 21.6829 155.249 23.9145 154.996 27.0685C154.91 28.14 155.038 29.3184 155.34 30.2245C156.235 32.9117 158.73 34.4562 161.704 34.1647C163.215 34.0167 164.189 33.5998 165.111 32.7064C165.646 32.1886 165.66 32.2915 164.96 31.5504C164.407 30.9649 164.296 30.9457 163.784 31.3481C163.005 31.9605 162.408 32.1487 161.252 32.1477C160.533 32.147 160.393 32.1299 159.982 31.9929C158.206 31.4001 157.178 29.4722 157.409 27.1653C157.491 26.3477 157.6 25.9385 157.909 25.295C158.358 24.3575 159.154 23.7094 160.184 23.4411C160.433 23.3763 160.774 23.3447 161.194 23.3475C162.143 23.3537 162.769 23.546 163.617 24.0916C163.949 24.3046 164.283 24.3551 164.459 24.2183C164.597 24.1112 165.336 23.0643 165.343 22.9663C165.357 22.7733 164.387 22.105 163.591 21.7588C162.757 21.3965 161.424 21.2184 160.411 21.3341ZM21.5013 27.7453V34.0413H22.6844H23.8675V31.8433V29.6453L25.2959 29.6136C26.7578 29.5812 27.0943 29.5377 27.8066 29.289C29.1221 28.8297 30.0129 27.8944 30.3329 26.6365C30.4756 26.0756 30.4875 24.967 30.3568 24.4096C30.0523 23.1107 29.1218 22.168 27.703 21.7211C26.9424 21.4815 26.4944 21.4493 23.9211 21.4493H21.5013V27.7453ZM44.644 27.7453V34.0413H45.6568C46.7833 34.0413 46.8412 34.0267 47.1892 33.6544C47.4985 33.3235 52.2329 25.879 52.6262 25.1051C52.8127 24.738 52.9463 24.503 52.9232 24.5828C52.9 24.6626 52.8691 26.8234 52.8546 29.3846L52.8282 34.0413H54.0457H55.263V27.7453V21.4493H54.2341H53.2052L52.9391 21.6265C52.7928 21.724 52.584 21.9394 52.4751 22.1052C52.0976 22.68 47.5527 29.8354 47.4184 30.0664C47.3441 30.1941 47.2155 30.4578 47.1324 30.6524L46.9813 31.0063L46.9982 26.2278L47.0152 21.4493H45.8295H44.644V27.7453ZM57.2253 27.7453V34.0413H58.4084H59.5915V31.285V28.5287L60.4716 28.53C61.5146 28.5315 61.7244 28.5962 62.0008 29.0015C62.0956 29.1404 62.7894 30.2332 63.5428 31.4301C64.2962 32.6269 64.9685 33.6673 65.0367 33.7422C65.2921 34.0223 65.3953 34.0413 66.6632 34.0413C67.3181 34.0413 67.8453 34.0195 67.8347 33.993C67.8241 33.9663 67.0364 32.6822 66.0841 31.1394C64.2318 28.1383 63.9879 27.81 63.4031 27.5305L63.1003 27.3858L63.4091 27.2094C63.5789 27.1124 63.7808 26.9649 63.8576 26.8816C63.9345 26.7984 64.7948 25.5486 65.7695 24.1043L67.5415 21.4783L66.4202 21.4626C65.1539 21.4448 65.026 21.4741 64.7369 21.8479C64.6472 21.9638 63.9438 22.9987 63.1737 24.1476C62.4037 25.2966 61.6827 26.3198 61.5716 26.4215C61.3169 26.6549 60.982 26.7298 60.1946 26.7298H59.5915V24.0896V21.4493H58.4084H57.2253V27.7453ZM81.1759 27.7453V34.0413H82.2144H83.2529L83.2676 29.5405L83.2824 25.0397L85.1869 28.6173C86.6838 31.4291 87.1335 32.2278 87.288 32.3486C87.4511 32.476 87.5573 32.5059 87.91 32.5238C88.4036 32.5489 88.6111 32.4808 88.8375 32.2192C88.9247 32.1186 89.827 30.4641 90.8427 28.5427L92.6895 25.0491L92.7043 29.5452L92.7191 34.0413H93.7576H94.796V27.7453V21.4493H93.6649H92.5338L92.3808 21.6171C92.2087 21.8058 88.2852 29.2145 88.1264 29.6506L88.0243 29.9312L87.6371 29.1283C87.0203 27.8494 83.7426 21.7847 83.5732 21.6089L83.4194 21.4493H82.2977H81.1759V27.7453ZM96.7582 27.7453V34.0413H97.9414H99.1245V28.6447V23.2482H101.837H104.549V28.6447V34.0413H105.733H106.916V27.7453V21.4493H101.837H96.7582V27.7453ZM111.013 21.9071C111.013 23.7096 110.658 27.5118 110.35 29.014C110.046 30.4934 109.726 31.2825 109.228 31.7805C108.848 32.1611 108.625 32.2424 107.962 32.2424H107.493V33.0871V33.9317L107.767 34.0539C108.093 34.1994 108.975 34.2237 109.542 34.1028C111.679 33.6464 112.721 30.9171 113.177 24.5828C113.225 23.9286 113.263 23.3602 113.264 23.3198C113.264 23.262 113.621 23.2497 114.952 23.2618L116.64 23.2772L116.655 28.6592L116.67 34.0413H117.852H119.035V27.7453V21.4493H115.024H111.013V21.9071ZM120.997 27.7453V34.0413H124.951H128.904V33.0838V32.1264H126.134H123.364V30.3856V28.6447H125.557H127.75V27.7163V26.7879H125.557H123.364V25.076V23.3642H126.134H128.904V22.4068V21.4493H124.951H120.997V27.7453ZM130.174 27.7453V34.0413H131.357H132.54V31.285V28.5287L133.42 28.53C134.375 28.5314 134.629 28.5929 134.882 28.8837C134.948 28.9597 135.662 30.0761 136.469 31.3645C137.583 33.1433 137.99 33.7474 138.161 33.8742L138.386 34.0413H139.59C140.251 34.0413 140.793 34.0254 140.793 34.006C140.793 33.9865 140.02 32.7165 139.076 31.1837C138.025 29.4774 137.24 28.2659 137.052 28.0592C136.865 27.8531 136.616 27.6564 136.412 27.5542L136.079 27.3869L136.349 27.2341C136.498 27.1501 136.721 26.9694 136.845 26.8325C136.969 26.6956 137.798 25.5024 138.686 24.181L140.302 21.7783L140.318 22.6003L140.334 23.4223H142.208H144.082V28.7318V34.0413H145.266H146.449V28.7326V23.4238L148.339 23.4086L150.229 23.3932L150.245 22.4213L150.26 21.4493H144.254C137.661 21.4493 138.111 21.4245 137.757 21.8071C137.658 21.9135 136.947 22.9406 136.176 24.0896C135.405 25.2385 134.694 26.2642 134.597 26.3687C134.346 26.6362 133.983 26.7298 133.193 26.7298H132.54V24.0896V21.4493H131.357H130.174V27.7453ZM26.5107 23.3941C27.1995 23.5573 27.5924 23.8455 27.8534 24.3786C28.0688 24.8186 28.1365 25.2914 28.0675 25.8746C27.9752 26.6535 27.6136 27.1786 26.9551 27.4896C26.4838 27.7122 26.0338 27.7734 24.863 27.7739L23.8675 27.7743V25.5403V23.3062L25.0073 23.3071C25.8111 23.3077 26.2543 23.3333 26.5107 23.3941ZM38.2173 23.4826C39.277 23.7546 40.0353 24.3927 40.5249 25.4242C41.0784 26.5904 41.1532 28.259 40.712 29.5991C40.3794 30.6091 39.8055 31.3073 38.9693 31.7193C38.2908 32.0536 37.8769 32.1446 37.0548 32.1401C35.8284 32.1334 35.0676 31.8409 34.3072 31.0839C33.9623 30.7405 33.8173 30.5408 33.6313 30.1535C32.9455 28.7252 32.9438 26.7804 33.627 25.3503C34.0369 24.4923 34.8224 23.8048 35.7021 23.5341C36.4931 23.2907 37.3977 23.2721 38.2173 23.4826ZM74.7499 23.4827C76.4092 23.9088 77.409 25.3211 77.521 27.3971C77.6126 29.0961 77.0636 30.6054 76.0788 31.3616C75.3655 31.9093 74.6281 32.1388 73.5867 32.1373C72.3644 32.1355 71.6018 31.8431 70.8391 31.0839C70.1513 30.3991 69.8227 29.6218 69.6857 28.3559C69.5635 27.2259 69.8128 25.8979 70.3033 25.0667C71.1368 23.6543 72.93 23.0155 74.7499 23.4827ZM149.623 28.7898V29.6892H151.874H154.124V28.7898V27.8904H151.874H149.623V28.7898ZM85.0567 37.2999C84.9306 37.4267 84.9732 37.6941 85.1473 37.8692C85.5236 38.2475 86.6386 38.2233 86.9462 37.8301C87.0816 37.6571 87.0985 37.393 86.9805 37.2946C86.9346 37.2563 86.7757 37.234 86.6201 37.244C86.3611 37.2606 86.3397 37.2739 86.312 37.4359C86.2842 37.599 86.266 37.61 86.0237 37.61C85.7815 37.61 85.7633 37.599 85.7354 37.4359C85.7075 37.2726 85.6877 37.2608 85.4171 37.2448C85.2425 37.2344 85.1001 37.2563 85.0567 37.2999ZM7.57794 38.3403C6.97791 38.4825 6.44505 38.915 6.16589 39.4866C6.02006 39.7853 6.00551 39.8728 6.00551 40.4533C6.00551 41.0225 6.02208 41.1272 6.15833 41.4194C6.36021 41.8523 6.7092 42.1933 7.1799 42.4175C7.53501 42.5867 7.60911 42.6003 8.16973 42.5998C8.70247 42.5994 8.81489 42.5809 9.10005 42.4469C9.71122 42.1598 10.1055 41.6835 10.2756 41.0267C10.4393 40.3946 10.3364 39.7553 9.9849 39.2205C9.50577 38.4915 8.49678 38.1225 7.57794 38.3403ZM12.9558 38.3533C12.3583 38.5229 11.91 38.9109 11.6383 39.4932C11.5039 39.7814 11.4882 39.8848 11.4882 40.4824C11.4882 41.0829 11.5035 41.1825 11.641 41.4774C11.9549 42.1505 12.5757 42.5677 13.3362 42.6168C13.8632 42.6508 14.298 42.5557 14.648 42.3299C15.0675 42.0592 15.0938 41.9669 14.8293 41.6945C14.7087 41.5704 14.5759 41.4688 14.534 41.4688C14.4921 41.4688 14.3549 41.5374 14.229 41.6211C14.0448 41.7437 13.9293 41.774 13.6387 41.7762C12.8818 41.7818 12.4982 41.3368 12.4982 40.4533C12.4982 39.827 12.6844 39.4398 13.0868 39.2292C13.3469 39.0932 13.8369 39.1261 14.1972 39.3038C14.5077 39.4569 14.516 39.4578 14.6332 39.3511C14.6989 39.2913 14.8083 39.1519 14.8763 39.0413L14.9999 38.8402L14.86 38.7244C14.783 38.6607 14.5778 38.5424 14.4038 38.4616C14.0275 38.2867 13.3647 38.2372 12.9558 38.3533ZM26.2928 38.3666C25.6576 38.5457 25.1967 38.9404 24.9145 39.5469C24.7823 39.8308 24.7626 39.9484 24.7623 40.4546C24.762 40.9936 24.7757 41.064 24.9496 41.4191C25.3092 42.1534 25.9536 42.574 26.7872 42.6182C27.8695 42.6756 28.7263 42.1102 29.0363 41.1341C29.1818 40.6757 29.1314 39.9184 28.9268 39.4886C28.7358 39.0872 28.3008 38.6673 27.8712 38.4696C27.4614 38.2809 26.7591 38.2351 26.2928 38.3666ZM50.977 38.3371C50.4688 38.4653 50.0309 38.7644 49.7522 39.1738C49.4642 39.5969 49.3687 39.9162 49.3689 40.4558C49.3693 41.809 50.3444 42.7009 51.7287 42.614C52.7928 42.5473 53.5398 41.8693 53.721 40.8057C53.8849 39.8437 53.4391 38.96 52.5727 38.5294C52.1957 38.3421 52.0781 38.3121 51.6669 38.2983C51.407 38.2895 51.0965 38.307 50.977 38.3371ZM1.0711 40.4533V42.5713H1.56166H2.05221V40.8305V39.0897H2.83133H3.61045V40.8305V42.5713H4.12986H4.64927V40.4533V38.3353H2.86019H1.0711V40.4533ZM15.9032 38.7415V39.1477H16.5092H17.1151V40.8595V42.5713H17.6057H18.0963V40.8595V39.1477H18.7022H19.3082V38.7415V38.3353H17.6057H15.9032V38.7415ZM20.5202 40.4533V42.5713H21.0396H21.559V41.8829V41.1945L22.0936 41.1664C23.1093 41.1129 23.6204 40.7223 23.7265 39.9184C23.7875 39.4558 23.6387 39.0364 23.3106 38.746C22.9167 38.3974 22.6417 38.3353 21.4908 38.3353H20.5202V40.4533ZM30.4467 40.4533V42.5713H30.8955C31.1909 42.5713 31.3846 42.543 31.462 42.4885C31.5266 42.443 31.9285 41.8052 32.3549 41.0712L33.1303 39.7367L33.1457 41.154L33.1612 42.5713H33.6507H34.1403V40.4533V38.3353H33.6894C33.2712 38.3353 33.2279 38.3469 33.0931 38.4949C32.9608 38.6402 31.8234 40.5603 31.5649 41.0749C31.4567 41.2903 31.4567 41.2901 31.4739 39.8128L31.4911 38.3353H30.9689H30.4467V40.4533ZM35.6985 40.4511V42.5713H36.1602H36.6219L36.6238 41.2222L36.6258 39.8731L37.1708 40.9463C37.4705 41.5367 37.7603 42.0524 37.8147 42.0924C37.9431 42.1868 38.2456 42.1857 38.3752 42.0904C38.4312 42.0492 38.7211 41.5466 39.0195 40.9733L39.562 39.9311L39.5636 41.2512L39.5653 42.5713H40.027H40.4887V40.4533V38.3353H40.0071C39.621 38.3353 39.5077 38.3555 39.4358 38.4369C39.3865 38.4927 39.0682 39.0998 38.7286 39.786L38.111 41.0336L37.4341 39.699L36.7573 38.3643L36.2279 38.3476L35.6985 38.331V40.4511ZM44.9117 39.1047C44.8484 40.373 44.6733 41.3088 44.4292 41.6835C44.358 41.7927 44.2908 41.817 44.0602 41.817H43.7783V42.6874V43.5578H44.1707C44.399 43.5578 44.5921 43.5287 44.6324 43.4882C44.6736 43.4467 44.7017 43.247 44.7017 42.9949V42.5713H46.1156H47.5296V43.0646V43.5578H47.9006C48.4424 43.5578 48.453 43.5393 48.453 42.5962V41.817H48.1356H47.8181V40.0762V38.3353H46.3841H44.9501L44.9117 39.1047ZM55.0899 40.4511V42.5713H55.5227H55.9556L55.9573 41.2222L55.9589 39.8731L56.5025 40.9175C56.8015 41.4919 57.1023 42.0076 57.171 42.0635C57.3446 42.2048 57.6078 42.192 57.7642 42.0346C57.8355 41.9628 58.1264 41.4471 58.4108 40.8885L58.9278 39.8731L58.9432 41.2222L58.9588 42.5713H59.3905H59.8223V40.4533V38.3353H59.3309C58.749 38.3353 58.8957 38.1619 58.0621 39.8358C57.7447 40.4731 57.472 40.9968 57.4561 40.9995C57.4402 41.0022 57.1286 40.4105 56.7636 39.6844L56.0999 38.3643L55.5949 38.3476L55.0899 38.3308V40.4511ZM63.5159 40.449V42.5713H64.5733C65.8197 42.5713 66.0559 42.5157 66.4373 42.1322C66.9793 41.5873 66.8982 40.7644 66.2748 40.4837L66.0524 40.3836L66.2757 40.235C66.5767 40.0347 66.7102 39.7401 66.6777 39.347C66.6459 38.9613 66.4505 38.6886 66.0712 38.5008C65.815 38.374 65.7152 38.363 64.6557 38.3455L63.5159 38.3266V40.449ZM69.176 38.4659C68.3908 40.4953 67.6135 42.5245 67.6135 42.5448C67.6135 42.5594 67.8194 42.5713 68.0711 42.5713C68.616 42.5713 68.6516 42.5453 68.8252 42.021L68.9503 41.6429H69.7422H70.5341L70.6623 42.0432C70.7328 42.2633 70.8263 42.4733 70.8701 42.5098C70.9194 42.551 71.1257 42.5698 71.4128 42.5593L71.876 42.5423L71.2834 41.0046C70.9575 40.1588 70.5931 39.2123 70.4736 38.9011L70.2563 38.3353H69.7415C69.2609 38.3353 69.2232 38.344 69.176 38.4659ZM72.923 40.4533V42.5713H75.6932H78.4634V40.4533V38.3353H77.9729H77.4823V40.0762V41.817H76.8475H76.2126V40.0762V38.3353H75.7221H75.2315V40.0762V41.817H74.5967H73.9619V40.0762V38.3353H73.4424H72.923V40.4533ZM80.0217 40.4533V42.5713H81.4068H82.7919V42.1942V41.817H81.9262H81.0605V41.3238V40.8305H81.7242H82.3879V40.4533V40.0762H81.7242H81.0605V39.5829V39.0897H81.9262H82.7919V38.7125V38.3353H81.4068H80.0217V40.4533ZM84.1192 40.4533V42.5713H84.5559C84.796 42.5713 85.0421 42.5447 85.1027 42.512C85.2088 42.455 85.5479 41.9041 86.4211 40.3704L86.8317 39.6491V41.1102V42.5713H87.3223H87.8128V40.4533V38.3353H87.3619C86.9444 38.3353 86.9 38.3472 86.763 38.4949C86.6815 38.5826 86.2806 39.2304 85.872 39.9342L85.1292 41.214L85.1473 39.7746L85.1654 38.3353H84.6423H84.1192V40.4533ZM91.5064 40.4533V42.5713H91.9382H92.37L92.3855 41.2222L92.401 39.8731L92.9092 40.88C93.1887 41.4338 93.4797 41.9495 93.5558 42.026C93.7209 42.192 93.9802 42.2081 94.1578 42.0635C94.2265 42.0076 94.5273 41.4919 94.8262 40.9175L95.3699 39.8731L95.3715 41.2222L95.3732 42.5713H95.806H96.2388V40.4511V38.3308L95.7339 38.3476L95.2289 38.3643L94.5599 39.693L93.891 41.0217L93.2417 39.751C92.8845 39.0522 92.5656 38.4478 92.5329 38.4079C92.4939 38.3603 92.3065 38.3353 91.9899 38.3353H91.5064V40.4533ZM97.7971 40.4533V42.5713H99.1822H100.567V42.1942V41.817H99.7016H98.8359V41.3238V40.8305H99.4996H100.163V40.4533V40.0762H99.4996H98.8359V39.5829V39.0897H99.7016H100.567V38.7125V38.3353H99.1822H97.7971V40.4533ZM101.677 39.2493C101.707 40.2825 101.776 40.5395 102.102 40.8273C102.377 41.0702 102.69 41.1401 103.337 41.1037C103.639 41.0867 103.931 41.0547 103.987 41.0325C104.08 40.9953 104.088 41.0531 104.088 41.7818V42.5713H104.607H105.127V40.4533V38.3353H104.607H104.088V39.315C104.088 40.4483 104.142 40.3641 103.416 40.3655C103.096 40.3661 102.974 40.3416 102.868 40.2555C102.737 40.149 102.731 40.11 102.713 39.24L102.694 38.3353H102.172H101.65L101.677 39.2493ZM106.339 38.7415V39.1477H106.944H107.55V40.8595V42.5713H108.041H108.532V40.8616V39.1518L109.123 39.1352L109.715 39.1187L109.732 38.727L109.749 38.3353H108.044H106.339V38.7415ZM110.955 40.4533V42.5713H111.955C113.132 42.5713 113.385 42.5107 113.754 42.1397C114.172 41.7197 114.254 40.9949 113.933 40.571C113.666 40.2194 113.274 40.0619 112.586 40.0302L111.994 40.0029V39.1691V38.3353H111.475H110.955V40.4533ZM114.591 40.4533V42.5713H115.082H115.572V40.4533V38.3353H115.082H114.591V40.4533ZM22.3601 39.154C22.7723 39.2985 22.8478 40.0654 22.473 40.3007C22.4088 40.341 22.1769 40.389 21.9577 40.4076L21.559 40.4412V39.7654V39.0897H21.8678C22.0377 39.0897 22.2592 39.1186 22.3601 39.154ZM46.7793 40.4533V41.817H46.0646H45.3499L45.4962 41.4543C45.6312 41.1194 45.8028 40.228 45.887 39.4234L45.9219 39.0897H46.3506H46.7793V40.4533ZM65.4076 39.152C65.6136 39.2241 65.7234 39.4669 65.6705 39.7329C65.6173 40.0005 65.4575 40.0762 64.9458 40.0762H64.497V39.5829V39.0897H64.8635C65.0651 39.0897 65.31 39.1177 65.4076 39.152ZM8.61325 39.2093C9.46104 39.5307 9.57277 41.1473 8.77952 41.6147C8.34581 41.8703 7.62648 41.7944 7.32124 41.461C6.88551 40.9851 6.89573 39.8222 7.33907 39.4274C7.64045 39.159 8.21913 39.0599 8.61325 39.2093ZM27.6305 39.3337C27.9096 39.5478 28.0425 39.8522 28.0693 40.339C28.0973 40.8458 28.0114 41.1797 27.7866 41.437C27.5642 41.6917 27.3003 41.7769 26.8187 41.7496C26.3595 41.7234 26.1235 41.5822 25.9294 41.2173C25.8238 41.0188 25.8009 40.8823 25.8009 40.4533C25.8009 39.9894 25.8184 39.9011 25.958 39.6623C26.1827 39.278 26.4824 39.1359 27.0182 39.1598C27.3568 39.1749 27.4626 39.205 27.6305 39.3337ZM52.013 39.2093C52.8608 39.5307 52.9725 41.1473 52.1792 41.6147C51.7455 41.8703 51.0262 41.7944 50.721 41.461C50.2802 40.9796 50.2904 39.8268 50.7388 39.4274C51.0402 39.159 51.6188 39.0599 52.013 39.2093ZM70.0308 40.1525C70.1614 40.5296 70.2683 40.8626 70.2683 40.8924C70.2683 40.9222 70.0225 40.9466 69.7221 40.9466H69.176L69.4451 40.1631C69.5931 39.7323 69.732 39.3993 69.7538 39.4233C69.7756 39.4473 69.9003 39.7754 70.0308 40.1525ZM65.6162 40.9082C65.7439 40.9923 65.7667 41.0496 65.7667 41.2871C65.7667 41.704 65.6522 41.7829 65.0104 41.8082L64.497 41.8285V41.2932V40.7579L64.9814 40.7835C65.3053 40.8006 65.5157 40.8419 65.6162 40.9082ZM113.019 40.9754C113.244 41.2382 113.152 41.6481 112.843 41.7561C112.748 41.7896 112.518 41.817 112.332 41.817H111.994V41.2864V40.7557L112.442 40.7897C112.83 40.8193 112.906 40.8436 113.019 40.9754Z" fill="#99948E"/></g></g></svg>