<svg width="120" height="120" viewBox="0 0 120 120" fill="none" xmlns="http://www.w3.org/2000/svg">
<path d="M75.9219 60.1484L51.9219 74.0048L51.9219 46.292L75.9219 60.1484Z" fill="#E2712E"/>
<path d="M16.5346 26.6624L23.8772 31.2161L23.1377 32.4096L19.8692 30.3825L17.5842 34.07L20.8527 36.097L20.11 37.2956L12.7674 32.7419L13.5101 31.5433L16.7225 33.5356L19.0074 29.8481L15.7951 27.8559L16.5346 26.6624Z" fill="#FAF8F5"/>
<path d="M27.1327 23.4307L24.0461 22.0686C23.9297 22.0158 23.7977 21.9533 23.65 21.8809C23.4995 21.8058 23.3419 21.7208 23.1771 21.626C23.2802 21.7892 23.3706 21.9455 23.4482 22.0948C23.5257 22.2384 23.5904 22.3694 23.6423 22.4878L25.0547 25.5443L27.1327 23.4307ZM31.3014 23.8121L30.5401 24.5865C30.4559 24.6721 30.3644 24.7223 30.2656 24.7373C30.1667 24.7466 30.0718 24.7318 29.981 24.693L28.1162 23.8682L25.504 26.5251L26.3592 28.3768C26.3938 28.4557 26.4073 28.5475 26.3997 28.6523C26.3921 28.757 26.3476 28.8507 26.2663 28.9335L25.5007 29.7121L21.7441 21.2092L22.741 20.1952L31.3014 23.8121Z" fill="#FAF8F5"/>
<path d="M42.9048 16.5458L42.1232 17.0499C41.9518 17.1605 41.7801 17.2189 41.608 17.2252C41.4372 17.2259 41.2736 17.1862 41.1173 17.1061L37.8968 15.7421C37.7129 15.656 37.5443 15.6196 37.391 15.6328C37.2355 15.6427 37.0721 15.7029 36.9006 15.8134L36.0939 16.3338L38.1904 19.5867L37.0862 20.299L34.9897 17.0461L34.188 17.5632C34.0166 17.6738 33.8943 17.7979 33.8212 17.9355C33.7459 18.0697 33.7095 18.2384 33.7119 18.4415L33.6248 21.9391C33.6332 22.1146 33.6002 22.2811 33.5256 22.4387C33.4523 22.5907 33.3299 22.722 33.1585 22.8326L32.3719 23.3399L32.3915 18.9291C32.3789 18.6659 32.4013 18.4349 32.4587 18.236C32.5195 18.0349 32.6172 17.8505 32.7518 17.6828C32.5704 17.7189 32.3973 17.7235 32.2324 17.6965C32.0687 17.6641 31.8916 17.607 31.7009 17.5253L27.8778 15.9573L28.8056 15.3589C28.9232 15.283 29.0537 15.2417 29.1969 15.235C29.3401 15.2283 29.4766 15.2592 29.6064 15.3278L32.7941 16.6631C32.9869 16.7481 33.1551 16.7801 33.2985 16.759C33.4398 16.7345 33.5827 16.6756 33.7272 16.5824L34.4079 16.1433L32.4056 13.0367L33.5098 12.3244L35.5121 15.4311L36.1978 14.9887C36.3423 14.8955 36.4549 14.7896 36.5355 14.671C36.6139 14.549 36.6542 14.3826 36.6563 14.1718L36.751 10.7192C36.7455 10.5704 36.7737 10.4332 36.8356 10.3077C36.9008 10.1799 36.9939 10.077 37.1149 9.99898L38.0376 9.4038L37.8925 13.5314C37.8882 13.7389 37.8654 13.925 37.8241 14.0897C37.7839 14.2489 37.7083 14.4047 37.5972 14.5573C37.8055 14.5039 38.0137 14.491 38.2218 14.5185C38.4299 14.5461 38.6512 14.62 38.8857 14.7401L42.9048 16.5458Z" fill="#FAF8F5"/>
<path d="M50.6379 5.96813L53.2065 14.2175L52.0265 14.5852L50.2659 8.93097C50.2374 8.83931 50.2084 8.73942 50.1789 8.6313C50.152 8.51816 50.1271 8.40443 50.1041 8.29011L48.977 14.0147C48.9369 14.2492 48.81 14.3998 48.5961 14.4665L48.4071 14.5254C48.1894 14.5932 47.9994 14.5414 47.8371 14.3699L43.6161 10.2995C43.662 10.4066 43.7041 10.515 43.7424 10.6246C43.7846 10.733 43.8205 10.8349 43.8502 10.9304L45.6108 16.5846L44.4308 16.9523L41.8621 8.703L42.8646 8.3906C42.983 8.3537 43.0782 8.3366 43.1502 8.33928C43.2211 8.33815 43.2999 8.38271 43.3867 8.47299L47.5262 12.4432C47.618 12.5361 47.7071 12.634 47.7936 12.7369C47.8828 12.8348 47.9674 12.9383 48.0474 13.0475C48.0552 12.911 48.0655 12.7758 48.0783 12.6419C48.0937 12.503 48.1128 12.3693 48.1356 12.2407L49.2524 6.64498C49.2726 6.52138 49.3122 6.43992 49.3712 6.40059C49.4289 6.35745 49.517 6.31743 49.6354 6.28053L50.6379 5.96813Z" fill="#FAF8F5"/>
<path d="M62.8052 5.44793L63.2413 14.0769L61.8391 14.1478L61.5496 8.41914C61.5399 8.22739 61.5338 8.02744 61.5313 7.8193C61.5328 7.61096 61.5435 7.38613 61.5633 7.14482C61.4979 7.3564 61.4258 7.55429 61.347 7.73851C61.272 7.91852 61.196 8.07857 61.1189 8.21864L57.7422 13.9165C57.7128 13.97 57.6775 14.0239 57.6362 14.078C57.5989 14.132 57.5533 14.1823 57.4996 14.2291C57.4497 14.2717 57.3955 14.3085 57.337 14.3395C57.2783 14.3665 57.215 14.3817 57.1471 14.3851L56.0984 14.4382L55.6624 5.80916L57.0706 5.73794L57.3597 11.4606C57.3694 11.6524 57.3736 11.8544 57.3724 12.0668C57.3749 12.2749 57.366 12.4957 57.3457 12.729C57.4113 12.5214 57.4817 12.3276 57.5567 12.1476C57.6355 11.9634 57.7115 11.8033 57.7847 11.6674L61.1615 5.96962C61.1908 5.91607 61.2241 5.86231 61.2615 5.80836C61.3028 5.75421 61.3484 5.70584 61.3983 5.66326C61.452 5.61649 61.5082 5.57961 61.567 5.55261C61.6255 5.52161 61.6887 5.5044 61.7566 5.50096L62.8052 5.44793Z" fill="#FAF8F5"/>
<path d="M73.536 8.38877L70.8802 7.93669L69.6277 15.3009L68.2495 15.0663L69.5021 7.70209L66.8403 7.24901L67.0365 6.09557L73.7322 7.23534L73.536 8.38877Z" fill="#FAF8F5"/>
<path d="M80.2963 17.6379L79.893 18.6978L74.8477 16.8068L77.8778 8.71559L82.9231 10.6066L82.5254 11.6685L78.8004 10.2724L77.8872 12.711L80.8649 13.8271L80.4798 14.8553L77.5021 13.7393L76.5657 16.2397L80.2963 17.6379Z" fill="#FAF8F5"/>
<path d="M92.4116 26.1072L96.4525 21.0876L94.4341 19.4614C93.8274 20.1386 93.2731 20.7219 92.7712 21.2114C92.2718 21.6977 91.814 22.107 91.3976 22.4393C90.9868 22.771 90.6127 23.0347 90.2755 23.2304C89.9438 23.4255 89.6404 23.5663 89.3654 23.6529L92.4116 26.1072ZM94.5795 27.8539L92.8451 30.0085C92.7698 30.102 92.6756 30.152 92.5626 30.1585C92.4526 30.1675 92.3463 30.1306 92.2435 30.0478L91.5894 29.5207L92.8912 27.9036L87.7237 23.7402L86.6777 25.0395C86.6025 25.133 86.5083 25.183 86.3953 25.1895C86.2853 25.1985 86.1789 25.1616 86.0761 25.0788L85.422 24.5518L87.4124 22.0794L88.1225 22.6516C88.2505 22.6776 88.401 22.6756 88.5741 22.6456C88.7504 22.618 88.957 22.5431 89.1941 22.4208C89.4312 22.2985 89.7038 22.1226 90.0118 21.893C90.323 21.666 90.6777 21.3688 91.0761 21.0015C91.4771 20.631 91.9263 20.1814 92.4239 19.6526C92.9216 19.1237 93.4785 18.4989 94.0948 17.778L98.239 21.117L93.5096 26.9919L94.5795 27.8539Z" fill="#FAF8F5"/>
<path d="M99.1476 35.8955L98.2688 34.7929L104.165 30.0898L102.549 28.0628C101.661 28.7 100.871 29.2301 100.18 29.6533C99.4892 30.0765 98.8797 30.4092 98.3516 30.6514C97.8259 30.8967 97.369 31.0616 96.981 31.146C96.5955 31.2334 96.2585 31.2567 95.9701 31.2156C95.6841 31.1776 95.4381 31.0873 95.2323 30.9445C95.0264 30.8017 94.8399 30.6255 94.6729 30.416C94.3588 30.0218 94.2721 29.7686 94.4128 29.6564L95.107 29.1026L95.3837 29.4499C95.476 29.5656 95.5885 29.6651 95.7214 29.7484C95.8599 29.8324 96.0416 29.8742 96.2665 29.8739C96.4913 29.8737 96.7734 29.8201 97.1127 29.7131C97.4552 29.6037 97.8777 29.4151 98.3803 29.1472C98.8829 28.8793 99.4772 28.5178 100.163 28.0628C100.855 27.6084 101.662 27.0361 102.585 26.3459L105.902 30.5077L99.1476 35.8955Z" fill="#FAF8F5"/>
<path d="M106.532 40.4171L109.019 39.1658L108.313 37.7613C108.171 37.479 108.02 37.2548 107.861 37.0888C107.703 36.9264 107.538 36.8123 107.366 36.7465C107.195 36.6807 107.019 36.657 106.84 36.6753C106.663 36.6972 106.486 36.7531 106.307 36.843C106.114 36.9401 105.952 37.055 105.822 37.1877C105.697 37.3222 105.612 37.4772 105.566 37.6526C105.519 37.8281 105.515 38.0276 105.551 38.2511C105.592 38.4764 105.684 38.7303 105.826 39.0126L106.532 40.4171ZM102.923 43.8046L102.293 42.5502L105.541 40.916L105.083 40.0047C105.036 39.9118 104.983 39.8287 104.924 39.7555C104.87 39.6841 104.804 39.6189 104.725 39.5601C104.648 39.5048 104.553 39.4585 104.44 39.4212C104.333 39.3857 104.205 39.3583 104.056 39.339L101.045 38.9599C100.87 38.9496 100.709 38.9008 100.562 38.8135C100.419 38.7244 100.301 38.5887 100.209 38.4064L99.7352 37.4629L103.439 37.9503C103.872 38.0012 104.238 38.1461 104.537 38.3851C104.456 38.0543 104.422 37.7467 104.436 37.4622C104.451 37.1812 104.51 36.9235 104.611 36.6889C104.714 36.4578 104.855 36.2526 105.034 36.0733C105.216 35.8921 105.43 35.7395 105.676 35.6155C106.009 35.4483 106.341 35.3571 106.674 35.342C107.012 35.3286 107.338 35.3905 107.654 35.5274C107.97 35.668 108.269 35.8829 108.548 36.172C108.832 36.4594 109.084 36.8228 109.305 37.2624L110.641 39.9213L102.923 43.8046Z" fill="#FAF8F5"/>
<path d="M105.971 59.3099L105.782 57.9126L113.255 56.8997L112.716 52.922L105.243 53.9349L105.054 52.5377L113.615 51.3772L114.532 58.1494L105.971 59.3099Z" fill="#FAF8F5"/>
<path d="M109.612 65.8651C109.586 66.176 109.603 66.4524 109.664 66.6942C109.724 66.9399 109.819 67.1465 109.949 67.3138C110.084 67.4855 110.251 67.6198 110.452 67.7166C110.653 67.8135 110.881 67.8725 111.136 67.8936C111.387 67.9144 111.615 67.8932 111.821 67.8299C112.027 67.7707 112.206 67.6691 112.358 67.5252C112.511 67.3812 112.633 67.1927 112.724 66.9594C112.819 66.7305 112.88 66.4566 112.906 66.1376L113.012 64.858L109.717 64.5854L109.612 65.8651ZM114.001 66.2282C113.954 66.7903 113.848 67.2712 113.683 67.6709C113.517 68.0746 113.303 68.4001 113.042 68.6474C112.785 68.899 112.483 69.0767 112.137 69.1806C111.795 69.2847 111.423 69.3202 111.021 69.2869C110.61 69.2529 110.239 69.152 109.908 68.9841C109.58 68.8165 109.305 68.585 109.08 68.2895C108.86 67.9943 108.697 67.6356 108.591 67.2135C108.489 66.7957 108.461 66.3157 108.505 65.7735L108.611 64.4939L105.496 64.2361L105.612 62.8369L114.222 63.5493L114.001 66.2282Z" fill="#FAF8F5"/>
<path d="M106.213 80.3456C105.599 80.1674 105.061 79.9033 104.6 79.5531C104.139 79.203 103.774 78.7908 103.503 78.3167C103.235 77.8475 103.069 77.3268 103.006 76.7545C102.942 76.1861 102.999 75.5907 103.18 74.9683C103.359 74.3497 103.628 73.8156 103.987 73.3658C104.346 72.9199 104.764 72.5685 105.242 72.3115C105.725 72.0557 106.254 71.903 106.83 71.8536C107.407 71.8042 108.003 71.8685 108.617 72.0467C109.232 72.2249 109.77 72.4891 110.23 72.8392C110.691 73.1894 111.057 73.6015 111.328 74.0756C111.599 74.5498 111.766 75.0711 111.831 75.6395C111.894 76.2117 111.836 76.8071 111.657 77.4257C111.476 78.0481 111.207 78.5823 110.849 79.0282C110.49 79.4779 110.069 79.8288 109.588 80.0808C109.106 80.3367 108.577 80.4893 108 80.5387C107.424 80.5882 106.828 80.5238 106.213 80.3456ZM106.612 78.9682C107.089 79.1063 107.536 79.1652 107.954 79.1448C108.371 79.1283 108.747 79.0374 109.083 78.8722C109.417 78.7109 109.704 78.4798 109.946 78.1791C110.187 77.8783 110.369 77.5147 110.493 77.0883C110.615 76.6656 110.655 76.2627 110.612 75.8796C110.569 75.4964 110.449 75.1454 110.255 74.8265C110.06 74.5076 109.791 74.2277 109.448 73.9868C109.106 73.7459 108.696 73.5564 108.22 73.4183C107.74 73.2791 107.291 73.2197 106.872 73.2401C106.454 73.2605 106.077 73.3532 105.742 73.5185C105.411 73.6848 105.125 73.9183 104.883 74.219C104.646 74.5209 104.466 74.8831 104.344 75.3058C104.22 75.7322 104.178 76.1365 104.217 76.5185C104.261 76.9017 104.378 77.2502 104.57 77.5642C104.765 77.8831 105.035 78.161 105.378 78.3981C105.721 78.639 106.132 78.829 106.612 78.9682Z" fill="#FAF8F5"/>
<path d="M99.5218 87.1291C99.4853 87.1957 99.4273 87.2392 99.3478 87.2595L98.5484 87.4579C98.3455 86.9455 98.2652 86.4089 98.3075 85.8483C98.3533 85.2897 98.5472 84.6981 98.889 84.0735C99.1924 83.519 99.5617 83.0692 99.9969 82.7238C100.434 82.3838 100.909 82.1491 101.422 82.0197C101.938 81.8922 102.481 81.8722 103.048 81.9597C103.614 82.0506 104.181 82.2517 104.75 82.563C105.318 82.8743 105.79 83.2491 106.166 83.6875C106.543 84.1313 106.812 84.6095 106.974 85.1222C107.137 85.6404 107.189 86.1794 107.129 86.7393C107.067 87.3028 106.885 87.8599 106.583 88.4108C106.284 88.9582 105.93 89.3917 105.523 89.7113C105.117 90.0363 104.682 90.2725 104.219 90.4198L103.867 89.7004C103.844 89.6512 103.828 89.5996 103.822 89.5456C103.815 89.4917 103.829 89.4313 103.866 89.3647C103.904 89.2945 103.98 89.2311 104.093 89.1744C104.208 89.1232 104.342 89.0486 104.496 88.9505C104.652 88.8578 104.819 88.7235 104.997 88.5476C105.177 88.3771 105.352 88.1357 105.523 87.8234C105.721 87.4619 105.839 87.0958 105.878 86.7248C105.917 86.3539 105.875 85.9933 105.752 85.6432C105.629 85.2931 105.427 84.9615 105.147 84.6484C104.865 84.3389 104.503 84.0631 104.061 83.821C103.616 83.577 103.183 83.422 102.763 83.3562C102.346 83.2923 101.957 83.3046 101.594 83.3931C101.234 83.4835 100.91 83.6432 100.62 83.8723C100.331 84.1014 100.092 84.3879 99.9035 84.7317C99.7883 84.9423 99.6961 85.1358 99.6269 85.3122C99.5593 85.4941 99.5116 85.6687 99.4839 85.8359C99.4597 86.0051 99.4526 86.1722 99.4626 86.3373C99.4706 86.5059 99.4972 86.6824 99.5423 86.8667C99.567 86.9714 99.5602 87.0589 99.5218 87.1291Z" fill="#FAF8F5"/>
<path d="M96.0239 101.53L89.5298 95.8317L90.3446 94.9024L94.7958 98.8084C94.868 98.8717 94.9448 98.9418 95.0264 99.0187C95.1083 99.1012 95.1889 99.1852 95.2681 99.2708L93.2437 93.7983C93.1556 93.5773 93.1853 93.3826 93.333 93.2141L93.4635 93.0653C93.6138 92.8938 93.803 92.8389 94.0309 92.9006L99.7549 94.1717C99.6598 94.1042 99.5673 94.0337 99.4775 93.9602C99.3851 93.8897 99.3012 93.8215 99.2261 93.7556L94.7749 89.8495L95.5897 88.9202L102.084 94.6189L101.392 95.4084C101.31 95.5017 101.238 95.5659 101.175 95.6012C101.115 95.6392 101.024 95.6423 100.903 95.6105L95.3011 94.3824C95.1743 94.351 95.0472 94.314 94.9197 94.2713C94.7926 94.2342 94.6664 94.19 94.5412 94.1387C94.6058 94.2592 94.6675 94.3799 94.7265 94.5008C94.7857 94.6273 94.8392 94.7514 94.8868 94.873L96.8527 100.23C96.9 100.346 96.9087 100.436 96.8789 100.501C96.8521 100.568 96.7979 100.648 96.7161 100.741L96.0239 101.53Z" fill="#FAF8F5"/>
<path d="M82.8142 105.211C82.4536 104.682 82.2071 104.136 82.0748 103.573C81.9424 103.009 81.9227 102.459 82.0157 101.921C82.1077 101.388 82.3115 100.881 82.627 100.399C82.9392 99.9199 83.3629 99.4976 83.8981 99.1323C84.4301 98.7693 84.9777 98.5288 85.5411 98.4107C86.1012 98.2948 86.6474 98.2901 87.1799 98.3965C87.7146 98.5062 88.22 98.7255 88.696 99.0544C89.172 99.3833 89.5903 99.8122 89.9508 100.341C90.3114 100.87 90.5578 101.416 90.6902 101.979C90.8226 102.543 90.8423 103.093 90.7493 103.631C90.6562 104.17 90.4536 104.678 90.1414 105.158C89.8259 105.639 89.4022 106.062 88.8702 106.425C88.335 106.79 87.7873 107.03 87.2273 107.146C86.6639 107.264 86.1165 107.267 85.5851 107.155C85.0504 107.046 84.545 106.826 84.069 106.498C83.593 106.169 83.1747 105.74 82.8142 105.211ZM83.9986 104.403C84.2781 104.813 84.5855 105.143 84.9209 105.393C85.253 105.646 85.6009 105.815 85.9645 105.901C86.3249 105.99 86.6938 105.995 87.0712 105.916C87.4486 105.838 87.8207 105.673 88.1875 105.423C88.5509 105.175 88.838 104.89 89.0486 104.567C89.2593 104.244 89.391 103.897 89.4437 103.527C89.4963 103.157 89.4673 102.77 89.3565 102.366C89.2458 101.962 89.0507 101.556 88.7713 101.146C88.4896 100.733 88.1811 100.401 87.8457 100.15C87.5102 99.8999 87.1607 99.7316 86.7971 99.6456C86.4357 99.5629 86.0663 99.5608 85.6888 99.6392C85.3137 99.7209 84.9444 99.8857 84.5809 100.134C84.2142 100.384 83.9243 100.669 83.7114 100.989C83.5007 101.312 83.3696 101.655 83.3179 102.02C83.2653 102.39 83.296 102.776 83.41 103.177C83.5208 103.581 83.717 103.99 83.9986 104.403Z" fill="#FAF8F5"/>
<path d="M75.1492 111.438L77.6525 110.442L74.8941 103.5L76.1932 102.983L78.9516 109.925L81.4605 108.928L81.8925 110.015L75.5813 112.525L75.1492 111.438Z" fill="#FAF8F5"/>
<path d="M68.085 109.559C67.7788 109.619 67.5176 109.711 67.3013 109.835C67.0811 109.959 66.9082 110.107 66.7827 110.278C66.6541 110.454 66.5704 110.652 66.5318 110.872C66.4931 111.091 66.4983 111.326 66.5474 111.578C66.5957 111.825 66.6783 112.039 66.7951 112.22C66.908 112.402 67.0545 112.546 67.2344 112.654C67.4143 112.761 67.629 112.827 67.8783 112.852C68.1245 112.881 68.4046 112.865 68.7187 112.804L69.9788 112.558L69.3452 109.313L68.085 109.559ZM68.9292 113.882C68.3756 113.99 67.884 114.019 67.4544 113.968C67.0208 113.918 66.6495 113.801 66.3405 113.617C66.0283 113.438 65.7752 113.196 65.5813 112.891C65.3881 112.591 65.2528 112.242 65.1754 111.846C65.0964 111.441 65.0926 111.057 65.1641 110.693C65.2363 110.332 65.3841 110.004 65.6074 109.707C65.8316 109.415 66.1324 109.16 66.5099 108.944C66.8842 108.732 67.3384 108.574 67.8723 108.47L69.1324 108.223L68.5332 105.155L69.9112 104.886L71.5672 113.366L68.9292 113.882Z" fill="#FAF8F5"/>
<path d="M56.6748 109.234L57.8657 112.392C57.9095 112.512 57.9574 112.65 58.0092 112.806C58.0611 112.966 58.1109 113.138 58.1587 113.322C58.2029 113.134 58.2511 112.96 58.3032 112.8C58.3514 112.644 58.3995 112.506 58.4477 112.386L59.6388 109.237L56.6748 109.234ZM54.0261 105.992L55.1121 105.993C55.2321 105.993 55.3321 106.023 55.412 106.083C55.4879 106.147 55.5439 106.225 55.5798 106.317L56.2978 108.226L60.0238 108.23L60.7458 106.322C60.7778 106.243 60.8339 106.169 60.914 106.101C60.9941 106.033 61.0921 105.999 61.2081 105.999L62.3001 106L58.8654 114.637L57.4434 114.635L54.0261 105.992Z" fill="#FAF8F5"/>
<path d="M43.0137 104.015C42.7145 103.913 42.4511 103.862 42.2234 103.86C41.9907 103.862 41.7894 103.901 41.6194 103.978C41.4457 104.054 41.3027 104.164 41.1906 104.308C41.0733 104.454 40.9825 104.621 40.9181 104.811C40.7868 105.197 40.8164 105.545 41.0068 105.855C41.1921 106.167 41.5688 106.42 42.1368 106.613L43.7784 107.172L44.6609 104.576L43.0137 104.015ZM42.5907 110.665L43.4597 108.109L42.1305 107.657C41.5625 107.464 41.1011 107.429 40.7462 107.553C40.3913 107.678 40.1436 107.946 40.0033 108.359C39.8501 108.81 39.8719 109.181 40.0688 109.471C40.2618 109.761 40.6386 110.001 41.199 110.192L42.5907 110.665ZM40.8456 111.232C40.323 111.054 39.8936 110.851 39.5572 110.622C39.2196 110.397 38.963 110.152 38.7875 109.885C38.6121 109.618 38.5151 109.332 38.4967 109.025C38.4732 108.722 38.5181 108.403 38.6314 108.07C38.6971 107.877 38.7911 107.699 38.9135 107.538C39.0308 107.38 39.179 107.242 39.358 107.126C39.532 107.011 39.733 106.924 39.961 106.862C40.1891 106.8 40.4441 106.77 40.7262 106.773C39.6511 106.133 39.2809 105.32 39.6157 104.336C39.7341 103.987 39.9092 103.69 40.1409 103.443C40.3675 103.199 40.6418 103.014 40.9638 102.887C41.2808 102.762 41.641 102.703 42.0444 102.709C42.4478 102.716 42.8825 102.798 43.3482 102.957L46.3474 103.977L43.5664 112.157L40.8456 111.232Z" fill="#FAF8F5"/>
<path d="M27.6119 104.397L31.9629 96.9323L33.1756 97.6398L30.287 102.595C30.1903 102.761 30.0862 102.932 29.9745 103.108C29.8594 103.281 29.7276 103.464 29.5791 103.655C29.7495 103.514 29.918 103.387 30.0847 103.276C30.2459 103.166 30.397 103.074 30.538 102.999L36.4792 100.074C36.533 100.045 36.592 100.02 36.6562 99.9968C36.7169 99.972 36.7826 99.9547 36.8531 99.9449C36.9182 99.9366 36.9837 99.9354 37.0496 99.9414C37.1135 99.9509 37.1748 99.9728 37.2336 100.007L38.1405 100.536L33.7895 108.001L32.5716 107.29L35.4572 102.34C35.5539 102.174 35.6608 102.002 35.7779 101.825C35.8895 101.65 36.0176 101.47 36.1621 101.285C35.9937 101.423 35.8289 101.547 35.6677 101.657C35.5011 101.768 35.35 101.86 35.2144 101.934L29.2732 104.859C29.2194 104.888 29.1621 104.914 29.1014 104.939C29.0372 104.962 28.9726 104.978 28.9075 104.986C28.837 104.996 28.7698 104.996 28.7058 104.986C28.6399 104.98 28.5776 104.96 28.5189 104.926L27.6119 104.397Z" fill="#FAF8F5"/>
<path d="M25.0263 91.8366L20.6323 96.5502L22.5275 98.3184C23.1818 97.687 23.7769 97.1454 24.3129 96.6936C24.8462 96.2447 25.3325 95.8697 25.7719 95.5684C26.2056 95.2674 26.5978 95.0315 26.9483 94.8607C27.2933 94.6902 27.606 94.5717 27.8867 94.5053L25.0263 91.8366ZM22.9907 89.9374L24.8767 87.9142C24.9585 87.8264 25.0561 87.7834 25.1693 87.7851C25.2796 87.7841 25.3831 87.8286 25.4796 87.9187L26.0938 88.4917L24.6782 90.0102L29.5303 94.5371L30.6677 93.3171C30.7495 93.2293 30.8471 93.1862 30.9603 93.188C31.0706 93.1869 31.174 93.2315 31.2706 93.3215L31.8848 93.8945L29.7205 96.2162L29.0537 95.5941C28.9279 95.5588 28.7776 95.5499 28.6028 95.5673C28.4251 95.582 28.2135 95.6418 27.9682 95.7466C27.7228 95.8514 27.4382 96.0071 27.1144 96.2137C26.7876 96.4176 26.4122 96.6883 25.9882 97.0258C25.5615 97.3662 25.0809 97.7821 24.5463 98.2735C24.0116 98.7649 23.4109 99.3477 22.744 100.022L18.8526 96.3915L23.9953 90.8748L22.9907 89.9374Z" fill="#FAF8F5"/>
<path d="M18.8547 83.4098L19.7924 82.7721L22.8442 87.2125L15.7256 92.109L12.6738 87.6686L13.6081 87.0259L15.8613 90.3043L18.0068 88.8285L16.2056 86.2078L17.1102 85.5856L18.9114 88.2063L21.1112 86.6931L18.8547 83.4098Z" fill="#FAF8F5"/>
<path d="M11.2069 73.8873C11.7953 73.6357 12.3787 73.4994 12.9569 73.4784C13.5352 73.4574 14.0791 73.5445 14.5889 73.7399C15.0933 73.9331 15.5512 74.2311 15.9625 74.6338C16.3722 75.0329 16.7043 75.5304 16.9589 76.1263C17.2119 76.7185 17.3417 77.3025 17.3485 77.8782C17.3536 78.4502 17.2524 78.9872 17.0449 79.4892C16.8338 79.9928 16.5208 80.4463 16.106 80.8499C15.6912 81.2535 15.1895 81.5811 14.6011 81.8327C14.0126 82.0842 13.4292 82.2206 12.851 82.2416C12.2728 82.2626 11.7288 82.1754 11.2191 81.9801C10.7094 81.7847 10.2496 81.4875 9.83993 81.0884C9.42865 80.6857 9.09651 80.1882 8.84352 79.596C8.58895 79.0001 8.4591 78.4161 8.45397 77.8441C8.44726 77.2684 8.55027 76.7306 8.763 76.2307C8.97416 75.7271 9.28714 75.2736 9.70195 74.87C10.1168 74.4665 10.6184 74.1389 11.2069 73.8873ZM11.7702 75.206C11.3141 75.401 10.9308 75.6388 10.6201 75.9196C10.3078 76.1966 10.0743 76.5053 9.91952 76.8455C9.76317 77.1821 9.68688 77.5432 9.69065 77.9287C9.69442 78.3143 9.78351 78.7112 9.95794 79.1195C10.1308 79.5242 10.3552 79.8611 10.6311 80.1303C10.9071 80.3995 11.2214 80.5957 11.5742 80.7189C11.927 80.8422 12.3121 80.8885 12.7297 80.8579C13.1472 80.8272 13.584 80.7144 14.0401 80.5195C14.4998 80.3229 14.885 80.0842 15.1957 79.8035C15.5064 79.5228 15.7392 79.2123 15.8939 78.872C16.045 78.5334 16.1187 78.1712 16.1149 77.7857C16.1075 77.4017 16.0173 77.0074 15.8445 76.6028C15.6701 76.1944 15.4467 75.8549 15.1745 75.5841C14.8985 75.3149 14.5868 75.1198 14.2393 74.9986C13.8865 74.8754 13.5021 74.8309 13.0861 74.8652C12.6686 74.8958 12.23 75.0094 11.7702 75.206Z" fill="#FAF8F5"/>
<path d="M10.4768 58.6586C10.1413 58.6409 9.82912 58.5603 9.54028 58.4168C9.24745 58.2732 8.99699 58.0857 8.7889 57.8544C8.57681 57.6229 8.41456 57.3579 8.30214 57.0596C8.18993 56.7572 8.14258 56.4403 8.16009 56.1088C8.17782 55.7732 8.25839 55.461 8.40183 55.1722C8.54526 54.8834 8.73462 54.635 8.96991 54.4272C9.20121 54.2191 9.47003 54.059 9.77636 53.9471C10.0787 53.8349 10.3976 53.7876 10.7332 53.8054C11.0687 53.8231 11.3809 53.9037 11.6697 54.0471C11.9546 54.1904 12.201 54.3776 12.4091 54.609C12.6172 54.8403 12.7774 55.1071 12.8896 55.4094C13.0018 55.7118 13.049 56.0307 13.0313 56.3662C13.0138 56.6978 12.9333 57.008 12.7899 57.2968C12.6467 57.5816 12.4594 57.8281 12.2281 58.0362C11.9968 58.2443 11.732 58.4045 11.4336 58.5169C11.1313 58.6291 10.8124 58.6763 10.4768 58.6586Z" fill="#FAF8F5"/>
</svg>
