<svg width="88" height="40" viewBox="0 0 88 40" fill="none" xmlns="http://www.w3.org/2000/svg">
<path fill-rule="evenodd" clip-rule="evenodd" d="M2.28598 6.27489L0 8.54973V14.4821V20.4145H3.67624H7.35248V12.2072V4H5.96222H4.57196L2.28598 6.27489ZM9.1906 12.2304V20.4607L12.8554 20.449L16.5201 20.4373L16.5317 12.2187L16.5433 4H12.867H9.1906V12.2304ZM20.6212 6.27489L18.3352 8.54973V14.4821V20.4145H19.2543H20.1734V14.9389V9.46345L21.9884 7.65795L23.8034 5.8525L23.815 13.122L23.8266 20.3916L24.7572 20.404L25.6877 20.4163V14.9399V9.46345L27.5029 7.65782L29.318 5.85218V13.1333V20.4145H30.2601H31.2021V12.2072V4H29.8123H28.4225L27.0551 5.35998L25.6877 6.71991V5.35998V4H24.2975H22.9072L20.6212 6.27489ZM44.023 19.5V35H44.942H45.8611V19.5V4H44.942H44.023V19.5ZM14.659 12.2072V18.5855H12.8439H11.0287V12.2072V5.82891H12.8439H14.659V12.2072ZM5.51436 12.2306V18.5866L3.68773 18.5746L1.8611 18.5627L1.84938 14.0148L1.83766 9.46702L3.64076 7.6708C4.63248 6.68292 5.45972 5.87463 5.47911 5.87463C5.49851 5.87463 5.51436 8.73482 5.51436 12.2306ZM56.8092 20.403L56.8209 24.5066L58.7739 24.5049L60.7269 24.5032L61.1017 24.3785C61.5446 24.2313 61.9645 23.9649 62.2167 23.6713C62.6277 23.1929 62.8529 22.451 62.8022 21.742C62.7226 20.6262 62.1322 19.8533 61.1017 19.5156C60.7448 19.3987 60.6724 19.3918 59.5896 19.3732L58.4522 19.3536V18.5352V17.7168H60.3593H62.2663V17.0081V16.2994H59.5319H56.7974L56.8092 20.403ZM65.5856 20.381C64.7701 22.625 64.1032 24.4768 64.1036 24.4963C64.1041 24.5156 64.4808 24.5259 64.9409 24.5191L65.7774 24.5066L66.027 23.7865L66.2765 23.0664H67.7305H69.1844L69.4279 23.7979L69.6714 24.5295H70.5231C71.1848 24.5295 71.3702 24.5167 71.3543 24.4723C71.343 24.4409 70.6653 22.5892 69.8484 20.3573L68.3632 16.2994L67.7158 16.3003L67.0684 16.3012L65.5856 20.381ZM73.0193 20.4145V24.5316L73.835 24.5191L74.6507 24.5066L74.6627 22.8035L74.6747 21.1003H76.0528H77.4308V22.8149V24.5295H78.235H79.0392V20.4145V16.2994H78.235H77.4308V17.9683V19.6372H76.0528H74.6748L74.6627 17.9797L74.6507 16.3223L73.835 16.3098L73.0193 16.2973V20.4145ZM81.5206 20.4145V24.5295H82.3473H83.174L83.186 22.4229L83.1979 20.3162L84.6202 22.4229L86.0425 24.5295H87.0212C87.5595 24.5295 88 24.5205 88 24.5095C88 24.493 86.112 21.7757 85.2155 20.5019L84.9713 20.155L86.3478 18.2443C87.1048 17.1934 87.7243 16.3259 87.7243 16.3165C87.7243 16.3071 87.2932 16.2994 86.7663 16.2994H85.8082L84.5031 18.2068L83.1979 20.1141L83.1859 18.2068L83.1739 16.2994H82.3473H81.5206V20.4145ZM68.2704 20.2691C68.5318 21.0317 68.7457 21.6643 68.7457 21.6751C68.7457 21.7103 66.7698 21.6957 66.7686 21.6604C66.7656 21.5716 67.7597 18.7746 67.7763 18.825C67.7867 18.8568 68.0091 19.5066 68.2704 20.2691ZM60.5431 20.9335C60.9625 21.1165 61.1609 21.4419 61.1624 21.9494C61.1641 22.4985 60.8962 22.8921 60.4336 23.0199C60.3422 23.0452 59.8589 23.066 59.3598 23.0661L58.4522 23.0664V21.9415V20.8167L59.4057 20.835C60.1857 20.85 60.3927 20.8679 60.5431 20.9335ZM0 23.1578V24.0723H15.5781H31.1561V23.1578V22.2434H15.5781H0V23.1578ZM0 30.4276V35H0.91906H1.83812V34.0855V33.1711H7.35276H12.8674L12.8556 29.5247L12.8439 25.8783L6.42193 25.8668L0 25.8551V30.4276ZM14.659 29.5133V33.1711H18.3123H21.9655V34.0855V35H22.9076H23.8496V34.0855V33.1711H27.5029H31.1561V29.5133V25.8555H22.9076H14.659V29.5133ZM10.9828 29.5361V31.3422H6.41044H1.83812V29.5361V27.7301H6.41044H10.9828V29.5361ZM22.0115 29.5361V31.3422H19.2773H16.5431V29.5361V27.7301H19.2773H22.0115V29.5361ZM29.318 29.5361V31.3422H26.5838H23.8496V29.5361V27.7301H26.5838H29.318V29.5361Z" fill="#918678"/>
</svg>
