<svg width="132" height="40" viewBox="0 0 132 40" fill="none" xmlns="http://www.w3.org/2000/svg">
<path fill-rule="evenodd" clip-rule="evenodd" d="M73.4879 5.0494C73.4003 5.08326 71.6689 5.31536 68.5385 5.71281C68.1246 5.76536 67.4471 5.85141 67.0332 5.90395C66.6193 5.9565 65.9931 6.03733 65.6419 6.08359C65.2906 6.12976 64.6748 6.20754 64.2734 6.25632C63.872 6.30509 63.2356 6.38745 62.8593 6.43937C62.483 6.49129 61.8466 6.57392 61.4452 6.62296C60.6819 6.7162 59.9885 6.80368 58.6216 6.9791C58.1727 7.03677 57.7108 7.11922 57.5953 7.16251L57.3853 7.24102V9.53961C57.3853 10.9036 57.4225 11.9066 57.4767 12.0063C57.5614 12.1621 60.8202 14.3813 61.6853 14.8723L62.067 15.089L61.2903 15.2438C60.0879 15.4835 59.3968 15.8621 58.4308 16.8102C57.3882 17.8334 56.9556 18.6293 56.5506 20.2695C56.3623 21.0321 56.3898 24.0816 56.5926 24.9217C57.1154 27.0873 58.2512 28.578 60.0574 29.469C61.8462 30.3514 64.3804 30.6895 66.877 30.3788C68.7931 30.1405 69.9825 29.7367 71.1169 28.9397C72.1773 28.1948 72.9361 27.1687 73.3856 25.8719C73.8024 24.6697 73.8469 24.3419 73.8421 22.515C73.838 21.0241 73.8079 20.6499 73.6399 20C73.4227 19.1602 73.4176 19.1469 72.9752 18.2566C72.4913 17.2826 71.5243 16.3841 69.6105 15.1301C66.8514 13.3223 64.3656 11.642 64.3388 11.5666C64.3246 11.5267 64.6735 11.4681 65.1143 11.4363C65.555 11.4045 66.3261 11.339 66.8279 11.2907C67.894 11.1882 73.8206 10.6608 73.9212 10.6596C73.9588 10.659 73.9897 9.38548 73.9897 7.82934V5L73.7844 5.0071C73.6715 5.01096 73.5381 5.03 73.4879 5.0494ZM8.98641 14.7406C7.76007 14.9834 6.57824 15.5133 5.54138 16.2853C5.25226 16.5005 4.99362 16.6766 4.96643 16.6766C4.93934 16.6766 4.92474 16.3379 4.93404 15.924C4.94335 15.51 4.92246 15.126 4.8877 15.0707C4.82019 14.9631 0.420126 14.9204 0.14433 15.0246C0.0139587 15.0738 0 16.0398 0 25.0396V35H2.46328H4.92656V31.6766C4.92656 29.8488 4.947 28.3533 4.97191 28.3533C4.9969 28.3533 5.27398 28.5396 5.58773 28.7673C6.36174 29.329 7.40599 29.8336 8.35508 30.1043C9.42971 30.411 11.2889 30.4263 12.4827 30.1385C14.6383 29.6188 16.0533 28.3309 16.7633 26.2425C17.4961 24.0871 17.5177 21.0314 16.8156 18.8323C16.3257 17.2976 15.2126 15.9814 13.8674 15.346C12.4906 14.6957 10.4753 14.4458 8.98641 14.7406ZM26.2294 14.6712C23.3441 15.0245 22.0545 15.528 20.7531 16.8091C19.3497 18.1909 18.6915 20.048 18.7087 22.5771C18.7253 25.019 19.4115 26.9601 20.7167 28.258C21.9314 29.4656 23.3985 30.086 25.7276 30.3766C27.0655 30.5436 27.9864 30.5429 29.2856 30.3743C30.6849 30.1925 31.381 30.0141 32.2665 29.61C33.4805 29.0559 34.2993 28.4057 34.9588 27.4719C36.6359 25.0976 36.7322 20.4688 35.1576 17.9128C34.313 16.5418 32.892 15.5447 31.0995 15.0654C29.7927 14.7159 27.4276 14.5245 26.2294 14.6712ZM44.56 14.7476C42.418 15.0191 40.8474 15.6673 39.7187 16.7459C38.3739 18.0308 37.6846 19.9883 37.6807 22.533C37.6792 23.61 37.7145 23.9244 37.971 25.1198C38.2196 26.2775 39.0003 27.6874 39.7882 28.4014C40.9881 29.4888 42.2481 30.0178 44.3847 30.3312C45.8106 30.5404 46.8824 30.5534 48.2348 30.3778C49.7351 30.1829 50.3939 30.0023 51.4552 29.4946C52.2679 29.1058 52.5243 28.9267 53.146 28.3131C53.6803 27.7858 53.9807 27.3951 54.2545 26.8713C54.577 26.2543 55.0133 25.0887 55.0133 24.844C55.0133 24.6628 54.5758 24.5754 53.2176 24.4854C52.4239 24.4329 51.405 24.3589 50.9534 24.3211C50.0347 24.2441 49.8426 24.2969 49.7539 24.6508C49.6597 25.0265 49.307 25.5286 48.9481 25.7982C48.4586 26.1658 47.5598 26.3718 46.4374 26.3736C44.7902 26.3763 43.8565 26.0001 43.3248 25.1198C42.9997 24.5815 42.925 24.1031 42.925 22.5599C42.925 20.7 43.0445 20.2277 43.6942 19.5205C44.2144 18.9542 45.1873 18.7083 46.6954 18.7618C48.4298 18.8234 49.322 19.2814 49.7127 20.311L49.8845 20.7635L50.7382 20.762C52.1021 20.7598 54.8652 20.535 54.9855 20.4165C55.0618 20.3414 54.8274 19.4751 54.5461 18.7927C54.1953 17.9414 53.5493 17.0472 52.8802 16.4869C52.2371 15.9483 50.7869 15.2367 49.8984 15.0238C48.2585 14.6307 46.2864 14.5287 44.56 14.7476ZM80.6643 14.7455C78.5024 15.1506 77.105 16.1415 76.2262 17.8924C75.5628 19.2143 75.3102 20.7725 75.3895 23.0539C75.4862 25.8323 76.0028 27.2926 77.3605 28.6255C78.5706 29.8134 79.7193 30.2356 81.9269 30.3037C83.1746 30.3421 83.4323 30.3241 84.1164 30.1511C85.3078 29.8495 86.9531 29.0192 87.3929 28.4975C87.6186 28.2297 87.6746 28.3507 87.6746 29.1063C87.6746 29.8113 87.6877 29.8627 87.8798 29.9135C88.1872 29.9946 92.3552 29.9785 92.4876 29.8957C92.5783 29.839 92.5973 28.2838 92.5789 22.4195L92.5555 15.015H90.1378H87.7202L87.6939 15.8458C87.6795 16.3027 87.6459 16.6766 87.6194 16.6766C87.5928 16.6766 87.3408 16.4921 87.0595 16.2664C86.4523 15.7794 84.9481 15.047 84.1165 14.8335C83.3202 14.629 81.5295 14.5833 80.6643 14.7455ZM95.3077 15.03C95.2742 15.0628 95.2469 18.4133 95.2469 22.4754C95.2469 29.1273 95.2612 29.8664 95.3912 29.9155C95.645 30.0115 99.808 29.9767 99.997 29.8771C100.165 29.7884 100.173 29.6617 100.173 27.0927V24.4012H103.184H106.195V27.0778C106.195 29.0399 106.224 29.7832 106.304 29.8623C106.473 30.028 110.97 30.0145 111.111 29.8479C111.186 29.759 111.207 27.73 111.19 22.3704L111.167 15.015L108.756 14.991C106.887 14.9724 106.328 14.9926 106.271 15.0808C106.231 15.1434 106.197 16.3775 106.196 17.8231L106.195 20.4515L103.207 20.4279L100.219 20.4042L100.195 17.7589C100.177 15.78 100.142 15.0959 100.058 15.0433C99.9215 14.9578 95.3938 14.9452 95.3077 15.03ZM113.878 15.0763C113.793 15.1604 113.767 16.8717 113.767 22.4849C113.767 29.6095 113.771 29.7863 113.944 29.8771C114.133 29.9766 118.205 30.0114 118.458 29.9155C118.586 29.8672 118.602 29.4901 118.602 26.5922C118.602 24.6038 118.636 23.3234 118.688 23.3234C118.736 23.3234 118.835 23.408 118.908 23.5113C118.982 23.6147 119.694 24.3725 120.491 25.1955C121.289 26.0183 122.635 27.4104 123.484 28.289C124.333 29.1675 125.111 29.9064 125.213 29.9309C125.316 29.9554 126.651 29.9641 128.182 29.9503L130.964 29.9251L130.995 29.6655C131.011 29.5226 130.988 29.3811 130.944 29.3511C130.759 29.2254 123.894 22.154 123.894 22.089C123.894 22.0498 125.455 20.4831 127.362 18.6075C129.317 16.6855 130.811 15.1476 130.786 15.0836C130.752 14.9954 130.091 14.9701 127.819 14.9701H124.897L121.772 18.079L118.648 21.1879L118.602 18.1015L118.557 15.015L116.273 14.991C114.573 14.9732 113.961 14.995 113.878 15.0763ZM10.4991 18.9158C11.5146 19.2898 11.9495 19.9915 12.1231 21.5358C12.2476 22.6426 12.1324 23.9678 11.8455 24.7297C11.6223 25.3222 11.0609 25.8393 10.3985 26.0623C9.99955 26.1967 9.63198 26.2305 8.57587 26.2298C7.41229 26.229 7.18703 26.2039 6.7056 26.0208C6.02309 25.7613 5.55789 25.299 5.28438 24.6082C5.10109 24.1453 5.0771 23.9206 5.07062 22.6048C5.06588 21.6362 5.10638 20.9504 5.18749 20.6251C5.42132 19.6866 6.07363 19.0366 6.97556 18.8433C7.22855 18.789 7.51757 18.7258 7.61793 18.7027C7.71828 18.6796 8.29387 18.6762 8.89692 18.6952C9.71719 18.7209 10.1209 18.7765 10.4991 18.9158ZM85.9555 18.9166C86.3016 19.0453 86.5953 19.2407 86.8475 19.51C87.2926 19.9854 87.3816 20.1851 87.5466 21.0778C87.7612 22.2402 87.7088 23.1909 87.3467 24.6996C87.3132 24.839 87.0962 25.1534 86.8644 25.3983C86.3216 25.9719 85.7621 26.1758 84.5332 26.2481C82.8407 26.3476 81.6429 26.0151 81.1163 25.2994C80.6364 24.6472 80.518 24.0871 80.518 22.4701C80.518 20.8588 80.6367 20.2925 81.1091 19.6505C81.4236 19.2231 82.1276 18.8403 82.7927 18.7352C83.6324 18.6025 85.3802 18.7027 85.9555 18.9166ZM29.2683 18.9585C29.7919 19.1243 30.4004 19.6039 30.6216 20.0249C30.942 20.6348 31.0171 21.1165 31.0171 22.5599C31.0171 24.4422 30.8465 25.035 30.1181 25.6828C29.6288 26.118 28.989 26.303 27.7935 26.3548C25.7881 26.4417 24.7171 25.9769 24.2128 24.8005C23.954 24.1968 23.8121 22.7003 23.9203 21.7148C24.1738 19.4062 25.043 18.7209 27.6435 18.7794C28.4049 18.7966 28.9449 18.856 29.2683 18.9585ZM66.5086 18.8705C67.4884 19.1079 67.9317 19.4022 68.2603 20.0338C68.8402 21.1484 68.843 23.9699 68.2652 25.0749C67.8003 25.9639 66.8229 26.3679 65.1218 26.374C63.9355 26.3783 63.0535 26.1531 62.5171 25.7086C61.7967 25.1119 61.5817 24.3705 61.583 22.4881C61.584 21.1202 61.6635 20.6266 61.9795 20.0249C62.22 19.5671 62.8095 19.1206 63.3801 18.9641C63.6707 18.8844 63.9495 18.8052 63.9997 18.788C64.2455 18.7037 66.0674 18.7636 66.5086 18.8705Z" fill="#918678"/>
</svg>
