<svg width="126" height="40" viewBox="0 0 126 40" fill="none" xmlns="http://www.w3.org/2000/svg">
<g clip-path="url(#clip0_10307_71326)">
<path d="M126 0H0V40H126V0Z" fill="#211C17"/>
<mask id="mask0_10307_71326" style="mask-type:luminance" maskUnits="userSpaceOnUse" x="15" y="8" width="96" height="24">
<path d="M111 8.14844H15V31.8521H111V8.14844Z" fill="white"/>
</mask>
<g mask="url(#mask0_10307_71326)">
<path fill-rule="evenodd" clip-rule="evenodd" d="M26.619 31.8521C21.1418 31.8521 18.4031 31.8521 16.7016 30.1859C15 28.5197 15 25.8378 15 20.4743V19.5261C15 14.1626 15 11.4808 16.7016 9.81459C18.4031 8.14844 21.1418 8.14844 26.619 8.14844H27.5873C33.0645 8.14844 35.8032 8.14844 37.5047 9.81459C39.2063 11.4808 39.2063 14.1626 39.2063 19.5261V20.4743C39.2063 25.8378 39.2063 28.5197 37.5047 30.1859C35.8032 31.8521 33.0645 31.8521 27.5873 31.8521H26.619Z" fill="#0077FF"/>
<path d="M29.0001 22.757C28.3479 22.5974 27.8906 22.0262 27.8906 21.3709V13.6517C27.8906 12.9074 28.6087 12.3616 29.3495 12.5428L34.0406 13.6903C34.6928 13.8499 35.1501 14.4211 35.1501 15.0763V22.7957C35.1501 23.5399 34.432 24.0857 33.6912 23.9045L29.0001 22.757Z" fill="#FAF8F5"/>
<path d="M20.172 26.3116C19.5198 26.1521 19.0625 25.5808 19.0625 24.9256V17.2063C19.0625 16.4621 19.7806 15.9163 20.5214 16.0975L25.2125 17.245C25.8646 17.4045 26.322 17.9758 26.322 18.631V26.3504C26.322 27.0945 25.6038 27.6404 24.863 27.4592L20.172 26.3116Z" fill="#FAF8F5"/>
<path d="M24.586 24.5304C23.9338 24.3709 23.4766 23.7995 23.4766 23.1444V15.4251C23.4766 14.6809 24.1947 14.135 24.9355 14.3162L29.6266 15.4638C30.2788 15.6233 30.736 16.1946 30.736 16.8498V24.5691C30.736 25.3133 30.0179 25.8591 29.2771 25.6779L24.586 24.5304Z" fill="#FAF8F5"/>
<path d="M27.6542 25.2858C27.4488 25.2346 27.3026 25.0567 27.2954 24.8492L27.0913 18.954C27.0323 18.1738 26.4408 17.5533 25.8228 17.3705C25.788 17.3603 25.751 17.3741 25.7304 17.4034C25.7096 17.4331 25.7176 17.4742 25.7468 17.4962C25.8994 17.6119 26.3195 17.9895 26.3195 18.6407L26.3182 24.9543L27.6542 25.2858Z" fill="#0077FF"/>
<path d="M32.0683 23.5101C31.863 23.4598 31.7166 23.2825 31.7095 23.0754L31.5053 17.1806C31.4463 16.4004 30.8549 15.7799 30.2368 15.5971C30.2021 15.5868 30.1651 15.6007 30.1445 15.6299C30.1236 15.6596 30.1317 15.7008 30.1608 15.7228C30.3134 15.8385 30.7335 16.2161 30.7335 16.8673L30.7323 23.183L32.0683 23.5101Z" fill="#0077FF"/>
<path d="M53.1393 25.9928C54.9724 25.5352 56.1769 24.1623 56.1769 22.3656C56.1769 20.1453 54.3612 18.5859 51.8124 18.5859H47.2734V30.5353H49.3684V26.1453H50.8524L54.0993 30.5353H56.561L53.1393 25.9928ZM51.8124 20.4504C53.1217 20.4504 54.0297 21.23 54.0297 22.3656C54.0297 23.5013 53.1217 24.2809 51.8124 24.2809H49.3684V20.4504H51.8124Z" fill="#FAF8F5"/>
<path d="M61.2792 30.7097C62.379 30.7097 63.3915 30.1504 63.9678 29.2182L64.3692 30.5403H65.8707V21.7266H63.863V26.8283C63.863 28.0826 63.0075 28.964 61.8379 28.964C60.6857 28.964 59.8824 28.0826 59.8824 26.8283V21.7266H57.875V27.0487C57.875 29.1674 59.3414 30.7097 61.2792 30.7097Z" fill="#FAF8F5"/>
<path d="M72.2798 30.7102C74.6017 30.7102 76.5222 29.422 76.5222 27.2864C76.5222 24.8965 74.5145 24.2017 72.7862 23.6254C71.442 23.1847 70.2724 22.7779 70.2724 21.7101C70.2724 20.7778 71.1624 20.2863 72.21 20.2863C73.3099 20.2863 74.0955 20.8457 74.5321 21.7948L76.5222 21.4728C75.8937 19.6083 74.3049 18.4219 72.1404 18.4219C69.9057 18.4219 68.1249 19.6761 68.1249 21.8118C68.1249 24.2186 70.1326 24.8796 71.8608 25.4389C73.1878 25.8627 74.3748 26.2694 74.3748 27.3542C74.3748 28.3034 73.4846 28.8458 72.2974 28.8458C70.9356 28.8458 70.2025 28.2186 69.5566 27.083L67.5312 27.422C68.1249 29.439 70.0104 30.7102 72.2798 30.7102Z" fill="#FAF8F5"/>
<path d="M81.9803 28.8408C81.2993 28.8408 80.9678 28.5188 80.9678 27.8578V23.417H83.6738V21.7221H80.9678V19.1797H79.4663L78.9601 21.7221H77.4766V23.417H78.9601V27.8578C78.9601 29.5866 79.9906 30.5358 81.9803 30.5358H83.6738L83.8486 28.8408H81.9803Z" fill="#FAF8F5"/>
<path d="M89.5876 30.7074C92.4331 30.7074 94.4409 28.809 94.4409 26.131C94.4409 23.453 92.4331 21.5547 89.5876 21.5547C86.7421 21.5547 84.7344 23.453 84.7344 26.131C84.7344 28.809 86.7421 30.7074 89.5876 30.7074ZM89.5876 28.9276C87.9466 28.9276 86.8291 27.792 86.8291 26.131C86.8291 24.4699 87.9466 23.3343 89.5876 23.3343C91.2286 23.3343 92.3461 24.4699 92.3461 26.131C92.3461 27.792 91.2286 28.9276 89.5876 28.9276Z" fill="#FAF8F5"/>
<path d="M98.1945 30.5403V25.3368C98.1945 24.2181 98.7532 23.591 99.9757 23.591H101.128L100.953 21.7266H100.569C99.504 21.7266 98.6835 22.0147 98.0723 22.9978L97.6882 21.7266H96.1875V30.5403H98.1945Z" fill="#FAF8F5"/>
<path d="M111.005 26.0293C111.005 23.4869 109.05 21.5547 106.292 21.5547C103.533 21.5547 101.578 23.4699 101.578 26.131C101.578 28.792 103.533 30.7074 106.292 30.7074C108.177 30.7074 109.958 29.8429 110.639 28.1649L108.753 27.8599C108.317 28.487 107.479 28.9276 106.414 28.9276C104.878 28.9276 103.865 28.0124 103.673 26.6564H110.97C110.988 26.4699 111.005 26.2665 111.005 26.0293ZM106.292 23.2496C107.549 23.2496 108.492 24.0293 108.823 25.131H103.795C104.127 23.9954 105.069 23.2496 106.292 23.2496Z" fill="#FAF8F5"/>
<path d="M47.4453 15.5971V13.8715H47.5605C47.7098 13.8715 47.8293 13.8356 47.9189 13.764C48.0085 13.6924 48.0832 13.5491 48.1429 13.3341C48.2069 13.115 48.256 12.7927 48.2901 12.367L48.4757 10.0156H51.3173V13.8715H51.9765V15.5971H51.3173V14.4719H48.1045V15.5971H47.4453ZM50.6581 13.8715V10.6161H49.0837L48.9493 12.3987C48.8981 13.1108 48.7658 13.6018 48.5525 13.8715H50.6581Z" fill="#FAF8F5"/>
<path d="M54.0753 14.535C53.7382 14.535 53.4374 14.4634 53.1729 14.32C52.9084 14.1768 52.7014 13.9766 52.5521 13.7196C52.4027 13.4625 52.3281 13.1697 52.3281 12.8409C52.3281 12.5123 52.4027 12.2194 52.5521 11.9623C52.7014 11.7053 52.9084 11.5051 53.1729 11.3618C53.4374 11.2143 53.7382 11.1406 54.0753 11.1406C54.4124 11.1406 54.7132 11.2143 54.9777 11.3618C55.2422 11.5051 55.4492 11.7053 55.5985 11.9623C55.7478 12.2194 55.8225 12.5123 55.8225 12.8409C55.8225 13.1697 55.7478 13.4625 55.5985 13.7196C55.4492 13.9766 55.2422 14.1768 54.9777 14.32C54.7132 14.4634 54.4124 14.535 54.0753 14.535ZM54.0753 13.9661C54.3995 13.9661 54.662 13.8628 54.8625 13.6563C55.0673 13.4499 55.1697 13.178 55.1697 12.8409C55.1697 12.5038 55.0673 12.232 54.8625 12.0255C54.662 11.8148 54.3995 11.7095 54.0753 11.7095C53.751 11.7095 53.4886 11.8148 53.2881 12.0255C53.0876 12.232 52.9873 12.5038 52.9873 12.8409C52.9873 13.1739 53.0876 13.4457 53.2881 13.6563C53.4886 13.8628 53.751 13.9661 54.0753 13.9661Z" fill="#FAF8F5"/>
<path d="M58.012 14.535C57.6835 14.535 57.387 14.4634 57.1225 14.32C56.8621 14.1726 56.6595 13.9703 56.5145 13.7132C56.3694 13.4562 56.2969 13.1654 56.2969 12.8409C56.2969 12.5123 56.3694 12.2194 56.5145 11.9623C56.6595 11.7053 56.8621 11.5051 57.1225 11.3618C57.3827 11.2143 57.6793 11.1406 58.012 11.1406C58.3662 11.1406 58.6819 11.2248 58.9592 11.3934C59.2408 11.562 59.4414 11.8043 59.5609 12.1203L58.972 12.2151C58.8952 12.0634 58.7737 11.9413 58.6072 11.8486C58.4451 11.7558 58.2595 11.7095 58.0504 11.7095C57.7261 11.7095 57.4616 11.8148 57.2569 12.0255C57.0563 12.2363 56.956 12.508 56.956 12.8409C56.956 13.1739 57.0563 13.4457 57.2569 13.6563C57.4616 13.8628 57.7261 13.9661 58.0504 13.9661C58.268 13.9661 58.46 13.9176 58.6264 13.8207C58.7971 13.7238 58.9208 13.5952 58.9976 13.4351L59.5864 13.53C59.467 13.8502 59.2621 14.0988 58.972 14.2758C58.6861 14.4486 58.3662 14.535 58.012 14.535Z" fill="#FAF8F5"/>
<path d="M61.5228 14.4711H60.8956V11.772H59.75V11.2031H62.6684V11.772H61.5228V14.4711Z" fill="#FAF8F5"/>
<path d="M65.6369 11.2031H66.2833L64.9009 14.9641C64.7985 15.2465 64.6641 15.4508 64.4977 15.5773C64.3313 15.7036 64.1094 15.7669 63.8321 15.7669H63.3393L63.2817 15.198H63.8705C63.9942 15.198 64.0902 15.1706 64.1585 15.1158C64.2268 15.0653 64.2844 14.9747 64.3313 14.844L64.4017 14.6544L62.9297 11.2031H63.6017L64.6513 13.7252H64.7409L65.6369 11.2031Z" fill="#FAF8F5"/>
<path d="M67.471 14.4711H66.8438V11.2031H69.6598V14.4711H69.0326V11.772H67.471V14.4711Z" fill="#FAF8F5"/>
<path d="M72.7521 12.5368V11.2031H73.3793V14.4711H72.7521V13.1057H71.1585V14.4711H70.5312V11.2031H71.1585V12.5368H72.7521Z" fill="#FAF8F5"/>
<path d="M75.7941 14.535C75.4573 14.535 75.1566 14.4634 74.8917 14.32C74.6272 14.1768 74.4202 13.9766 74.2709 13.7196C74.1216 13.4625 74.0469 13.1697 74.0469 12.8409C74.0469 12.5123 74.1216 12.2194 74.2709 11.9623C74.4202 11.7053 74.6272 11.5051 74.8917 11.3618C75.1566 11.2143 75.4573 11.1406 75.7941 11.1406C76.1308 11.1406 76.4323 11.2143 76.6963 11.3618C76.9611 11.5051 77.1681 11.7053 77.3173 11.9623C77.4666 12.2194 77.5416 12.5123 77.5416 12.8409C77.5416 13.1697 77.4666 13.4625 77.3173 13.7196C77.1681 13.9766 76.9611 14.1768 76.6963 14.32C76.4323 14.4634 76.1308 14.535 75.7941 14.535ZM75.7941 13.9661C76.1181 13.9661 76.3806 13.8628 76.5816 13.6563C76.7863 13.4499 76.8883 13.178 76.8883 12.8409C76.8883 12.5038 76.7863 12.232 76.5816 12.0255C76.3806 11.8148 76.1181 11.7095 75.7941 11.7095C75.4701 11.7095 75.2076 11.8148 75.0066 12.0255C74.8064 12.232 74.7061 12.5038 74.7061 12.8409C74.7061 13.1739 74.8064 13.4457 75.0066 13.6563C75.2076 13.8628 75.4701 13.9661 75.7941 13.9661Z" fill="#FAF8F5"/>
<path d="M81.9453 12.7581C82.1163 12.8213 82.2527 12.9245 82.3555 13.0678C82.462 13.2069 82.5153 13.3712 82.5153 13.5608C82.5153 13.7336 82.4643 13.8896 82.3615 14.0286C82.2633 14.1676 82.1245 14.2772 81.9453 14.3573C81.766 14.4331 81.5613 14.4711 81.331 14.4711H79.75V11.2031H81.2733C81.4915 11.2031 81.685 11.2411 81.856 11.3169C82.0263 11.3928 82.159 11.496 82.2528 11.6266C82.351 11.7573 82.3998 11.9068 82.3998 12.0754C82.3998 12.2356 82.3593 12.3746 82.2783 12.4926C82.2018 12.6064 82.0908 12.6949 81.9453 12.7581ZM80.3778 11.7278V12.5305H81.2733C81.4188 12.5305 81.538 12.4947 81.6318 12.4231C81.7255 12.3472 81.7728 12.2503 81.7728 12.1323C81.7728 12.0143 81.7255 11.9174 81.6318 11.8416C81.538 11.7657 81.4188 11.7278 81.2733 11.7278H80.3778ZM81.331 13.9465C81.4975 13.9465 81.6318 13.9043 81.7345 13.82C81.8365 13.7357 81.8883 13.6262 81.8883 13.4913C81.8883 13.3565 81.8365 13.2469 81.7345 13.1626C81.6318 13.0784 81.4975 13.0362 81.331 13.0362H80.3778V13.9465H81.331Z" fill="#FAF8F5"/>
</g>
</g>
<defs>
<clipPath id="clip0_10307_71326">
<rect width="126" height="40" rx="12" fill="white"/>
</clipPath>
</defs>
</svg>
