<svg width="23" height="36" viewBox="0 0 23 36" fill="none" xmlns="http://www.w3.org/2000/svg">
<path fill-rule="evenodd" clip-rule="evenodd" d="M3.21587 13.5423V19.5846H1.60802H0.000166923L0.0109392 22.0229L0.0217115 24.4613L1.61879 24.472L3.21587 24.4826V25.9921V27.5015H1.60794H0L0.0108551 29.4093L0.0217115 31.3171L1.61879 31.3278L3.21587 31.3385V33.4192V35.5H6.2639H9.31192V33.419V31.338L12.3913 31.3276L15.4706 31.3171L15.4815 29.4093L15.4923 27.5015H12.4021H9.31192V25.9916V24.4817L10.6585 24.4811C13.9081 24.4798 15.5751 24.293 17.2825 23.7388C18.2064 23.4389 19.3882 22.8055 20.1324 22.2114C20.5947 21.8423 21.2644 21.1332 21.5589 20.7009C22.2952 19.6199 22.8164 18.1376 22.9695 16.6897C23.0307 16.1106 22.9953 14.7866 22.9034 14.2183C22.6112 12.4103 21.814 10.9245 20.5283 9.7912C19.1422 8.56939 17.2821 7.89005 14.5311 7.60088C13.9716 7.54207 13.162 7.53065 8.54992 7.51645L3.21587 7.5V13.5423ZM13.5708 12.4998C14.8063 12.7156 15.4531 13.0088 16.0435 13.6205C16.6542 14.2532 16.9525 15.2888 16.8302 16.3511C16.7409 17.1271 16.5026 17.6749 16.0436 18.1594C15.3585 18.8827 14.4158 19.2911 12.9863 19.484C12.5992 19.5363 12.0571 19.5595 10.8881 19.5742L9.31192 19.5939V15.9946V12.3953L11.243 12.4129C12.8169 12.4272 13.2475 12.4433 13.5708 12.4998Z" fill="#FAF8F5"/>
</svg>
