<svg width="200" height="40" viewBox="0 0 200 40" fill="none" xmlns="http://www.w3.org/2000/svg">
<path fill-rule="evenodd" clip-rule="evenodd" d="M11.5099 5.39183C7.43094 6.4898 4.14657 8.93527 2.10106 12.3976C-1.47703 18.4538 -0.406884 26.0011 4.71529 30.8328C7.72447 33.6715 11.083 34.9921 15.313 34.9999C17.5825 35.0042 19.0148 34.7325 21.0974 33.9033C27.1052 31.5113 31.1022 25.1988 30.5358 18.9973C30.4639 18.2106 30.3638 17.5008 30.3133 17.4202C30.2628 17.3395 29.478 17.8065 28.5695 18.4576C26.9915 19.5889 26.9176 19.6748 26.9176 20.3813C26.9176 22.9821 25.4269 26.2068 23.3094 28.1872C17.1202 33.9754 7.36132 31.7691 4.29539 23.8884C3.60789 22.1212 3.51057 18.7399 4.09235 16.8377C5.54204 12.0992 9.56696 8.92605 14.4723 8.6542C16.824 8.52404 18.3564 8.80377 20.2864 9.71544C21.0909 10.0955 21.8248 10.412 21.9175 10.4185C22.1792 10.4374 24.7599 8.53212 24.7661 8.31583C24.7726 8.0807 23.2661 7.07483 21.9442 6.43174C19.9687 5.47085 18.3926 5.11653 15.7031 5.02847C13.4906 4.95619 12.9564 5.00252 11.5099 5.39183ZM47.181 11.0126C43.6714 11.8523 40.8882 14.5562 40.2011 17.7938C39.1294 22.8428 41.7163 27.3919 46.5789 29.0089C49.0703 29.8373 52.9698 29.4823 55.0024 28.2418C55.8202 27.7429 56.9528 26.8443 56.9528 26.6948C56.9528 26.6171 56.3702 26.1405 55.658 25.6354L54.3633 24.7172L53.3156 25.223C49.7796 26.9297 45.9127 25.7619 44.4394 22.5426C43.7661 21.0717 43.8042 18.8683 44.5281 17.4129C45.5018 15.4554 47.2368 14.3734 49.639 14.2255C50.9658 14.1438 51.3393 14.2217 53.1767 14.9623C53.7667 15.2001 53.8393 15.1722 55.1838 14.1896C56.4962 13.2306 56.5602 13.1497 56.2624 12.8252C55.758 12.2761 53.4394 11.1652 52.3112 10.9324C50.9436 10.65 48.5386 10.6877 47.181 11.0126ZM21.2616 15.1409C18.0972 17.4583 15.4199 19.358 15.3121 19.3624C15.2042 19.3668 13.9111 18.6351 12.4386 17.7363C10.9659 16.8375 9.66896 16.1021 9.55643 16.1021C9.42244 16.1021 9.37075 16.84 9.40683 18.2352L9.46203 20.3681L12.3741 22.1726L15.2861 23.9771L15.8847 23.5295C16.2139 23.2832 18.3216 21.7559 20.5688 20.1352C22.8158 18.5147 25.6912 16.423 26.9587 15.4871L29.263 13.7857L28.9405 13.1654C28.3819 12.0913 27.4933 10.9109 27.2495 10.9193C27.1206 10.9238 24.426 12.8234 21.2616 15.1409ZM60.3152 20.0914L60.3659 29.2715L65.4368 29.2571C71.733 29.239 72.6509 29.0395 74.5558 27.2744C76.6204 25.3615 76.534 21.4472 74.3859 19.5835C72.9598 18.3459 72.1984 18.165 68.021 18.071L64.3641 17.9887V16.0841V14.1796H68.1612H71.9581L74.1097 12.6204C75.293 11.7628 76.2611 11.0274 76.2611 10.9862C76.2611 10.9449 72.662 10.9113 68.2628 10.9113H60.2647L60.3152 20.0914ZM79.6235 20.0914L79.6742 29.2715H86.6954H93.7167L93.7732 27.6854L93.83 26.0993H88.8486H83.8675V23.8923V21.6852L88.0119 21.6333L92.1564 21.5814L92.213 19.9953L92.2697 18.4092H88.0685H83.8675V16.2944V14.1796L86.6467 14.1755L89.4259 14.1715L91.5126 12.6856C92.6602 11.8683 93.6037 11.1349 93.6092 11.0555C93.6147 10.9761 90.4588 10.9113 86.596 10.9113H79.573L79.6235 20.0914ZM97.3716 20.0914L97.4223 29.2715H99.3727H101.323L101.377 26.7242L101.432 24.1768L103.035 24.1753C108.565 24.1697 111.361 22.8922 112.53 19.8355C112.885 18.9065 112.951 18.4136 112.886 17.1516C112.756 14.6104 111.601 12.848 109.395 11.8208C107.79 11.0737 106.412 10.9113 101.675 10.9113H97.3211L97.3716 20.0914ZM121.166 20.0914L121.216 29.2715L126.287 29.2665C130.978 29.2619 131.463 29.2292 132.759 28.8322C134.542 28.2862 135.676 27.4351 136.372 26.122C136.839 25.2407 136.917 24.8697 136.917 23.5197C136.917 20.7556 135.767 19.2311 133.061 18.4071C132.023 18.0912 131.248 18.0247 128.607 18.0247H125.41V16.1054V14.1859L130.529 14.1348L135.649 14.0835L135.706 12.4974L135.762 10.9113H128.439H121.115L121.166 20.0914ZM144.544 15.0878C143.537 17.3904 141.76 21.4381 140.595 24.083C139.43 26.7276 138.477 28.9987 138.477 29.1297C138.477 29.4663 142.249 29.4642 142.53 29.1274C142.641 28.9953 143.04 28.1517 143.417 27.2529L144.103 25.6187L148.249 25.5668C151.436 25.5268 152.429 25.5712 152.548 25.7591C152.633 25.8933 152.981 26.6953 153.322 27.5413C153.663 28.3872 154.039 29.1429 154.157 29.2206C154.441 29.4067 158.127 29.4094 158.239 29.2235C158.287 29.1441 157.544 27.2625 156.589 25.0419C154.289 19.6992 152.674 15.9176 151.539 13.2183L150.61 11.0074L148.493 10.9543L146.376 10.9013L144.544 15.0878ZM160.953 20.0914L161.003 29.2715H162.954H164.904L164.957 25.5706L165.01 21.8698H169.195H173.38L173.432 25.5706L173.486 29.2715H175.436H177.386L177.437 20.0914L177.487 10.9113H175.438H173.388V14.6602V18.4092H169.195H165.002V14.6602V10.9113H162.952H160.902L160.953 20.0914ZM182.406 20.0914L182.457 29.2715H184.407H186.358L186.411 25.5616L186.464 21.8517L187.673 21.9088L188.883 21.9659L191.972 25.6668L195.062 29.3677H197.455C198.771 29.3677 199.903 29.3125 199.972 29.2452C200.122 29.0974 199.681 28.4745 198.42 27.051C197.9 26.4641 197.036 25.4726 196.5 24.8478C195.963 24.2228 195.214 23.362 194.834 22.9348C194.455 22.5077 193.681 21.621 193.115 20.9642L192.086 19.7703L195.609 15.434C197.547 13.0491 199.132 11.0558 199.132 11.0045C199.132 10.9532 198.089 10.9113 196.814 10.9113H194.496L191.597 14.7487L188.698 18.5862L187.577 18.5937L186.455 18.6014V14.7563V10.9113H184.405H182.356L182.406 20.0914ZM107.392 14.6721C108.454 15.455 108.734 16.0268 108.734 17.4139C108.734 18.9327 108.3 19.8215 107.265 20.4211C106.698 20.7495 106.173 20.8231 104.005 20.8793L101.42 20.9462V17.5485V14.1506L104.138 14.213C106.518 14.268 106.921 14.3247 107.392 14.6721ZM148.814 16.3251C148.814 16.4399 150.074 19.6846 151.098 22.2062C151.174 22.3919 150.548 22.4465 148.347 22.4465C146.78 22.4465 145.498 22.39 145.498 22.321C145.498 22.252 146.132 20.6903 146.907 18.8506C148.133 15.9408 148.349 15.5494 148.565 15.8407C148.702 16.0248 148.814 16.2429 148.814 16.3251ZM70.83 21.6092C72.7823 22.7262 72.4406 25.2271 70.2473 25.8748C69.8293 25.9984 68.3346 26.0993 66.9256 26.0993H64.3641V23.7283C64.3641 22.424 64.4298 21.2895 64.5103 21.2071C64.5909 21.1244 65.8988 21.0971 67.4169 21.1463C69.685 21.2197 70.2935 21.3024 70.83 21.6092ZM131.769 21.6337C132.736 22.1262 133.112 22.8875 132.956 24.0359C132.738 25.6383 131.613 26.0967 127.896 26.0982L125.41 26.0993V23.5758V21.0523L128.189 21.139C130.529 21.2119 131.095 21.2901 131.769 21.6337Z" fill="#918678"/>
</svg>
