<svg width="0" height="0" class="hidden">
  <symbol fill="none" xmlns="http://www.w3.org/2000/svg" viewBox="0 0 125 40" id="app">
    <g clip-path="url(#clip0_10307_71304)">
      <path d="M125 0H0V40H125V0Z" fill="#211C17"></path>
      <path d="M29.8082 19.2773C29.8188 18.4751 30.0369 17.6884 30.4423 16.9906C30.8476 16.2929 31.4271 15.7066 32.1267 15.2864C31.6823 14.6663 31.0959 14.156 30.4143 13.796C29.7327 13.436 28.9745 13.2362 28.2 13.2126C26.5479 13.0431 24.9463 14.1783 24.1044 14.1783C23.2462 14.1783 21.95 13.2294 20.5542 13.2574C19.6513 13.2859 18.7714 13.5424 18.0002 14.0019C17.229 14.4614 16.5928 15.1083 16.1535 15.8794C14.2508 19.0978 15.6701 23.8278 17.4927 26.4294C18.4047 27.7032 19.4705 29.1262 20.865 29.0757C22.2296 29.0205 22.7393 28.2256 24.3865 28.2256C26.0185 28.2256 26.4967 29.0757 27.9195 29.0437C29.3839 29.0205 30.3065 27.7641 31.1864 26.4782C31.8416 25.5705 32.3458 24.5672 32.6803 23.5057C31.8295 23.1542 31.1036 22.5657 30.5928 21.8138C30.0821 21.0619 29.8092 20.1797 29.8082 19.2773Z" fill="#FAF8F5"></path>
      <path d="M27.1238 11.5035C27.9222 10.5672 28.3156 9.36362 28.2203 8.14844C27.0005 8.27362 25.8738 8.84318 25.0645 9.74362C24.6689 10.1835 24.3659 10.6953 24.1728 11.2497C23.9797 11.8041 23.9004 12.3901 23.9393 12.9745C24.5494 12.9807 25.153 12.8515 25.7046 12.5967C26.2562 12.3418 26.7415 11.9681 27.1238 11.5035Z" fill="#FAF8F5"></path>
      <path d="M46.1849 25.985H41.7066L40.6312 29.0874H38.7344L42.9761 17.6094H44.9469L49.1885 29.0874H47.2595L46.1849 25.985ZM42.1705 24.5534H45.7202L43.9703 19.5185H43.9213L42.1705 24.5534Z" fill="#FAF8F5"></path>
      <path d="M58.3499 24.8987C58.3499 27.4992 56.9252 29.17 54.7752 29.17C54.2306 29.1978 53.689 29.0753 53.2124 28.8163C52.7357 28.5574 52.3433 28.1726 52.0801 27.7059H52.0395V31.8508H50.2812V20.7141H51.9831V22.106H52.0155C52.2907 21.6415 52.6897 21.2587 53.17 20.9982C53.6502 20.7377 54.1938 20.6092 54.7429 20.6265C56.9169 20.6265 58.3499 22.3054 58.3499 24.8987ZM56.5427 24.8987C56.5427 23.2045 55.6465 22.0906 54.2791 22.0906C52.9357 22.0906 52.0321 23.228 52.0321 24.8987C52.0321 26.5848 52.9357 27.714 54.2791 27.714C55.6465 27.714 56.5427 26.6083 56.5427 24.8987Z" fill="#FAF8F5"></path>
      <path d="M67.7722 24.8987C67.7722 27.4992 66.3471 29.17 64.1971 29.17C63.6525 29.1978 63.1109 29.0753 62.6342 28.8163C62.1576 28.5574 61.7652 28.1726 61.502 27.7059H61.4613V31.8508H59.7031V20.7141H61.405V22.106H61.4373C61.7126 21.6415 62.1116 21.2587 62.5919 20.9982C63.0721 20.7377 63.6157 20.6092 64.1647 20.6265C66.3388 20.6265 67.7722 22.3054 67.7722 24.8987ZM65.9646 24.8987C65.9646 23.2045 65.0684 22.0906 63.701 22.0906C62.3576 22.0906 61.454 23.228 61.454 24.8987C61.454 26.5848 62.3576 27.714 63.701 27.714C65.0684 27.714 65.9646 26.6083 65.9646 24.8987Z" fill="#FAF8F5"></path>
      <path d="M74.003 25.8853C74.1332 27.0235 75.2647 27.7709 76.8116 27.7709C78.2938 27.7709 79.36 27.0235 79.36 25.9972C79.36 25.1063 78.7171 24.5729 77.194 24.2073L75.6717 23.849C73.5142 23.3398 72.5126 22.3541 72.5126 20.7547C72.5126 18.7743 74.2792 17.4141 76.7871 17.4141C79.2699 17.4141 80.9723 18.7743 81.0296 20.7547H79.2543C79.1479 19.6092 78.1792 18.9178 76.7625 18.9178C75.3466 18.9178 74.3772 19.6174 74.3772 20.6355C74.3772 21.447 74.9961 21.9245 76.5103 22.2901L77.8049 22.6006C80.2156 23.1575 81.2156 24.1035 81.2156 25.7824C81.2156 27.9298 79.4664 29.2747 76.6814 29.2747C74.0759 29.2747 72.3167 27.9613 72.2031 25.8852L74.003 25.8853Z" fill="#FAF8F5"></path>
      <path d="M85.0119 18.7344V20.7148H86.6406V22.075H85.0119V26.6884C85.0119 27.4051 85.3378 27.7391 86.0536 27.7391C86.247 27.7359 86.4405 27.7226 86.6324 27.6994V29.0516C86.3103 29.1103 85.9829 29.1369 85.6555 29.131C83.9211 29.131 83.2455 28.4946 83.2455 26.8716V22.075H82V20.7148H83.2448V18.7344H85.0119Z" fill="#FAF8F5"></path>
      <path d="M87.5859 24.8969C87.5859 22.2639 89.173 20.6094 91.6484 20.6094C94.1313 20.6094 95.7117 22.2638 95.7117 24.8969C95.7117 27.5371 94.1403 29.1844 91.6484 29.1844C89.1574 29.1844 87.5859 27.5371 87.5859 24.8969ZM93.92 24.8969C93.92 23.0907 93.0725 22.0247 91.6484 22.0247C90.2236 22.0247 89.3761 23.0989 89.3761 24.8969C89.3761 26.7103 90.2236 27.7682 91.6484 27.7682C93.0725 27.7682 93.92 26.7103 93.92 24.8969Z" fill="#FAF8F5"></path>
      <path d="M97.1641 20.7141H98.8411V22.1384H98.8821C98.9952 21.6936 99.2623 21.3004 99.6373 21.025C100.012 20.7497 100.474 20.609 100.942 20.6265C101.145 20.6258 101.347 20.6473 101.544 20.6906V22.2973C101.289 22.2209 101.022 22.1859 100.755 22.1935C100.499 22.1833 100.244 22.2273 100.008 22.3225C99.772 22.4176 99.5592 22.5615 99.385 22.7444C99.2109 22.9273 99.08 23.1448 98.9996 23.3821C98.92 23.6193 98.8932 23.8707 98.9223 24.1187V29.0824H97.1641V20.7141Z" fill="#FAF8F5"></path>
      <path d="M109.648 26.6227C109.412 28.1419 107.897 29.1844 105.96 29.1844C103.468 29.1844 101.922 27.5533 101.922 24.9366C101.922 22.3117 103.477 20.6094 105.886 20.6094C108.256 20.6094 109.746 22.1998 109.746 24.7371V25.3256H103.696V25.4294C103.669 25.7374 103.708 26.0477 103.813 26.3396C103.917 26.6315 104.083 26.8985 104.301 27.1226C104.519 27.3469 104.783 27.5232 105.077 27.6399C105.369 27.7566 105.685 27.8112 106.001 27.7997C106.416 27.8378 106.833 27.7437 107.19 27.5317C107.546 27.3197 107.823 27.0009 107.979 26.6227H109.648ZM103.705 24.1252H107.987C108.003 23.8482 107.96 23.5711 107.861 23.3112C107.762 23.0512 107.609 22.8141 107.411 22.6147C107.214 22.4152 106.977 22.2578 106.714 22.1523C106.452 22.0467 106.17 21.9952 105.886 22.0012C105.6 21.9995 105.316 22.0533 105.051 22.1594C104.786 22.2654 104.545 22.4217 104.342 22.6192C104.14 22.8166 103.979 23.0514 103.87 23.3098C103.76 23.5683 103.704 23.8454 103.705 24.1252Z" fill="#FAF8F5"></path>
      <path d="M40.9164 12.6675H41.6712C41.8011 12.6833 41.933 12.6726 42.0586 12.6361C42.184 12.5997 42.3004 12.5382 42.4004 12.4556C42.5004 12.373 42.5818 12.2711 42.6395 12.1562C42.6972 12.0414 42.7299 11.9161 42.7356 11.7883C42.7356 11.2797 42.3438 10.9511 41.6795 10.9511C41.5464 10.933 41.4109 10.941 41.281 10.9748C41.1511 11.0087 41.0295 11.0676 40.9233 11.1481C40.8171 11.2287 40.7285 11.3291 40.6627 11.4436C40.597 11.5582 40.5553 11.6844 40.5403 11.815H39.7115C39.7257 11.5781 39.7898 11.3465 39.8996 11.1349C40.0094 10.9232 40.1626 10.7358 40.3498 10.5846C40.5369 10.4333 40.7539 10.3212 40.9873 10.2553C41.2207 10.1895 41.4654 10.1713 41.7063 10.2019C42.8177 10.2019 43.6004 10.8098 43.6004 11.685C43.603 11.9781 43.5025 12.2633 43.3159 12.4929C43.1292 12.7224 42.8676 12.8825 42.5748 12.9464V13.0114C42.922 13.0264 43.249 13.1752 43.4843 13.425C43.7196 13.675 43.844 14.0057 43.8304 14.345C43.8047 14.589 43.7294 14.8254 43.609 15.0405C43.4885 15.2556 43.3254 15.4451 43.1289 15.5978C42.9326 15.7505 42.707 15.8634 42.4654 15.9298C42.2238 15.9963 41.9711 16.0149 41.722 15.9847C41.4724 16.0179 41.2185 16.0017 40.9754 15.937C40.7324 15.8724 40.5052 15.7606 40.3073 15.6083C40.1095 15.456 39.945 15.2664 39.8237 15.0506C39.7025 14.8349 39.6269 14.5975 39.6016 14.3527H40.4433C40.4941 14.8803 40.9903 15.2206 41.722 15.2206C42.4537 15.2206 42.9314 14.8384 42.9314 14.2995C42.9314 13.753 42.4815 13.4162 41.6952 13.4162H40.9164V12.6675Z" fill="#FAF8F5"></path>
      <path d="M44.7891 14.6747C44.7891 13.9255 45.3609 13.4936 46.3736 13.4322L47.5276 13.3672V13.008C47.5276 12.5684 47.231 12.3202 46.6554 12.3202C46.186 12.3202 45.8618 12.4885 45.7675 12.7828H44.9535C45.0394 12.0679 45.7287 11.6094 46.6951 11.6094C47.7632 11.6094 48.3655 12.1288 48.3655 13.008V15.8517H47.5553V15.2669H47.4888C47.3537 15.4766 47.1641 15.6477 46.9394 15.7625C46.7145 15.8773 46.4626 15.9317 46.2092 15.9203C46.0303 15.9385 45.8496 15.9198 45.6785 15.8656C45.5075 15.8114 45.35 15.7227 45.2162 15.6053C45.0824 15.488 44.9753 15.3445 44.9017 15.1843C44.8281 15.024 44.7897 14.8503 44.7891 14.6747ZM47.5276 14.3191V13.9711L46.4872 14.0361C45.9005 14.0744 45.6344 14.2694 45.6344 14.6363C45.6344 15.0109 45.967 15.2289 46.4244 15.2289C46.5584 15.2422 46.6938 15.2289 46.8225 15.19C46.9511 15.1512 47.0705 15.0874 47.1734 15.0025C47.2763 14.9176 47.3607 14.8133 47.4216 14.6959C47.4824 14.5785 47.5185 14.4503 47.5276 14.3191Z" fill="#FAF8F5"></path>
      <path d="M50.5986 12.3789V15.8495H49.7578V11.6875H52.5629V12.3788L50.5986 12.3789Z" fill="#FAF8F5"></path>
      <path d="M57.6581 13.7659C57.6581 15.0882 56.9734 15.9173 55.898 15.9173C55.634 15.9349 55.3704 15.8784 55.1381 15.7546C54.9058 15.6307 54.7146 15.4447 54.587 15.2182H54.5205V17.2324H53.6797V11.6866H54.4891V12.3744H54.5519C54.6818 12.1401 54.8755 11.9454 55.1116 11.8119C55.3477 11.6782 55.617 11.611 55.8897 11.6176C56.9734 11.6176 57.6581 12.443 57.6581 13.7659ZM56.7933 13.7659C56.7933 12.8867 56.3673 12.3555 55.6551 12.3555C54.9473 12.3555 54.5048 12.8979 54.5048 13.7695C54.5048 14.6369 54.9473 15.1799 55.6513 15.1799C56.3673 15.1799 56.7933 14.6486 56.7933 13.7659Z" fill="#FAF8F5"></path>
      <path d="M58.7781 17.3402V16.6331C58.869 16.6443 58.9606 16.6494 59.0524 16.6484C59.2315 16.6614 59.4092 16.6092 59.5514 16.502C59.6937 16.3948 59.7903 16.2401 59.8229 16.0675L59.8858 15.8649L58.3438 11.6875H59.2594L60.3275 14.9934H60.394L61.4583 11.6875H62.3499L60.7617 16.0215C60.3977 17.0342 59.9949 17.3592 59.1263 17.3592C59.0561 17.3592 58.8565 17.3515 58.7781 17.3402Z" fill="#FAF8F5"></path>
      <path d="M63.0078 14.6687H63.8449C63.9272 15.0356 64.2792 15.227 64.7716 15.227C65.3316 15.227 65.6752 14.986 65.6752 14.6114C65.6752 14.2101 65.3666 14.0188 64.7716 14.0188H64.1341V13.3807H64.7605C65.2687 13.3807 65.5274 13.1897 65.5274 12.8418C65.5274 12.5362 65.277 12.3029 64.7605 12.3029C64.2903 12.3029 63.9466 12.4978 63.892 12.8264H63.0818C63.1423 12.4489 63.3522 12.1096 63.6661 11.8817C63.9801 11.6537 64.373 11.5553 64.7605 11.6074C65.7731 11.6074 66.3525 12.0547 66.3525 12.7578C66.3571 12.9536 66.2929 13.1451 66.1705 13.3002C66.0481 13.4553 65.8749 13.5647 65.6798 13.6099V13.6749C65.9121 13.7041 66.1252 13.8157 66.2788 13.9884C66.4324 14.161 66.5159 14.3827 66.5132 14.6114C66.5132 15.4026 65.824 15.9261 64.7716 15.9261C63.8412 15.9261 63.0855 15.5095 63.0078 14.6687Z" fill="#FAF8F5"></path>
      <path d="M67.7188 15.8495V11.6875H68.5521V14.5502H68.6186L70.5819 11.6875H71.4153V15.8496H70.5819V12.9715H70.5191L68.5521 15.8496L67.7188 15.8495Z" fill="#FAF8F5"></path>
      <path d="M76.0093 12.3867H74.6678V15.8574H73.8259V12.3867H72.4844V11.6953H76.0093V12.3867Z" fill="#FAF8F5"></path>
      <path d="M80.5361 14.728C80.4215 15.1084 80.1738 15.4374 79.836 15.6574C79.4989 15.8775 79.0927 15.9748 78.6894 15.9322C78.4082 15.9394 78.1299 15.8869 77.8717 15.7783C77.6143 15.6696 77.3836 15.5074 77.1961 15.3031C77.0086 15.0986 76.8695 14.8569 76.7876 14.5946C76.7058 14.3323 76.6827 14.0556 76.7214 13.7839C76.6842 13.5113 76.7065 13.2341 76.7884 12.9709C76.8702 12.7078 77.0093 12.4649 77.1954 12.2588C77.3814 12.0526 77.6113 11.8879 77.868 11.7759C78.1254 11.6638 78.4037 11.6071 78.6857 11.6094C79.8709 11.6094 80.5867 12.4006 80.5867 13.7076V13.9942H77.5785V14.0403C77.5651 14.193 77.5845 14.3468 77.6358 14.4917C77.6872 14.6367 77.769 14.7696 77.8754 14.8819C77.9826 14.9942 78.112 15.0834 78.2564 15.1438C78.4007 15.2042 78.5562 15.2344 78.7132 15.2326C78.9141 15.256 79.118 15.2206 79.298 15.1308C79.4781 15.0409 79.6269 14.9007 79.7259 14.728H80.5361ZM77.5785 13.3867H79.7296C79.74 13.2471 79.7207 13.1069 79.6723 12.975C79.6247 12.8432 79.5488 12.7226 79.4498 12.621C79.3516 12.5195 79.2318 12.4392 79.0994 12.3854C78.9677 12.3316 78.8248 12.3054 78.682 12.3085C78.5361 12.3066 78.3918 12.3332 78.2571 12.3866C78.1224 12.4402 77.9997 12.5195 77.897 12.62C77.7943 12.7206 77.7132 12.8402 77.6582 12.9719C77.6038 13.1035 77.5763 13.2446 77.5785 13.3867Z" fill="#FAF8F5"></path>
      <path d="M84.1016 11.6875H86.022C86.8553 11.6875 87.3441 12.0999 87.3441 12.7458C87.3456 12.9507 87.2749 13.1499 87.144 13.3099C87.013 13.4699 86.8292 13.5811 86.6246 13.625V13.6899C86.8731 13.7053 87.1068 13.8134 87.2764 13.992C87.4461 14.1705 87.5383 14.4059 87.5353 14.6494C87.5353 15.3756 86.9766 15.8495 86.0413 15.8495H84.1016V11.6875ZM84.9349 12.3179V13.3957H85.7682C86.2764 13.3957 86.519 13.2048 86.519 12.8528C86.519 12.5282 86.3077 12.3179 85.8612 12.3179H84.9349ZM84.9349 13.9996V15.2191H85.9319C86.4289 15.2191 86.6946 15.0047 86.6946 14.6111C86.6946 14.1945 86.394 13.9996 85.8263 13.9996H84.9349Z" fill="#FAF8F5"></path>
    </g>
    <defs>
      <clipPath id="clip0_10307_71304">
        <rect width="125" height="40" rx="12" fill="white"></rect>
      </clipPath>
    </defs>
  </symbol>
  <symbol fill="none" xmlns="http://www.w3.org/2000/svg" viewBox="0 0 16 16" id="building">
    <path d="M7.16583 3.09617L4.2125 1.63617C2.61917 0.85617 1.3125 1.6495 1.3125 3.39617V13.2895C1.3125 14.0495 1.94583 14.6695 2.71917 14.6695H7.66583C8.0325 14.6695 8.3325 14.3695 8.3325 14.0028V4.94284C8.3325 4.24284 7.80583 3.4095 7.16583 3.09617ZM5.97917 9.1695H3.66583C3.3925 9.1695 3.16583 8.94284 3.16583 8.6695C3.16583 8.39617 3.3925 8.1695 3.66583 8.1695H5.97917C6.2525 8.1695 6.47917 8.39617 6.47917 8.6695C6.47917 8.94284 6.25917 9.1695 5.97917 9.1695ZM5.97917 6.50284H3.66583C3.3925 6.50284 3.16583 6.27617 3.16583 6.00284C3.16583 5.7295 3.3925 5.50284 3.66583 5.50284H5.97917C6.2525 5.50284 6.47917 5.7295 6.47917 6.00284C6.47917 6.27617 6.25917 6.50284 5.97917 6.50284Z" fill="#1E1915"></path>
    <path d="M14.6693 12.0234V12.9968C14.6693 13.9168 13.9226 14.6634 13.0026 14.6634H9.9826C9.6226 14.6634 9.33594 14.3768 9.33594 14.0168V12.5768C10.0493 12.6634 10.8026 12.4568 11.3426 12.0234C11.7959 12.3901 12.3759 12.6101 13.0093 12.6101C13.6293 12.6101 14.2093 12.3901 14.6693 12.0234Z" fill="#1E1915"></path>
    <path d="M14.6693 10.0311V10.0377C14.6159 10.9111 13.9026 11.6111 13.0093 11.6111C12.0826 11.6111 11.3426 10.8577 11.3426 9.9444C11.3426 10.9644 10.4026 11.7844 9.33594 11.5777V7.99774C9.33594 7.57107 9.72927 7.25107 10.1493 7.3444L11.3426 7.61107L11.6626 7.6844L13.0226 7.99107C13.3493 8.05774 13.6493 8.17107 13.9093 8.33774C13.9093 8.3444 13.9159 8.3444 13.9159 8.3444C13.9826 8.39107 14.0493 8.4444 14.1093 8.5044C14.4159 8.81107 14.6159 9.25774 14.6626 9.91107C14.6626 9.95107 14.6693 9.99107 14.6693 10.0311Z" fill="#1E1915"></path>
  </symbol>
  <symbol fill="none" xmlns="http://www.w3.org/2000/svg" viewBox="0 0 16 16" id="export">
    <path d="M10.7959 1.33594H5.20927C2.7826 1.33594 1.33594 2.7826 1.33594 5.20927V10.7893C1.33594 13.2226 2.7826 14.6693 5.20927 14.6693H10.7893C13.2159 14.6693 14.6626 13.2226 14.6626 10.7959V5.20927C14.6693 2.7826 13.2226 1.33594 10.7959 1.33594ZM11.5026 8.2226C11.5026 8.49594 11.2759 8.7226 11.0026 8.7226C10.7293 8.7226 10.5026 8.49594 10.5026 8.2226V6.20927L5.35594 11.3559C5.25594 11.4559 5.12927 11.5026 5.0026 11.5026C4.87594 11.5026 4.74927 11.4559 4.64927 11.3559C4.45594 11.1626 4.45594 10.8426 4.64927 10.6493L9.79594 5.5026H7.7826C7.50927 5.5026 7.2826 5.27594 7.2826 5.0026C7.2826 4.72927 7.50927 4.5026 7.7826 4.5026H11.0026C11.2759 4.5026 11.5026 4.72927 11.5026 5.0026V8.2226Z" fill="#1E1915"></path>
  </symbol>
  <symbol fill="none" xmlns="http://www.w3.org/2000/svg" viewBox="0 0 125 40" id="google">
    <g clip-path="url(#clip0_10307_71354)">
      <path d="M125 0H0V40H125V0Z" fill="#211C17"></path>
      <path d="M97.6359 28.3126H99.3107V17.4622H97.6359V28.3126ZM112.721 21.3708L110.802 26.0749H110.744L108.751 21.3708H106.948L109.935 27.9457L108.232 31.603H109.98L114.584 21.3708H112.721ZM103.224 27.0802C102.674 27.0802 101.91 26.8151 101.91 26.1587C101.91 25.3212 102.863 25.0002 103.685 25.0002C104.422 25.0002 104.767 25.1537 105.215 25.3633C105.085 26.3682 104.19 27.0802 103.224 27.0802ZM103.425 21.1333C102.213 21.1333 100.957 21.65 100.437 22.7947L101.924 23.3948C102.242 22.7947 102.833 22.5991 103.454 22.5991C104.32 22.5991 105.201 23.1019 105.215 23.9952V24.1068C104.912 23.9393 104.262 23.6881 103.468 23.6881C101.867 23.6881 100.235 24.5394 100.235 26.1308C100.235 27.5827 101.549 28.518 103.021 28.518C104.147 28.518 104.767 28.0295 105.157 27.4572H105.215V28.2946H106.832V24.1345C106.832 22.2085 105.345 21.1333 103.425 21.1333ZM93.0749 22.6916H90.6924V18.9723H93.0749C94.3271 18.9723 95.0377 19.9748 95.0377 20.8319C95.0377 21.6728 94.3271 22.6916 93.0749 22.6916ZM93.0317 17.4622H89.0183V28.3126H90.6924V24.2017H93.0317C94.8881 24.2017 96.7125 22.9022 96.7125 20.8319C96.7125 18.7617 94.8881 17.4622 93.0317 17.4622ZM71.1482 27.0822C69.9911 27.0822 69.0225 26.1454 69.0225 24.8588C69.0225 23.5585 69.9911 22.6076 71.1482 22.6076C72.2906 22.6076 73.1871 23.5585 73.1871 24.8588C73.1871 26.1454 72.2906 27.0822 71.1482 27.0822ZM73.0714 21.9783H73.0134C72.6377 21.5449 71.9143 21.1534 71.0034 21.1534C69.0947 21.1534 67.3452 22.7754 67.3452 24.8588C67.3452 26.9283 69.0947 28.5364 71.0034 28.5364C71.9143 28.5364 72.6377 28.1448 73.0134 27.6976H73.0714V28.2288C73.0714 29.6413 72.2906 30.3964 71.0325 30.3964C70.0059 30.3964 69.3696 29.683 69.1091 29.0819L67.6488 29.6691C68.0682 30.6479 69.1817 31.8505 71.0325 31.8505C72.999 31.8505 74.6619 30.7316 74.6619 28.0051V21.3771H73.0714V21.9783ZM75.8189 28.3126H77.496V17.4618H75.8189V28.3126ZM79.9685 24.733C79.9253 23.3066 81.1113 22.5797 81.964 22.5797C82.6299 22.5797 83.1932 22.9011 83.3807 23.3629L79.9685 24.733ZM85.1746 23.5026C84.8568 22.6773 83.8874 21.1534 81.906 21.1534C79.9394 21.1534 78.3055 22.6496 78.3055 24.8449C78.3055 26.9144 79.9253 28.5364 82.0942 28.5364C83.8442 28.5364 84.8568 27.5016 85.2757 26.9005L83.9744 26.0613C83.5406 26.6767 82.9476 27.0822 82.0942 27.0822C81.2415 27.0822 80.6336 26.7045 80.243 25.9636L85.3479 23.922L85.1746 23.5026ZM44.5076 22.2861V23.8521H48.3828C48.2671 24.733 47.9635 25.3762 47.5007 25.8236C46.937 26.3692 46.0548 26.9703 44.5076 26.9703C42.1217 26.9703 40.2564 25.1106 40.2564 22.8034C40.2564 20.4962 42.1217 18.6363 44.5076 18.6363C45.7946 18.6363 46.7343 19.1259 47.4284 19.7551L48.5708 18.6505C47.602 17.7554 46.315 17.0703 44.5076 17.0703C41.2395 17.0703 38.4922 19.6433 38.4922 22.8034C38.4922 25.9636 41.2395 28.5364 44.5076 28.5364C46.2719 28.5364 47.6021 27.9773 48.643 26.9283C49.7131 25.8935 50.0458 24.4393 50.0458 23.2649C50.0458 22.9011 50.017 22.5658 49.9589 22.2861H44.5076ZM54.4516 27.0822C53.2946 27.0822 52.2967 26.1593 52.2967 24.8449C52.2967 23.5165 53.2946 22.6076 54.4516 22.6076C55.6082 22.6076 56.606 23.5165 56.606 24.8449C56.606 26.1593 55.6082 27.0822 54.4516 27.0822ZM54.4516 21.1534C52.3402 21.1534 50.6193 22.7054 50.6193 24.8449C50.6193 26.9703 52.3402 28.5364 54.4516 28.5364C56.5626 28.5364 58.2833 26.9703 58.2833 24.8449C58.2833 22.7054 56.5626 21.1534 54.4516 21.1534ZM62.8107 27.0822C61.6541 27.0822 60.6562 26.1593 60.6562 24.8449C60.6562 23.5165 61.6541 22.6076 62.8107 22.6076C63.9674 22.6076 64.9652 23.5165 64.9652 24.8449C64.9652 26.1593 63.9674 27.0822 62.8107 27.0822ZM62.8107 21.1534C60.6994 21.1534 58.9789 22.7054 58.9789 24.8449C58.9789 26.9703 60.6994 28.5364 62.8107 28.5364C64.9218 28.5364 66.6426 26.9703 66.6426 24.8449C66.6426 22.7054 64.9218 21.1534 62.8107 21.1534Z" fill="#FAF8F5"></path>
      <path d="M40.6918 10.9266C40.7023 11.7505 40.5316 12.415 40.181 12.9195H42.9034V8.99134H40.6918V10.9266ZM39.4507 14.6645H38.7891V12.9195H39.3157C39.7819 12.5309 40.0098 11.8671 40.0004 10.9266V8.35156H43.5958V12.9195H44.1972V14.6645H43.5353V13.5593H39.4507V14.6645Z" fill="#FAF8F5"></path>
      <path d="M40.6956 10.9275L40.6059 10.9285L40.6066 10.9987C40.6063 11.7781 40.4379 12.4007 40.11 12.8718L40.0161 13.0072H42.9969V8.9054H40.6059V10.9285L40.6956 10.9275H40.7854V9.07903H42.8175V12.8336H40.1847V12.9204L40.2591 12.9686C40.6121 12.4607 40.7861 11.8015 40.7861 10.9987L40.7854 10.9264L40.6956 10.9275ZM39.4545 14.6654V14.5786H38.8827V13.0072H39.3195H39.3528L39.378 12.9861C39.8632 12.5813 40.0943 11.907 40.0943 10.9844L40.094 10.9268V8.43925H43.5099V13.0072H44.1113V14.5786H43.6289V13.5601V13.4733H39.3647V14.6654H39.4545H39.5443V13.647H43.4493V14.6654V14.7522H44.201H44.2908V12.8336H43.6894V8.26562H39.9145V10.9278L39.9148 10.9844C39.9145 11.8826 39.6894 12.4987 39.2609 12.8542L39.3195 12.9204V12.8336H38.7929H38.7031V14.7522H39.4545H39.5443V14.6654H39.4545Z" fill="#FAF8F5"></path>
      <path d="M46.1558 12.4497C46.5548 12.8399 47.0421 13.0349 47.6189 13.0349C48.1955 13.0349 48.6836 12.8399 49.0815 12.4497C49.4806 12.0595 49.6804 11.5607 49.6804 10.9549C49.6804 10.349 49.4806 9.85023 49.0815 9.46C48.6836 9.06978 48.1955 8.87482 47.6189 8.87482C47.0421 8.87482 46.5548 9.06978 46.1558 9.46C45.7578 9.85023 45.558 10.349 45.558 10.9549C45.558 11.5607 45.7578 12.0595 46.1558 12.4497ZM49.5935 12.8857C49.0641 13.4122 48.406 13.675 47.6189 13.675C46.8317 13.675 46.1733 13.4122 45.6449 12.8857C45.1155 12.3598 44.8516 11.7161 44.8516 10.9549C44.8516 10.1936 45.1155 9.54978 45.6449 9.024C46.1733 8.49741 46.8317 8.23438 47.6189 8.23438C48.4013 8.23438 49.0581 8.49882 49.5899 9.02741C50.1211 9.55601 50.3868 10.1984 50.3868 10.9549C50.3868 11.7161 50.1222 12.3598 49.5935 12.8857Z" fill="#FAF8F5"></path>
      <path d="M46.1596 12.4506L46.0958 12.5116C46.5091 12.9175 47.0249 13.1236 47.6227 13.1226C48.2201 13.1236 48.7369 12.9175 49.1492 12.5116C49.5654 12.1054 49.7747 11.5798 49.774 10.9557C49.7747 10.3316 49.5654 9.80607 49.1492 9.39985C48.7369 8.994 48.2201 8.78785 47.6227 8.78888C47.0249 8.78785 46.5091 8.994 46.0958 9.39985C45.6807 9.80607 45.4714 10.3316 45.472 10.9557C45.4714 11.5798 45.6807 12.1054 46.0958 12.5116L46.1596 12.4506L46.2237 12.3896C45.8429 12.0149 45.6525 11.5436 45.6516 10.9557C45.6525 10.3678 45.8429 9.89659 46.2237 9.52185C46.608 9.14726 47.0666 8.96355 47.6227 8.96251C48.1784 8.96355 48.6384 9.14726 49.0215 9.52185C49.4033 9.89659 49.5935 10.3678 49.5944 10.9557C49.5935 11.5436 49.4033 12.0149 49.0215 12.3896C48.6384 12.7642 48.1784 12.9479 47.6227 12.949C47.0666 12.9479 46.608 12.7642 46.2237 12.3896L46.1596 12.4506ZM49.5973 12.8866L49.5332 12.8262C49.0187 13.3361 48.3891 13.5881 47.6227 13.5891C46.8559 13.5881 46.2266 13.3361 45.7129 12.8262C45.1996 12.3146 44.9461 11.6976 44.9451 10.9557C44.9461 10.2139 45.1996 9.59688 45.7129 9.08518C46.2266 8.57525 46.8559 8.32303 47.6227 8.322C48.3845 8.32303 49.0125 8.57637 49.5296 9.08896C50.045 9.60296 50.2999 10.219 50.3009 10.9557C50.2999 11.6976 50.0458 12.3146 49.5332 12.8262L49.5973 12.8866L49.6618 12.9469C50.206 12.4065 50.4812 11.7362 50.4804 10.9557C50.4812 10.1797 50.2052 9.51074 49.6583 8.96792C49.1113 8.42303 48.4263 8.14748 47.6227 8.14844C46.8149 8.14748 46.1276 8.42177 45.5842 8.96459C45.039 9.50533 44.7649 10.1753 44.7656 10.9557C44.7649 11.7362 45.039 12.4065 45.5842 12.9473C46.1276 13.4901 46.8149 13.7634 47.6227 13.7627C48.4301 13.7634 49.1173 13.4897 49.6618 12.9469L49.5973 12.8866Z" fill="#FAF8F5"></path>
      <path d="M53.876 13.675C53.0836 13.675 52.4192 13.4157 51.8827 12.8965C51.3453 12.3779 51.0781 11.7305 51.0781 10.9549C51.0781 10.1791 51.3453 9.53186 51.8827 9.01319C52.4192 8.49408 53.0836 8.23438 53.876 8.23438C54.6876 8.23438 55.3475 8.51815 55.8541 9.08541L55.372 9.5366C55.0067 9.09519 54.5071 8.87482 53.876 8.87482C53.2887 8.87482 52.7932 9.06637 52.39 9.44949C51.9862 9.8326 51.7845 10.3344 51.7845 10.9549C51.7845 11.5753 51.9862 12.0775 52.39 12.4602C52.7932 12.8433 53.2887 13.0349 53.876 13.0349C54.5228 13.0349 55.074 12.783 55.5308 12.2788L56.0119 12.744C55.7658 13.0302 55.4579 13.2569 55.0862 13.4238C54.7156 13.5913 54.3115 13.675 53.876 13.675Z" fill="#FAF8F5"></path>
      <path d="M53.872 13.6759V13.5891C53.0996 13.5881 52.4632 13.3389 51.9422 12.8361C51.4216 12.3326 51.1646 11.7121 51.1638 10.9557C51.1646 10.1993 51.4216 9.57888 51.9422 9.0754C52.4632 8.57222 53.0996 8.32303 53.872 8.322C54.6623 8.3234 55.2906 8.59392 55.7821 9.14281L55.8501 9.08622L55.7877 9.02385L55.3057 9.47548L55.368 9.53748L55.4381 9.48325C55.0574 9.02148 54.5241 8.78763 53.872 8.78888C53.2643 8.78822 52.7416 8.99 52.3233 9.38829C51.9008 9.78807 51.6897 10.3176 51.6908 10.9557C51.6897 11.5938 51.9008 12.1241 52.3233 12.5232C52.7416 12.9215 53.2643 13.1233 53.872 13.1226C54.5434 13.1236 55.1251 12.857 55.5941 12.337L55.5268 12.2797L55.4633 12.341L55.9444 12.8062L56.0079 12.7448L55.9388 12.6896C55.7011 12.9656 55.4052 13.1839 55.0443 13.346C54.6857 13.508 54.2959 13.5887 53.872 13.5891V13.6759V13.7627C54.3193 13.7627 54.7373 13.6766 55.1201 13.5033C55.503 13.3318 55.8221 13.0968 56.0769 12.8004L56.1292 12.7398L55.5903 12.2184L55.5223 12.1525L55.4592 12.2224C55.0153 12.711 54.4943 12.9479 53.872 12.949C53.3047 12.9479 52.8374 12.7669 52.4492 12.399C52.0635 12.0329 51.8711 11.5585 51.8703 10.9557C51.8711 10.353 52.0632 9.87933 52.4489 9.51244C52.8371 9.14459 53.3047 8.96355 53.872 8.96251C54.4817 8.96385 54.9476 9.17074 55.2979 9.59177L55.3596 9.66637L55.9125 9.14866L55.9735 9.09163L55.9182 9.02962C55.3967 8.44377 54.705 8.14748 53.872 8.14844C53.0592 8.1477 52.3667 8.418 51.8153 8.95266C51.2609 9.48629 50.9833 10.161 50.9844 10.9557C50.9833 11.7504 51.2609 12.4252 51.8153 12.9591C52.3667 13.4935 53.0592 13.7634 53.872 13.7627V13.6759Z" fill="#FAF8F5"></path>
      <path d="M58.8059 13.5593H58.1135V8.99134H56.6094V8.35156H60.31V8.99134H58.8059V13.5593Z" fill="#FAF8F5"></path>
      <path d="M58.8097 13.5601V13.4734H58.2071V8.9054H56.703V8.43925H60.2241V8.9054H58.7199V13.5601H58.8097H58.8995V9.07903H60.4036V8.35244V8.26562H56.5234V8.99222V9.07903H58.0276V13.647H58.8097H58.8995V13.5601H58.8097Z" fill="#FAF8F5"></path>
      <path d="M65.06 8.35156L63.0222 12.7445C62.7407 13.3653 62.3231 13.6756 61.7664 13.6756C61.6009 13.6756 61.4227 13.6369 61.2317 13.5593L61.4122 12.9408C61.5279 13.0042 61.6482 13.0354 61.7734 13.0354C61.9339 13.0354 62.0583 13.0052 62.1461 12.9449C62.2337 12.8842 62.315 12.7733 62.3905 12.6136L62.586 12.1986L60.7734 8.35156H61.5858L62.917 11.3408H62.9469L64.2472 8.35156H65.06Z" fill="#FAF8F5"></path>
      <path d="M65.0667 8.35244L64.9847 8.31688L62.947 12.7101L62.9466 12.7109C62.6696 13.3126 62.2914 13.5867 61.7732 13.5897C61.622 13.5897 61.4558 13.5544 61.2731 13.4801L61.2385 13.5601L61.325 13.5838L61.5053 12.9655L61.419 12.9418L61.3752 13.0173C61.5028 13.0872 61.6392 13.1235 61.7802 13.1232C61.9516 13.1232 62.0953 13.0916 62.2051 13.0163C62.3131 12.9407 62.3997 12.8176 62.4789 12.6508L62.6746 12.2358L62.6914 12.1996L60.9198 8.43925H61.5337L62.8646 11.4286H62.9536H63.0132L64.3136 8.43925H65.0667V8.35244V8.26562H64.254H64.1944L62.8705 11.3083L62.9536 11.3418V11.255H62.9239V11.3418L63.0062 11.3076L61.6519 8.26562H60.7802H60.6406L62.494 12.1996L62.3155 12.5786C62.2444 12.7308 62.1679 12.8292 62.1006 12.8749C62.0351 12.9207 61.9295 12.9499 61.7802 12.9496C61.6704 12.9496 61.567 12.9227 61.4632 12.8661L61.3636 12.8119L61.1522 13.5364L61.1304 13.6104L61.2038 13.6402C61.4032 13.7212 61.5929 13.7633 61.7732 13.7633C62.3681 13.7659 62.8253 13.4195 63.1111 12.7804L63.1107 12.781L65.2053 8.26562H65.0667V8.35244Z" fill="#FAF8F5"></path>
      <path d="M65.8438 13.5593V8.35156H69.74V13.5593H69.0476V8.99134H66.5351V13.5593H65.8438Z" fill="#FAF8F5"></path>
      <path d="M65.8475 13.5601H65.9373V8.43925H69.6538V13.4734H69.1412V8.9054H66.4492V13.4734H65.8475V13.5601V13.647H66.5389H66.6287V9.07903H68.9617V13.647H69.7438H69.8336V8.26562H65.7578V13.647H65.8475V13.5601Z" fill="#FAF8F5"></path>
      <path d="M70.9766 13.5593V8.35156H71.6683V10.5842H74.3609V8.35156H75.0535V13.5593H74.3609V11.2097H71.6683V13.5593H70.9766Z" fill="#FAF8F5"></path>
      <path d="M70.9804 13.5601H71.0701V8.43925H71.5824V10.6718H74.4546V8.43925H74.9673V13.4734H74.4546V11.1238H71.5824V13.4734H70.9804V13.5601V13.647H71.6721H71.7618V11.2974H74.275V13.647H75.0573H75.1473V8.26562H74.3648H74.275V10.4983H71.7618V8.26562H70.9804H70.8906V13.647H70.9804V13.5601Z" fill="#FAF8F5"></path>
      <path d="M77.2496 12.4497C77.6492 12.8399 78.1365 13.0349 78.7132 13.0349C79.2898 13.0349 79.7779 12.8399 80.176 12.4497C80.5748 12.0595 80.7749 11.5607 80.7749 10.9549C80.7749 10.349 80.5748 9.85023 80.176 9.46C79.7779 9.06978 79.2898 8.87482 78.7132 8.87482C78.1365 8.87482 77.6492 9.06978 77.2496 9.46C76.8523 9.85023 76.6522 10.349 76.6522 10.9549C76.6522 11.5607 76.8523 12.0595 77.2496 12.4497ZM80.6879 12.8857C80.1589 13.4122 79.5004 13.675 78.7132 13.675C77.926 13.675 77.2675 13.4122 76.7392 12.8857C76.2095 12.3598 75.9453 11.7161 75.9453 10.9549C75.9453 10.1936 76.2095 9.54978 76.7392 9.024C77.2675 8.49741 77.926 8.23438 78.7132 8.23438C79.4959 8.23438 80.1522 8.49882 80.6842 9.02741C81.2154 9.55601 81.481 10.1984 81.481 10.9549C81.481 11.7161 81.2161 12.3598 80.6879 12.8857Z" fill="#FAF8F5"></path>
      <path d="M77.253 12.4506L77.1897 12.5116C77.6034 12.9175 78.1183 13.1236 78.7165 13.1226C79.314 13.1236 79.8304 12.9175 80.2433 12.5116C80.6592 12.1054 80.8683 11.5798 80.8676 10.9557C80.8683 10.3316 80.6592 9.80607 80.2433 9.39985C79.8304 8.994 79.314 8.78785 78.7165 8.78888C78.1183 8.78785 77.6034 8.994 77.1897 9.39985C76.7746 9.80607 76.5647 10.3316 76.5655 10.9557C76.5647 11.5798 76.7746 12.1054 77.1897 12.5116L77.253 12.4506L77.3177 12.3896C76.9368 12.0149 76.7463 11.5436 76.7455 10.9557C76.7463 10.3678 76.9368 9.89659 77.3177 9.52185C77.7016 9.14726 78.1607 8.96355 78.7165 8.96251C79.2723 8.96355 79.7321 9.14726 80.1153 9.52185C80.497 9.89659 80.6875 10.3678 80.6882 10.9557C80.6875 11.5436 80.497 12.0149 80.1153 12.3896C79.7321 12.7642 79.2723 12.9479 78.7165 12.949C78.1607 12.9479 77.7016 12.7642 77.3177 12.3896L77.253 12.4506ZM80.6912 12.8866L80.6265 12.8262C80.1124 13.3361 79.4829 13.5881 78.7165 13.5891C77.9501 13.5881 77.3199 13.3361 76.8073 12.8262C76.2932 12.3146 76.0402 11.6976 76.0387 10.9557C76.0402 10.2139 76.2932 9.59688 76.8073 9.08518C77.3199 8.57525 77.9501 8.32303 78.7165 8.322C79.4784 8.32303 80.1064 8.57637 80.6235 9.08896C81.1391 9.60296 81.3936 10.219 81.3943 10.9557C81.3936 11.6976 81.1391 12.3146 80.6265 12.8262L80.6912 12.8866L80.7552 12.9469C81.2999 12.4065 81.5751 11.7362 81.5744 10.9557C81.5751 10.1797 81.2991 9.51074 80.7522 8.96792C80.2054 8.42303 79.5201 8.14748 78.7165 8.14844C77.9085 8.14748 77.2217 8.42177 76.6778 8.96459C76.1324 9.50533 75.8586 10.1753 75.8594 10.9557C75.8586 11.7362 76.1324 12.4065 76.6778 12.9473C77.2217 13.4901 77.9085 13.7634 78.7165 13.7627C79.5238 13.7634 80.2113 13.4897 80.7552 12.9469L80.6912 12.8866Z" fill="#FAF8F5"></path>
      <path d="M85.0037 12.9195H86.3958C86.6615 12.9195 86.8772 12.8297 87.0432 12.6497C87.2083 12.471 87.2909 12.2743 87.2909 12.0607C87.2909 11.8474 87.2054 11.6525 87.035 11.4755C86.8653 11.2985 86.6406 11.2097 86.3653 11.2097H85.0037V12.9195ZM85.0037 10.5842H86.2604C86.5216 10.5842 86.7307 10.5011 86.8884 10.3333C87.0469 10.1662 87.1257 9.98341 87.1257 9.78438C87.1257 9.58571 87.0491 9.40327 86.8958 9.23927C86.7433 9.07408 86.5409 8.99134 86.2909 8.99134H85.0037V10.5842ZM84.3125 13.5593V8.35156H86.2604C86.6815 8.35156 87.0469 8.48653 87.3542 8.75497C87.6629 9.0246 87.8177 9.3626 87.8177 9.76979C87.8177 10.0169 87.7515 10.2353 87.6176 10.4245C87.4851 10.6136 87.3088 10.7567 87.0878 10.8537V10.8825C87.3527 10.9696 87.5714 11.1202 87.7418 11.3334C87.9115 11.547 87.9978 11.7946 87.9978 12.0756C87.9978 12.5022 87.8363 12.8561 87.5127 13.1372C87.189 13.4186 86.8065 13.5593 86.3653 13.5593H84.3125Z" fill="#FAF8F5"></path>
      <path d="M85.0071 12.9204V13.0072H86.3992C86.6856 13.0082 86.9327 12.9065 87.1127 12.7084C87.2906 12.5176 87.385 12.2972 87.3836 12.0616C87.385 11.8256 87.2868 11.6062 87.1038 11.4171C86.9178 11.2221 86.6641 11.1228 86.3687 11.1238H84.917V13.0072H85.0071V12.9204H85.0971V11.2974H86.3687C86.6254 11.2984 86.8181 11.3771 86.9728 11.5354C87.1306 11.7008 87.2035 11.8714 87.2042 12.0616C87.2035 12.2531 87.1328 12.4261 86.9788 12.5928C86.8292 12.7543 86.644 12.8322 86.3992 12.8336H85.0071V12.9204ZM85.0071 10.5851V10.6718H86.2638C86.5435 10.6728 86.7846 10.5793 86.9587 10.3925C87.1284 10.2135 87.2184 10.007 87.2184 9.78526C87.2184 9.56489 87.1313 9.35874 86.9654 9.18178C86.798 8.99792 86.5644 8.90437 86.2943 8.9054H84.917V10.6718H85.0071V10.5851H85.0971V9.07903H86.2943C86.5249 9.08037 86.6953 9.15155 86.8315 9.2977C86.9728 9.44963 87.0383 9.60866 87.0391 9.78526C87.0383 9.96118 86.9706 10.1206 86.8255 10.2755C86.6834 10.4243 86.5048 10.4973 86.2638 10.4983H85.0071V10.5851ZM84.3159 13.5601H84.4059V8.43926H86.2638C86.6648 8.43992 87.0041 8.56533 87.298 8.82037C87.5897 9.076 87.7303 9.38489 87.731 9.77066C87.731 10.003 87.6693 10.202 87.5473 10.3765C87.423 10.5529 87.2608 10.6844 87.0532 10.7756L87.0011 10.7987V10.8834V10.9455L87.0614 10.9654C87.3121 11.0482 87.5138 11.1872 87.6745 11.3876C87.8322 11.587 87.9118 11.8124 87.9118 12.0765C87.9103 12.482 87.7615 12.8064 87.4557 13.0737C87.147 13.3412 86.7906 13.4727 86.3687 13.4733H84.3159V13.5601V13.647H86.3687C86.83 13.6476 87.2377 13.4978 87.5755 13.2024C87.917 12.9078 88.0919 12.5244 88.0911 12.0765C88.0919 11.7785 87.9989 11.5093 87.8166 11.2814C87.6358 11.0556 87.4007 10.8932 87.1202 10.8014L87.0911 10.8834H87.1812V10.8546H87.0911L87.1283 10.9336C87.362 10.8309 87.5547 10.6766 87.6953 10.4738C87.8389 10.2701 87.9103 10.0327 87.9103 9.77066C87.9118 9.34244 87.7444 8.97496 87.4178 8.69148C87.0949 8.40903 86.7042 8.26496 86.2638 8.26563H84.2266V13.647H84.3159V13.5601Z" fill="#FAF8F5"></path>
      <path d="M20.0634 19.75L10.5078 29.5576C10.5081 29.5597 10.5089 29.5614 10.5092 29.5634C10.8022 30.6283 11.8081 31.4125 13.0019 31.4125C13.4792 31.4125 13.9272 31.2878 14.3115 31.0687L14.342 31.0514L25.098 25.0495L20.0634 19.75Z" fill="#EB3131"></path>
      <path d="M29.7283 18.078L29.719 18.0719L25.0754 15.4688L19.8438 19.9705L25.0936 25.0465L29.7128 22.4692C30.5226 22.0465 31.0724 21.2208 31.0724 20.2688C31.0724 19.3236 30.53 18.5022 29.7283 18.078Z" fill="#F6B60B"></path>
      <path d="M10.5017 10.9375C10.4443 11.1423 10.4141 11.3569 10.4141 11.5796V28.9102C10.4141 29.1325 10.4439 29.3478 10.5021 29.5519L20.3865 19.9952L10.5017 10.9375Z" fill="#5778C5"></path>
      <path d="M20.1342 20.2476L25.0802 15.4662L14.3364 9.44268C13.9458 9.21646 13.49 9.08594 13.0024 9.08594C11.8086 9.08594 10.8013 9.87149 10.5082 10.9377L10.5078 10.9405L20.1342 20.2476Z" fill="#3BAD49"></path>
    </g>
    <defs>
      <clipPath id="clip0_10307_71354">
        <rect width="125" height="40" rx="12" fill="white"></rect>
      </clipPath>
    </defs>
  </symbol>
  <symbol xmlns="http://www.w3.org/2000/svg" viewBox="0 0 592 592" id="icon-mask">
    <path fill-rule="evenodd" clip-rule="evenodd" d="M380.29 591.665C378.118 591.376 373.292 590.391 369.566 589.476C363.582 588.007 362.394 587.876 359.413 588.358C343.693 590.898 333.248 589.863 325.149 584.963C323.671 584.068 321.88 583.336 321.168 583.336C320.456 583.336 319.382 582.968 318.78 582.518C318.178 582.068 316.638 581.691 315.359 581.682C312.199 581.658 308.66 580.343 305.89 578.164L303.585 576.351L295.971 576.806C280.002 577.76 269.817 576.518 261.284 572.574C257.664 570.901 257.172 570.807 255.362 571.437C252.331 572.491 244.452 572.306 238.724 571.045C229.041 568.914 226.498 568.751 217.771 569.696C206.381 570.93 201.814 569.932 197.269 565.219L195.295 563.172L187.681 563.546C169.601 564.436 148.671 562.021 107.31 554.275C93.3386 551.658 87.3511 550.79 80.8019 550.43C76.137 550.174 71.0547 549.575 69.4732 549.095C64.3131 547.53 60.6347 544.061 58.9545 539.174C58.5879 538.108 58.1897 530.939 58.0013 522.012L57.6776 506.68L55.5614 503.695C53.0003 500.084 52.1334 497.233 50.65 487.547C49.9794 483.168 48.9214 478.708 48.0708 476.676C46.6445 473.267 46.6151 472.884 45.2576 440.059C44.3709 418.618 43.5994 405.508 43.0771 402.985C41.6648 396.172 39.349 387.664 36.2475 377.898C28.2426 352.69 26.3752 343.718 26.3752 330.458C26.3752 321.611 24.8726 308.471 23.2579 303.193C20.2455 293.348 17.8203 279.36 15.9602 261.102C13.6686 238.603 12.7093 231.899 11.0601 226.856C10.1498 224.074 8.88359 218.913 8.24513 215.387C7.13573 209.26 7.07707 206.614 6.91407 155.682L6.7443 102.388L5.02577 97.0856C0.748904 83.8879 -0.744588 69.8284 0.340561 52.9846C0.720137 47.0991 0.862266 40.743 0.656403 38.8599C0.200121 34.6786 1.25256 27.0057 2.7421 23.6518C5.11713 18.3043 10.2806 14.1604 16.6578 12.4835C20.2258 11.5457 41.2187 7.81659 55.7052 5.54754C82.6258 1.33007 97.6831 -0.00397582 118.308 -7.1378e-05C135.408 0.00383338 145.626 0.851184 158.807 3.35997C163.055 4.16832 168.308 4.93102 170.479 5.05479C172.65 5.17796 174.808 5.30229 175.273 5.33073C175.738 5.35918 178.023 4.94548 180.349 4.41081C186.029 3.10631 202.897 2.62462 211.756 3.51439C215.421 3.88231 221.973 4.69181 226.316 5.31346C230.659 5.93449 239.288 6.63804 245.492 6.87608C255.969 7.27805 260.325 7.76975 280.742 10.8572C289.697 12.2113 297.588 14.1515 302.721 16.261C306.085 17.6442 306.748 17.7351 310.353 17.3108C317.602 16.4573 324.463 18.2725 328.568 22.1292C331.779 25.1465 334.026 25.4168 356.601 25.5038C378.741 25.5891 380.913 25.8188 391.169 29.1627C395.604 30.6094 397.041 30.7928 405.952 31.0504C417.061 31.372 420.996 32.1146 427.191 35.0599C430.993 36.8679 431.605 36.9882 437.069 37.0078C447.753 37.0457 464.273 38.0369 468.901 38.9178C477.645 40.5814 484.244 43.3059 490.414 47.7987L493.94 50.3671L499.748 50.3671C507.632 50.3671 519.412 51.3383 526.994 52.6127C539.075 54.6443 550.347 59.0936 558.798 65.1671C568.557 72.181 570.877 73.5401 574.214 74.2036C584.527 76.254 590.155 82.0649 591.65 92.2074C592.22 96.0743 592.141 98.0718 591.057 107.109C588.522 128.256 584.818 140.999 578.194 151.373C577.453 152.532 572.156 167.974 566.423 185.688C560.69 203.402 551.933 229.31 546.964 243.261C540.137 262.429 537.93 269.278 537.93 271.29C537.93 274.866 536.333 279.132 533.21 283.904C531.181 287.004 530.131 289.565 528.326 295.802C520.851 321.644 516.126 333.893 506.762 351.695C506.278 352.615 505.123 356.504 504.195 360.337C501.678 370.735 497.927 380.461 491.402 393.508C486.4 403.511 484.076 409.232 475.442 432.812C467.302 455.037 462.897 465.987 452.806 489.076C441 516.091 440.197 518.149 438.872 524.756C436.653 535.83 433.922 543.094 429.949 548.493C429.272 549.413 427.895 552.518 426.888 555.393C419.5 576.501 410.882 587.097 398.078 590.814C394.214 591.936 385.472 592.354 380.29 591.665Z"></path>
  </symbol>
  <symbol fill="none" xmlns="http://www.w3.org/2000/svg" viewBox="0 0 30 23" id="logo-5AM">
    <g id="Group">
      <g id="Group_2">
        <path id="Vector" d="M10.3483 15.9591C9.95526 15.9591 9.5419 15.9145 9.10822 15.8238C8.67453 15.7345 8.27338 15.5951 7.90474 15.407C7.68384 15.292 7.53069 15.1432 7.44395 14.9591C7.35857 14.7751 7.3274 14.5897 7.3518 14.4016C7.37619 14.2135 7.44802 14.0484 7.56593 13.905C7.68519 13.7616 7.83834 13.6655 8.02672 13.6168C8.2151 13.568 8.41975 13.6005 8.64065 13.7142C8.91035 13.8455 9.19089 13.9429 9.48227 14.0092C9.7723 14.0741 10.0447 14.1066 10.2995 14.1066C10.7169 14.1066 11.0408 14.0173 11.2699 13.8373C11.4989 13.6574 11.6141 13.4043 11.6141 13.0768C11.6141 12.7575 11.503 12.5031 11.2821 12.3109C11.0612 12.1188 10.7657 12.0227 10.3971 12.0227C10.2331 12.0227 10.0555 12.0471 9.8631 12.0958C9.67065 12.1445 9.47143 12.2392 9.26679 12.3773C9.16921 12.426 9.04317 12.4814 8.89273 12.5423C8.74094 12.6032 8.58373 12.6344 8.41974 12.6344C7.84647 12.6344 7.56051 12.3691 7.56051 11.8373V8.13639C7.56051 7.49904 7.88035 7.17969 8.51868 7.17969H12.3758C13.006 7.17969 13.3217 7.48551 13.3217 8.09985C13.3217 8.70472 13.006 9.00783 12.3758 9.00783H9.68556V10.5288C10.0623 10.3326 10.496 10.2352 10.988 10.2352C11.5369 10.2352 12.0193 10.3515 12.4367 10.5843C12.8542 10.817 13.1794 11.1418 13.4139 11.5599C13.647 11.9767 13.7636 12.4639 13.7636 13.0187C13.7636 13.6073 13.624 14.1242 13.3461 14.5694C13.0669 15.0146 12.6739 15.3583 12.1671 15.5992C11.6588 15.8387 11.053 15.9591 10.3483 15.9591Z" fill="#EFE9E2"></path>
        <path id="Vector_2" d="M29.7283 7.33418C29.548 7.15827 29.2987 7.07031 28.9788 7.07031C28.6915 7.07031 28.4652 7.12579 28.2971 7.2354C28.1291 7.34636 27.9719 7.52769 27.8242 7.78073L25.405 12.1339L22.9859 7.78073C22.8463 7.52769 22.6904 7.34501 22.5196 7.2354C22.3475 7.12444 22.1226 7.07031 21.8434 7.07031C21.4991 7.07031 21.2335 7.15827 21.0451 7.33418C21.037 7.3423 21.0316 7.35177 21.0234 7.35989L24.1907 13.5764L24.5078 14.1231C24.6135 14.3031 24.7328 14.4384 24.8643 14.5277C24.9957 14.6184 25.1624 14.663 25.3671 14.663C25.5798 14.663 25.7492 14.6184 25.8766 14.5277C26.004 14.437 26.1247 14.3031 26.2385 14.1231L27.9583 11.1312V14.9079C27.9583 15.2354 28.0464 15.4884 28.2226 15.6684C28.3988 15.8484 28.6509 15.9377 28.9775 15.9377C29.3136 15.9377 29.567 15.847 29.7391 15.6684C29.9113 15.4884 29.9966 15.2354 29.9966 14.9079V8.10144C29.998 7.76585 29.9072 7.5101 29.7283 7.33418Z" fill="#EFE9E2"></path>
        <path id="Vector_3" d="M15.2869 15.935C14.902 15.935 14.6188 15.8037 14.4399 15.5426C14.2596 15.2814 14.2596 14.9539 14.4399 14.5615L17.4973 7.98912C17.6451 7.66977 17.8253 7.43702 18.0381 7.29088C18.2509 7.14338 18.5002 7.07031 18.7876 7.07031C19.0654 7.07031 19.312 7.14338 19.5248 7.29088C19.7376 7.43838 19.9179 7.67112 20.0656 7.98912L23.123 14.5615C23.3114 14.9621 23.3196 15.2909 23.1474 15.5493C22.9753 15.8064 22.7056 15.935 22.337 15.935C22.009 15.935 21.7569 15.8619 21.5821 15.7144C21.4059 15.5669 21.2487 15.3301 21.1091 15.0027L20.7161 14.0703H16.8468L16.4538 15.0027C16.3061 15.3301 16.1543 15.5669 15.9998 15.7144C15.8439 15.8619 15.6068 15.935 15.2869 15.935ZM18.7632 9.53445L17.5841 12.3423H19.9666L18.7876 9.53445H18.7632Z" fill="#EFE9E2"></path>
      </g>
      <g id="Group_3">
        <path id="Vector_4" d="M14.8469 21.3146C14.8469 21.73 14.5731 22.0846 14.195 22.2077C14.191 22.2077 14.1882 22.2077 14.1869 22.2104C14.1408 22.2212 14.092 22.2321 14.0446 22.2415C13.2694 22.412 12.4779 22.5 11.681 22.5C5.60536 22.5 0.664062 17.5663 0.664062 11.5C0.664062 5.4364 5.60536 0.5 11.681 0.5C12.1974 0.5 12.6202 0.922192 12.6202 1.43911C12.6202 1.95737 12.1974 2.37821 11.681 2.37821C6.64349 2.37821 2.54381 6.46888 2.54381 11.4986C2.54381 16.5284 6.64213 20.6218 11.681 20.6218C12.3763 20.6218 13.0566 20.546 13.7193 20.3958C13.7803 20.3836 13.8427 20.3769 13.9077 20.3769C14.4268 20.3769 14.8469 20.7963 14.8469 21.3146Z" fill="#EFE9E2"></path>
      </g>
      <path id="Vector_5" d="M16.3414 21.3283C16.8578 21.3283 17.2765 20.9103 17.2765 20.3946C17.2765 19.879 16.8578 19.4609 16.3414 19.4609C15.8249 19.4609 15.4062 19.879 15.4062 20.3946C15.4062 20.9103 15.8249 21.3283 16.3414 21.3283Z" fill="#D6703A"></path>
    </g>
  </symbol>
  <symbol fill="none" xmlns="http://www.w3.org/2000/svg" viewBox="0 0 32 32" id="messages">
    <path d="M17.5841 8H9.05073C8.70406 8 8.37073 8.01333 8.05073 8.05333C4.46406 8.36 2.66406 10.48 2.66406 14.3867V19.72C2.66406 25.0533 4.7974 26.1067 9.05073 26.1067H9.58406C9.8774 26.1067 10.2641 26.3067 10.4374 26.5333L12.0374 28.6667C12.7441 29.6133 13.8907 29.6133 14.5974 28.6667L16.1974 26.5333C16.3974 26.2667 16.7174 26.1067 17.0507 26.1067H17.5841C21.4907 26.1067 23.6107 24.32 23.9174 20.72C23.9574 20.4 23.9707 20.0667 23.9707 19.72V14.3867C23.9707 10.1333 21.8374 8 17.5841 8ZM8.66406 18.6667C7.9174 18.6667 7.33073 18.0667 7.33073 17.3333C7.33073 16.6 7.93073 16 8.66406 16C9.3974 16 9.9974 16.6 9.9974 17.3333C9.9974 18.0667 9.3974 18.6667 8.66406 18.6667ZM13.3174 18.6667C12.5707 18.6667 11.9841 18.0667 11.9841 17.3333C11.9841 16.6 12.5841 16 13.3174 16C14.0507 16 14.6507 16.6 14.6507 17.3333C14.6507 18.0667 14.0641 18.6667 13.3174 18.6667ZM17.9841 18.6667C17.2374 18.6667 16.6507 18.0667 16.6507 17.3333C16.6507 16.6 17.2507 16 17.9841 16C18.7174 16 19.3174 16.6 19.3174 17.3333C19.3174 18.0667 18.7174 18.6667 17.9841 18.6667Z" fill="#E2712E"></path>
    <path d="M26.9711 14.3868V14.3841C26.9711 11.5288 26.1504 9.14918 24.4848 7.48362C22.8193 5.81806 20.4396 4.9974 17.5844 4.99739L17.5827 4.9974L10.2737 5.0094C11.0978 4.15677 12.3996 3.66406 14.3844 3.66406H22.9177C24.8895 3.66406 26.1872 4.15779 26.999 4.9695C27.8107 5.78122 28.3044 7.079 28.3044 9.05073V14.3841C28.3044 16.3797 27.8116 17.6831 26.9599 18.5072L26.9711 14.3868Z" fill="#E2712E" stroke="#E2712E" stroke-width="2"></path>
  </symbol>
  <symbol fill="none" xmlns="http://www.w3.org/2000/svg" viewBox="0 0 24 24" id="pressed">
    <path d="M24 12C24 18.6274 18.6274 24 12 24C5.37258 24 0 18.6274 0 12C0 5.37258 5.37258 0 12 0C18.6274 0 24 5.37258 24 12Z" fill="white" fill-opacity="0.08"></path>
    <path fill-rule="evenodd" clip-rule="evenodd" d="M10.2562 12.8824L9.73467 12.0855C9.37856 11.5414 8.62002 11.3429 8.03981 11.6412L8.175 11.5717C8.03101 11.6457 7.96197 11.8302 8.02125 11.9836L8.74318 13.8514C8.85762 14.1475 9.14992 14.5663 9.39212 14.7767C9.39212 14.7767 10.8444 15.9787 10.8444 16.4294V17H13.1974L13.7856 15.8235L14.3739 17H14.9621V16.4294C14.9621 15.9787 15.8496 14.5592 15.8496 14.5592C16.013 14.2833 16.1492 13.7972 16.1492 13.4745V11.1011C16.1386 10.5756 15.6919 10.1497 15.1407 10.1497C14.865 10.1497 14.6417 10.3627 14.6417 10.6255V10.8156C14.6417 10.2902 14.195 9.8643 13.6439 9.8643C13.3681 9.8643 13.1448 10.0772 13.1448 10.3401V10.5302C13.1448 10.0047 12.6981 9.57887 12.147 9.57887C11.8713 9.57887 11.6479 9.7918 11.6479 10.0547V10.2448C11.6479 10.1603 11.6389 10.0932 11.6215 10.04L11.4693 7.58895C11.4487 7.25751 11.1693 7 10.8444 7C10.5173 7 10.2562 7.26331 10.2562 7.58812V12.8824ZM14.3844 12.2941L14.9727 12.2941V14.6471H14.3844V12.2941ZM13.208 12.2941L13.7962 12.2941V14.6471H13.208V12.2941ZM12.0315 12.2941L12.6197 12.2941V14.6471H12.0315V12.2941Z" fill="#AFA79D"></path>
  </symbol>
  <symbol fill="none" xmlns="http://www.w3.org/2000/svg" viewBox="0 0 126 40" id="ru-store">
    <g clip-path="url(#clip0_10307_71326)">
      <path d="M126 0H0V40H126V0Z" fill="#211C17"></path>
      <mask id="mask0_10307_71326" maskUnits="userSpaceOnUse" x="15" y="8" width="96" height="24">
        <path d="M111 8.14844H15V31.8521H111V8.14844Z" fill="white"></path>
      </mask>
      <g mask="url(#mask0_10307_71326)">
        <path fill-rule="evenodd" clip-rule="evenodd" d="M26.619 31.8521C21.1418 31.8521 18.4031 31.8521 16.7016 30.1859C15 28.5197 15 25.8378 15 20.4743V19.5261C15 14.1626 15 11.4808 16.7016 9.81459C18.4031 8.14844 21.1418 8.14844 26.619 8.14844H27.5873C33.0645 8.14844 35.8032 8.14844 37.5047 9.81459C39.2063 11.4808 39.2063 14.1626 39.2063 19.5261V20.4743C39.2063 25.8378 39.2063 28.5197 37.5047 30.1859C35.8032 31.8521 33.0645 31.8521 27.5873 31.8521H26.619Z" fill="#0077FF"></path>
        <path d="M29.0001 22.757C28.3479 22.5974 27.8906 22.0262 27.8906 21.3709V13.6517C27.8906 12.9074 28.6087 12.3616 29.3495 12.5428L34.0406 13.6903C34.6928 13.8499 35.1501 14.4211 35.1501 15.0763V22.7957C35.1501 23.5399 34.432 24.0857 33.6912 23.9045L29.0001 22.757Z" fill="#FAF8F5"></path>
        <path d="M20.172 26.3116C19.5198 26.1521 19.0625 25.5808 19.0625 24.9256V17.2063C19.0625 16.4621 19.7806 15.9163 20.5214 16.0975L25.2125 17.245C25.8646 17.4045 26.322 17.9758 26.322 18.631V26.3504C26.322 27.0945 25.6038 27.6404 24.863 27.4592L20.172 26.3116Z" fill="#FAF8F5"></path>
        <path d="M24.586 24.5304C23.9338 24.3709 23.4766 23.7995 23.4766 23.1444V15.4251C23.4766 14.6809 24.1947 14.135 24.9355 14.3162L29.6266 15.4638C30.2788 15.6233 30.736 16.1946 30.736 16.8498V24.5691C30.736 25.3133 30.0179 25.8591 29.2771 25.6779L24.586 24.5304Z" fill="#FAF8F5"></path>
        <path d="M27.6542 25.2858C27.4488 25.2346 27.3026 25.0567 27.2954 24.8492L27.0913 18.954C27.0323 18.1738 26.4408 17.5533 25.8228 17.3705C25.788 17.3603 25.751 17.3741 25.7304 17.4034C25.7096 17.4331 25.7176 17.4742 25.7468 17.4962C25.8994 17.6119 26.3195 17.9895 26.3195 18.6407L26.3182 24.9543L27.6542 25.2858Z" fill="#0077FF"></path>
        <path d="M32.0683 23.5101C31.863 23.4598 31.7166 23.2825 31.7095 23.0754L31.5053 17.1806C31.4463 16.4004 30.8549 15.7799 30.2368 15.5971C30.2021 15.5868 30.1651 15.6007 30.1445 15.6299C30.1236 15.6596 30.1317 15.7008 30.1608 15.7228C30.3134 15.8385 30.7335 16.2161 30.7335 16.8673L30.7323 23.183L32.0683 23.5101Z" fill="#0077FF"></path>
        <path d="M53.1393 25.9928C54.9724 25.5352 56.1769 24.1623 56.1769 22.3656C56.1769 20.1453 54.3612 18.5859 51.8124 18.5859H47.2734V30.5353H49.3684V26.1453H50.8524L54.0993 30.5353H56.561L53.1393 25.9928ZM51.8124 20.4504C53.1217 20.4504 54.0297 21.23 54.0297 22.3656C54.0297 23.5013 53.1217 24.2809 51.8124 24.2809H49.3684V20.4504H51.8124Z" fill="#FAF8F5"></path>
        <path d="M61.2792 30.7097C62.379 30.7097 63.3915 30.1504 63.9678 29.2182L64.3692 30.5403H65.8707V21.7266H63.863V26.8283C63.863 28.0826 63.0075 28.964 61.8379 28.964C60.6857 28.964 59.8824 28.0826 59.8824 26.8283V21.7266H57.875V27.0487C57.875 29.1674 59.3414 30.7097 61.2792 30.7097Z" fill="#FAF8F5"></path>
        <path d="M72.2798 30.7102C74.6017 30.7102 76.5222 29.422 76.5222 27.2864C76.5222 24.8965 74.5145 24.2017 72.7862 23.6254C71.442 23.1847 70.2724 22.7779 70.2724 21.7101C70.2724 20.7778 71.1624 20.2863 72.21 20.2863C73.3099 20.2863 74.0955 20.8457 74.5321 21.7948L76.5222 21.4728C75.8937 19.6083 74.3049 18.4219 72.1404 18.4219C69.9057 18.4219 68.1249 19.6761 68.1249 21.8118C68.1249 24.2186 70.1326 24.8796 71.8608 25.4389C73.1878 25.8627 74.3748 26.2694 74.3748 27.3542C74.3748 28.3034 73.4846 28.8458 72.2974 28.8458C70.9356 28.8458 70.2025 28.2186 69.5566 27.083L67.5312 27.422C68.1249 29.439 70.0104 30.7102 72.2798 30.7102Z" fill="#FAF8F5"></path>
        <path d="M81.9803 28.8408C81.2993 28.8408 80.9678 28.5188 80.9678 27.8578V23.417H83.6738V21.7221H80.9678V19.1797H79.4663L78.9601 21.7221H77.4766V23.417H78.9601V27.8578C78.9601 29.5866 79.9906 30.5358 81.9803 30.5358H83.6738L83.8486 28.8408H81.9803Z" fill="#FAF8F5"></path>
        <path d="M89.5876 30.7074C92.4331 30.7074 94.4409 28.809 94.4409 26.131C94.4409 23.453 92.4331 21.5547 89.5876 21.5547C86.7421 21.5547 84.7344 23.453 84.7344 26.131C84.7344 28.809 86.7421 30.7074 89.5876 30.7074ZM89.5876 28.9276C87.9466 28.9276 86.8291 27.792 86.8291 26.131C86.8291 24.4699 87.9466 23.3343 89.5876 23.3343C91.2286 23.3343 92.3461 24.4699 92.3461 26.131C92.3461 27.792 91.2286 28.9276 89.5876 28.9276Z" fill="#FAF8F5"></path>
        <path d="M98.1945 30.5403V25.3368C98.1945 24.2181 98.7532 23.591 99.9757 23.591H101.128L100.953 21.7266H100.569C99.504 21.7266 98.6835 22.0147 98.0723 22.9978L97.6882 21.7266H96.1875V30.5403H98.1945Z" fill="#FAF8F5"></path>
        <path d="M111.005 26.0293C111.005 23.4869 109.05 21.5547 106.292 21.5547C103.533 21.5547 101.578 23.4699 101.578 26.131C101.578 28.792 103.533 30.7074 106.292 30.7074C108.177 30.7074 109.958 29.8429 110.639 28.1649L108.753 27.8599C108.317 28.487 107.479 28.9276 106.414 28.9276C104.878 28.9276 103.865 28.0124 103.673 26.6564H110.97C110.988 26.4699 111.005 26.2665 111.005 26.0293ZM106.292 23.2496C107.549 23.2496 108.492 24.0293 108.823 25.131H103.795C104.127 23.9954 105.069 23.2496 106.292 23.2496Z" fill="#FAF8F5"></path>
        <path d="M47.4453 15.5971V13.8715H47.5605C47.7098 13.8715 47.8293 13.8356 47.9189 13.764C48.0085 13.6924 48.0832 13.5491 48.1429 13.3341C48.2069 13.115 48.256 12.7927 48.2901 12.367L48.4757 10.0156H51.3173V13.8715H51.9765V15.5971H51.3173V14.4719H48.1045V15.5971H47.4453ZM50.6581 13.8715V10.6161H49.0837L48.9493 12.3987C48.8981 13.1108 48.7658 13.6018 48.5525 13.8715H50.6581Z" fill="#FAF8F5"></path>
        <path d="M54.0753 14.535C53.7382 14.535 53.4374 14.4634 53.1729 14.32C52.9084 14.1768 52.7014 13.9766 52.5521 13.7196C52.4027 13.4625 52.3281 13.1697 52.3281 12.8409C52.3281 12.5123 52.4027 12.2194 52.5521 11.9623C52.7014 11.7053 52.9084 11.5051 53.1729 11.3618C53.4374 11.2143 53.7382 11.1406 54.0753 11.1406C54.4124 11.1406 54.7132 11.2143 54.9777 11.3618C55.2422 11.5051 55.4492 11.7053 55.5985 11.9623C55.7478 12.2194 55.8225 12.5123 55.8225 12.8409C55.8225 13.1697 55.7478 13.4625 55.5985 13.7196C55.4492 13.9766 55.2422 14.1768 54.9777 14.32C54.7132 14.4634 54.4124 14.535 54.0753 14.535ZM54.0753 13.9661C54.3995 13.9661 54.662 13.8628 54.8625 13.6563C55.0673 13.4499 55.1697 13.178 55.1697 12.8409C55.1697 12.5038 55.0673 12.232 54.8625 12.0255C54.662 11.8148 54.3995 11.7095 54.0753 11.7095C53.751 11.7095 53.4886 11.8148 53.2881 12.0255C53.0876 12.232 52.9873 12.5038 52.9873 12.8409C52.9873 13.1739 53.0876 13.4457 53.2881 13.6563C53.4886 13.8628 53.751 13.9661 54.0753 13.9661Z" fill="#FAF8F5"></path>
        <path d="M58.012 14.535C57.6835 14.535 57.387 14.4634 57.1225 14.32C56.8621 14.1726 56.6595 13.9703 56.5145 13.7132C56.3694 13.4562 56.2969 13.1654 56.2969 12.8409C56.2969 12.5123 56.3694 12.2194 56.5145 11.9623C56.6595 11.7053 56.8621 11.5051 57.1225 11.3618C57.3827 11.2143 57.6793 11.1406 58.012 11.1406C58.3662 11.1406 58.6819 11.2248 58.9592 11.3934C59.2408 11.562 59.4414 11.8043 59.5609 12.1203L58.972 12.2151C58.8952 12.0634 58.7737 11.9413 58.6072 11.8486C58.4451 11.7558 58.2595 11.7095 58.0504 11.7095C57.7261 11.7095 57.4616 11.8148 57.2569 12.0255C57.0563 12.2363 56.956 12.508 56.956 12.8409C56.956 13.1739 57.0563 13.4457 57.2569 13.6563C57.4616 13.8628 57.7261 13.9661 58.0504 13.9661C58.268 13.9661 58.46 13.9176 58.6264 13.8207C58.7971 13.7238 58.9208 13.5952 58.9976 13.4351L59.5864 13.53C59.467 13.8502 59.2621 14.0988 58.972 14.2758C58.6861 14.4486 58.3662 14.535 58.012 14.535Z" fill="#FAF8F5"></path>
        <path d="M61.5228 14.4711H60.8956V11.772H59.75V11.2031H62.6684V11.772H61.5228V14.4711Z" fill="#FAF8F5"></path>
        <path d="M65.6369 11.2031H66.2833L64.9009 14.9641C64.7985 15.2465 64.6641 15.4508 64.4977 15.5773C64.3313 15.7036 64.1094 15.7669 63.8321 15.7669H63.3393L63.2817 15.198H63.8705C63.9942 15.198 64.0902 15.1706 64.1585 15.1158C64.2268 15.0653 64.2844 14.9747 64.3313 14.844L64.4017 14.6544L62.9297 11.2031H63.6017L64.6513 13.7252H64.7409L65.6369 11.2031Z" fill="#FAF8F5"></path>
        <path d="M67.471 14.4711H66.8438V11.2031H69.6598V14.4711H69.0326V11.772H67.471V14.4711Z" fill="#FAF8F5"></path>
        <path d="M72.7521 12.5368V11.2031H73.3793V14.4711H72.7521V13.1057H71.1585V14.4711H70.5312V11.2031H71.1585V12.5368H72.7521Z" fill="#FAF8F5"></path>
        <path d="M75.7941 14.535C75.4573 14.535 75.1566 14.4634 74.8917 14.32C74.6272 14.1768 74.4202 13.9766 74.2709 13.7196C74.1216 13.4625 74.0469 13.1697 74.0469 12.8409C74.0469 12.5123 74.1216 12.2194 74.2709 11.9623C74.4202 11.7053 74.6272 11.5051 74.8917 11.3618C75.1566 11.2143 75.4573 11.1406 75.7941 11.1406C76.1308 11.1406 76.4323 11.2143 76.6963 11.3618C76.9611 11.5051 77.1681 11.7053 77.3173 11.9623C77.4666 12.2194 77.5416 12.5123 77.5416 12.8409C77.5416 13.1697 77.4666 13.4625 77.3173 13.7196C77.1681 13.9766 76.9611 14.1768 76.6963 14.32C76.4323 14.4634 76.1308 14.535 75.7941 14.535ZM75.7941 13.9661C76.1181 13.9661 76.3806 13.8628 76.5816 13.6563C76.7863 13.4499 76.8883 13.178 76.8883 12.8409C76.8883 12.5038 76.7863 12.232 76.5816 12.0255C76.3806 11.8148 76.1181 11.7095 75.7941 11.7095C75.4701 11.7095 75.2076 11.8148 75.0066 12.0255C74.8064 12.232 74.7061 12.5038 74.7061 12.8409C74.7061 13.1739 74.8064 13.4457 75.0066 13.6563C75.2076 13.8628 75.4701 13.9661 75.7941 13.9661Z" fill="#FAF8F5"></path>
        <path d="M81.9453 12.7581C82.1163 12.8213 82.2527 12.9245 82.3555 13.0678C82.462 13.2069 82.5153 13.3712 82.5153 13.5608C82.5153 13.7336 82.4643 13.8896 82.3615 14.0286C82.2633 14.1676 82.1245 14.2772 81.9453 14.3573C81.766 14.4331 81.5613 14.4711 81.331 14.4711H79.75V11.2031H81.2733C81.4915 11.2031 81.685 11.2411 81.856 11.3169C82.0263 11.3928 82.159 11.496 82.2528 11.6266C82.351 11.7573 82.3998 11.9068 82.3998 12.0754C82.3998 12.2356 82.3593 12.3746 82.2783 12.4926C82.2018 12.6064 82.0908 12.6949 81.9453 12.7581ZM80.3778 11.7278V12.5305H81.2733C81.4188 12.5305 81.538 12.4947 81.6318 12.4231C81.7255 12.3472 81.7728 12.2503 81.7728 12.1323C81.7728 12.0143 81.7255 11.9174 81.6318 11.8416C81.538 11.7657 81.4188 11.7278 81.2733 11.7278H80.3778ZM81.331 13.9465C81.4975 13.9465 81.6318 13.9043 81.7345 13.82C81.8365 13.7357 81.8883 13.6262 81.8883 13.4913C81.8883 13.3565 81.8365 13.2469 81.7345 13.1626C81.6318 13.0784 81.4975 13.0362 81.331 13.0362H80.3778V13.9465H81.331Z" fill="#FAF8F5"></path>
      </g>
    </g>
    <defs>
      <clipPath id="clip0_10307_71326">
        <rect width="126" height="40" rx="12" fill="white"></rect>
      </clipPath>
    </defs>
  </symbol>
  <symbol fill="none" xmlns="http://www.w3.org/2000/svg" viewBox="0 0 16 16" id="square">
    <g clip-path="url(#clip0_10290_65351)">
      <path d="M7.00927 7.4826L5.5426 1.59594C5.50927 1.4426 5.36927 1.33594 5.20927 1.33594C3.06927 1.33594 1.33594 3.06927 1.33594 5.20927V9.00927C1.33594 9.23594 1.55594 9.4026 1.77594 9.33594L6.77594 7.88927C6.94927 7.8426 7.05594 7.6626 7.00927 7.4826Z" fill="#1E1915"></path>
      <path d="M7.41594 9.11925C7.36927 8.93259 7.17594 8.81925 6.98927 8.87259L1.5826 10.4459C1.43594 10.4926 1.33594 10.6259 1.33594 10.7793V10.7926C1.33594 12.9326 3.06927 14.6659 5.20927 14.6659H8.35594C8.57594 14.6659 8.7426 14.4593 8.68927 14.2393L7.41594 9.11925Z" fill="#1E1915"></path>
      <path d="M10.7939 1.33594H6.96054C6.74054 1.33594 6.57387 1.5426 6.6272 1.7626L9.7872 14.4093C9.8272 14.5626 9.96054 14.6693 10.1205 14.6693H10.7872C12.9339 14.6693 14.6672 12.9359 14.6672 10.7959V5.20927C14.6672 3.06927 12.9339 1.33594 10.7939 1.33594Z" fill="#1E1915"></path>
    </g>
    <defs>
      <clipPath id="clip0_10290_65351">
        <rect width="16" height="16" fill="white"></rect>
      </clipPath>
    </defs>
  </symbol>
  <symbol xmlns="http://www.w3.org/2000/svg" viewBox="0 0 21 20" id="tg">
    <path fill-rule="evenodd" clip-rule="evenodd" d="M1.8749 8.8879C7.24359 6.62993 10.8236 5.14134 12.6148 4.42212C17.7292 2.36862 18.7919 2.0119 19.4846 2.00013C19.6369 1.99753 19.9776 2.03398 20.1982 2.20682C20.3845 2.35275 20.4358 2.5499 20.4603 2.68826C20.4848 2.82663 20.5154 3.14183 20.4911 3.38811C20.214 6.1992 19.0147 13.021 18.4046 16.1694C18.1465 17.5017 17.6382 17.9484 17.1461 17.9921C16.0766 18.0871 15.2645 17.3098 14.2287 16.6543C12.6078 15.6287 11.6921 14.9902 10.1188 13.9893C8.30053 12.8327 9.47923 12.1969 10.5155 11.158C10.7866 10.8861 15.4987 6.74868 15.5899 6.37335C15.6013 6.32641 15.6119 6.15143 15.5042 6.05904C15.3965 5.96664 15.2376 5.99824 15.1229 6.02337C14.9604 6.05898 12.371 7.71112 7.35486 10.9798C6.61988 11.467 5.95416 11.7044 5.3577 11.6919C4.70015 11.6782 3.43528 11.333 2.49498 11.038C1.34166 10.6761 0.425027 10.4847 0.504845 9.87009C0.546419 9.54996 1.0031 9.22256 1.8749 8.8879Z"></path>
  </symbol>
  <symbol xmlns="http://www.w3.org/2000/svg" viewBox="0 0 17 12" id="youtube">
    <path d="M16.6647 2.69336C16.6647 2.69336 16.502 1.54427 16.0007 1.03971C15.3659 0.375651 14.6563 0.372396 14.3307 0.333333C12 0.164062 8.50065 0.164062 8.50065 0.164062H8.49414C8.49414 0.164062 4.99479 0.164062 2.66406 0.333333C2.33854 0.372396 1.62891 0.375651 0.994141 1.03971C0.492839 1.54427 0.333333 2.69336 0.333333 2.69336C0.333333 2.69336 0.164062 4.04427 0.164062 5.39193V6.65495C0.164062 8.0026 0.330078 9.35352 0.330078 9.35352C0.330078 9.35352 0.492839 10.5026 0.990885 11.0072C1.62565 11.6712 2.45898 11.6484 2.83008 11.7201C4.16471 11.847 8.4974 11.8861 8.4974 11.8861C8.4974 11.8861 12 11.8796 14.3307 11.7135C14.6563 11.6745 15.3659 11.6712 16.0007 11.0072C16.502 10.5026 16.6647 9.35352 16.6647 9.35352C16.6647 9.35352 16.8307 8.00586 16.8307 6.65495V5.39193C16.8307 4.04427 16.6647 2.69336 16.6647 2.69336ZM6.77539 8.18815V3.50391L11.2773 5.85417L6.77539 8.18815Z"></path>
  </symbol>
  <symbol xmlns="http://www.w3.org/2000/svg" viewBox="0 0 20 20" id="user">
    <path d="M10.0026 9.9974C12.3038 9.9974 14.1693 8.13192 14.1693 5.83073C14.1693 3.52954 12.3038 1.66406 10.0026 1.66406C7.70142 1.66406 5.83594 3.52954 5.83594 5.83073C5.83594 8.13192 7.70142 9.9974 10.0026 9.9974Z"></path>
    <path d="M9.99688 12.0859C5.82188 12.0859 2.42188 14.8859 2.42188 18.3359C2.42188 18.5693 2.60521 18.7526 2.83854 18.7526H17.1552C17.3885 18.7526 17.5719 18.5693 17.5719 18.3359C17.5719 14.8859 14.1719 12.0859 9.99688 12.0859Z"></path>
  </symbol>
  <symbol xmlns="http://www.w3.org/2000/svg" viewBox="0 0 20 20" id="wh">
    <path fill-rule="evenodd" clip-rule="evenodd" d="M10 1C5.02943 1 1 5.02943 1 10C1 11.7006 1.47255 13.2935 2.2938 14.6515L1.49123 17.3802C1.28821 18.0705 1.92956 18.7118 2.61978 18.5088L5.34854 17.7062C6.70652 18.5275 8.29936 19 10 19C14.9705 19 19 14.9705 19 10C19 5.02943 14.9705 1 10 1ZM7.96439 12.0364C9.78463 13.8567 11.5228 14.0966 12.1365 14.1192C13.07 14.1536 13.9789 13.4407 14.3332 12.6138C14.4201 12.4113 14.3984 12.1676 14.2529 11.9813C13.7604 11.3504 13.0936 10.8985 12.4421 10.4486C12.1605 10.2538 11.7734 10.3141 11.5661 10.59L11.0255 11.4135C10.9654 11.5049 10.8462 11.5363 10.7513 11.482C10.3855 11.2729 9.85204 10.9162 9.46828 10.5324C9.08497 10.1491 8.74999 9.63982 8.56198 9.29755C8.51257 9.20755 8.53993 9.0964 8.62228 9.0352L9.45343 8.41798C9.70129 8.20342 9.74485 7.83898 9.56242 7.57205C9.1585 6.98112 8.68798 6.23008 8.00695 5.73333C7.82095 5.59765 7.58566 5.58242 7.3914 5.66567C6.56353 6.02047 5.84717 6.9291 5.88158 7.86425C5.90417 8.47801 6.14415 10.2162 7.96439 12.0364Z"></path>
  </symbol>
</svg>