<svg width="1344" height="788" viewBox="0 0 1344 788" fill="none" xmlns="http://www.w3.org/2000/svg">
<mask id="mask0_11604_60610" style="mask-type:alpha" maskUnits="userSpaceOnUse" x="0" y="0" width="1344" height="788">
<rect width="1344" height="788" fill="#EFE9E1"/>
</mask>
<g mask="url(#mask0_11604_60610)">
<rect width="1344" height="788" fill="#EBE5DD"/>
<path opacity="0.4" d="M776.169 350.357V413.794L759.19 399.211C751.065 392.232 737.94 392.232 729.815 399.211L686.482 436.398C678.357 443.378 665.232 443.378 657.107 436.398L653.565 433.482C646.169 427.023 634.398 426.398 626.065 432.023L574.815 466.398L573.669 467.232C569.815 458.898 567.836 449.003 567.836 437.648V350.357C567.836 312.44 590.44 289.836 628.357 289.836H715.648C753.565 289.836 776.169 312.44 776.169 350.357Z" fill="#918678"/>
<path d="M640.753 377.122C654.445 377.122 665.544 366.023 665.544 352.331C665.544 338.639 654.445 327.539 640.753 327.539C627.061 327.539 615.961 338.639 615.961 352.331C615.961 366.023 627.061 377.122 640.753 377.122Z" fill="#918678"/>
<path d="M776.164 413.794V437.648C776.164 475.565 753.56 498.169 715.643 498.169H628.352C601.789 498.169 582.622 487.023 573.664 467.232L574.81 466.398L626.06 432.023C634.393 426.398 646.164 427.023 653.56 433.482L657.102 436.398C665.227 443.378 678.352 443.378 686.477 436.398L729.81 399.211C737.935 392.232 751.06 392.232 759.185 399.211L776.164 413.794Z" fill="#918678"/>
</g>
</svg>
