<svg width="1000" height="1000" viewBox="0 0 1000 1000" fill="none" xmlns="http://www.w3.org/2000/svg">
<mask id="mask0_11660_77575" style="mask-type:alpha" maskUnits="userSpaceOnUse" x="0" y="0" width="1000" height="1000">
<rect width="1000" height="1000" rx="64" fill="#EFE9E1"/>
</mask>
<g mask="url(#mask0_11660_77575)">
<rect width="1000" height="1000" fill="#E9E1D6"/>
<path opacity="0.4" d="M604.169 456.357V519.794L587.19 505.211C579.065 498.232 565.94 498.232 557.815 505.211L514.482 542.398C506.357 549.378 493.232 549.378 485.107 542.398L481.565 539.482C474.169 533.023 462.398 532.398 454.065 538.023L402.815 572.398L401.669 573.232C397.815 564.898 395.836 555.003 395.836 543.648V456.357C395.836 418.44 418.44 395.836 456.357 395.836H543.648C581.565 395.836 604.169 418.44 604.169 456.357Z" fill="#918678"/>
<path d="M468.753 483.122C482.445 483.122 493.544 472.023 493.544 458.331C493.544 444.639 482.445 433.539 468.753 433.539C455.061 433.539 443.961 444.639 443.961 458.331C443.961 472.023 455.061 483.122 468.753 483.122Z" fill="#918678"/>
<path d="M604.164 519.794V543.648C604.164 581.565 581.56 604.169 543.643 604.169H456.352C429.789 604.169 410.622 593.023 401.664 573.232L402.81 572.398L454.06 538.023C462.393 532.398 474.164 533.023 481.56 539.482L485.102 542.398C493.227 549.378 506.352 549.378 514.477 542.398L557.81 505.211C565.935 498.232 579.06 498.232 587.185 505.211L604.164 519.794Z" fill="#918678"/>
</g>
</svg>
