<svg width="76" height="40" viewBox="0 0 76 40" fill="none" xmlns="http://www.w3.org/2000/svg">
<path fill-rule="evenodd" clip-rule="evenodd" d="M5.08786 6.16433C5.05715 6.25468 4.84615 6.82921 4.6189 7.44101C4.39171 8.05281 4.17553 8.64438 4.13853 8.75562C4.10152 8.86685 4.02315 9.07815 3.96442 9.22519C3.9057 9.37222 3.85763 9.50312 3.85763 9.51607C3.85763 9.52901 7.90469 9.53387 12.8511 9.52684L21.8445 9.51405L22.1421 8.70506C22.3058 8.26011 22.4931 7.74817 22.5581 7.56742C22.6233 7.38666 22.7707 6.9809 22.8858 6.66575C23.0009 6.3506 23.095 6.07185 23.095 6.04637C23.095 6.0184 19.5269 6 14.1193 6H5.14364L5.08786 6.16433ZM3.21158 11.3216C3.18442 11.3564 3.06453 11.6579 2.9452 11.9916C2.71135 12.6453 2.59558 12.9644 2.19037 14.0714C2.04652 14.4644 1.92881 14.8 1.92881 14.8172C1.92881 14.8343 5.97171 14.8483 10.913 14.8483C15.8543 14.8483 19.8973 14.8426 19.8974 14.8357C19.8978 14.8201 20.0288 14.4585 20.5066 13.1545C20.7105 12.5983 20.9424 11.9649 21.022 11.747C21.1016 11.529 21.1538 11.33 21.1381 11.3046C21.121 11.277 17.5122 11.2584 12.1852 11.2584C5.10598 11.2584 3.25076 11.2715 3.21158 11.3216ZM26.9019 22.1798V33H31.3359C33.879 33 36.049 32.9781 36.4244 32.9486C37.473 32.8662 38.4949 32.5717 39.2434 32.1362C41.026 31.0991 41.977 29.2788 41.9771 26.9035C41.9771 25.1797 41.4588 23.8916 40.3568 22.8769C40.0481 22.5928 39.8619 22.4549 39.2361 22.0473C39.1384 21.9836 38.8587 21.8384 38.6144 21.7246C38.3701 21.6108 38.1702 21.5077 38.1702 21.4956C38.1702 21.4835 38.2901 21.4132 38.4367 21.3393C39.0743 21.0181 39.8365 20.3815 40.2566 19.8194C40.4964 19.4986 40.8195 18.8712 40.955 18.4635C41.0771 18.0958 41.2157 17.1994 41.2157 16.7773C41.2157 16.0081 40.98 14.9853 40.653 14.3358C39.8342 12.7096 38.1095 11.6834 35.7338 11.409C35.5244 11.3848 33.4516 11.3638 31.1275 11.3623L26.9019 11.3596V22.1798ZM42.1801 13.1798V15H45.3018H48.4234V24V33H50.606H52.7886V24V15H55.5481H58.3077L58.4111 14.7093C58.4681 14.5493 58.7363 13.76 59.007 12.9551C59.2778 12.1502 59.5109 11.4619 59.5249 11.4256C59.5457 11.3714 57.993 11.3596 50.8652 11.3596H42.1801V13.1798ZM60.8319 11.4228C60.8186 11.4575 60.8136 16.3209 60.8208 22.2303L60.8338 32.9747L65.3259 32.9747C70.123 32.9746 70.3698 32.9643 71.4005 32.7196C72.396 32.4833 73.0667 32.15 73.8642 31.4955C74.8992 30.6459 75.5967 29.4019 75.8843 27.893C76.0381 27.0862 76.0386 25.7952 75.8855 24.9521C75.5477 23.0912 74.5994 21.6515 73.1173 20.7495C72.3398 20.2763 71.2614 19.9553 70.0272 19.8297C69.4859 19.7746 68.6914 19.7528 67.2228 19.7528H65.1736V17.3767V15.0006L69.4246 14.9877L73.6756 14.9747L73.9424 14.191C74.6057 12.2419 74.8685 11.4522 74.8685 11.4076C74.8685 11.3774 72.2573 11.3596 67.8622 11.3596C62.304 11.3596 60.851 11.3726 60.8319 11.4228ZM34.9605 15.0455C35.2944 15.1326 35.7915 15.3827 36.0225 15.5796C36.455 15.9485 36.6956 16.5992 36.6974 17.405C36.6999 18.5589 36.2732 19.3231 35.3928 19.7419L34.9978 19.9298L33.1071 19.9452L31.2163 19.9607V17.4497V14.9388L32.9802 14.9638C34.0316 14.9788 34.8315 15.0117 34.9605 15.0455ZM1.19724 16.7823C1.11912 16.9916 1.0077 17.297 0.328355 19.1633C0.147757 19.6594 0 20.086 0 20.1113C0 20.1387 3.60942 20.1573 8.96066 20.1573H17.9213L18.026 19.9171C18.0836 19.785 18.1821 19.5291 18.2448 19.3483C18.449 18.7599 19.075 17.0526 19.1572 16.8598C19.2013 16.7564 19.2374 16.6483 19.2374 16.6196C19.2374 16.584 16.3965 16.5674 10.2574 16.5674H1.27733L1.19724 16.7823ZM69.5388 23.4904C70.0485 23.6408 70.377 23.8361 70.7169 24.1911C71.0522 24.5413 71.2964 24.9986 71.3947 25.4601C71.4898 25.9075 71.4863 26.7454 71.3872 27.2254C71.2273 27.9998 70.7283 28.6882 70.0967 29.0059C69.5678 29.2718 69.2343 29.3052 67.0897 29.3072L65.1736 29.309V26.3209V23.3329L67.1659 23.3555C69.0395 23.3767 69.1808 23.3848 69.5388 23.4904ZM35.1963 23.8473C35.7167 23.9321 36.1478 24.1286 36.4895 24.4367C36.8476 24.7594 37.0001 24.9963 37.1887 25.5222C37.307 25.8522 37.3232 25.9761 37.3274 26.5787C37.3315 27.1699 37.3162 27.3086 37.2125 27.6152C36.9835 28.2923 36.6199 28.7663 36.1023 29.0625C35.5928 29.3541 35.1033 29.4101 33.0641 29.4101H31.2671V26.6039V23.7978L33.0817 23.7981C34.0798 23.7982 35.0313 23.8204 35.1963 23.8473Z" fill="#918678"/>
</svg>
