<svg width="20" height="20" viewBox="0 0 20 20" xmlns="http://www.w3.org/2000/svg">
<path fill-rule="evenodd" clip-rule="evenodd" d="M10 1C5.02943 1 1 5.02943 1 10C1 11.7006 1.47255 13.2935 2.2938 14.6515L1.49123 17.3802C1.28821 18.0705 1.92956 18.7118 2.61978 18.5088L5.34854 17.7062C6.70652 18.5275 8.29936 19 10 19C14.9705 19 19 14.9705 19 10C19 5.02943 14.9705 1 10 1ZM7.96439 12.0364C9.78463 13.8567 11.5228 14.0966 12.1365 14.1192C13.07 14.1536 13.9789 13.4407 14.3332 12.6138C14.4201 12.4113 14.3984 12.1676 14.2529 11.9813C13.7604 11.3504 13.0936 10.8985 12.4421 10.4486C12.1605 10.2538 11.7734 10.3141 11.5661 10.59L11.0255 11.4135C10.9654 11.5049 10.8462 11.5363 10.7513 11.482C10.3855 11.2729 9.85204 10.9162 9.46828 10.5324C9.08497 10.1491 8.74999 9.63982 8.56198 9.29755C8.51257 9.20755 8.53993 9.0964 8.62228 9.0352L9.45343 8.41798C9.70129 8.20342 9.74485 7.83898 9.56242 7.57205C9.1585 6.98112 8.68798 6.23008 8.00695 5.73333C7.82095 5.59765 7.58566 5.58242 7.3914 5.66567C6.56353 6.02047 5.84717 6.9291 5.88158 7.86425C5.90417 8.47801 6.14415 10.2162 7.96439 12.0364Z"/>
</svg>
